<svg width="72" height="72" viewBox="0 0 72 72" fill="none" xmlns="http://www.w3.org/2000/svg">
<path opacity="0.33" d="M32.7825 39.2175C35.565 42 40.0433 42 49 42C57.9567 42 62.435 42 65.2175 39.2175C68 36.435 68 31.9567 68 23C68 14.0433 68 9.56497 65.2175 6.78249C62.435 4 57.9567 4 49 4C40.0433 4 35.565 4 32.7825 6.78249C30 9.56497 30 14.0433 30 23C30 31.9567 30 36.435 32.7825 39.2175Z" fill="#5EB146"/>
<path fill-rule="evenodd" clip-rule="evenodd" d="M41.2963 11C42.094 11 42.7407 11.6447 42.7407 12.44L42.7407 14.84H45.1481C45.9459 14.84 46.5926 15.4847 46.5926 16.28C46.5926 17.0753 45.9459 17.72 45.1481 17.72H42.7407V20.12C42.7407 20.9153 42.094 21.56 41.2963 21.56C40.4986 21.56 39.8519 20.9153 39.8519 20.12L39.8519 17.72L37.4444 17.72C36.6467 17.72 36 17.0753 36 16.28C36 15.4847 36.6467 14.84 37.4444 14.84H39.8519L39.8519 12.44C39.8519 11.6447 40.4986 11 41.2963 11ZM51.4074 16.28C51.4074 15.4847 52.0541 14.84 52.8519 14.84H60.5556C61.3533 14.84 62 15.4847 62 16.28C62 17.0753 61.3533 17.72 60.5556 17.72H52.8519C52.0541 17.72 51.4074 17.0753 51.4074 16.28ZM42.0556 27.8C42.0556 27.0047 42.7023 26.36 43.5 26.36H60.5556C61.3533 26.36 62 27.0047 62 27.8C62 28.5953 61.3533 29.24 60.5556 29.24H43.5C42.7023 29.24 42.0556 28.5953 42.0556 27.8ZM42.0556 33.56C42.0556 32.7647 42.7023 32.12 43.5 32.12H60.5556C61.3533 32.12 62 32.7647 62 33.56C62 34.3552 61.3533 35 60.5556 35H43.5C42.7023 35 42.0556 34.3552 42.0556 33.56Z" fill="#5EB146"/>
<path fill-rule="evenodd" clip-rule="evenodd" d="M38.7086 35.9994C37.9719 35.8152 37.2254 36.2631 37.0412 36.9998L36.3409 39.8009C35.2229 44.2729 31.6999 47.7401 27.2202 48.7917H12.7085C8.87493 48.7917 5.64822 51.661 5.2003 55.4683L4.00959 65.5893C3.92087 66.3435 4.46033 67.0269 5.21452 67.1156C5.96871 67.2043 6.65203 66.6648 6.74076 65.9107L7.93147 55.7896C8.21645 53.3673 10.2694 51.5417 12.7085 51.5417H27.5261L27.6734 51.5089C33.238 50.2724 37.6263 45.998 39.0088 40.4679L39.7091 37.6668C39.8933 36.9301 39.4454 36.1836 38.7086 35.9994Z" fill="#5EB146"/>
<path opacity="0.5" d="M27.3752 51.5415V59.3332C27.3752 62.7901 27.3752 64.5186 26.3013 65.5926C25.2274 66.6665 23.4989 66.6665 20.0419 66.6665C16.5849 66.6665 14.8565 66.6665 13.7825 65.5926C12.7086 64.5186 12.7086 62.7901 12.7086 59.3332V51.5415H27.3752Z" fill="#5EB146"/>
<circle cx="7.33333" cy="7.33333" r="7.33333" transform="matrix(-1 0 0 1 27.3752 30)" fill="#5EB146"/>
</svg>
