<svg width="72" height="73" viewBox="0 0 72 73" fill="none" xmlns="http://www.w3.org/2000/svg">
<g id="Icons / Erasmus">
<circle id="Vector" cx="36" cy="44.5" r="22" fill="#5EB146"/>
<path id="Vector_2" opacity="0.66" d="M28.5393 38.7487C28.1319 34.2013 24.6351 29.9641 22.9377 28.4138L22 27.6095C25.7823 24.4208 30.663 22.5 35.9909 22.5C40.8062 22.5 45.2561 24.0689 48.8601 26.7249C49.3693 28.2751 48.3994 31.5143 47.381 33.0645C47.0121 33.626 46.1755 34.3231 45.2584 34.9839C43.1906 36.4739 40.581 37.2109 39.2542 39.9544C38.8749 40.7386 38.8911 41.5053 39.0736 42.1717C39.2047 42.6508 39.2886 43.1715 39.2899 43.6808C39.2941 45.3279 37.6332 46.5178 35.9909 46.4998C31.7175 46.453 28.9201 42.9992 28.5393 38.7487Z" fill="#F8FFF4"/>
<path id="Vector_3" d="M34.3542 28.1419C35.399 28.6194 36.601 28.6194 37.6458 28.1419C42.1275 26.0937 45 20.366 45 15.4576C45 10.5105 40.9706 6.5 36 6.5C31.0294 6.5 27 10.5105 27 15.4576C27 20.366 29.8725 26.0937 34.3542 28.1419Z" fill="#5EB146"/>
<path id="Vector_4" fill-rule="evenodd" clip-rule="evenodd" d="M37.2157 10.7045C36.4351 10.4318 35.5649 10.4318 34.7842 10.7045L32.0291 11.667C31.3926 11.8894 31 12.4321 31 13.0312C31 13.6304 31.3926 14.1731 32.0291 14.3955L32.1765 14.447V17.1939C32.1765 17.9511 32.64 18.6886 33.4479 18.9736C34.0657 19.1917 35.0835 19.5 36 19.5C36.9165 19.5 37.9343 19.1917 38.5521 18.9736C39.36 18.6886 39.8235 17.9512 39.8235 17.1939V14.447L39.9709 14.3955C40.6074 14.1731 41 13.6304 41 13.0313C41 12.4321 40.6074 11.8894 39.9709 11.667L37.2157 10.7045ZM33.9412 15.0634V17.1939C33.9412 17.3119 34.0081 17.3726 34.0588 17.3905C34.6484 17.5986 35.4166 17.8125 36 17.8125C36.5834 17.8125 37.3516 17.5986 37.9412 17.3905C37.9919 17.3726 38.0588 17.3119 38.0588 17.1939V15.0635L37.2158 15.358C36.4351 15.6307 35.5649 15.6307 34.7843 15.358L33.9412 15.0634ZM36.6102 12.2896C36.2206 12.1535 35.7794 12.1535 35.3898 12.2896L33.2667 13.0312L35.3898 13.7729C35.7794 13.909 36.2206 13.909 36.6102 13.7729L38.7333 13.0313L36.6102 12.2896Z" fill="#F8FFF4"/>
<path id="Vector_5" opacity="0.66" d="M38.9782 58.1233C41.1928 53.8246 48.5746 53.8246 48.5746 53.8246C56.2663 53.7419 57.3054 48.9314 58 46.5C56.7568 56.8455 48.8685 65.0695 38.8707 66.5C38.1477 64.9326 37.2912 61.398 38.9782 58.1233Z" fill="#F8FFF4"/>
</g>
</svg>
