<svg width="95" height="60" viewBox="0 0 95 60" fill="none" xmlns="http://www.w3.org/2000/svg">
<g clip-path="url(#clip0_829_22032)">
<path d="M0 14.0175L39.0402 5.67687V3.6463L0 11.9869V14.0175Z" fill="#5EB146"/>
<path d="M0 10.3712L39.0402 2.03057V0L0 8.34061V10.3712Z" fill="#5EB146"/>
<path d="M0 17.5982L37.0719 9.67247V33.6463C36.7042 33.4934 36.4231 33.3188 36.2068 33.1878C35.7526 32.9039 34.8225 32.3144 33.5681 32.3144C32.3136 32.3144 31.3835 32.9039 30.9293 33.1878C30.5184 33.4498 29.8479 33.8646 28.9395 33.8646C28.0311 33.8646 27.3606 33.4498 26.9496 33.1878C26.4954 32.9039 25.5654 32.3144 24.3109 32.3144C23.0564 32.3144 22.1264 32.9039 21.6722 33.1878C21.2612 33.4498 20.5907 33.8646 19.6607 33.8646H19.5309C18.6225 33.8646 17.952 33.4498 17.541 33.1878C17.0868 32.9039 16.1568 32.3144 14.9023 32.3144C13.6478 32.3144 12.7178 32.9039 12.2636 33.1878C11.8526 33.4498 11.1821 33.8646 10.2737 33.8646C9.36531 33.8646 8.69482 33.4498 8.28387 33.1878C7.82966 32.9039 6.89962 32.3144 5.64514 32.3144C4.39067 32.3144 3.46062 32.9039 3.00642 33.1878C2.7685 33.3406 2.42244 33.5589 2.01149 33.6899V19.1921L0 19.607V37.1616C0 37.4781 0.0108144 37.7904 0.0237918 38.1004H0.0216289L0.0259547 38.1397C0.787292 53.524 19.3384 59.9367 19.5093 60.0022C19.7039 59.9367 39.0402 53.2554 39.0402 37.1637V7.22705L0 15.5677V17.5982ZM37.0719 37.1616C37.0719 37.2664 37.0676 37.3668 37.0654 37.4716L23.7053 40.31C23.6101 39.9672 23.4695 39.6463 23.29 39.3471L37.0568 36.4257C37.0676 36.8864 37.0676 37.1637 37.0676 37.1637L37.0719 37.1616ZM31.1175 50.5218L26.8306 51.4323C26.8847 51.3188 26.9323 51.1987 26.9712 51.0698C27.0296 50.8755 27.0686 50.6637 27.0751 50.4345L32.2335 49.3362C31.8723 49.7467 31.4982 50.1419 31.1153 50.5218H31.1175ZM15.7437 56.1463C15.3003 55.9126 14.8353 55.6572 14.3551 55.3777L19.1632 54.3559V54.3668L20.0284 54.1921V54.1725L25.1782 53.0786H27.0361V52.6834L29.2488 52.214C28.6042 52.7467 27.951 53.2423 27.3043 53.6987L15.7415 56.1463H15.7437ZM27.0058 53.9061C26.1299 54.5109 25.2669 55.0436 24.4536 55.5065L17.461 56.9956C17.0025 56.7838 16.4942 56.5371 15.947 56.2533L27.0058 53.9061ZM7.22189 49.7991L14.6903 48.2118L14.2297 49.4607L8.15193 50.7489C7.83615 50.4432 7.52469 50.1266 7.22189 49.7991ZM20.0284 37.4236L19.1632 37.5982V37.6091L2.43325 41.1681C2.35322 40.8297 2.28185 40.4847 2.22129 40.1332L26.556 34.965C26.9907 35.2205 27.6439 35.5436 28.4636 35.631L20.0327 37.4236C20.0327 37.4236 20.0284 37.4236 20.0262 37.4236H20.0284ZM19.1632 37.7554V38.9039L14.0761 39.9825L13.9074 39.6943H13.172L13.4315 40.1179L2.7685 42.3777C2.65603 42.0262 2.55654 41.6659 2.46569 41.3013L19.1654 37.7554H19.1632ZM22.3729 39.3864L20.0284 39.8843V38.8668L21.4213 38.5698C21.789 38.7773 22.1134 39.0546 22.3729 39.3864ZM23.0564 41.3755C23.0564 41.4607 23.0499 41.5458 23.0434 41.6288L20.0284 42.2707V41.2358L22.9634 40.6135C23.0218 40.8581 23.0564 41.1135 23.0564 41.3755ZM21.298 44.2445L20.0284 44.5153V43.5174L22.639 42.9629C22.3275 43.5131 21.8625 43.9607 21.298 44.2467V44.2445ZM25.282 48.4454C25.3426 48.4672 25.3988 48.4891 25.4572 48.5153C25.6735 48.6244 25.8682 48.7773 25.9979 48.9519C26.0736 49.0546 26.1407 49.1725 26.1991 49.2969L22.9418 49.9891C22.985 49.4978 23.1278 49.1222 23.3743 48.8493L25.282 48.4454ZM23.5993 48.6506C23.8805 48.4476 24.2352 48.3406 24.6569 48.3406C24.7586 48.3406 24.8538 48.3515 24.9468 48.3646L23.5993 48.6506ZM26.3007 49.5633C26.3656 49.8035 26.3873 50.0218 26.3873 50.262C26.3873 50.3209 26.3851 50.3777 26.3808 50.4345L23.0694 51.1397C23.0694 51.1397 23.0607 51.1222 23.0564 51.1135C22.9699 50.8952 22.9266 50.6332 22.9266 50.3057C22.9266 50.2489 22.9288 50.1965 22.931 50.1419L26.2575 49.4367C26.2726 49.4781 26.2878 49.5196 26.3007 49.5611V49.5633ZM25.8682 51.6375L23.954 52.0436C23.9281 52.0327 23.9043 52.0218 23.8783 52.0087C23.7053 51.9214 23.5539 51.8122 23.4025 51.6594C23.3073 51.5458 23.21 51.4214 23.1321 51.2751L26.3656 50.5851C26.344 50.7642 26.3029 50.9301 26.2359 51.0698C26.1277 51.2882 26.0196 51.4847 25.8682 51.6375ZM24.9165 52.1397V52.9738L24.3758 53.0895V52.1615C24.3303 52.155 24.2871 52.1485 24.2438 52.1397L25.6 51.8515C25.5329 51.8974 25.4659 51.9388 25.3923 51.965C25.2193 52.0524 25.0679 52.0961 24.9165 52.1397ZM20.0284 50.7576L22.2778 50.2816C22.2778 50.2816 22.2778 50.2969 22.2778 50.3057C22.2778 50.5677 22.2994 50.8078 22.3643 51.0262C22.3902 51.1113 22.4205 51.1921 22.453 51.2707L20.0284 51.7882V50.7576ZM19.1632 51.9716L16.8316 52.4672L16.4791 51.5087L19.1632 50.9388V51.9694V51.9716ZM22.5135 51.4061C22.5481 51.4781 22.5827 51.5502 22.6238 51.6157C22.732 51.7904 22.8401 51.9432 22.9915 52.0742C23.0499 52.1244 23.104 52.1703 23.1602 52.2118L20.0284 52.8777V51.9367L22.5135 51.4061ZM23.3397 52.3319C23.3744 52.3493 23.4068 52.3668 23.4436 52.3799L23.8329 52.4454V52.6419L23.1408 52.5764H22.2756V53.1004H24.3239L20.0262 54.0131V53.0349L23.3397 52.3297V52.3319ZM22.4486 49.2576C22.3578 49.5153 22.2994 49.8078 22.2821 50.1288L20.0262 50.6091V49.5611L22.5481 49.0262C22.5114 49.1004 22.4789 49.1768 22.4486 49.2576ZM19.161 50.7926L16.4271 51.3733L16.0681 50.4017L19.161 49.7445V50.7926ZM14.779 49.5043L15.1164 49.4323L15.1381 49.5196L15.4538 50.3821L14.3875 50.6091L14.7704 49.5415L14.779 49.5043ZM14.8158 49.3384L14.9456 48.7336L15.0818 49.2816L14.818 49.3384H14.8158ZM15.5058 50.5218L15.722 51.1157H14.208L14.3313 50.7707L15.5058 50.5218ZM15.0775 51.6616L13.9247 51.9061L14.0134 51.6616H15.0775ZM16.0184 50.2664L15.6701 49.3188L19.1632 48.5786V49.5982L16.0205 50.2664H16.0184ZM15.6139 49.1703L15.2203 48.1026L19.161 47.2664V48.4192L15.6139 49.1703ZM20.0262 47.0808L20.9757 46.8799H26.424L20.0262 48.2358V47.0808ZM20.0262 46.9367V46.8799H20.2944L20.0262 46.9367ZM18.9404 45.9629H13.8858L19.161 44.845V45.917L18.9404 45.9629ZM20.0262 43.3712V42.4279L23.024 41.7904C22.9785 42.1484 22.8747 42.4869 22.7233 42.7969L20.024 43.3712H20.0262ZM16.4142 39.6965L15.7264 40.7991L14.6839 41.0196L14.154 40.1179L19.161 39.0524V40.0699L16.4834 40.6375L17.0847 39.6943H16.4142V39.6965ZM15.6161 40.976L15.3111 41.465L15.1381 41.8799L14.9434 41.465L14.7639 41.1572L15.6161 40.976ZM16.3709 40.8166L19.161 40.2249V41.2773L15.5944 42.0349L16.3709 40.8188V40.8166ZM19.161 41.4214V42.4563L16.0551 43.1157L15.4841 42.2074L15.4885 42.2009L19.161 41.4214ZM15.0948 42.5786L15.2895 43.0371L15.4236 43.2511L14.6579 43.4126L14.898 43.0371L15.0926 42.5786H15.0948ZM15.5101 43.3886L16.0335 44.2205L13.8425 44.6856L14.5433 43.5917L15.5101 43.3864V43.3886ZM16.1416 43.2554L19.161 42.6135V43.5568L16.6651 44.0873L16.1416 43.2554ZM20.0262 41.0939V40.0415L22.4659 39.524C22.6671 39.81 22.825 40.131 22.9266 40.4781L20.0262 41.0939ZM20.0262 38.7249V38.1703C20.4523 38.1921 20.8567 38.2991 21.2223 38.4716L20.0262 38.7249ZM13.5116 40.2576L14.0588 41.1572L3.14917 43.4738C3.02805 43.1659 2.91558 42.8537 2.81176 42.5349L13.5094 40.2598L13.5116 40.2576ZM14.141 41.2926L14.7098 42.2249L3.62717 44.5786C3.47793 44.262 3.33734 43.941 3.20757 43.6135L14.1431 41.2926H14.141ZM14.6428 42.3843L13.8663 43.5851L4.17438 45.6463C4.00567 45.3406 3.84346 45.0284 3.68989 44.7096L14.6428 42.3843ZM13.7495 43.7642L13.0422 44.8581L4.75403 46.6201C4.581 46.345 4.4123 46.0655 4.25224 45.7795L13.7517 43.762L13.7495 43.7642ZM13.5548 44.8952H13.7106L13.7344 44.8581L16.1135 44.3515L16.4553 44.8952H17.169L16.7429 44.2183L19.1589 43.7052V44.703L13.2174 45.965H11.3725V46.3581L5.42669 47.6222C5.22122 47.3384 5.02439 47.048 4.8319 46.7489L13.5527 44.8952H13.5548ZM11.3746 46.4978V46.8384H14.8288L6.22696 48.6659C5.98255 48.3646 5.74464 48.0567 5.51321 47.7402L11.3725 46.4978H11.3746ZM15.4474 46.8384H19.161V47.1222L15.1705 47.9694L15.1164 47.8209H14.8353L14.7487 48.0589L7.10726 49.679C6.83906 49.3864 6.57518 49.0851 6.31996 48.7751L15.4474 46.8384ZM14.1669 49.6397L13.7581 50.7489L9.20093 51.7183C8.8938 51.4498 8.591 51.1725 8.29036 50.8864L14.1691 49.6397H14.1669ZM13.6997 50.9083L13.2801 52.0458L10.3451 52.6681C10.0055 52.4017 9.66812 52.1222 9.33503 51.834L13.6997 50.9083ZM13.2217 52.2052L12.8908 53.1048H13.4964L13.8706 52.0677L15.7761 51.6637H15.8972L16.2346 52.6004L11.5779 53.5917C11.2167 53.334 10.8555 53.0655 10.4922 52.7816L13.2217 52.203V52.2052ZM16.2844 52.738L16.4163 53.1048H17.0652L16.8835 52.6113L19.1632 52.1266V53.0677L12.7913 54.4214C12.4431 54.1943 12.0906 53.9585 11.738 53.7074L16.2844 52.738ZM19.1632 53.2227V54.2009L14.1561 55.2642C13.7711 55.0371 13.3753 54.7947 12.9752 54.5371L19.1632 53.2227ZM26.8934 52.5568H26.1926L25.4788 52.6222V52.4257L25.9331 52.3821C26.0628 52.3166 26.2142 52.2074 26.344 52.0982C26.4738 51.9672 26.6035 51.8362 26.7117 51.6616C26.7225 51.6463 26.729 51.6266 26.7376 51.6113L30.9142 50.7227C30.4535 51.1703 29.982 51.596 29.5061 52L26.8955 52.5546L26.8934 52.5568ZM27.0772 50.2882C27.0729 49.941 27.0296 49.6135 26.928 49.3253C26.9258 49.3166 26.9215 49.3078 26.9172 49.2991L33.3799 47.9301C33.0641 48.3537 32.7353 48.762 32.3936 49.155L27.0772 50.2882ZM26.8609 49.1594C26.7593 48.9236 26.6273 48.7118 26.4521 48.5174C26.3591 48.4236 26.2618 48.3406 26.1558 48.262L34.3445 46.524C34.0828 46.9432 33.806 47.3515 33.5161 47.7467L26.8609 49.1594ZM25.985 48.1463C25.8941 48.0917 25.799 48.0393 25.6951 47.9934C25.3923 47.8624 25.0679 47.7969 24.6786 47.7969C24.3109 47.7969 23.9864 47.8624 23.6836 47.9716C23.3808 48.0808 23.1429 48.2554 22.9266 48.4738C22.825 48.5895 22.7276 48.7161 22.6433 48.8559L20.0284 49.4126V48.393L27.1572 46.8799H27.8796V46.7271L35.1037 45.1943C34.9004 45.5873 34.6819 45.9716 34.4548 46.345L25.985 48.1463ZM27.8796 46.572V46.0065H25.0895L35.7807 43.7358C35.6012 44.1746 35.4043 44.6048 35.1945 45.0218L27.8818 46.572H27.8796ZM24.4147 46.0065H20.0284V45.8646L36.2608 42.4236C36.1354 42.8188 35.9948 43.2052 35.8434 43.583L24.4147 46.0065ZM20.0284 45.7314V45.3297C21.1249 45.3078 22.1069 44.8275 22.8033 44.072L36.6112 41.1441C36.5204 41.5284 36.4187 41.9039 36.3041 42.2729L20.0284 45.7314ZM22.9634 43.893C23.2381 43.5567 23.4544 43.1725 23.6079 42.7576L36.8492 39.9432C36.7929 40.2969 36.7259 40.6441 36.648 40.9847L22.9612 43.893H22.9634ZM23.6663 42.5982C23.7658 42.286 23.8264 41.9585 23.8459 41.6179L36.9941 38.8275C36.9638 39.1528 36.9249 39.4738 36.8773 39.7904L23.6685 42.5982H23.6663ZM23.8545 41.4585C23.8545 41.4301 23.8588 41.4039 23.8588 41.3777C23.8588 41.0589 23.8156 40.7489 23.7442 40.4498L37.0654 37.6222C37.0568 37.9738 37.0373 38.3209 37.007 38.6637L23.8523 41.4607L23.8545 41.4585ZM37.0308 35.5262C37.0438 35.8035 37.0525 36.0546 37.059 36.2729L23.2143 39.2118C23.0045 38.8908 22.7493 38.6004 22.4594 38.3537L36.5658 35.3537C36.7129 35.4148 36.8686 35.4738 37.033 35.5262H37.0308ZM22.3124 38.2402C21.7976 37.8428 21.1855 37.5698 20.5172 37.4716L29.0822 35.6528C29.5818 35.6288 30.0231 35.5174 30.4016 35.3733L34.8528 34.4279C35.1188 34.5546 35.3416 34.6965 35.5147 34.8078C35.7071 34.9323 35.9991 35.1026 36.3582 35.2664L22.3102 38.2423L22.3124 38.2402ZM31.0137 35.0917C31.2256 34.9781 31.4008 34.8668 31.5349 34.7838C31.9459 34.5218 32.6164 34.107 33.5248 34.107C33.9401 34.107 34.3034 34.2009 34.6171 34.3253L31.0115 35.0917H31.0137ZM22.2778 34.762C22.6887 34.5 23.3592 34.0851 24.2676 34.0851C25.176 34.0851 25.8682 34.5218 26.2575 34.7838C26.2921 34.8057 26.331 34.8297 26.3721 34.8559L2.1975 39.9869C2.14126 39.6463 2.09584 39.3035 2.05907 38.9519L18.3867 35.4803C18.722 35.572 19.0962 35.6354 19.5093 35.6354H19.639C20.8935 35.6354 21.8236 35.0458 22.2778 34.762ZM16.8489 34.762C17.1149 34.9279 17.5432 35.1965 18.1056 35.393L2.04826 38.8188C2.01798 38.4978 1.99418 38.1747 1.98337 37.845L16.771 34.7118C16.797 34.7292 16.8251 34.7467 16.8511 34.762H16.8489ZM1.96823 35.572L7.13321 34.465C7.31057 34.5611 7.46413 34.6594 7.59174 34.7402C7.78857 34.8624 8.07407 35.0436 8.43743 35.2074L1.96823 36.5939V35.572ZM3.61203 34.7183C4.02298 34.4563 4.69347 34.0415 5.60188 34.0415C6.11882 34.0415 6.55572 34.1834 6.91476 34.3537L2.4246 35.3166C2.95883 35.1222 3.37411 34.8733 3.61203 34.7183ZM1.96823 37.1637V36.7336L8.68184 35.31C9.11442 35.4803 9.63567 35.6135 10.2305 35.6135C11.4849 35.6135 12.415 35.024 12.8692 34.7402C13.2801 34.4781 13.9506 34.0633 14.8591 34.0633C15.5879 34.0633 16.1633 34.345 16.5742 34.5917L1.97688 37.6878C1.97256 37.5131 1.96823 37.3406 1.96823 37.1637ZM17.7011 57.107L23.9951 55.7664C21.8906 56.9301 20.1798 57.6135 19.5093 57.8624C19.161 57.7314 18.5273 57.4825 17.7011 57.107Z" fill="#5EB146"/>
<path d="M5.25583 22.3362L3.20108 23.1878L5.40723 22.8821L3.63366 24.2358L5.68841 23.3843L4.32579 25.1528L6.07773 23.7991L5.2342 25.8515L6.57519 24.083L6.27239 26.2882L7.11592 24.214L7.39709 26.441L7.69989 24.214L8.52179 26.2882L8.24062 24.083L9.58161 25.8515L8.73808 23.7991L10.49 25.1528L9.1274 23.3843L11.1821 24.2358L9.40858 22.8821L11.6147 23.1878L9.55998 22.3362L11.7661 22.0524L9.55998 21.7686L11.6147 20.917L9.40858 21.2009L11.1821 19.8472L9.1274 20.7205L10.49 18.952L8.73808 20.3057L9.58161 18.2533L8.24062 20.0218L8.52179 17.7948L7.69989 19.869L7.39709 17.6638L7.11592 19.869L6.27239 17.7948L6.57519 20.0218L5.2342 18.2533L6.07773 20.3057L4.32579 18.952L5.68841 20.7205L3.63366 19.8472L5.40723 21.2009L3.20108 20.917L5.25583 21.7686L3.04968 22.0524L5.25583 22.3362Z" fill="#5EB146"/>
<path d="M30.194 24.1266C30.7563 24.5197 31.4268 24.738 32.1622 24.738C34.1088 24.738 35.6661 23.1659 35.6661 21.2009C35.6661 19.2358 34.0872 17.6638 32.1622 17.6638C31.4268 17.6638 30.7563 17.9039 30.194 18.2751C31.6431 18.4498 32.7462 19.6943 32.7462 21.2009C32.7462 22.7074 31.6215 23.9301 30.194 24.1266Z" fill="#5EB146"/>
<path d="M14.1237 27.6856C14.2751 28.0786 14.1453 28.5371 13.9723 28.9083C16.1568 26.8777 23.0564 20.6769 28.1176 17.9694C27.9229 17.8384 27.4471 17.5764 26.4954 17.5764C24.6569 17.5764 23.3376 18.5589 23.3376 18.5589L13.6046 26.6812C14.5562 26.7904 14.7509 27.7074 14.7509 27.7074C14.7509 27.7074 14.0588 26.3974 12.8259 27.3581C12.8259 27.3581 13.8641 26.9432 14.1237 27.6856Z" fill="#5EB146"/>
<path d="M11.3984 32.0305C11.6363 31.8995 12.0473 31.5502 12.2203 31.5502C12.4799 31.5502 12.5447 31.6157 12.8259 31.4629L14.4481 29.8253L16.4163 29.7816L25.1111 22.9257C25.1111 22.9257 26.5386 21.8995 27.0577 19.9781C27.274 19.1485 27.6201 18.6463 27.8796 18.3624C22.3859 21.3974 14.9888 28.2533 13.6694 29.5196C13.5829 29.6506 13.518 29.7161 13.518 29.7161L11.247 32.0305C11.2254 32.0305 11.2686 32.1179 11.3984 32.0305Z" fill="#5EB146"/>
<path d="M15.097 21.9651C14.686 22.1616 14.2967 22.2489 13.9506 22.2707L16.2217 24.0611L20.5042 20.4803L16.8273 17.5764C14.2967 17.9039 12.415 20.4585 13.2152 21.6376C13.7776 22.0306 14.513 21.7686 14.9239 21.5721C15.9405 21.0699 16.7408 20.131 16.7408 19.6288C16.7408 19.4978 16.6759 19.3886 16.5461 19.3231C16.0054 19.0611 14.9239 19.8908 14.5995 20.1965C14.5995 20.1965 15.854 18.5371 16.7191 18.952C17.0003 19.083 17.1517 19.3231 17.1517 19.607C17.1517 20.4585 16.0919 21.5065 15.097 21.9651Z" fill="#5EB146"/>
<path d="M24.6353 23.7554L20.2446 27.227L25.4572 31.31C25.9979 31.4629 27.2308 31.4192 27.9445 29.869C28.6583 28.3188 27.274 27.8821 27.274 27.8821L28.4852 26.7685L24.6353 23.7554Z" fill="#5EB146"/>
<path d="M43.5563 12.0677H44.934C44.934 12.0677 47.1834 12.0677 47.1834 9.79694C47.1834 7.52619 44.934 7.53711 44.934 7.53711H42.6846V15.1201H43.5563V12.0699V12.0677ZM43.5563 8.40392H44.934C44.934 8.40392 46.314 8.40392 46.314 9.79475C46.314 11.1856 44.934 11.1987 44.934 11.1987H43.5563V8.40392Z" fill="#5EB146"/>
<path d="M51.1134 13.8952L51.4443 15.1201H52.316L50.3088 7.52618H49.1625L47.1661 15.1201H48.0378L48.3579 13.8952H51.1156H51.1134ZM49.647 8.46068H49.8243L50.8712 13.0262H48.6001L49.647 8.46068Z" fill="#5EB146"/>
<path d="M54.0852 12.0677H54.9244L56.6007 15.1179H57.5934C57.0852 14.1943 56.3476 12.869 55.8848 12.0109C56.6353 11.81 57.7146 11.2642 57.7146 9.79474C57.7146 7.53491 55.4652 7.53491 55.4652 7.53491H53.2158V15.1179H54.0874V12.0677H54.0852ZM54.0852 8.40391H55.463C55.463 8.40391 56.8429 8.40391 56.8429 9.79474C56.8429 10.9869 55.8177 11.1637 55.5409 11.1856L54.0852 11.1965V8.40172V8.40391Z" fill="#5EB146"/>
<path d="M60.07 15.1201H60.9416V8.4061H62.7606V7.53711H58.2618V8.4061H60.07V15.1201Z" fill="#5EB146"/>
<path d="M64.5255 7.52618H63.6539V15.1201H64.5255V7.52618Z" fill="#5EB146"/>
<path d="M68.1138 15.1201C70.3632 15.1201 70.3632 12.8494 70.3632 12.8494V7.53931H69.4915V12.8494C69.4915 12.8494 69.4915 14.2533 68.1116 14.2533C66.7317 14.2533 66.7338 12.8494 66.7338 12.8494V7.53931H65.8622V12.8494C65.8622 12.8494 65.8622 15.1201 68.1116 15.1201H68.1138Z" fill="#5EB146"/>
<path d="M72.5693 9.03933L74.5656 12.5131C75.1172 11.5219 75.7228 10.4869 76.5512 9.03933V15.1179H77.412V7.52405H76.4754C75.9131 8.46946 75.1085 9.84064 74.5678 10.7424L72.6493 7.52405H71.7128V15.1179H72.5736V9.03933H72.5693Z" fill="#5EB146"/>
<path d="M44.7156 25.8188C46.9542 25.8188 46.9542 23.7249 46.9542 23.7249H46.0825C46.0825 23.7249 46.0825 24.9498 44.7156 24.9498C43.3486 24.9498 43.3378 23.5459 43.3378 23.5459V20.4847C43.3378 20.4847 43.3378 19.0939 44.7156 19.0939C46.0934 19.0939 46.0825 20.3188 46.0825 20.3188H46.9542C46.9758 20.3188 46.9542 18.2249 44.7156 18.2249C42.477 18.2249 42.4662 20.4847 42.4662 20.4847V23.5459C42.4662 23.5459 42.4662 25.8166 44.7156 25.8166V25.8188Z" fill="#5EB146"/>
<path d="M48.9613 22.155H51.719V25.8188H52.5906V18.2249H51.719V21.286H48.9613V18.2249H48.0897V25.8188H48.9613V22.155Z" fill="#5EB146"/>
<path d="M58.3807 25.8187C57.8725 24.8952 57.1349 23.5698 56.6721 22.7118C57.4226 22.5109 58.5019 21.965 58.5019 20.4956C58.5019 18.2358 56.2525 18.2358 56.2525 18.2358H54.0031V25.8187H54.8747V22.7685H55.7139L57.3901 25.8187H58.3829H58.3807ZM54.8725 21.8995V19.1048H56.2503C56.2503 19.1048 57.6302 19.1048 57.6302 20.4956C57.6302 21.6877 56.605 21.8646 56.3282 21.8864L54.8725 21.8974V21.8995Z" fill="#5EB146"/>
<path d="M60.4787 18.2249H59.6071V25.8188H60.4787V18.2249Z" fill="#5EB146"/>
<path d="M63.8225 24.9607H62.1788V25.8188H63.8225C65.0684 25.8188 66.072 25.1398 66.072 23.9149C66.072 22.19 62.5529 21.3865 62.5529 20.1288C62.5529 19.0939 63.8204 19.0939 63.8204 19.0939H65.4534V18.2249H63.8204C62.5746 18.2249 61.571 18.893 61.571 20.1288C61.571 21.8887 65.0684 22.6572 65.0792 23.9149C65.09 24.9498 63.8225 24.9607 63.8225 24.9607Z" fill="#5EB146"/>
<path d="M68.2435 25.8187H69.1151V19.1048H70.9363V18.2358H66.4353V19.1048H68.2435V25.8187Z" fill="#5EB146"/>
<path d="M72.699 18.2249H71.8274V25.8188H72.699V18.2249Z" fill="#5EB146"/>
<path d="M76.735 18.2249H75.5887L73.5923 25.8188H74.464L74.7841 24.5939H77.5418L77.8727 25.8188H78.7444L76.7372 18.2249H76.735ZM75.0263 23.7249L76.0732 19.1594H76.2505L77.2974 23.7249H75.0263Z" fill="#5EB146"/>
<path d="M80.5136 20.0175L83.2172 25.8188H84.1429V18.2249H83.2712V23.9476L80.5698 18.2249H79.6419V25.8188H80.5136V20.0175Z" fill="#5EB146"/>
<path d="M46.2037 34.2446C46.2037 34.2446 46.2037 35.6485 44.8237 35.6485C43.4438 35.6485 43.446 34.2446 43.446 34.2446V28.9345H42.5743V34.2446C42.5743 34.2446 42.5743 36.5153 44.8237 36.5153C47.0732 36.5153 47.0732 34.2446 47.0732 34.2446V28.9345H46.2015V34.2446H46.2037Z" fill="#5EB146"/>
<path d="M52.0499 34.6463L49.3463 28.9236H48.4206V36.5175H49.2922V30.7162L51.9937 36.5175H52.9216V28.9236H52.0499V34.6463Z" fill="#5EB146"/>
<path d="M55.2013 28.9236H54.3297V36.5175H55.2013V28.9236Z" fill="#5EB146"/>
<path d="M58.729 34.8581L56.9965 28.9345H56.0924L58.4089 36.5175H59.0383L61.3547 28.9345H60.4593L58.729 34.8581Z" fill="#5EB146"/>
<path d="M62.2523 36.5175H66.1563V35.6485H63.124V32.8537H65.5399V31.9847H63.124V29.7904H66.1563V28.9236H62.2523V36.5175Z" fill="#5EB146"/>
<path d="M71.7885 31.1943C71.7885 28.9345 69.5391 28.9345 69.5391 28.9345H67.2897V36.5175H68.1613V33.4673H69.0005L70.6768 36.5175H71.6695C71.1612 35.5939 70.4237 34.2686 69.9608 33.4105C70.7114 33.2096 71.7907 32.6638 71.7907 31.1943H71.7885ZM69.6148 32.5873L68.1592 32.5983V29.8035H69.5369C69.5369 29.8035 70.9168 29.8035 70.9168 31.1943C70.9168 32.3865 69.8916 32.5633 69.6148 32.5873Z" fill="#5EB146"/>
<path d="M73.6702 30.8275C73.6702 29.7926 74.9376 29.7926 74.9376 29.7926H76.5706V28.9236H74.9376C73.6918 28.9236 72.6882 29.5917 72.6882 30.8275C72.6882 32.5873 76.1856 33.3559 76.1964 34.6135C76.2073 35.6485 74.9398 35.6594 74.9398 35.6594H73.296V36.5175H74.9398C76.1856 36.5175 77.1892 35.8384 77.1892 34.6135C77.1892 32.8886 73.6702 32.0852 73.6702 30.8275Z" fill="#5EB146"/>
<path d="M79.1661 28.9236H78.2944V36.5175H79.1661V28.9236Z" fill="#5EB146"/>
<path d="M80.0572 29.8035H81.8654V36.5175H82.737V29.8035H84.5582V28.9345H80.0572V29.8035Z" fill="#5EB146"/>
<path d="M89.0397 28.9236L87.4954 32.3515L85.9619 28.9236H84.9929L87.065 33.2424V36.5175H87.9366V33.2424L90 28.9236H89.0397Z" fill="#5EB146"/>
</g>
<defs>
<clipPath id="clip0_829_22032">
<rect width="90" height="60" fill="white"/>
</clipPath>
</defs>
</svg>
