<svg width="28" height="28" viewBox="0 0 28 28" fill="none" xmlns="http://www.w3.org/2000/svg">
<g id="Icons / Shortcuts">
<path id="Vector" d="M23.3891 4.61091C21.7782 3 19.1854 3 14 3C8.81455 3 6.22183 3 4.61091 4.61091C3 6.22183 3 8.81455 3 14C3 19.1854 3 21.7782 4.61091 23.3891C6.22183 25 8.81455 25 14 25C19.1854 25 21.7782 25 23.3891 23.3891C25 21.7782 25 19.1854 25 14C25 8.81455 25 6.22183 23.3891 4.61091Z" fill="white"/>
<path id="Vector_2" d="M18 10.8384C18 10.3753 17.6247 10 17.1616 10L12.4192 10C11.9562 10 11.5808 10.3753 11.5808 10.8384C11.5808 11.3014 11.9562 11.6767 12.4192 11.6767H15.1377L10.2455 16.5688C9.91815 16.8962 9.91815 17.4271 10.2455 17.7545C10.5729 18.0818 11.1038 18.0818 11.4312 17.7545L16.3233 12.8623L16.3233 15.5808C16.3233 16.0438 16.6986 16.4192 17.1616 16.4192C17.6247 16.4192 18 16.0438 18 15.5808L18 10.8384Z" fill="#5EB146"/>
</g>
</svg>
