<svg id="Layer_2" data-name="Layer 2" xmlns="http://www.w3.org/2000/svg" viewBox="0 0 142 118" width="142" height="118"><defs><style>.cls-1{fill:#005551;}</style></defs><title>lv</title><polygon class="cls-1" points="58.66 13.27 58.66 14.82 59.8 14.82 59.8 22.36 61.44 22.36 61.44 13.27 58.66 13.27"/><path class="cls-1" d="M63.16,19.54a3,3,0,0,0,6,.1,2.47,2.47,0,0,0-1.31-2.34,2.12,2.12,0,0,0,.73-1.71,2.43,2.43,0,1,0-4.85,0,2.05,2.05,0,0,0,.73,1.67,2.44,2.44,0,0,0-1.34,2.24M66.2,14.7a.94.94,0,0,1,.94.93,1,1,0,0,1-.94,1,1,1,0,0,1-1-1,1,1,0,0,1,1-.93m0,3.49a1.4,1.4,0,0,1,1.39,1.43,1.39,1.39,0,0,1-2.77,0,1.39,1.39,0,0,1,1.38-1.43"/><path class="cls-1" d="M73.37,22.58a3.16,3.16,0,0,0,3.13-3.23,3,3,0,0,0-.8-2.17,2.61,2.61,0,0,0-1.88-.86l-.45,0,2-3.09H73.47l-2.59,4a3.81,3.81,0,0,0-.66,2.1,3.15,3.15,0,0,0,3.15,3.25m0-4.75a1.57,1.57,0,0,1,1.52,1.61A1.5,1.5,0,0,1,73.36,21a1.53,1.53,0,0,1-1.51-1.61,1.5,1.5,0,0,1,1.5-1.54"/><path class="cls-1" d="M80.4,14.7A1.27,1.27,0,0,1,81.71,16a2.62,2.62,0,0,1-1.11,1.87l-3.13,2.92v1.55h5.87V20.81H79.76l1.73-1.55,1.14-1.21a3.15,3.15,0,0,0,.71-1.95,3,3,0,0,0-3-3,2.92,2.92,0,0,0-2.93,3v.34H79a1.45,1.45,0,0,1,1.4-1.71"/><path class="cls-1" d="M71,53.78l-3.54-3.55,1.38-6h4.32l1.37,6L71,53.78Zm-9.54-9.57H67l-1,4.48Zm8.62-5.45a2.9,2.9,0,0,0,1.84,0l.82,3.6H69.26l.82-3.6ZM71,34.32a1.4,1.4,0,1,1-1.43,1.4A1.42,1.42,0,0,1,71,34.32m9.54,9.89-4.47,4.48-1-4.48ZM85,42.36H74.63l-1.07-4.69a3.12,3.12,0,0,0,.7-2,3.26,3.26,0,0,0-6.52,0,3.12,3.12,0,0,0,.7,2l-1.07,4.69H57l8.43,8.46-2.19,9.61L64.31,64,67,52.37l4,4,4-4L77.68,64l1.07-3.6-2.19-9.61L85,42.36Z"/><path class="cls-1" d="M126.86,75.41h-7.19V73.5H125v-2l-6-3.22h-6.63V55.46h0v0L103.85,50c1.7-.39,3.18-.73,4.21-1,.7-.17,1.21-.29,1.49-.37h0a6.6,6.6,0,0,0,2.16-1.19l6,11.77v6.66h9.1v9.52Zm-16.4-15.53-8.56,3.77v9.17H99.29l-2.58,2.59H90.33V73.5h4.74l1.25-5.34-1.95-5.51,0-.07,6-6h10.09v3.35ZM88.21,51.66V49.73L100,47.08a11.15,11.15,0,0,0,1.89,1.11l.66.24L88.21,51.66Zm0-7.51h3.87a12,12,0,0,0,1.8,2.4l-5.67,1.28V44.15Zm7.07-12.7a9.72,9.72,0,0,1,5.94-2.82,10.92,10.92,0,0,0-2.92,17l0,0-2.14.48s-.66-.53-.84-.72a9.83,9.83,0,0,1,0-13.88m6.6-1.07a5.3,5.3,0,0,0-.31,1.79,5.44,5.44,0,0,0,4.86,5.42l.19,0h1.08a4.76,4.76,0,0,1,3.67,7.58,4.8,4.8,0,0,1-2.32,1.69,10.28,10.28,0,0,1-2.72.43,9,9,0,0,1-9-9.06,9,9,0,0,1,4.58-7.87m2.58-.76a3.54,3.54,0,0,1,2.3-1H116v1h0a.69.69,0,0,1-.69.69h-4.37a2.32,2.32,0,0,0-2.24,2.33,2.2,2.2,0,0,0,.62,1.58,2.36,2.36,0,0,0,1.3.64l.31,0h1.36v.41a.47.47,0,0,1-.48.48h-5a3.61,3.61,0,0,1-2.31-6.14m.36-6.2v-.2a2,2,0,0,1,.62.42,2.19,2.19,0,0,1,.63,1.54,2.16,2.16,0,0,1-.63,1.54,2.22,2.22,0,0,1-.62.43V23.42m-18.46,41L71,72.93h0L55.64,64.4V28.58H86.36V64.4ZM53.79,47.83l-5.67-1.28a11.83,11.83,0,0,0,1.8-2.41h3.87v3.69Zm0,3.83L39.5,48.43l.66-.24a11.15,11.15,0,0,0,1.89-1.11l11.74,2.65ZM29.65,55.44v0h0V68.31H23l-6,3.22v2h5.29v1.91H15.14V65.9h9.1V59.24l6-11.78a6.44,6.44,0,0,0,2.16,1.19h0c.28.08.79.2,1.5.37,1,.25,2.5.59,4.2,1l-8.5,5.43Zm12,1.09,6,6,0,.07-2,5.51,1.25,5.34h4.74v1.91H45.29l-2.58-2.59H40.1V63.65l-8.56-3.77V56.53ZM31.09,39a4.73,4.73,0,0,1,3.21-1.38h1.08l.19,0a5.44,5.44,0,0,0,4.86-5.42,5.3,5.3,0,0,0-.31-1.79,9,9,0,0,1,4.58,7.87,9.06,9.06,0,0,1-2.65,6.41,9,9,0,0,1-6.38,2.65A10.28,10.28,0,0,1,33,46.88,4.77,4.77,0,0,1,31.09,39m-1.37-3.72v-.41h1.67a2.44,2.44,0,0,0,1.3-.65,2.2,2.2,0,0,0,.62-1.57A2.33,2.33,0,0,0,32.6,31a2.3,2.3,0,0,0-1.54-.67H26.69a.7.7,0,0,1-.69-.69h0v-1h9.24a3.6,3.6,0,0,1,0,7.18h-5a.47.47,0,0,1-.48-.48m6.84-11.63a2,2,0,0,1,.62-.42v3.93a2.22,2.22,0,0,1-.62-.43,2.16,2.16,0,0,1-.63-1.54,2.19,2.19,0,0,1,.63-1.54m10.16,7.81a9.83,9.83,0,0,1,0,13.88c-.18.19-.84.72-.84.72l-2.14-.48,0,0a10.9,10.9,0,0,0-2.92-17,9.75,9.75,0,0,1,5.95,2.82M19.4,44.1a2.39,2.39,0,0,1-.7,1.7,2.6,2.6,0,0,1-.78.52,2,2,0,0,0,.28-1.14,2.92,2.92,0,0,0-1.31-2.1A2.38,2.38,0,0,1,16,41.26a2.33,2.33,0,0,1,.69-1.67,2.54,2.54,0,0,1,.46-.35,2.72,2.72,0,0,0-.06.58,2.77,2.77,0,0,0,1.21,2.29l.06,0a2.39,2.39,0,0,1,1,2m104.21-2,0,0a2.77,2.77,0,0,0,1.21-2.29,2.72,2.72,0,0,0-.06-.58,2.24,2.24,0,0,1,.46.35,2.33,2.33,0,0,1,.69,1.67,2.38,2.38,0,0,1-.85,1.82,2.92,2.92,0,0,0-1.31,2.1,2,2,0,0,0,.28,1.14,2.39,2.39,0,0,1-1.48-2.22,2.38,2.38,0,0,1,1-2M119.67,64V60.27a4.34,4.34,0,0,0,4.69-6.94h0c-.64-.79-5.18-5.88-5.18-5.88a5.19,5.19,0,0,1,.23-7.07A5.07,5.07,0,0,1,122,39a.8.8,0,0,1,1,.86.83.83,0,0,1-.31.65h0l0,0a4.31,4.31,0,1,0,5.22,6.85l0,0a1.16,1.16,0,0,1-.32,0,1.66,1.66,0,0,1-1.21-2.79v0a7.24,7.24,0,0,0,1-1.21,4.28,4.28,0,0,0-2.06-6A5.8,5.8,0,0,0,124,37a7,7,0,0,0-.92-.06A7.09,7.09,0,0,0,117.5,48.4c0,.06,4.78,5.4,5.38,6.13h0a2.45,2.45,0,0,1-.11,3.33,2.5,2.5,0,0,1-1.72.72A2.45,2.45,0,0,1,119,57.42v0l-5.89-11.47a6.6,6.6,0,0,0-1-8.36,2.31,2.31,0,0,0,2-2.29h0l0-1.29a1,1,0,0,0-.27-.67.94.94,0,0,0-.66-.27H111a.46.46,0,1,1,0-.92h4.31a2.54,2.54,0,0,0,2.53-2.55V26.72H107.61a3.92,3.92,0,0,0,.31-1.54,4,4,0,0,0-4-4,.92.92,0,0,0-.92.92c0,.36,0,.83,0,1.35,0,1.06,0,2.33,0,3.31h-1.23A11.65,11.65,0,0,0,91.26,42.36H88.21V26.74H53.79V42.36h-3A11.68,11.68,0,0,0,40.25,26.74s-.73,0-1.23,0c0-1,0-2.25,0-3.31,0-.52,0-1,0-1.35a.92.92,0,0,0-.92-.92,4,4,0,0,0-4,4,3.92,3.92,0,0,0,.31,1.54H24.16v2.86a2.54,2.54,0,0,0,2.53,2.55H31a.45.45,0,0,1,.46.46.46.46,0,0,1-.46.46H28.78a.92.92,0,0,0-.92.94l0,1.29h0a2.3,2.3,0,0,0,2,2.29,6.61,6.61,0,0,0-2.05,4.79,6.53,6.53,0,0,0,1.05,3.57L23,57.4v0a2.43,2.43,0,0,1-4.51-1.26,2.41,2.41,0,0,1,.6-1.61h0c.59-.73,5.34-6.07,5.38-6.13A7.09,7.09,0,0,0,19,36.94,7,7,0,0,0,18,37a5.3,5.3,0,0,0-1.29.32,4.26,4.26,0,0,0-2.06,6,7.24,7.24,0,0,0,1,1.21v0a1.62,1.62,0,0,1,.45,1.13,1.65,1.65,0,0,1-1.65,1.66,1.16,1.16,0,0,1-.32,0l0,0a4.31,4.31,0,1,0,5.22-6.85l0,0h0a.83.83,0,0,1-.31-.65A.8.8,0,0,1,20,39a5,5,0,0,1,2.6,1.41A5.11,5.11,0,0,1,24.1,44a5.22,5.22,0,0,1-1.27,3.41s-4.54,5.09-5.19,5.88h0a4.33,4.33,0,0,0,4.69,6.94V64h-9.1V77.32h11V71.58H21l2.49-1.36h8.05V62l6.66,2.93v9.83H42l2.58,2.59h9V71.59H48.44l-.78-3.34,2.15-6.12-7.48-7.5H34.47l6.29-4,13,3v12L71,75.11l17.21-9.58v-12l13-3,6.29,4H99.66l-7.47,7.5,2.15,6.12-.78,3.34H88.42v5.73h9L100,74.73h3.82V64.9L110.46,62v8.25h8.06L121,71.59h-3.25v5.73h11V64h-9.09Z"/><path class="cls-1" d="M6,90.56c3.36,0,5.16,1.59,5.16,4.29,0,2.32-1.61,3.9-4.32,4.16l4.34,5.64H7.74l-4.11-5.6H2.81v5.6H0V90.56ZM2.81,93.15V96.6h3.1c1.53,0,2.32-.56,2.32-1.75s-.83-1.7-2.32-1.7Z"/><path class="cls-1" d="M24.13,93.19H19.76v11.46H17V93.19H12.58V90.57H24.13v2.62Z"/><path class="cls-1" d="M38.23,99c0,3.89-2.49,5.88-6.07,5.88s-6.07-2-6.07-5.88V90.56h2.82v8.33c0,2.31,1.31,3.33,3.25,3.33s3.25-1,3.25-3.33V90.56h2.82V99Z"/><path class="cls-1" d="M52.62,90.56c3.36,0,5.16,1.59,5.16,4.29,0,2.32-1.61,3.9-4.32,4.16l4.34,5.64H54.4l-4.11-5.6h-.83v5.6h-2.8V90.56Zm-3.16,2.59V96.6h3.1c1.53,0,2.33-.56,2.33-1.75s-.84-1.7-2.33-1.7Z"/><path class="cls-1" d="M71.08,104.65H60.55V90.56H71v2.58H63.35v3.12h7.29v2.58H63.35v3.24h7.72v2.58ZM62.42,86.84h6.65v2.1H62.42Z"/><path class="cls-1" d="M84.56,92.76l-7.31,9.31h7.31v2.59h-11v-2.2l7.32-9.31h-7.3V90.57h11Z"/><path class="cls-1" d="M97.85,104.65H87.32V90.56H97.77v2.58H90.13v3.12h7.29v2.58H90.13v3.24h7.72v2.58Z"/><path class="cls-1" d="M105,98.86h-1.3v5.79h-2.81V90.56h2.81v5.71h1.33l4.66-5.71h3.52l-5.9,6.88,6.35,7.21h-3.65l-5-5.79Z"/><path class="cls-1" d="M128.07,104.65h-2.64l-7.15-9.4v9.4h-2.8V90.56h2.62l7.16,9.41V90.56h2.82v14.09Z"/><path class="cls-1" d="M142,104.65H131.47V90.56h10.45v2.58h-7.64v3.12h7.29v2.58h-7.29v3.24H142v2.58Z"/></svg>