<?xml version="1.0" encoding="UTF-8" standalone="no"?>
<svg
   version="1.2"
   viewBox="0 0 1155 1379"
   width="1155"
   height="1379"
   id="svg34"
   xmlns="http://www.w3.org/2000/svg"
   xmlns:svg="http://www.w3.org/2000/svg"
   xmlns:rdf="http://www.w3.org/1999/02/22-rdf-syntax-ns#"
   xmlns:cc="http://creativecommons.org/ns#"
   xmlns:dc="http://purl.org/dc/elements/1.1/">
  <title
     id="title22">globe-svg</title>
  <defs
     id="defs29">
    <linearGradient
       id="g1"
       x2="1"
       gradientUnits="userSpaceOnUse"
       gradientTransform="matrix(181.397,864.487,-863.884,181.27,687.686,181.72)">
      <stop
         offset="0"
         stop-color="#84c1ed"
         stop-opacity="1"
         id="stop24" />
      <stop
         offset=".973"
         stop-color="#268ad1"
         stop-opacity="0"
         id="stop26" />
    </linearGradient>
    <linearGradient
       id="paint0_linear_238_1339"
       x1="571.68597"
       y1="96.719803"
       x2="753.08301"
       y2="961.20697"
       gradientUnits="userSpaceOnUse"
       gradientTransform="translate(112.89518,86.10528)">
      <stop
         stop-color="#3858E9"
         id="stop11" />
      <stop
         offset="0.972576"
         stop-color="#268AD1"
         stop-opacity="0"
         id="stop13" />
    </linearGradient>
  </defs>
  <style
     id="style31">
		.s0 { opacity: .1;fill: none;stroke: url(#g1);stroke-linecap: round;stroke-linejoin: round;stroke-width: 2 } 
	</style>
  <path
     opacity="0.4"
     d="m 698.74418,97.61798 45.505,-4.93107 70.4,-4.92386 m -115.905,9.85493 -69.984,17.1306 -31.963,8.6672 m 101.947,-25.7978 -44.921,11.841 m 44.921,-11.841 59.682,-4.15994 m -161.629,29.95774 -61.935,23.5595 m 61.935,-23.5595 57.026,-13.9568 m -57.026,13.9568 -30.274,15.4113 m -31.661,8.1482 -15.64,9.8361 m 15.64,-9.8361 -62.936,31.6012 m 0,0 -0.847,2.4086 m 0.847,-2.4086 -60.031,37.6568 m 0,0 13.254,-6.439 m -13.254,6.439 -53.386,41.381 m 0,0 0.541,-0.336 25.313,-15.858 m -25.854,16.194 -42.629,41.849 -0.709,0.699 m 0,0 -30.797,30.775 -37.471,50.485 m 68.268,-81.26 -30.392,41.014 m 30.392,-41.014 36.186,-26.309 m -104.454,107.569 -31.889,43.849 m 31.889,-43.849 37.876,-40.246 m -37.876,40.246 -19.045,45.528 m -12.844,-1.679 -25.6809,46.958 -26.1212,61.878 m 51.8021,-108.836 -22.6934,53.91 m -29.1087,54.926 -22.4579,57.02 m 22.4579,-57.02 29.1087,-54.926 m -29.1087,54.926 0.6624,51.563 m -23.1203,5.457 -15.6747,58.526 m 15.6747,-58.526 0.4005,58.161 m -16.0752,0.365 -8.82489,59.434 m 8.82489,-59.434 0.181,64.334 m -9.00589,-4.9 -1.97821,59.752 0.0104,75.09 m 1.96778,-134.842 0.0445,70.006 m -2.01226,64.836 4.88565,63.922 m -4.88565,-63.922 2.01226,-64.836 m -2.01226,64.836 38.33417,56.396 m -33.44852,7.526 11.66552,62.374 m -11.66552,-62.374 40.14062,60.171 m -28.4751,2.203 18.2446,60.22602 m -18.2446,-60.22602 41.6795,63.39802 m -23.4349,-3.172 24.5783,57.514 m -24.5783,-57.514 42.9561,66.014 m -18.3778,-8.5 30.5962,54.28 44.6271,69.15 m -75.2233,-123.43 43.9423,67.94 m 31.281,55.49 36.617,51 m -36.617,-51 -31.281,-55.49 m 31.281,55.49 86.929,42.7 m -50.312,8.3 41.515,46.06 m -41.515,-46.06 86.879,43.34 m -45.364,2.72 45.949,40.72 m -45.949,-40.72 86.052,43.43 m -40.103,-2.71 49.869,35.06 m -49.869,-35.06 84.429,42.95 m -34.56,-7.89 53.258,29.12 78.812,40.29 m -132.07,-69.41 82.016,41.89 m 50.054,27.52 52.111,20.85 m -52.111,-20.85 -50.054,-27.52 m 50.054,27.52 110.88,12.86 m -58.769,7.99 53.618,14.08 m -53.618,-14.08 104.632,12.35 m -51.014,1.73 54.574,7.28 89.137,10.63 m -143.711,-17.91 97.361,11.6 m 46.35,6.31 45.891,-0.63 96.356,-11.41 m -142.247,12.04 107.789,-12.81 m -107.789,12.81 -46.35,-6.31 m 188.597,-5.73 32.709,-5.98 91.92403,-27.76 m -124.63303,33.74 -34.458,-0.77 m 34.458,0.77 105.67803,-31.93 m 18.955,-1.81 -18.955,1.81 m 18.955,-1.81 92.841,-43.67 m 0,0 -4.89,-4.82 m 4.89,4.82 86.62,-56.31 m 0,0 8.25,-13.35 m -8.25,13.35 73.75,-64.57 19.35,-23.03 m 0,0 63.61,-77.82 22.14,-37.35 m -85.75,115.17 14.49,-28.08 m -14.49,28.08 -84.85,74.25 m 170.6,-189.42 42.39,-84.128 20.47,-49.255 m -62.86,133.383 16.46,-41.41 m -16.46,41.41 -71.26,87.09 m 134.12,-220.473 14.14,-52.02902 m -14.14,52.02902 -46.4,91.973 m 60.54,-144.00202 12.9,-87.418 8.28,-59.14 m -21.18,146.558 7.57,-54.333 m -7.57,54.333 -50.04,98.86602 m 71.22,-245.42402 1.51,-59.953 m -1.51,59.953 -13.61,92.225 m 15.12,-152.178 -5.39,-60.186 m 5.39,60.186 -14.32,96.062 m 8.93,-156.248 -12.32,-59.823 m 12.32,59.823 -15.01,98.893 m 2.69,-158.716 -19.21,-58.853 m 19.21,58.853 -15.69,100.705 m -3.52,-159.558 -28.08,-79.502 -25.71,-56.794 m 53.79,136.296 -26,-57.274 m 26,57.274 -16.37,101.5 m -37.42,-237.796 -31.9,-53.877 m 31.9,53.877 27.79,79.022 m -59.69,-132.899 -37.86,-50.401 m 37.86,50.401 27.09,77.813 m -64.95,-128.214 -43.51,-46.384 m 43.51,46.384 26.01,75.92 m -69.52,-122.304 -48.78,-41.856 m 48.78,41.856 24.58,73.38 m -73.36,-115.236 -60.84,-45.764 -49.27,-33.7044 -0.85,-0.5863 m 110.96,80.0547 -53.62,-36.854 m 53.62,36.854 22.85,70.234 m -133.81,-150.2887 -53.907,-28.5811 m 53.907,28.5811 57.34,43.2007 m -111.247,-71.7818 -57.207,-22.5184 m 57.207,22.5184 53.287,40.3578 m -110.494,-62.8762 -59.98303,-16.1572 m 59.98303,16.1572 48.756,37.2661 m -108.73903,-53.4233 -69.472,-13.9759 -54.602,-8.06325 m 124.074,22.03915 -62.182,-9.5491 m 62.182,9.5491 43.82403,33.9437 m -167.89803,-55.98285 -55.685,-1.24268 m 55.685,1.24268 61.892,12.49005 m -117.577,-13.73273 -56.223,5.69499 m 56.223,-5.69499 53.799,10.96323 m -214.625,10.7327 -43.879,18.7722 m 43.879,-18.7722 48.401,-3.3152 m 56.202,-12.68574 -56.202,12.68574 m 56.202,-12.68574 45.285,9.39034 m 64.737,-4.1221 -64.737,4.1221 m 64.737,-4.1221 33.095,26.6493 m -33.095,-26.6493 63.778,2.7695 m -405.015,84.7605 12.356,-0.7314 m -12.356,0.7314 -14.768,3.553 m 14.768,-3.553 -37.914,38.889 m 37.914,-38.889 40.373,-32.3794 m -78.287,71.2684 13.078,27.041 m -13.078,-27.041 -25.347,-11.019 m 25.347,11.019 -9.578,-20.915 m 9.578,20.915 6.952,-29.208 m -6.952,29.208 50.27,-39.6204 m -50.27,39.6204 59.363,-37.461 m -59.363,37.461 64.563,-32.548 m -64.563,32.548 65.485,-25.192 m -65.485,25.192 62.043,-15.886 m -62.043,15.886 54.451,-5.262 m -54.451,5.262 43.211,5.952 m -43.211,-5.952 29.093,16.977 m -29.093,-16.977 -3.718,35.445 m 3.718,-35.445 -20.128,41.604 m 20.128,-41.604 -35.007,45.095 m 35.007,-45.095 -47.33,45.686 m 47.33,-45.686 -56.266,43.35 m 56.266,-43.35 -61.217,38.269 m 61.217,-38.269 -61.871,30.8 m 61.871,-30.8 -58.214,21.465 m 58.214,-21.465 -50.512,10.902 m 50.512,-10.902 -39.304,-0.169 m 39.304,0.169 23.146,-35.336 m 27.124,-4.2844 9.093,2.1594 m -9.093,-2.1594 52.637,-33.2054 m -24.62,1.5574 24.62,-1.5574 m -24.62,1.5574 -29.292,7.1076 m 29.292,-7.1076 42.36,-25.6457 m -97.501,61.5781 -16.194,6.128 m 16.194,-6.128 25.849,-28.8248 m 10.368,26.6998 5.2,4.913 m -5.2,-4.913 61.806,-31.2107 m -18.262,-4.1541 18.262,4.1541 m -18.262,-4.1541 54.419,-26.5215 m -36.679,2.4332 36.679,-2.4332 m -36.679,2.4332 -43.421,10.5959 m -28.231,22.1574 28.231,-22.1574 m -28.231,22.1574 -32.008,12.1494 m 104.182,-16.6603 10.601,9.6482 m -10.601,-9.6482 63.572,-24.6665 m -27.415,-6.0091 27.415,6.0091 m -27.415,-6.0091 55.601,-19.6542 m -135.701,32.6833 -47.301,17.9843 m 154.816,-25.0043 16.156,14.1913 m -16.156,-14.1913 64.641,-17.9158 m -36.455,-7.7475 36.455,7.7475 m 0,0 21.811,18.5389 m -21.811,-18.5389 65.032,-11.0429 m 0,0 27.481,22.6918 m -277.332,67.0571 0.922,7.356 m -0.922,-7.356 67.207,-26.4755 m 0,0 2.122,14.5541 m -2.122,-14.5541 69.127,-20.1234 m 0,0 3.592,21.5594 m -3.592,-21.5594 70.296,-13.5682 m 0,0 5.311,28.3339 m -5.311,-28.3339 70.702,-6.89 m 0,0 7.263,34.8465 m -7.263,-34.8465 70.351,-0.1646 m 0,0 9.4,41.06 m -9.4,-41.06 69.256,6.5193 m -38.573,-30.3991 38.573,30.3991 m 0,0 11.669,46.951 m -11.669,-46.951 67.43303,13.0937 m 0,0 14.017,52.4807 m -14.017,-52.4807 64.915,19.4796 m -409.36103,3.0896 -9.462,27.5625 m 9.462,-27.5625 -70.597,13.1181 m 70.597,-13.1181 72.015,-6.7937 m 0,0 72.654,-0.3774 m -72.654,0.3774 -11.95,36.3802 m 84.604,-36.7576 -14.07,44.9066 m 14.07,-44.9066 72.488,6.0489 m 0,0 -15.801,53.0787 m 15.801,-53.0787 71.525,12.4103 m 0,0 -17.147,60.8304 m 17.147,-60.8304 69.78103,18.6234 m 0,0 -18.13,68.095 m 18.13,-68.095 67.276,24.61 m -16.378,-57.6111 16.378,57.6111 m -16.378,-57.6111 61.738,25.6101 m -45.36,32.001 -18.776,74.819 m 18.776,-74.819 64.04,30.308 m -18.68,-62.309 18.68,62.309 m -18.68,-62.309 57.96,31.424 m -39.28,30.885 -19.11,80.924 m 19.11,-80.924 60.14,35.646 m -20.86,-66.531 20.86,66.531 m 0,0 -19.18,86.352 m 19.18,-86.352 55.61,40.557 m 0,0 -19.03,91.046 m 19.03,-91.046 50.51,45.002 m -795.04303,-173.639 -3.442,9.306 m 3.442,-9.306 68.407,-19.2774 m 0,0 -6.611,18.5144 m 207.807,6.103 -70.534,-8.149 m 70.534,8.149 -34.98,51.999 m 34.98,-51.999 70.757,14.221 m 0,0 70.179,20.162 m -70.179,-20.162 -40.675,61.609 m 110.854,-41.447 -45.792,70.74 m 45.792,-70.74 68.79803,25.888 m 0,0 -50.29003,79.302 m 50.29003,-79.302 66.63,31.334 m 0,0 -54.139,87.195 m 54.139,-87.195 63.706,36.413 m 0,0 -57.329,94.342 m 57.329,-94.342 60.07,41.074 m 0,0 -59.87,100.65 m 59.87,-100.65 55.76,45.251 m 0,0 -61.75,106.036 m 61.75,-106.036 50.85,48.891 m 18.69,-94.935 -18.69,94.935 m 18.69,-94.935 44.94,48.924 m -63.63,46.011 -63,110.435 m 63,-110.435 45.41,51.964 m 18.22,-97.975 -18.22,97.975 m 18.22,-97.975 38.94,52.294 m -57.16,45.681 -63.65,113.772 m 63.65,-113.772 39.5,54.426 m 17.66,-100.107 -17.66,100.107 m 17.66,-100.107 32.6,55.086 m -914.96503,-320.637 -7.592,10.624 m 7.592,-10.624 65.238,-10.069 m 799.46703,375.727 -63.7,116.003 m 63.7,-116.003 33.23,56.272 m 17.03,-101.293 -17.03,101.293 m -832.69703,-431.999 -14.981,21.228 m 14.981,-21.228 67.746,-4.07 m 764.95103,436.069 -63.19,117.082 m 63.19,-117.082 26.66,57.481 m 0,0 -62.16,116.98 m 62.16,-116.98 19.89,58.058 m -811.50103,-551.608 -22.063,31.715 m 22.063,-31.715 69.527,2.024 m 0,0 -28.757,42.003 m 783.73103,565.592 6.08,57.355 m -6.08,-57.355 -13,-58.011 m 13,58.011 -58.63,113.197 m 64.71,-55.842 -56.18,109.54 m 56.18,-109.54 -0.8,56.116 m -55.38,53.424 -8.53,-53.698 m 8.53,53.698 -95.51,114.94102 m 95.51,-114.94102 2.06,51.32602 m 53.32,-104.75002 -53.32,104.75002 m -541.25603,-712.54402 -65.062,-29.293 m 65.062,29.293 -71.877,75.589 m 71.877,-75.589 64.3,34.45 m 476.95603,678.09402 -4.29,48.449 m 4.29,-48.449 -90.53,109.555 m 86.24,-61.106 -84.79,103.066 m 84.79,-103.066 -10.5,45.136 m -462.16603,-771.67902 62.78103,39.227 m -62.78103,-39.227 -79.729,84.801 m 142.51003,-45.574 -86.68803,93.283 m 86.68803,-93.283 60.516,43.56 m 0,0 -92.68,100.923 m 92.68,-100.923 57.529,47.382 m 0,0 -97.651,107.62 m 97.651,-107.62 53.88,50.637 m 0,0 -101.58,113.29 m 101.58,-113.29 49.6,53.29 m 0,0 -104.44,117.844 m 104.44,-117.844 44.76,55.301 m 0,0 -106.21,121.22 m 106.21,-121.22 39.45,56.657 m -808.59703,-471.037 -11.24,11.214 m 11.24,-11.214 57.849,0.535 m 750.74803,470.502 -106.93,123.363 m 106.93,-123.363 33.74,57.351 m -784.48803,-527.853 -22.373,22.469 m 22.373,-22.469 60.664,6.417 m 723.82403,521.436 -106.61,124.236 m 106.61,-124.236 27.69,57.379 m -751.51403,-578.815 -33.264,33.658 m 33.264,-33.658 62.833,12.312 m 688.68103,566.503 -105.25,123.821 m 105.25,-123.821 21.07,55.845 0.35,0.917 m 60.63,-115.684 -60.63,115.684 m -710.10103,-623.265 -43.782,44.679 m 43.782,-44.679 64.311,18.145 m 645.79003,605.12 -102.92,122.12 m 102.92,-122.12 15,55.524 m 0,0 -99.65,119.15102 m -561.14003,-779.79502 -53.802,55.415 m 53.802,-55.415 65.062,23.831 m 0,0 -1.112,1.159 -62.087,64.597 m 580.43703,827.59602 -1.45,-41.96 m 1.45,41.96 -113.8,99.12 m 113.8,-99.12 -4.05,37.61 m 78.34,-95.54 -78.34,95.54 m -407.73303,-734.70902 -55.822,-47.709 m 55.822,47.709 -113.283,92.085 m 113.283,-92.085 54.52403,51.2 m 353.209,683.50902 -9.38,32.96 m 9.38,-32.96 -104.99,91.64 m 95.61,-58.68 -95.3,83.31 m -248.529,-799.77902 52.558,54.079 m -52.558,-54.079 -121.67203,99.545 m 174.23003,-45.466 -128.76203,106.038 m 128.76203,-106.038 49.951,56.307 m 0,0 -134.47803,111.471 m 134.47803,-111.471 46.74,57.844 m 0,0 -138.758,115.769 m 138.758,-115.769 42.99,58.677 m 0,0 -141.588,118.87 m 141.588,-118.87 38.73,58.8 m -712.90703,-583.186 -14.118,11.025 m 14.118,-11.025 46.716,11.79 m 666.19103,571.396 -142.924,120.727 m 142.924,-120.727 34.06,58.224 m -700.25103,-629.62 -28.233,22.12 m 28.233,-22.12 49.773,17.606 m 650.47803,612.014 -142.79,121.315 m 142.79,-121.315 29.05,56.964 m -679.52803,-668.978 -42.18,33.181 m 42.18,-33.181 52.315,23.333 m 627.21303,645.645 -141.23,120.62902 m 141.23,-120.62902 23.75,55.061 m -650.96303,-700.706 -55.797,44.086 m 55.797,-44.086 54.291,28.881 m 596.67203,671.825 -138.26,118.68302 m 138.26,-118.68302 18.27,52.55502 m -614.94203,-724.38002 -68.914,54.721 m 68.914,-54.721 55.665,34.172 m 559.27703,690.20802 -133.96,115.498 m 133.96,-115.498 12.67,49.488 m -571.94703,-739.69602 -81.372,64.957 m 81.372,-64.957 56.384,39.126 m 515.56303,700.57002 -128.38,111.13 m 128.38,-111.13 7.04,45.94 m 0,0 -121.63,105.65 m -400.97303,-852.16002 -93.01,74.679 m 93.01,-74.679 56.448,43.662 m 0,0 -103.693,83.76 m 462.56803,814.92802 -0.31,-24.63 m 0.31,24.63 -4.04,19.02 m 4.04,-19.02 -112.14,72.87 m 108.1,-53.85 -99.76,64.84 m -220.93303,-723.52202 -45.468,-60.572 m 45.468,60.572 -149.824,95.613 m 149.824,-95.613 44.235,61.74 m 0,0 42.46003,62.142 m -42.46003,-62.142 -156.826,100.273 m 199.28603,-38.131 -162.16603,103.881 m 162.16603,-103.881 40.16,61.778 m 0,0 -165.77203,106.393 m 165.77203,-106.393 37.394,60.657 m -584.10103,-692.888 -16.015,10.064 m 16.015,-10.064 32.601,22.885 m 551.50003,670.003 -167.62903,107.77802 m 167.62903,-107.77802 34.194,58.812 m -585.69403,-728.815 -32.1,20.194 m 32.1,-20.194 35.826,28.667 m 549.86803,700.148 -167.72703,108.02302 m 167.72703,-108.02302 30.61,56.27802 m -580.47803,-756.42602 -48.082,30.283 m 48.082,-30.283 38.698,34.238 m 541.78003,722.18802 -166.078,107.135 m 166.078,-107.135 26.72,53.115 m -568.50003,-775.30302 -63.763,40.208 m 63.763,-40.208 41.174,39.516 m 527.32603,735.78702 -162.735,105.13 m 162.735,-105.13 22.57,49.37 m -549.89603,-785.15702 -78.957,49.859 m 78.957,-49.859 43.207,44.408 m 506.68903,740.74902 -157.767,102.06 m 157.767,-102.06 18.25,45.12 m -524.93903,-785.86902 -93.475,59.12 m 93.475,-59.12 44.746,48.848 m 480.19303,737.02102 -151.267,97.98 m 151.267,-97.98 13.79,40.46 m -493.98303,-777.48102 -107.131,67.866 m 107.131,-67.866 45.765,52.743 m 448.21803,724.73802 -143.326,92.92 m 143.326,-92.92 9.28,35.43 m -457.49803,-760.16802 -119.751,75.993 m 119.751,-75.993 46.232,56.034 m 411.26603,704.13402 4.66,29.48 0.1,0.65 m -4.76,-30.13 -134.07,87 m 138.83,-56.87 -123.63,80.28 m -292.39603,-814.54402 -131.166,83.394 m 131.166,-83.394 46.135,58.66 m 0,0 -141.233,89.96 m 111.23,198.375 -37.12,-65.75 m 37.12,65.75 -171.968,83.11502 m 171.968,-83.11502 36.554,64.29 m 0,0 35.537,62.04202 m -35.537,-62.04202 -176.008,84.77302 m -220.942,-813.33302 -16.796,8.404 m 16.796,-8.404 16.516,33.015 m 415.971,757.58702 -178.188,85.537 m 178.188,-85.537 34.096,59.057 m -450.067,-816.64402 -33.687,16.827 m 33.687,-16.827 19.844,38.756 m 430.223,777.88802 -178.493,85.41 m 178.493,-85.41 32.25903,55.39 m -462.48203,-833.27802 -50.477,25.162 m 50.477,-25.162 23.017,44.163 m 439.46503,789.11502 -176.93303,84.42 m 176.93303,-84.42 30.063,51.11 m -469.52803,-840.22502 -66.987,33.316 m 66.987,-33.316 25.98,49.167 m 443.54803,791.05802 -173.55903,82.58 m 173.55903,-82.58 27.538,46.3 m -471.08603,-837.35802 -83.011,41.181 m 83.011,-41.181 28.689,53.669 m 442.39703,783.68902 -168.42203,79.94 m 168.42203,-79.94 24.75,41.04 m -467.14703,-824.72902 -98.357,48.661 m 98.357,-48.661 31.09,57.594 m 436.05703,767.13502 -161.62203,76.53 m 161.62203,-76.53 21.731,35.4 m -457.78803,-802.53502 -112.835,55.658 m 112.835,-55.658 33.145,60.87 m 424.64303,741.66502 -153.26203,72.44 m 153.26203,-72.44 18.536,29.51 m -443.17903,-771.17502 -126.252,62.082 m 126.252,-62.082 34.817,63.435 m 408.36203,707.74002 15.2,23.41 m -15.2,-23.41 -143.47103,67.7 m -264.891,-775.44002 -138.442,67.847 m 138.442,-67.847 36.068,65.226 m 387.49403,665.92402 11.8,17.22 m -11.8,-17.22 -132.373,62.38 m -255.12103,-728.30402 -149.24,72.889 m 149.24,-72.889 36.877,66.225 m 362.41703,616.91902 8.34,10.99 m -8.34,-10.99 -120.141,56.56 m 128.481,-45.57 -106.906,50.3 m -263.85103,-678.20902 -158.499,77.142 m 158.499,-77.142 37.233,66.4 m 0,0 -166.112,80.563 m -173.96,-670.679 -16.41,6.159 m 16.41,-6.159 -0.375,41.438 m 271.47,826.29702 -33.357,-62.806 m 33.357,62.806 -173.59,56.32 m 173.59,-56.32 33.791,58.93 m -305.261,-885.22702 3.054,47.091 m -3.054,-47.091 -32.865,12.265 m 338.126,872.96202 33.819,54.4 m -33.819,-54.4 -174.073,55.84 m -128.134,-893.97602 -49.193,18.23 m 49.193,-18.23 6.507,52.317 m 329.519,840.21902 -172.767,54.82 m 172.767,-54.82 33.437,49.27 m -362.956,-889.48902 -65.216,23.979 m 65.216,-23.979 9.956,57.032 m 353,832.45702 -169.691,53.32 m 169.691,-53.32 32.675,43.66 m -385.675,-876.11702 -80.75,29.43 m 80.75,-29.43 13.343,61.149 m 372.332,814.96802 -164.906,51.35 m 164.906,-51.35 31.55,37.63 m -403.882,-852.59802 -95.619,34.509 m 95.619,-34.509 16.612,64.591 m 387.27,788.00702 -158.483,48.96 m 158.483,-48.96 30.091,31.31 m -417.361,-819.31702 -109.634,39.157 m 109.634,-39.157 19.728,67.294 m 397.633,752.02302 -150.52,46.18 m 150.52,-46.18 28.327,24.77 m -425.96,-776.79302 -122.637,43.315 m 122.637,-43.315 22.627,69.2 m 403.333,707.59302 -141.125,43.05 m 141.125,-43.05 26.29803,18.09 m -429.63103,-725.68302 -134.46,46.94 m 134.46,-46.94 25.27,70.268 m 404.36103,655.41502 24.032,11.4 m -24.032,-11.4 -130.42803,39.62 m -273.933,-695.03502 -144.95,49.999 m 144.95,-49.999 27.618,70.478 m 400.77503,596.33702 21.575,4.73 m -21.575,-4.73 -118.56103,35.89 m -282.214,-632.22702 -153.989,52.465 m 153.989,-52.465 29.62,69.821 m 0,0 -161.45,54.325 m 161.45,-54.325 31.264,68.30202 m 0,0 -167.246,55.582 m 167.246,-55.582 32.514,65.948 m 0,0 -171.307,56.236 m -112.945,-754.40602 13.274,-53.056 m -13.274,53.056 -44.362,10.028 m 44.362,-10.028 -9.516,58.066 m 221.968,871.06002 -35.125,-53.38 m 35.125,53.38 -154.479,21.49 m 154.479,-21.49 36.513,47.77 m -258.481,-918.83002 -5.578,62.483 m 5.578,-62.483 -58.661,12.964 m 317.142,905.86602 37.46,41.69 m -37.46,-41.69 -151.999,20.43 m -112.06,-876.77702 -72.47,15.612 m 72.47,-15.612 -1.526,66.228 m 303.045,831.80902 -148.011,19.28 m 148.011,-19.28 37.973,35.24 m -341.018,-867.04902 -85.635,17.937 m 85.635,-17.937 2.597,69.239 m 338.421,797.81002 -142.566,18.07 m 142.566,-18.07 38.054,28.53 m -376.475,-826.34002 -98.016,19.912 m 98.016,-19.912 6.725,71.452 m 369.75,754.88802 -135.733,16.8 m 135.733,-16.8 37.722,21.64 m -407.472,-776.52802 -109.476,21.513 m 109.476,-21.513 10.804,72.825 m 396.668,703.70302 -127.592,15.5 m 127.592,-15.5 36.995,14.66 m -433.663,-718.36302 -119.887,22.744 m 119.887,-22.744 14.78,73.327 m 418.883,645.03602 -118.24,14.17 m 118.24,-14.17 35.899,7.67 m -454.782,-652.70602 -129.139,23.609 m 129.139,-23.609 18.579,72.944 m 0,0 -137.118,24.121 m 137.118,-24.121 22.159,71.681 m 0,0 -143.74,24.30802 m 143.74,-24.30802 25.468,69.55902 m 0,0 -1.537,0.248 -147.396,23.943 m 148.933,-24.191 28.453,66.602 m 0,0 -152.635,23.82 m 152.635,-23.82 31.074,62.89 m -113.915,-917.89602 -14.879,3.491 m 14.879,-3.491 -16.83,47.544 m 0,0 -0.611,0.139 -29.103,6.713 m 160.459,863.50002 -154.803,23.22 m 154.803,-23.22 33.308,58.45 m 0,0 -155.421,22.43 m -109.47,-762.01502 19.387,-65.131 m -19.387,65.131 -59.012,0.916 m 59.012,-0.916 -14.691,68.553 m 240.669,833.15202 -1.348,-0.15 -118.737,-12.94 m 120.085,13.09 -41.448,-40.54 m 41.448,40.54 43.418,34.03 m -284.087,-867.18202 -9.784,71.214 m 9.784,-71.214 -69.49,0.402 m 353.577,866.78002 44.887,27.26 m -44.887,-27.26 -116.047,-13.12 m -177.824,-782.84802 -79.295,-0.349 m 79.295,0.349 -4.735,73.053 m 343.493,750.17502 45.863,20.34 m -389.356,-770.51502 -88.336,-1.303 m 88.336,1.303 0.393,74.056 m 388.963,696.45902 46.347,13.33 m -435.31,-709.78902 -96.536,-2.445 m 96.536,2.445 5.528,74.192 m 0,0 -103.819,-3.727 m 103.819,3.727 10.6,73.456 m 0,0 -110.12,-5.096 m 110.12,5.096 15.537,71.86802 m 0,0 -115.377,-6.506 m 115.377,6.506 20.275,69.442 m 0,0 -119.547,-7.898 m 119.547,7.898 24.751,66.231 m 0,0 -122.587,-9.21 m 122.587,9.21 28.906,62.29 m 26.009,-937.62502 -12.323,0.591 m 12.323,-0.591 -31.665,50.905 m 5.656,886.72002 -124.464,-10.41 m 124.464,10.41 32.69,57.66 m -38.346,-944.38002 -24.502,1.003 m 24.502,-1.003 -27.922,56.232 m 66.268,888.14802 -125.158,-11.43 m 125.158,11.43 36.067,52.44 m -102.335,-940.58802 -36.415,1.21 m 36.415,-1.21 -23.815,61.002 m 0,0 -47.953,1.186 m 174.103,878.40002 -124.658,-12.23 m 124.658,12.23 38.251,45.82 0.742,0.89 m 0,0 -122.963,-12.79 m -165.337,-708.95702 19.589,-70.463 m -19.589,70.463 -55.3908,-19.911 m 55.3908,19.911 -13.776,72.099 m 270.895,711.09802 -47.456,-34 m -223.439,-677.09802 -7.807,72.914 m 7.807,-72.914 -61.46,-23.2 m 53.653,96.114 -66.9478,-26.453 m 66.9478,26.453 -1.755,72.91 m 0,0 -71.8285,-29.613 m 71.8285,29.613 4.299,72.087 m 0,0 -76.0712,-32.613 m 76.0712,32.613 10.28,70.45802 m 0,0 -79.6591,-35.37402 m 79.6591,35.37402 16.105,68.05 m 0,0 -1.141,-0.519 -81.4187,-37.304 m 82.5597,37.823 21.711,64.919 m 0,0 -84.7495,-39.9 m 84.7495,39.9 27.029,61.09 m 138.15,-926.62402 -8.936,-2.336 m 8.936,2.336 -43.844,51.317 m -94.306,875.30702 -86.214,-41.55 m 86.214,41.55 31.996,56.64 m 62.31,-931.94702 -17.63,-4.856 m 17.63,4.856 -39.835,56.439 m -22.475,875.50802 36.567,51.64 m -14.092,-927.14802 -26.022,-7.561 m 26.022,7.561 -35.353,60.978 m 49.445,866.17002 40.688,46.15 m -90.133,-912.32002 -34.045,-10.448 m 34.045,10.448 -30.446,64.861 m 120.579,847.45902 44.326,40.24 m -164.905,-887.69902 -41.644,-13.491 m 41.644,13.491 -25.169,68.039 m 0,0 -48.773,-16.658 m -59.3468,205.681 13.2948,-69.661 m -13.2948,69.661 -33.9399,-47.501 m 33.9399,47.501 -6.6357,69.75 m 0,0 0.0563,69.087 m -0.0563,-69.087 -36.26561,-52.145 m 36.32191,121.232 6.6921,67.697 m 0,0 13.2044,65.60102 m 0,0 19.5212,62.842 m 0,0 25.5645,59.44 m 215.428,-887.41002 -4.951,-5.081 m 4.951,5.081 -52.538,48.797 m 0,0 -9.629,-10.313 m 9.629,10.313 -48.227,53.734 m 0,0 -14.006,-15.664 m 14.006,15.664 -43.376,58.091 m 0,0 -18.078,-21.094 m 18.078,21.094 -38.045,61.818 m 0,0 -21.846,-26.555 m 21.846,26.555 -32.298,64.872 m 0,0 -25.3051,-31.994 m 25.3051,31.994 -26.2068,67.21 m 0,0 -28.4659,-37.347 m 28.4659,37.347 -19.8452,68.81 m 0,0 -31.3405,-42.539 m -24.85561,129.805 8.96141,-65.106 m 302.8197,-450.573 -0.654,-7.469 m 0.654,7.469 -57.216,43.565 m 0,0 -1.064,-15.003 m 1.064,15.003 -52.604,48.383 m 0,0 -1.256,-22.549 m 1.256,22.549 -47.448,52.661 m 0,0 -1.27,-30.047 m 1.27,30.047 -41.813,56.357 m 0,0 -1.141,-37.43 m 1.141,37.43 -35.7571,59.433 m 0,0 -0.9213,-44.632 m 0.9213,44.632 -29.3676,61.857 m 0,0 -22.7198,63.618 m 0,0 -15.8942,64.699 m 302.1657,-458.042 3.657,-9.335 m -3.657,9.335 -57.626,36.031 m 0,0 7.467,-18.626 m -7.467,18.626 -52.796,40.837 m 0,0 11.351,-27.809 m -11.351,27.809 -47.462,45.163 m 0,0 15.237,-36.8 m -15.237,36.8 -41.684,48.974 m 0,0 -35.5374,52.231 m 184.9464,-205.831 15.403,-20.975 m -15.403,20.975 53.816,-26.74 m -53.816,26.74 -48.912,31.654 m 0,0 -43.576,36.172 m 43.576,-36.172 23.002,-31.151 m 79.726,-27.243 7.702,-10.563 m -87.428,37.806 41.313,-21.478 m -41.313,21.478 33.006,-32.433 m 54.422,-5.373 11.208,-11.071 m -11.208,11.071 -46.115,16.328 m 0,0 22.253,-21.915 m 35.07,-5.484 13.957,-10.85 m -13.957,10.85 -35.07,5.484 m 0,0 27.602,-21.418 m -27.602,21.418 -30.56,10.96 m 0,0 40.786,-31.626 m 38.801,4.332 15.769,-9.896 m -15.769,9.896 -21.425,-5.084 m 0,0 -17.376,0.752 m 17.376,-0.752 31.126,-19.532 m -48.502,20.284 45.93,-28.8092 m 8.64,23.2452 16.53,-8.293 m -16.53,8.293 -6.068,-14.72 m 0,0 -2.572,-8.5252 m 2.572,8.5252 32.633,-16.3764 m -35.205,7.8512 48.143,-24.1737 m -22.973,39.1259 10.035,-22.8034 m 0,0 12.938,-16.3225"
     stroke="url(#paint0_linear_238_1339)"
     stroke-width="2"
     stroke-linecap="round"
     stroke-linejoin="round"
     id="path9"
     style="stroke:url(#paint0_linear_238_1339)" />
  <metadata
     id="metadata272">
    <rdf:RDF>
      <cc:Work
         rdf:about="">
        <dc:title>globe-svg</dc:title>
      </cc:Work>
    </rdf:RDF>
  </metadata>
</svg>
