<svg height="100%" viewBox="0 0 24 24" width="100%" xmlns="http://www.w3.org/2000/svg"><path d="m15.0208063 4.00062995c-.288398.06804287-.5135784.29322331-.5816213.58162126s.0327376.59048364.260307.78026075l5.6202356 5.62684504h-18.57696056c-.41643515.0220943-.74276704.366199-.74276704.7832198 0 .4170209.32633189.7611255.74276704.7832198h18.57696056l-5.6290482 5.6202356c-.2943141.3082165-.2943141.7933585 0 1.101575.1459188.1463774.3441026.22865.5507875.22865s.4048687-.0822726.5507875-.22865l6.9619539-6.9619539c.1497209-.1441171.2343207-.3429749.2343207-.5507875s-.0845998-.4066704-.2343207-.5507875c-4.963336-4.85432749-7.5411367-7.25881027-7.733402-7.21344835z" fill="#004877"/></svg>
