<svg width="24" height="25" viewBox="0 0 24 25" fill="none" xmlns="http://www.w3.org/2000/svg">
<g opacity="0.65">
<path d="M12 9.54785C10.3426 9.54785 9 10.891 9 12.5479C9 14.2052 10.3431 15.5479 12 15.5479C13.6573 15.5479 15 14.2048 15 12.5479C15 10.8906 13.6569 9.54785 12 9.54785ZM12 7.54785C14.7604 7.54785 17 9.78495 17 12.5479C17 15.3084 14.7629 17.5479 12 17.5479C9.23953 17.5479 7 15.3108 7 12.5479C7 9.78738 9.2371 7.54785 12 7.54785ZM18.5 7.297C18.5 7.98711 17.9392 8.54702 17.25 8.54702C16.5599 8.54702 16 7.98625 16 7.297C16 6.60775 16.5607 6.04785 17.25 6.04785C17.9383 6.04698 18.5 6.60775 18.5 7.297ZM12 4.54785C9.52552 4.54785 9.1222 4.5544 7.97129 4.60565C7.18717 4.64246 6.66155 4.74792 6.17318 4.93752C5.73918 5.10584 5.42611 5.30683 5.09254 5.6404C4.75769 5.97525 4.55706 6.28748 4.38942 6.72168C4.19938 7.21117 4.09395 7.73596 4.0578 8.519C4.00605 9.62305 4 10.0089 4 12.5479C4 15.0224 4.00655 15.4257 4.05779 16.5765C4.09462 17.3603 4.20022 17.8867 4.38936 18.3739C4.55812 18.8085 4.75952 19.1223 5.09148 19.4543C5.42765 19.79 5.74081 19.9913 6.17089 20.1573C6.66521 20.3484 7.1905 20.454 7.97114 20.4901C9.0752 20.5418 9.46105 20.5479 12 20.5479C14.4745 20.5479 14.8778 20.5413 16.0286 20.4901C16.8107 20.4534 17.3375 20.3475 17.826 20.1585C18.2594 19.9902 18.5742 19.7881 18.9064 19.4564C19.2426 19.1197 19.4435 18.8073 19.6097 18.3762C19.8003 17.8837 19.9061 17.3577 19.9422 16.5768C19.9939 15.4727 20 15.0868 20 12.5479C20 10.0734 19.9934 9.67006 19.9422 8.51922C19.9054 7.73691 19.7995 7.20934 19.6103 6.72103C19.4424 6.28823 19.2407 5.9742 18.9074 5.6404C18.572 5.305 18.2606 5.10478 17.8261 4.93727C17.337 4.74739 16.8114 4.64181 16.0288 4.60566C14.9248 4.5539 14.5389 4.54785 12 4.54785ZM12 2.54785C14.7166 2.54785 15.0558 2.55785 16.1225 2.60785C17.1866 2.65702 17.9125 2.82535 18.55 3.07285C19.2091 3.32702 19.7658 3.67035 20.3216 4.22618C20.8766 4.78202 21.22 5.34035 21.475 5.99785C21.7216 6.63452 21.89 7.36118 21.94 8.42535C21.9875 9.49202 22 9.83118 22 12.5479C22 15.2646 21.99 15.6037 21.94 16.6704C21.8908 17.7346 21.7216 18.4604 21.475 19.0979C21.2208 19.7571 20.8766 20.3137 20.3216 20.8696C19.7658 21.4246 19.2066 21.7679 18.55 22.0229C17.9125 22.2696 17.1866 22.4379 16.1225 22.4879C15.0558 22.5354 14.7166 22.5479 12 22.5479C9.28333 22.5479 8.94416 22.5379 7.8775 22.4879C6.81333 22.4387 6.08833 22.2696 5.45 22.0229C4.79166 21.7687 4.23416 21.4246 3.67833 20.8696C3.1225 20.3137 2.78 19.7546 2.525 19.0979C2.2775 18.4604 2.11 17.7346 2.06 16.6704C2.0125 15.6037 2 15.2646 2 12.5479C2 9.83118 2.01 9.49202 2.06 8.42535C2.10916 7.36035 2.2775 6.63535 2.525 5.99785C2.77916 5.33952 3.1225 4.78202 3.67833 4.22618C4.23416 3.67035 4.7925 3.32785 5.45 3.07285C6.0875 2.82535 6.8125 2.65785 7.8775 2.60785C8.94416 2.56035 9.28333 2.54785 12 2.54785Z" fill="white"/>
</g>
</svg>
