<svg width="24" height="24" viewBox="0 0 24 24" fill="none" xmlns="http://www.w3.org/2000/svg">
<rect opacity="0.65" width="24" height="24" rx="6" fill="white"/>
<path d="M1.6 17V16.802L5.86 9.716H1.9V8.36H8.362V8.564L4.126 15.638H8.26V17H1.6ZM10.7942 17.18C10.3262 17.18 9.93022 17.092 9.60622 16.916C9.28222 16.736 9.03622 16.498 8.86822 16.202C8.70422 15.906 8.62222 15.58 8.62222 15.224C8.62222 14.912 8.67422 14.632 8.77822 14.384C8.88222 14.132 9.04222 13.916 9.25822 13.736C9.47422 13.552 9.75422 13.402 10.0982 13.286C10.3582 13.202 10.6622 13.126 11.0102 13.058C11.3622 12.99 11.7422 12.928 12.1502 12.872C12.5622 12.812 12.9922 12.748 13.4402 12.68L12.9242 12.974C12.9282 12.526 12.8282 12.196 12.6242 11.984C12.4202 11.772 12.0762 11.666 11.5922 11.666C11.3002 11.666 11.0182 11.734 10.7462 11.87C10.4742 12.006 10.2842 12.24 10.1762 12.572L8.85622 12.158C9.01622 11.61 9.32022 11.17 9.76822 10.838C10.2202 10.506 10.8282 10.34 11.5922 10.34C12.1682 10.34 12.6742 10.434 13.1102 10.622C13.5502 10.81 13.8762 11.118 14.0882 11.546C14.2042 11.774 14.2742 12.008 14.2982 12.248C14.3222 12.484 14.3342 12.742 14.3342 13.022V17H13.0682V15.596L13.2782 15.824C12.9862 16.292 12.6442 16.636 12.2522 16.856C11.8642 17.072 11.3782 17.18 10.7942 17.18ZM11.0822 16.028C11.4102 16.028 11.6902 15.97 11.9222 15.854C12.1542 15.738 12.3382 15.596 12.4742 15.428C12.6142 15.26 12.7082 15.102 12.7562 14.954C12.8322 14.77 12.8742 14.56 12.8822 14.324C12.8942 14.084 12.9002 13.89 12.9002 13.742L13.3442 13.874C12.9082 13.942 12.5342 14.002 12.2222 14.054C11.9102 14.106 11.6422 14.156 11.4182 14.204C11.1942 14.248 10.9962 14.298 10.8242 14.354C10.6562 14.414 10.5142 14.484 10.3982 14.564C10.2822 14.644 10.1922 14.736 10.1282 14.84C10.0682 14.944 10.0382 15.066 10.0382 15.206C10.0382 15.366 10.0782 15.508 10.1582 15.632C10.2382 15.752 10.3542 15.848 10.5062 15.92C10.6622 15.992 10.8542 16.028 11.0822 16.028ZM15.2015 17V8.18H16.6475V17H15.2015ZM20.4919 17.18C19.8439 17.18 19.2779 17.034 18.7939 16.742C18.3099 16.45 17.9339 16.048 17.6659 15.536C17.4019 15.02 17.2699 14.428 17.2699 13.76C17.2699 13.08 17.4059 12.484 17.6779 11.972C17.9499 11.46 18.3279 11.06 18.8119 10.772C19.2959 10.484 19.8559 10.34 20.4919 10.34C21.1439 10.34 21.7119 10.486 22.1959 10.778C22.6799 11.07 23.0559 11.474 23.3239 11.99C23.5919 12.502 23.7259 13.092 23.7259 13.76C23.7259 14.432 23.5899 15.026 23.3179 15.542C23.0499 16.054 22.6739 16.456 22.1899 16.748C21.7059 17.036 21.1399 17.18 20.4919 17.18ZM20.4919 15.824C21.0679 15.824 21.4959 15.632 21.7759 15.248C22.0559 14.864 22.1959 14.368 22.1959 13.76C22.1959 13.132 22.0539 12.632 21.7699 12.26C21.4859 11.884 21.0599 11.696 20.4919 11.696C20.1039 11.696 19.7839 11.784 19.5319 11.96C19.2839 12.132 19.0999 12.374 18.9799 12.686C18.8599 12.994 18.7999 13.352 18.7999 13.76C18.7999 14.388 18.9419 14.89 19.2259 15.266C19.5139 15.638 19.9359 15.824 20.4919 15.824Z" fill="#00358F"/>
</svg>
