<svg width="194" height="61" viewBox="0 0 194 61" fill="none" xmlns="http://www.w3.org/2000/svg">
<path fill-rule="evenodd" clip-rule="evenodd" d="M56.0557 46.5834C59.0231 41.8921 60.7407 36.3318 60.7407 30.3704C60.7407 13.5973 47.1435 0 30.3704 0C13.5973 0 0 13.5973 0 30.3704C0 47.1435 13.5973 60.7407 30.3704 60.7407C36.3256 60.7407 41.8805 59.0267 46.5686 56.065L59.5326 59.5312L56.0557 46.5834Z" fill="#3654E3"/>
<path fill-rule="evenodd" clip-rule="evenodd" d="M8.8512 24.6102C11.5182 14.6567 20.523 8.09391 30.3603 8.1001V17.0095C24.4579 17.0058 19.0551 20.9434 17.4549 26.9155C15.545 34.043 19.7748 41.3692 26.9023 43.279C34.0298 45.1888 41.356 40.959 43.2658 33.8315C43.3939 33.3534 43.4944 32.8743 43.5683 32.396H34.4114V24.2973H42.5124L42.5122 24.2969H51.8114C52.3159 26.113 52.5979 28.0062 52.634 29.9347V30.7823C52.624 31.3181 52.5949 31.8562 52.5462 32.3957H52.5399C52.425 33.6392 52.2036 34.8899 51.8695 36.1369C48.6865 48.016 36.4761 55.0657 24.597 51.8827C12.7178 48.6996 5.66819 36.4893 8.8512 24.6102Z" fill="white"/>
<path d="M90.1996 33.4272C90.1996 34.3687 90.1388 35.2191 90.0173 35.9783H70.8385C70.9903 37.9828 71.7344 39.5924 73.0707 40.8072C74.407 42.022 76.047 42.6294 77.9907 42.6294C80.7848 42.6294 82.7588 41.4602 83.9129 39.1217H89.5162C88.757 41.4298 87.3751 43.328 85.3707 44.8161C83.3966 46.2739 80.9366 47.0028 77.9907 47.0028C75.5914 47.0028 73.4351 46.4713 71.5218 45.4083C69.6388 44.315 68.1507 42.7965 67.0573 40.8528C65.9944 38.8787 65.4629 36.6009 65.4629 34.0194C65.4629 31.438 65.9792 29.1754 67.0118 27.2317C68.0748 25.2576 69.5477 23.7391 71.4307 22.6761C73.344 21.6131 75.5307 21.0817 77.9907 21.0817C80.3596 21.0817 82.4703 21.598 84.3229 22.6306C86.1755 23.6631 87.6181 25.1209 88.6507 27.0039C89.6833 28.8565 90.1996 30.9976 90.1996 33.4272ZM84.7785 31.7872C84.7481 29.8739 84.0648 28.3402 82.7285 27.1861C81.3922 26.032 79.737 25.455 77.7629 25.455C75.971 25.455 74.4373 26.032 73.1618 27.1861C71.8862 28.3098 71.127 29.8435 70.884 31.7872H84.7785ZM101.369 25.7283V39.6228C101.369 40.5643 101.582 41.2476 102.007 41.6728C102.463 42.0676 103.222 42.265 104.285 42.265H107.474V46.5928H103.374C101.035 46.5928 99.2433 46.0461 97.9981 44.9528C96.7529 43.8594 96.1303 42.0828 96.1303 39.6228V25.7283H93.1692V21.4917H96.1303V15.2506H101.369V21.4917H107.474V25.7283H101.369ZM110.529 33.9283C110.529 31.4076 111.045 29.1754 112.078 27.2317C113.141 25.288 114.568 23.7846 116.36 22.7217C118.182 21.6283 120.187 21.0817 122.374 21.0817C124.348 21.0817 126.064 21.4765 127.521 22.2661C129.009 23.0254 130.194 23.982 131.075 25.1361V21.4917H136.314V46.5928H131.075V42.8572C130.194 44.0417 128.994 45.0287 127.476 45.8183C125.957 46.608 124.226 47.0028 122.282 47.0028C120.126 47.0028 118.152 46.4561 116.36 45.3628C114.568 44.2391 113.141 42.6902 112.078 40.7161C111.045 38.7117 110.529 36.4491 110.529 33.9283ZM131.075 34.0194C131.075 32.2883 130.71 30.785 129.981 29.5094C129.283 28.2339 128.356 27.262 127.202 26.5939C126.048 25.9257 124.803 25.5917 123.467 25.5917C122.131 25.5917 120.885 25.9257 119.731 26.5939C118.577 27.2317 117.636 28.1883 116.907 29.4639C116.208 30.7091 115.859 32.1972 115.859 33.9283C115.859 35.6594 116.208 37.178 116.907 38.4839C117.636 39.7898 118.577 40.792 119.731 41.4906C120.916 42.1587 122.161 42.4928 123.467 42.4928C124.803 42.4928 126.048 42.1587 127.202 41.4906C128.356 40.8224 129.283 39.8506 129.981 38.575C130.71 37.2691 131.075 35.7506 131.075 34.0194ZM145.23 46.9117C144.289 46.9117 143.499 46.5928 142.861 45.955C142.224 45.3172 141.905 44.5276 141.905 43.5861C141.905 42.6446 142.224 41.855 142.861 41.2172C143.499 40.5794 144.289 40.2606 145.23 40.2606C146.141 40.2606 146.916 40.5794 147.554 41.2172C148.191 41.855 148.51 42.6446 148.51 43.5861C148.51 44.5276 148.191 45.3172 147.554 45.955C146.916 46.5928 146.141 46.9117 145.23 46.9117Z" fill="#000935"/>
<path d="M152.392 33.9283C152.392 31.4076 152.908 29.1754 153.941 27.2317C155.004 25.288 156.431 23.7846 158.223 22.7217C160.045 21.6283 162.05 21.0817 164.237 21.0817C166.211 21.0817 167.927 21.4765 169.384 22.2661C170.873 23.0254 172.057 23.982 172.938 25.1361V21.4917H178.177V46.5928H172.938V42.8572C172.057 44.0417 170.857 45.0287 169.339 45.8183C167.82 46.608 166.089 47.0028 164.145 47.0028C161.989 47.0028 160.015 46.4561 158.223 45.3628C156.431 44.2391 155.004 42.6902 153.941 40.7161C152.908 38.7117 152.392 36.4491 152.392 33.9283ZM172.938 34.0194C172.938 32.2883 172.573 30.785 171.844 29.5094C171.146 28.2339 170.22 27.262 169.065 26.5939C167.911 25.9257 166.666 25.5917 165.33 25.5917C163.994 25.5917 162.748 25.9257 161.594 26.5939C160.44 27.2317 159.499 28.1883 158.77 29.4639C158.071 30.7091 157.722 32.1972 157.722 33.9283C157.722 35.6594 158.071 37.178 158.77 38.4839C159.499 39.7898 160.44 40.792 161.594 41.4906C162.779 42.1587 164.024 42.4928 165.33 42.4928C166.666 42.4928 167.911 42.1587 169.065 41.4906C170.22 40.8224 171.146 39.8506 171.844 38.575C172.573 37.2691 172.938 35.7506 172.938 34.0194ZM187.64 18.1661C186.699 18.1661 185.909 17.8472 185.271 17.2094C184.633 16.5717 184.314 15.782 184.314 14.8406C184.314 13.8991 184.633 13.1094 185.271 12.4717C185.909 11.8339 186.699 11.515 187.64 11.515C188.551 11.515 189.326 11.8339 189.963 12.4717C190.601 13.1094 190.92 13.8991 190.92 14.8406C190.92 15.782 190.601 16.5717 189.963 17.2094C189.326 17.8472 188.551 18.1661 187.64 18.1661ZM190.191 21.4917V46.5928H184.998V21.4917H190.191Z" fill="#099361"/>
</svg>
