<svg width="55" height="57" viewBox="0 0 55 57" fill="none" xmlns="http://www.w3.org/2000/svg">
<path fill-rule="evenodd" clip-rule="evenodd" d="M53.9266 24.6062C55.5173 21.35 54.2541 17.4669 51.054 15.7639C48.7055 14.5195 47.0868 12.3019 46.6283 9.68199C46.0014 6.10768 42.6984 3.70297 39.1054 4.2176C36.4761 4.58251 33.8655 3.7404 31.9567 1.88774C29.3462 -0.629248 25.2666 -0.629248 22.6561 1.88774C20.7473 3.7404 18.1461 4.59187 15.5075 4.2176C11.9145 3.70297 8.61151 6.10768 7.9846 9.68199C7.52611 12.3019 5.90738 14.5195 3.55881 15.7639C0.358774 17.4669 -0.9044 21.35 0.686264 24.6062C1.85587 27.0015 1.85587 29.7337 0.686264 32.1291C-0.9044 35.3852 0.358774 39.2683 3.55881 40.9713C5.90738 42.2157 7.52611 44.4333 7.9846 47.0532C8.61151 50.6275 11.9145 53.0322 15.5075 52.5176C15.9098 52.4615 16.3215 52.4334 16.7239 52.4334C18.9321 52.4334 21.0374 53.2849 22.6561 54.8475C25.2667 57.3645 29.3463 57.3645 31.9567 54.8475C33.8655 52.9948 36.4761 52.1433 39.1054 52.5176C42.6984 53.0322 46.0014 50.6275 46.6283 47.0532C47.0868 44.4333 48.7055 42.2157 51.054 40.9713C54.2541 39.2683 55.5173 35.3852 53.9266 32.1291C52.757 29.7337 52.757 27.0015 53.9266 24.6062ZM27.3064 50.8989C14.8805 50.8989 4.77511 40.7935 4.77511 28.3676C4.77511 15.9417 14.8805 5.83633 27.3064 5.83633C39.7323 5.83633 49.8377 15.9417 49.8377 28.3676C49.8377 40.7935 39.7323 50.8989 27.3064 50.8989ZM27.1345 7.61646C15.7472 7.61646 6.47461 16.8891 6.47461 28.2764C6.47461 39.6636 15.7472 48.9363 27.1345 48.9363C38.5218 48.9363 47.7944 39.6636 47.7944 28.2764C47.7944 16.8891 38.5218 7.61646 27.1345 7.61646Z" fill="#D70004"/>
<path d="M32.2116 39.0553L30.9507 33.7093H23.935L22.6741 39.0553H17.7275L24.6139 15.1882H30.4011L37.2552 39.0553H32.2116ZM24.8403 29.9499H30.0455L27.4267 18.9476L24.8403 29.9499Z" fill="white"/>
</svg>
