<svg width="24" height="25" viewBox="0 0 24 25" fill="none" xmlns="http://www.w3.org/2000/svg">
<g opacity="0.65">
<path d="M12.2439 4.54785C12.778 4.55079 14.1143 4.56371 15.5341 4.62058L16.0375 4.64253C17.467 4.71021 18.8953 4.82583 19.6037 5.02335C20.5486 5.2888 21.2913 6.06335 21.5423 7.04517C21.942 8.60426 21.992 11.6473 21.9982 12.3837L21.9991 12.5363V12.547C21.9991 12.547 21.9991 12.5507 21.9991 12.5578L21.9982 12.7104C21.992 13.4468 21.942 16.4898 21.5423 18.0489C21.2878 19.0343 20.5451 19.8089 19.6037 20.0707C18.8953 20.2682 17.467 20.3838 16.0375 20.4515L15.5341 20.4734C14.1143 20.5303 12.778 20.5432 12.2439 20.5462L12.0095 20.547H11.9991C11.9991 20.547 11.9956 20.547 11.9887 20.547L11.7545 20.5462C10.6241 20.54 5.89772 20.4889 4.39451 20.0707C3.4496 19.8052 2.70692 19.0307 2.45587 18.0489C2.0562 16.4898 2.00624 13.4468 2 12.7104V12.3837C2.00624 11.6473 2.0562 8.60426 2.45587 7.04517C2.7104 6.05971 3.45308 5.28517 4.39451 5.02335C5.89772 4.60508 10.6241 4.55407 11.7545 4.54785H12.2439ZM9.99911 9.04699V16.047L15.9991 12.547L9.99911 9.04699Z" fill="white"/>
</g>
</svg>
