<svg width="132" height="129" viewBox="0 0 132 129" fill="none" xmlns="http://www.w3.org/2000/svg">
<path d="M119.576 76.118C126.268 47.149 107.638 18.3687 77.9638 11.8354C48.29 5.30217 18.8095 23.49 12.1173 52.459C5.4251 81.4281 24.0554 110.208 53.7292 116.742C83.403 123.275 112.884 105.087 119.576 76.118Z" stroke="#C7DDF2" stroke-width="6.77749" stroke-miterlimit="10"/>
<path d="M101 23.3672C116.039 35.6628 123.182 55.2991 119.61 74.2014" stroke="#DB5472" stroke-width="10.3146" stroke-miterlimit="10" stroke-linecap="round" stroke-linejoin="round"/>
<path d="M34.47 86.4043H33.3V80.7643H31.28V79.7343H36.49V80.7643H34.47V86.4043ZM38.5768 86.5243C37.8301 86.5243 37.2301 86.281 36.7768 85.7943C36.3235 85.301 36.0968 84.6976 36.0968 83.9843C36.0968 83.271 36.3235 82.671 36.7768 82.1843C37.2301 81.6976 37.8301 81.4543 38.5768 81.4543C39.3301 81.4543 39.9335 81.6976 40.3868 82.1843C40.8401 82.671 41.0668 83.271 41.0668 83.9843C41.0668 84.7043 40.8401 85.3076 40.3868 85.7943C39.9335 86.281 39.3301 86.5243 38.5768 86.5243ZM38.5768 85.5943C39.0101 85.5943 39.3501 85.441 39.5968 85.1343C39.8501 84.821 39.9768 84.4376 39.9768 83.9843C39.9768 83.5376 39.8501 83.161 39.5968 82.8543C39.3501 82.541 39.0101 82.3843 38.5768 82.3843C38.1501 82.3843 37.8101 82.541 37.5568 82.8543C37.3101 83.161 37.1868 83.5376 37.1868 83.9843C37.1868 84.4376 37.3101 84.821 37.5568 85.1343C37.8101 85.441 38.1501 85.5943 38.5768 85.5943ZM46.4492 86.4043H45.3992V82.4943H43.1792V86.4043H42.1292V81.5743H46.4492V86.4043ZM49.8328 84.4343H47.4328V83.5343H49.8328V84.4343ZM56.2209 86.4043H55.1709V83.0443L53.7309 86.4043H53.3109L51.8609 83.0443V86.4043H50.8109V81.5743H52.1809L53.5209 84.6943L54.8409 81.5743H56.2209V86.4043ZM59.8084 86.5243C59.0751 86.5243 58.4684 86.291 57.9884 85.8243C57.5151 85.351 57.2784 84.7376 57.2784 83.9843C57.2784 83.2776 57.5084 82.681 57.9684 82.1943C58.4351 81.701 59.0218 81.4543 59.7284 81.4543C60.4418 81.4543 61.0151 81.701 61.4484 82.1943C61.8884 82.6876 62.1084 83.3176 62.1084 84.0843V84.3343H58.3784C58.4184 84.7143 58.5751 85.031 58.8484 85.2843C59.1218 85.5376 59.4784 85.6643 59.9184 85.6643C60.1651 85.6643 60.4118 85.6176 60.6584 85.5243C60.9118 85.431 61.1218 85.301 61.2884 85.1343L61.7684 85.8243C61.2818 86.291 60.6284 86.5243 59.8084 86.5243ZM61.0884 83.5943C61.0751 83.261 60.9518 82.9643 60.7184 82.7043C60.4918 82.4443 60.1618 82.3143 59.7284 82.3143C59.3151 82.3143 58.9918 82.4443 58.7584 82.7043C58.5251 82.9576 58.3951 83.2543 58.3684 83.5943H61.0884ZM64.1948 86.4043H63.1448V81.5743H64.1948V83.4743H66.4148V81.5743H67.4648V86.4043H66.4148V84.3943H64.1948V86.4043ZM71.0584 86.5243C70.3251 86.5243 69.7184 86.291 69.2384 85.8243C68.7651 85.351 68.5284 84.7376 68.5284 83.9843C68.5284 83.2776 68.7584 82.681 69.2184 82.1943C69.6851 81.701 70.2718 81.4543 70.9784 81.4543C71.6918 81.4543 72.2651 81.701 72.6984 82.1943C73.1384 82.6876 73.3584 83.3176 73.3584 84.0843V84.3343H69.6284C69.6684 84.7143 69.8251 85.031 70.0984 85.2843C70.3718 85.5376 70.7284 85.6643 71.1684 85.6643C71.4151 85.6643 71.6618 85.6176 71.9084 85.5243C72.1618 85.431 72.3718 85.301 72.5384 85.1343L73.0184 85.8243C72.5318 86.291 71.8784 86.5243 71.0584 86.5243ZM72.3384 83.5943C72.3251 83.261 72.2018 82.9643 71.9684 82.7043C71.7418 82.4443 71.4118 82.3143 70.9784 82.3143C70.5651 82.3143 70.2418 82.4443 70.0084 82.7043C69.7751 82.9576 69.6451 83.2543 69.6184 83.5943H72.3384ZM73.8948 87.6343V85.5343C74.1215 85.481 74.2915 85.351 74.4048 85.1443C74.5248 84.931 74.6215 84.5243 74.6948 83.9243L74.9848 81.5743H78.7148V85.4843H79.2448V87.6343H78.1948V86.4043H74.9448V87.6343H73.8948ZM75.9148 82.4943L75.7448 84.0443C75.6782 84.6843 75.4648 85.1643 75.1048 85.4843H77.6648V82.4943H75.9148ZM80.8077 86.4043H79.4877L81.5377 83.7643L79.5277 81.5743H80.8277L82.5577 83.4643V81.5743H83.6077V83.4643L85.3377 81.5743H86.6377L84.6277 83.7643L86.6777 86.4043H85.3577L83.8777 84.4143L83.6077 84.6943V86.4043H82.5577V84.6943L82.2877 84.4143L80.8077 86.4043ZM89.6034 86.5243C88.87 86.5243 88.2634 86.291 87.7834 85.8243C87.31 85.351 87.0734 84.7376 87.0734 83.9843C87.0734 83.2776 87.3034 82.681 87.7634 82.1943C88.23 81.701 88.8167 81.4543 89.5234 81.4543C90.2367 81.4543 90.81 81.701 91.2434 82.1943C91.6834 82.6876 91.9034 83.3176 91.9034 84.0843V84.3343H88.1734C88.2134 84.7143 88.37 85.031 88.6434 85.2843C88.9167 85.5376 89.2734 85.6643 89.7134 85.6643C89.96 85.6643 90.2067 85.6176 90.4534 85.5243C90.7067 85.431 90.9167 85.301 91.0834 85.1343L91.5634 85.8243C91.0767 86.291 90.4234 86.5243 89.6034 86.5243ZM90.8834 83.5943C90.87 83.261 90.7467 82.9643 90.5134 82.7043C90.2867 82.4443 89.9567 82.3143 89.5234 82.3143C89.11 82.3143 88.7867 82.4443 88.5534 82.7043C88.32 82.9576 88.19 83.2543 88.1634 83.5943H90.8834ZM95.5398 86.5243C94.8998 86.5243 94.3831 86.261 93.9898 85.7343V88.2443H92.9398V81.5743H93.9898V82.2343C94.3764 81.7143 94.8931 81.4543 95.5398 81.4543C96.1731 81.4543 96.6864 81.681 97.0798 82.1343C97.4798 82.5876 97.6798 83.2043 97.6798 83.9843C97.6798 84.7643 97.4798 85.3843 97.0798 85.8443C96.6864 86.2976 96.1731 86.5243 95.5398 86.5243ZM95.2298 85.5943C95.6431 85.5943 95.9731 85.4443 96.2198 85.1443C96.4664 84.8443 96.5898 84.4576 96.5898 83.9843C96.5898 83.511 96.4664 83.1276 96.2198 82.8343C95.9731 82.5343 95.6431 82.3843 95.2298 82.3843C94.9898 82.3843 94.7531 82.4476 94.5198 82.5743C94.2864 82.701 94.1098 82.8543 93.9898 83.0343V84.9443C94.1098 85.1243 94.2864 85.2776 94.5198 85.4043C94.7531 85.531 94.9898 85.5943 95.2298 85.5943Z" fill="#4F6A84"/>
<path d="M81.2108 69.2248H77.3738V74.1758H67.9257V69.2248H52.9489V63.0361L65.2026 45.295H75.1871L64.295 61.6745H68.2145V57.2599H77.3738V61.6745H81.2108V69.2248Z" fill="#DB5472"/>
</svg>
