<?xml version="1.0" encoding="utf-8"?>
<!-- Generator: Adobe Illustrator 26.3.1, SVG Export Plug-In . SVG Version: 6.00 Build 0)  -->
<svg version="1.1" id="Слой_1" xmlns="http://www.w3.org/2000/svg" xmlns:xlink="http://www.w3.org/1999/xlink" x="0px" y="0px"
	 viewBox="0 0 136 130" style="enable-background:new 0 0 136 130;" xml:space="preserve">
<style type="text/css">
	.st0{fill:none;stroke:#C7DDF2;stroke-width:6.7775;stroke-miterlimit:10;}
	.st1{fill:none;stroke:#FFCC00;stroke-width:10.3146;stroke-linecap:round;stroke-linejoin:round;stroke-miterlimit:10;}
	.st2{fill:#4F6A84;}
	.st3{fill:#FFCC00;}
</style>
<path class="st0" d="M119.8,76.9c6.9-28.9-11.5-57.8-41.1-64.6C49,5.6,19.4,23.6,12.5,52.5C5.6,81.5,24,110.4,53.6,117.1
	C83.3,123.9,112.9,105.9,119.8,76.9z"/>
<path class="st1" d="M104.1,24.5c26.6,22.4,25.3,65.2-3.9,84.9c-7.8,5.3-16.9,8.4-26.4,9.2"/>
<path class="st2" d="M35.8,86.4h-1.2v-6.7h2.9c0.7,0,1.2,0.2,1.6,0.6c0.4,0.4,0.6,0.9,0.6,1.5c0,0.6-0.2,1.1-0.6,1.5
	c-0.4,0.4-0.9,0.6-1.6,0.6h-1.8V86.4z M37.4,82.9c0.3,0,0.6-0.1,0.8-0.3c0.2-0.2,0.3-0.4,0.3-0.8s-0.1-0.6-0.3-0.8
	c-0.2-0.2-0.5-0.3-0.8-0.3h-1.6v2.1H37.4z M40.5,88.3l0.2-0.9c0.1,0.1,0.3,0.1,0.4,0.1c0.3,0,0.6-0.1,0.7-0.4l0.2-0.5l-2-4.9h1.1
	l1.4,3.6l1.4-3.6h1.1l-2.3,5.7c-0.3,0.7-0.8,1.1-1.7,1.1C40.9,88.4,40.7,88.3,40.5,88.3z M50.3,86.4H49l-1.5-2l-0.7,0.7v1.3h-1.1
	v-4.8h1.1v2.3l2.1-2.3h1.3l-2,2.2L50.3,86.4z M53.1,86.5c-0.7,0-1.3-0.2-1.8-0.7c-0.5-0.5-0.7-1.1-0.7-1.8c0-0.7,0.2-1.3,0.7-1.8
	c0.5-0.5,1.1-0.7,1.8-0.7c0.8,0,1.4,0.2,1.8,0.7c0.5,0.5,0.7,1.1,0.7,1.8c0,0.7-0.2,1.3-0.7,1.8C54.5,86.3,53.9,86.5,53.1,86.5z
	 M53.1,85.6c0.4,0,0.8-0.2,1-0.5c0.3-0.3,0.4-0.7,0.4-1.2c0-0.4-0.1-0.8-0.4-1.1c-0.2-0.3-0.6-0.5-1-0.5c-0.4,0-0.8,0.2-1,0.5
	c-0.2,0.3-0.4,0.7-0.4,1.1c0,0.5,0.1,0.8,0.4,1.2C52.4,85.4,52.7,85.6,53.1,85.6z M59.7,86.4h-3v-4.8h2.9c0.4,0,0.8,0.1,1,0.3
	c0.3,0.2,0.4,0.5,0.4,0.9c0,0.3-0.1,0.5-0.2,0.7c-0.2,0.2-0.3,0.3-0.6,0.4c0.3,0.1,0.5,0.2,0.6,0.4c0.2,0.2,0.3,0.5,0.3,0.8
	c0,0.4-0.1,0.7-0.4,0.9C60.5,86.3,60.1,86.4,59.7,86.4z M59.4,85.5c0.2,0,0.3,0,0.4-0.1c0.1-0.1,0.2-0.2,0.2-0.4
	c0-0.2-0.1-0.3-0.2-0.4c-0.1-0.1-0.3-0.2-0.4-0.2h-1.7v1.1H59.4z M59.4,83.5c0.2,0,0.3,0,0.4-0.1c0.1-0.1,0.1-0.2,0.1-0.3
	c0-0.2,0-0.3-0.1-0.4c-0.1-0.1-0.2-0.1-0.4-0.1h-1.7v1H59.4z M64.6,86.5c-0.7,0-1.3-0.2-1.8-0.7c-0.5-0.5-0.7-1.1-0.7-1.8
	c0-0.7,0.2-1.3,0.7-1.8c0.5-0.5,1.1-0.7,1.8-0.7c0.8,0,1.4,0.2,1.8,0.7c0.5,0.5,0.7,1.1,0.7,1.8c0,0.7-0.2,1.3-0.7,1.8
	C66,86.3,65.4,86.5,64.6,86.5z M64.6,85.6c0.4,0,0.8-0.2,1-0.5c0.3-0.3,0.4-0.7,0.4-1.2c0-0.4-0.1-0.8-0.4-1.1
	c-0.2-0.3-0.6-0.5-1-0.5c-0.4,0-0.8,0.2-1,0.5c-0.2,0.3-0.4,0.7-0.4,1.1c0,0.5,0.1,0.8,0.4,1.2C63.8,85.4,64.2,85.6,64.6,85.6z
	 M67.7,87.6v-2.1c0.2-0.1,0.4-0.2,0.5-0.4c0.1-0.2,0.2-0.6,0.3-1.2l0.3-2.3h3.7v3.9H73v2.2H72v-1.2h-3.2v1.2H67.7z M69.7,82.5
	L69.5,84c-0.1,0.6-0.3,1.1-0.6,1.4h2.6v-3H69.7z M74.9,86.4h-1v-4.8h1v3.2l2.2-3.2h1.1v4.8h-1.1v-3.3L74.9,86.4z M81.5,86.4h-1v-3.9
	h-1.4v-0.9h3.8v0.9h-1.4V86.4z M86,86.5c-0.7,0-1.3-0.2-1.8-0.7c-0.5-0.5-0.7-1.1-0.7-1.8c0-0.7,0.2-1.3,0.7-1.8
	c0.5-0.5,1.1-0.7,1.8-0.7c0.7,0,1.3,0.2,1.7,0.7c0.4,0.5,0.7,1.1,0.7,1.9v0.2h-3.7c0,0.4,0.2,0.7,0.5,1c0.3,0.3,0.6,0.4,1.1,0.4
	c0.2,0,0.5,0,0.7-0.1c0.3-0.1,0.5-0.2,0.6-0.4l0.5,0.7C87.4,86.3,86.8,86.5,86,86.5z M87.2,83.6c0-0.3-0.1-0.6-0.4-0.9
	c-0.2-0.3-0.6-0.4-1-0.4c-0.4,0-0.7,0.1-1,0.4c-0.2,0.3-0.4,0.6-0.4,0.9H87.2z M88.8,86.5v-0.9c0.2,0,0.4-0.1,0.5-0.4
	c0.1-0.3,0.2-0.7,0.3-1.3l0.3-2.3h3.7v4.8h-1v-3.9h-1.8L90.6,84c-0.1,0.9-0.3,1.5-0.6,1.9C89.8,86.3,89.3,86.5,88.8,86.5z M95,81.6
	H96v1.8h1.7c0.5,0,0.9,0.1,1.2,0.4c0.3,0.3,0.4,0.7,0.4,1.1c0,0.4-0.1,0.8-0.4,1.1c-0.3,0.3-0.7,0.4-1.2,0.4H95V81.6z M97.6,84.2H96
	v1.2h1.6c0.2,0,0.4-0.1,0.5-0.2c0.1-0.1,0.2-0.3,0.2-0.4c0-0.2-0.1-0.3-0.2-0.5C98,84.3,97.8,84.2,97.6,84.2z M51,98.4h-1v-4.8h1.1
	v3.2l2.2-3.2h1v4.8h-1v-3.3L51,98.4z M61.2,98.4h-3v-4.8h2.9c0.4,0,0.8,0.1,1,0.3c0.3,0.2,0.4,0.5,0.4,0.9c0,0.3-0.1,0.5-0.2,0.7
	c-0.2,0.2-0.3,0.3-0.6,0.4c0.3,0.1,0.5,0.2,0.7,0.4c0.2,0.2,0.3,0.5,0.3,0.8c0,0.4-0.1,0.7-0.4,0.9C62.1,98.3,61.7,98.4,61.2,98.4z
	 M61,97.5c0.2,0,0.3,0,0.4-0.1c0.1-0.1,0.2-0.2,0.2-0.4c0-0.2-0.1-0.3-0.2-0.4c-0.1-0.1-0.3-0.2-0.4-0.2h-1.7v1.1H61z M61,95.5
	c0.2,0,0.3,0,0.4-0.1c0.1-0.1,0.2-0.2,0.2-0.3c0-0.2-0.1-0.3-0.2-0.4c-0.1-0.1-0.2-0.1-0.4-0.1h-1.7v1H61z M64,93.6h1.1v1.8h1.7
	c0.5,0,0.9,0.1,1.2,0.4c0.3,0.3,0.4,0.7,0.4,1.1c0,0.4-0.1,0.8-0.4,1.1c-0.3,0.3-0.7,0.4-1.2,0.4H64V93.6z M66.6,96.2h-1.6v1.2h1.6
	c0.2,0,0.4-0.1,0.5-0.2c0.1-0.1,0.2-0.3,0.2-0.4c0-0.2-0.1-0.3-0.2-0.5C67,96.3,66.8,96.2,66.6,96.2z M70.2,98.4h-1.1v-4.8h1.1V98.4
	z M77,93.6h1.1v4.8h-6.6v-4.8h1.1v3.9h1.7v-3.9h1.1v3.9H77V93.6z M81.7,98.5c-0.7,0-1.3-0.2-1.8-0.7c-0.5-0.5-0.7-1.1-0.7-1.8
	c0-0.7,0.2-1.3,0.7-1.8c0.5-0.5,1.1-0.7,1.8-0.7c0.7,0,1.3,0.2,1.7,0.7c0.4,0.5,0.7,1.1,0.7,1.9v0.2h-3.7c0,0.4,0.2,0.7,0.5,1
	c0.3,0.3,0.6,0.4,1.1,0.4c0.2,0,0.5,0,0.7-0.1c0.3-0.1,0.5-0.2,0.6-0.4l0.5,0.7C83.1,98.3,82.5,98.5,81.7,98.5z M82.9,95.6
	c0-0.3-0.1-0.6-0.4-0.9c-0.2-0.3-0.6-0.4-1-0.4c-0.4,0-0.7,0.1-1,0.4c-0.2,0.3-0.4,0.6-0.4,0.9H82.9z"/>
<path class="st3" d="M56.4,56.7c2.2,0.6,3.9,1.6,5.1,3c1.2,1.4,1.8,3.2,1.8,5.2c0,1.7-0.5,3.4-1.4,4.9c-0.9,1.5-2.4,2.7-4.4,3.6
	c-2,0.9-4.4,1.4-7.4,1.4c-2,0-4.1-0.2-6.1-0.7c-2-0.4-3.8-1.1-5.3-1.9l3.3-7.2c1.2,0.7,2.4,1.2,3.8,1.6c1.4,0.4,2.7,0.5,4,0.5
	c1.1,0,2-0.2,2.7-0.6c0.7-0.4,1-0.9,1-1.7c0-1.3-1.1-2-3.4-2h-3.8v-6l4.2-4.3H40.2v-7.3h21.5v6L56.4,56.7z M78.6,74.8
	c-2.6,0-4.8-0.6-6.8-1.8c-2-1.2-3.5-2.9-4.6-5.2c-1.1-2.3-1.7-5-1.7-8.1c0-3.1,0.6-5.8,1.7-8.1c1.1-2.3,2.7-4,4.6-5.2
	c2-1.2,4.2-1.8,6.8-1.8s4.8,0.6,6.8,1.8c2,1.2,3.5,2.9,4.6,5.2c1.1,2.3,1.7,5,1.7,8.1c0,3.1-0.6,5.8-1.7,8.1c-1.1,2.3-2.6,4-4.6,5.2
	C83.4,74.2,81.2,74.8,78.6,74.8z M78.6,67c2.2,0,3.3-2.4,3.3-7.3s-1.1-7.3-3.3-7.3c-2.2,0-3.3,2.4-3.3,7.3S76.4,67,78.6,67z"/>
</svg>
