<svg width="131" height="129" viewBox="0 0 131 129" fill="none" xmlns="http://www.w3.org/2000/svg">
<path d="M119.278 75.9282C125.672 46.8939 106.746 18.2965 77.0054 12.0543C47.2647 5.81205 17.9716 24.2887 11.5775 53.3231C5.18344 82.3575 24.1096 110.955 53.8504 117.197C83.5911 123.439 112.884 104.963 119.278 75.9282Z" stroke="#C7DDF2" stroke-width="6.77749" stroke-miterlimit="10"/>
<path d="M97.7107 20.4864C121.968 37.1428 128.185 70.7575 111.522 94.5685C95.0192 118.172 61.2771 125.073 36.4606 109.792C22.9098 101.475 13.6706 87.5566 11.4246 72.1125" stroke="#4F6A84" stroke-width="10.3146" stroke-miterlimit="10" stroke-linecap="round"/>
<path d="M48.9814 86.4043H45.6114V79.7343H48.8914C49.4847 79.7343 49.948 79.8976 50.2814 80.2243C50.6214 80.5443 50.7914 80.9476 50.7914 81.4343C50.7914 81.8343 50.678 82.1743 50.4514 82.4543C50.2314 82.7276 49.958 82.8976 49.6314 82.9643C49.9914 83.0176 50.2947 83.2043 50.5414 83.5243C50.7947 83.8376 50.9214 84.1976 50.9214 84.6043C50.9214 85.1376 50.748 85.571 50.4014 85.9043C50.0614 86.2376 49.588 86.4043 48.9814 86.4043ZM48.6514 82.4943C48.9447 82.4943 49.1747 82.4143 49.3414 82.2543C49.508 82.0943 49.5914 81.8876 49.5914 81.6343C49.5914 81.3743 49.508 81.1643 49.3414 81.0043C49.1747 80.8443 48.9447 80.7643 48.6514 80.7643H46.7814V82.4943H48.6514ZM48.7014 85.3743C49.0214 85.3743 49.2714 85.2943 49.4514 85.1343C49.6314 84.9676 49.7214 84.7376 49.7214 84.4443C49.7214 84.1843 49.6314 83.9676 49.4514 83.7943C49.2714 83.6143 49.0214 83.5243 48.7014 83.5243H46.7814V85.3743H48.7014ZM54.2957 86.5243C53.5624 86.5243 52.9557 86.291 52.4757 85.8243C52.0024 85.351 51.7657 84.7376 51.7657 83.9843C51.7657 83.2776 51.9957 82.681 52.4557 82.1943C52.9224 81.701 53.5091 81.4543 54.2157 81.4543C54.9291 81.4543 55.5024 81.701 55.9357 82.1943C56.3757 82.6876 56.5957 83.3176 56.5957 84.0843V84.3343H52.8657C52.9057 84.7143 53.0624 85.031 53.3357 85.2843C53.6091 85.5376 53.9657 85.6643 54.4057 85.6643C54.6524 85.6643 54.8991 85.6176 55.1457 85.5243C55.3991 85.431 55.6091 85.301 55.7757 85.1343L56.2557 85.8243C55.7691 86.291 55.1157 86.5243 54.2957 86.5243ZM55.5757 83.5943C55.5624 83.261 55.4391 82.9643 55.2057 82.7043C54.9791 82.4443 54.6491 82.3143 54.2157 82.3143C53.8024 82.3143 53.4791 82.4443 53.2457 82.7043C53.0124 82.9576 52.8824 83.2543 52.8557 83.5943H55.5757ZM57.1321 87.6343V85.5343C57.3588 85.481 57.5288 85.351 57.6421 85.1443C57.7621 84.931 57.8588 84.5243 57.9321 83.9243L58.2221 81.5743H61.9521V85.4843H62.4821V87.6343H61.4321V86.4043H58.1821V87.6343H57.1321ZM59.1521 82.4943L58.9821 84.0443C58.9155 84.6843 58.7021 85.1643 58.3421 85.4843H60.9021V82.4943H59.1521ZM63.135 88.2943L63.295 87.3543C63.415 87.4076 63.5484 87.4343 63.695 87.4343C64.035 87.4343 64.265 87.2943 64.385 87.0143L64.625 86.4643L62.645 81.5743H63.765L65.175 85.1943L66.585 81.5743H67.715L65.385 87.2743C65.0984 87.9876 64.545 88.351 63.725 88.3643C63.505 88.3643 63.3084 88.341 63.135 88.2943ZM73.8743 81.5743H74.9243V85.4843H75.5543V87.6343H74.5043V86.4043H68.3743V81.5743H69.4243V85.4843H71.1243V81.5743H72.1743V85.4843H73.8743V81.5743ZM77.4214 86.4043H76.4114V81.5743H77.4614V84.8243L79.6814 81.5743H80.7314V86.4043H79.6814V83.0643L77.4214 86.4043ZM83.105 86.4043H82.095V81.5743H83.145V84.8243L85.365 81.5743H86.415V86.4043H85.365V83.0643L83.105 86.4043ZM86.005 80.1843C85.5717 80.771 84.9884 81.0643 84.255 81.0643C83.5284 81.0643 82.9417 80.771 82.495 80.1843L82.975 79.7843C83.295 80.2243 83.7217 80.4443 84.255 80.4443C84.7884 80.4443 85.2117 80.2243 85.525 79.7843L86.005 80.1843ZM38.006 98.5243C37.2726 98.5243 36.6726 98.2876 36.206 97.8143C35.7393 97.3343 35.506 96.7243 35.506 95.9843C35.506 95.251 35.7393 94.6476 36.206 94.1743C36.6726 93.6943 37.2726 93.4543 38.006 93.4543C38.8126 93.4543 39.4293 93.741 39.856 94.3143L39.166 94.9543C38.8993 94.5743 38.5293 94.3843 38.056 94.3843C37.616 94.3843 37.2626 94.5343 36.996 94.8343C36.7293 95.1276 36.596 95.511 36.596 95.9843C36.596 96.4576 36.7293 96.8443 36.996 97.1443C37.2626 97.4443 37.616 97.5943 38.056 97.5943C38.516 97.5943 38.886 97.4043 39.166 97.0243L39.856 97.6643C39.4293 98.2376 38.8126 98.5243 38.006 98.5243ZM45.0967 98.4043H44.0467V94.4943H41.8267V98.4043H40.7767V93.5743H45.0967V98.4043ZM48.6903 98.5243C47.9569 98.5243 47.3503 98.291 46.8703 97.8243C46.3969 97.351 46.1603 96.7376 46.1603 95.9843C46.1603 95.2776 46.3903 94.681 46.8503 94.1943C47.3169 93.701 47.9036 93.4543 48.6103 93.4543C49.3236 93.4543 49.8969 93.701 50.3303 94.1943C50.7703 94.6876 50.9903 95.3176 50.9903 96.0843V96.3343H47.2603C47.3003 96.7143 47.4569 97.031 47.7303 97.2843C48.0036 97.5376 48.3603 97.6643 48.8003 97.6643C49.0469 97.6643 49.2936 97.6176 49.5403 97.5243C49.7936 97.431 50.0036 97.301 50.1703 97.1343L50.6503 97.8243C50.1636 98.291 49.5103 98.5243 48.6903 98.5243ZM49.9703 95.5943C49.9569 95.261 49.8336 94.9643 49.6003 94.7043C49.3736 94.4443 49.0436 94.3143 48.6103 94.3143C48.1969 94.3143 47.8736 94.4443 47.6403 94.7043C47.4069 94.9576 47.2769 95.2543 47.2503 95.5943H49.9703ZM55.8267 99.6343V98.4043H52.0267V93.5743H53.0767V97.4843H55.2967V93.5743H56.3467V97.4843H56.8767V99.6343H55.8267ZM58.7496 98.4043H57.7396V93.5743H58.7896V96.8243L61.0096 93.5743H62.0596V98.4043H61.0096V95.0643L58.7496 98.4043ZM67.4232 98.4043H66.3732V97.8843C65.9998 98.311 65.4798 98.5243 64.8132 98.5243C64.3732 98.5243 63.9832 98.3843 63.6432 98.1043C63.3032 97.8176 63.1332 97.4243 63.1332 96.9243C63.1332 96.411 63.2998 96.021 63.6332 95.7543C63.9732 95.4876 64.3665 95.3543 64.8132 95.3543C65.4998 95.3543 66.0198 95.561 66.3732 95.9743V95.2543C66.3732 94.9743 66.2698 94.7543 66.0632 94.5943C65.8565 94.4343 65.5832 94.3543 65.2432 94.3543C64.7032 94.3543 64.2265 94.5576 63.8132 94.9643L63.3832 94.2343C63.9298 93.7143 64.6065 93.4543 65.4132 93.4543C66.0065 93.4543 66.4898 93.5943 66.8632 93.8743C67.2365 94.1543 67.4232 94.5976 67.4232 95.2043V98.4043ZM65.2232 97.8043C65.7498 97.8043 66.1332 97.6376 66.3732 97.3043V96.5743C66.1332 96.241 65.7498 96.0743 65.2232 96.0743C64.9232 96.0743 64.6765 96.1543 64.4832 96.3143C64.2898 96.4743 64.1932 96.6843 64.1932 96.9443C64.1932 97.2043 64.2898 97.4143 64.4832 97.5743C64.6765 97.7276 64.9232 97.8043 65.2232 97.8043ZM68.2845 98.5243V97.6643C68.4912 97.6643 68.6545 97.531 68.7745 97.2643C68.9012 96.9976 69.0045 96.551 69.0845 95.9243L69.3745 93.5743H73.1045V98.4043H72.0545V94.4943H70.3045L70.1345 96.0443C70.0412 96.911 69.8445 97.541 69.5445 97.9343C69.2445 98.3276 68.8245 98.5243 68.2845 98.5243ZM75.4781 98.4043H74.4681V93.5743H75.5181V96.8243L77.7381 93.5743H78.7881V98.4043H77.7381V95.0643L75.4781 98.4043ZM82.3517 98.5243C81.6183 98.5243 81.0183 98.2876 80.5517 97.8143C80.085 97.3343 79.8517 96.7243 79.8517 95.9843C79.8517 95.251 80.085 94.6476 80.5517 94.1743C81.0183 93.6943 81.6183 93.4543 82.3517 93.4543C83.1583 93.4543 83.775 93.741 84.2017 94.3143L83.5117 94.9543C83.245 94.5743 82.875 94.3843 82.4017 94.3843C81.9617 94.3843 81.6083 94.5343 81.3417 94.8343C81.075 95.1276 80.9417 95.511 80.9417 95.9843C80.9417 96.4576 81.075 96.8443 81.3417 97.1443C81.6083 97.4443 81.9617 97.5943 82.4017 97.5943C82.8617 97.5943 83.2317 97.4043 83.5117 97.0243L84.2017 97.6643C83.775 98.2376 83.1583 98.5243 82.3517 98.5243ZM87.0524 98.4043H86.0024V94.4943H84.6224V93.5743H88.4424V94.4943H87.0524V98.4043ZM92.8804 98.4043H91.8704V93.5743H92.9204V96.8243L95.1404 93.5743H96.1904V98.4043H95.1404V95.0643L92.8804 98.4043ZM56.2904 110.404H53.3304V105.574H56.2204C56.6671 105.574 57.0171 105.691 57.2704 105.924C57.5237 106.158 57.6504 106.454 57.6504 106.814C57.6504 107.094 57.5737 107.331 57.4204 107.524C57.2671 107.718 57.0737 107.848 56.8404 107.914C57.1004 107.974 57.3171 108.118 57.4904 108.344C57.6637 108.564 57.7504 108.814 57.7504 109.094C57.7504 109.481 57.6204 109.798 57.3604 110.044C57.1071 110.284 56.7504 110.404 56.2904 110.404ZM56.0704 109.484C56.2571 109.484 56.4037 109.438 56.5104 109.344C56.6171 109.244 56.6704 109.111 56.6704 108.944C56.6704 108.791 56.6171 108.661 56.5104 108.554C56.4037 108.448 56.2571 108.394 56.0704 108.394H54.3804V109.484H56.0704ZM56.0404 107.474C56.2071 107.474 56.3371 107.431 56.4304 107.344C56.5304 107.251 56.5804 107.134 56.5804 106.994C56.5804 106.841 56.5304 106.721 56.4304 106.634C56.3371 106.541 56.2071 106.494 56.0404 106.494H54.3804V107.474H56.0404ZM59.053 105.574H60.103V107.324H61.813C62.3264 107.324 62.7197 107.471 62.993 107.764C63.273 108.058 63.413 108.424 63.413 108.864C63.413 109.298 63.2697 109.664 62.983 109.964C62.703 110.258 62.313 110.404 61.813 110.404H59.053V105.574ZM61.683 108.244H60.103V109.484H61.683C61.8897 109.484 62.0497 109.428 62.163 109.314C62.283 109.201 62.343 109.051 62.343 108.864C62.343 108.678 62.283 108.528 62.163 108.414C62.0497 108.301 61.8897 108.244 61.683 108.244ZM65.193 110.404H64.143V105.574H65.193V110.404ZM72.053 105.574H73.103V110.404H66.553V105.574H67.603V109.484H69.303V105.574H70.353V109.484H72.053V105.574ZM76.6932 110.524C75.9599 110.524 75.3532 110.291 74.8732 109.824C74.3999 109.351 74.1632 108.738 74.1632 107.984C74.1632 107.278 74.3932 106.681 74.8532 106.194C75.3199 105.701 75.9065 105.454 76.6132 105.454C77.3265 105.454 77.8999 105.701 78.3332 106.194C78.7732 106.688 78.9932 107.318 78.9932 108.084V108.334H75.2632C75.3032 108.714 75.4599 109.031 75.7332 109.284C76.0065 109.538 76.3632 109.664 76.8032 109.664C77.0499 109.664 77.2965 109.618 77.5432 109.524C77.7965 109.431 78.0065 109.301 78.1732 109.134L78.6532 109.824C78.1665 110.291 77.5132 110.524 76.6932 110.524ZM77.9732 107.594C77.9599 107.261 77.8365 106.964 77.6032 106.704C77.3765 106.444 77.0465 106.314 76.6132 106.314C76.1999 106.314 75.8765 106.444 75.6432 106.704C75.4099 106.958 75.2799 107.254 75.2532 107.594H77.9732Z" fill="#4F6A84"/>
<path d="M52.9963 55.4858C57.0396 55.4858 60.0102 56.3385 61.9081 58.0438C63.8335 59.7217 64.7962 61.9358 64.7962 64.6864C64.7962 66.5018 64.3148 68.1796 63.3522 69.7199C62.417 71.2327 60.9592 72.4704 58.9788 73.4331C56.9984 74.3683 54.5366 74.8359 51.5936 74.8359C49.5582 74.8359 47.5227 74.6159 45.4873 74.1758C43.4794 73.7357 41.7191 73.0893 40.2063 72.2366L43.5069 65.0577C44.7172 65.7454 45.9824 66.268 47.3027 66.6255C48.6505 66.9831 49.957 67.1619 51.2222 67.1619C52.35 67.1619 53.2576 66.9693 53.9453 66.5843C54.6604 66.1717 55.018 65.6078 55.018 64.8927C55.018 64.205 54.7017 63.6962 54.0691 63.3661C53.4364 63.0086 52.295 62.8298 50.6446 62.8298H42.2692L43.7132 45.295H62.8983V52.639H51.7173L51.511 55.4858H52.9963ZM78.3395 55.4858C82.3828 55.4858 85.3534 56.3385 87.2513 58.0438C89.1767 59.7217 90.1394 61.9358 90.1394 64.6864C90.1394 66.5018 89.658 68.1796 88.6953 69.7199C87.7602 71.2327 86.3024 72.4704 84.322 73.4331C82.3416 74.3683 79.8798 74.8359 76.9367 74.8359C74.9013 74.8359 72.8659 74.6159 70.8305 74.1758C68.8226 73.7357 67.0623 73.0893 65.5495 72.2366L68.8501 65.0577C70.0604 65.7454 71.3256 66.268 72.6459 66.6255C73.9937 66.9831 75.3002 67.1619 76.5654 67.1619C77.6931 67.1619 78.6008 66.9693 79.2885 66.5843C80.0036 66.1717 80.3612 65.6078 80.3612 64.8927C80.3612 64.205 80.0449 63.6962 79.4122 63.3661C78.7796 63.0086 77.6381 62.8298 75.9878 62.8298H67.6124L69.0564 45.295H88.2415V52.639H77.0605L76.8542 55.4858H78.3395Z" fill="#4F6A84"/>
</svg>
