<svg id="Слой_1" data-name="Слой 1" xmlns="http://www.w3.org/2000/svg" viewBox="0 0 86.26 87.45"><defs><style>.cls-1{fill:#fff;fill-rule:evenodd;}</style></defs><path class="cls-1" d="M86.26,32.36c-1.3-.49-5.7-.1-7.3.39,1.7-.68,5.9-3.6,5.9-5.93-3.4.29-6.3,2.33-9.4,3.79,2.4-1.46,6.1-4.37,7-6,1.3-2.43,1.1-4.27.4-4.85-.9,1.16-6.5,6.31-9,7.67a48.83,48.83,0,0,0,5.8-6.9c.8-1.16,2.3-5.92,0-7.58-.8,3.21-4.8,8.85-7.4,10.79,0-.19-.1-.88-.2-.68a19,19,0,0,1-4.4,5.54c0-.39-.1-1.07-.2-.88a16,16,0,0,1-4.9,4.76c-1,.59-2.8,2-2,3.41s1.5,1.84,1.9,3.3c.4,1.75-1.5,3.21-1.8,3.3-2.1.88-3.9,0-5.8-2,.8,0,3.5,0,3.1-3.11-1.7,1.27-4.6,1.07-5.7-.77,1.4.68,3.1-.59,3.5-1.36a3.63,3.63,0,0,1-3.7-.49c-1.4-1-1.1-3.69-.6-5a7.24,7.24,0,0,1,1.4-2.24,5.17,5.17,0,0,1,2.9-1.84c-.1.29,0,.87.6.68,1.3-.3,2.2-.68,3.6.09a1.42,1.42,0,0,1,.1,2,1.46,1.46,0,0,0,1.1-2.43c3.2,1.16,5.5,1,6-.88a4.46,4.46,0,0,1-2.9.59c-1.7-.2-2.6-1.27-5-1.36,3.4-1.56,5-.2,5.1.38,2-2,1-5-2.6-4.47,0-.58-.2-.77-1.2-.77-.1-.2-.2-.29-.2-.49,1.2-.19,4.3-.87,5.5-2.62,1-1.65-1.1-4.86.4-4.86a7.42,7.42,0,0,0,2.2.78c.8.68,1.3,1.45.6,2.43-.9,1.06-1.4,1.45-1.4,3,.1,1.16,1.5,2,1.7,2.72.1.29-.1.68-.7,1,1.3.58,1.9-.29,2-1.36.1-.87-.6-1.55-1-2.33a2.05,2.05,0,0,0,1.9.78c.6-.1,1.5.19,1.5.87,1.7-1.85-1-2.62-1.4-3.11-.1-.78,1.1-1.26,1.2-2.23.1-.78-.2-1.56-1.8-2.14s-2.2-1.46-3.5-2.63c-1.1-1-3.2-1.06-4,.2a2.17,2.17,0,0,0-1.1,1.26c-.7,2.33,2,3.11,1.4,5.15A3.78,3.78,0,0,1,60.06,18c-.1-.1-.2-.2-.3-.2v-.39c0-.77.9-1.55,1.2-2.62s-.7-2.82-2.3-2.33c0-.1,0-.2-.2-.2s-.3.2-.3.39c-.2,0-.5.1-.6.1v-.39c0-.1,0-.1-.1-.1h-.3a.79.79,0,0,0,0-1.45V10.4h.6V9.91h-.6V9.23h-.6v.68h-.4v.49h.6v.39a.82.82,0,0,0,0,1.45h-.3c-.1,0-.1,0-.1.1v.39c-.1,0-.4-.1-.6-.1-.1-.19-.2-.39-.3-.39s-.2.1-.2.2c-1.6-.49-2.5,1.36-2.3,2.33s1.2,1.85,1.2,2.62v.39c-.1,0-.2.1-.4.1-2.1-.29-4.5-2.43-6.1-3.5l-.1-.1a1.27,1.27,0,0,0,.3-1.26c0-1.26,1.5-2.53,1.9-4.18s-1.1-4.47-3.6-3.79a.37.37,0,0,0-.3-.39c-.3,0-.4.3-.5.59a2.39,2.39,0,0,0-.9.19V4.86c0-.1,0-.1-.1-.1H44a1.29,1.29,0,0,0,0-2.33V1.85h1l.2-.78h-1V0l-1,.1v1h-1v.87h1v.59a1.28,1.28,0,0,0,0,2.33h-.4c-.1,0-.1,0-.1.1v.58c-.2-.1-.7-.1-.9-.2-.1-.29-.3-.58-.5-.58s-.3.2-.3.39c-2.6-.78-4.1,2.23-3.6,3.79s1.9,3,1.9,4.18a1.28,1.28,0,0,0,.3,1.26c-1.6,1.07-4,3.3-6.2,3.6-.1,0-.2-.1-.4-.1v-.39c0-.78.9-1.55,1.2-2.62s-.7-2.82-2.3-2.34c0-.09,0-.19-.2-.19s-.3.19-.3.39c-.2,0-.5.1-.6.1v-.39c0-.1,0-.1-.1-.1h-.3a.8.8,0,0,0,0-1.46v-.39H31V10h-.6V9.33h-.6V10h-.6v.48h.6v.39a.83.83,0,0,0,0,1.46h-.3c-.1,0-.1,0-.1.1v.39c-.1,0-.4-.1-.6-.1-.1-.2-.2-.39-.3-.39s-.2.1-.2.19c-1.6-.48-2.5,1.37-2.3,2.34s1.2,1.84,1.2,2.62v.39c-.1.1-.2.1-.3.19-1.4.1-3.4-.87-3.8-2.23-.6-2.14,2.1-2.82,1.4-5.15a2.17,2.17,0,0,0-1.1-1.26c-.8-1.27-2.9-1.17-4-.2-1.3,1.17-2,2.14-3.5,2.62S14,13.22,14.06,14c.1,1,1.4,1.46,1.2,2.24-.4.48-3.1,1.26-1.4,3.11,0-.68.9-1,1.5-.88a2.14,2.14,0,0,0,1.9-.78c-.4.78-1.1,1.46-1,2.34.1,1.07.7,1.84,2,1.36-.6-.29-.7-.59-.7-1,.2-.78,1.6-1.66,1.7-2.73.1-1.55-.5-2-1.4-3s-.3-1.75.6-2.43a7.14,7.14,0,0,0,2.2-.77c1.5,0-.7,3.2.4,4.85,1.1,1.85,4.3,2.53,5.5,2.63,0,.19-.1.29-.2.48-.9-.09-1.2.1-1.2.78-3.6-.58-4.5,2.53-2.6,4.47.1-.48,1.7-1.94,5.1-.39-2.4.1-3.3,1.17-5,1.36a5.1,5.1,0,0,1-2.9-.58c.5,1.85,2.8,2,6,.87a1.44,1.44,0,0,0,1.1,2.43c-.5-.68-.5-1.65.1-1.94,1.4-.87,2.3-.49,3.6-.1a.49.49,0,0,0,.6-.68,5.37,5.37,0,0,1,2.9,1.85,7.58,7.58,0,0,1,1.4,2.23c.5,1.36.8,4.09-.6,5.06a3.37,3.37,0,0,1-3.7.48,2.93,2.93,0,0,0,3.5,1.36c-1,1.85-3.9,2-5.7.78-.4,3.11,2.3,3.21,3.1,3.11-1.9,2-3.7,2.91-5.8,2-.3-.19-2.2-1.55-1.8-3.3.4-1.46,1.2-2,1.9-3.31s-1-2.82-2-3.4a20.49,20.49,0,0,1-4.9-4.76c-.1-.19-.3.49-.2.88a19,19,0,0,1-4.4-5.54c-.1-.2-.2.48-.2.68-2.6-1.95-6.6-7.58-7.4-10.79-2.3,1.75-.8,6.41,0,7.58a44.26,44.26,0,0,0,5.8,6.9c-2.5-1.36-8.1-6.51-9-7.68-.7.59-.9,2.43.4,4.86.9,1.65,4.5,4.57,7,6-3.1-1.46-6-3.41-9.4-3.79.1,2.23,4.3,5.15,5.9,5.92-1.6-.48-6-.87-7.3-.39.1.39,3,2.92,7,4.09a26.84,26.84,0,0,0-6.6.87,12.48,12.48,0,0,0,6,2.82c-1.1,0-3.8.29-4.9,1.36l-.4.39a3.32,3.32,0,0,0,.5.58,2.17,2.17,0,0,1,.5.39,1,1,0,0,1-.4.48v-.29c0-.09-.2-.29-.3-.09v.09H2a.3.3,0,0,0-.1-.19H2v-.1h-.1v-.1h-.1v.1h.4c-.1.1,0,.2.1.1h-.1c-.2,0-.2.29-.1.29s.2.1.2.19c-.1.39-.4.3-.5.2s.1-.39-.1-.58a.35.35,0,0,0-.2-.1c-.1-.1-.3,0-.3.19s-.1.29-.2.39a.36.36,0,0,0-.1.29c.1.1.2.1.2.2s-.3.29,0,.39c0-.1,0-.1.1-.2s.1-.09.2-.19v.29c.1.1.2.19.3.1-.1,0-.1,0-.1-.1s.1-.19,0-.39-.2-.1-.3-.19a.37.37,0,0,1-.1-.3c.1,0,.1-.09.2-.19s.1.39.3.49.5.09.6.09v.1c-.1,0-.1,0-.1.1-.4.1-.3.39-.1.58,0-.1.1-.29.5-.29a1.49,1.49,0,0,0-.4.39.37.37,0,0,1-.3.1c.1.19.4.09.6-.2,0,.1.1.29.2.2-.1,0-.1-.1-.1-.2s.2-.1.4-.19.1-.1,0-.1c.2,0,.3,0,.4.1a.21.21,0,0,1,.2.19c.1.1.3.39.2.49a.41.41,0,0,1-.4.19.3.3,0,0,0,.4,0,.38.38,0,0,1-.5.29c.1.29.4.2.5.2-.1.29-.2.48-.5.48,0,0-.3-.09-.3-.29v-.39c0-.19-.2-.19-.3-.29s-.5-.1-.7-.29v.1a1.31,1.31,0,0,1-.7-.39v.1A3.23,3.23,0,0,1,.06,44c-.2.29.2.68.3.78a9,9,0,0,0,.9.48,3.38,3.38,0,0,1-1.2-.39.53.53,0,0,0,.3.49,2.93,2.93,0,0,0,1,.29,4,4,0,0,0-1.1,0,1.54,1.54,0,0,0,.9.39,1.49,1.49,0,0,0-.7.29,1.62,1.62,0,0,0,.9.1,1.19,1.19,0,0,0-.6.39.94.94,0,0,0,.7,0,.88.88,0,0,0-.5.38v.1c.2.1.4,0,.7-.1-.2.2-.3.3-.3.49a.81.81,0,0,0,.5-.19c0,.09-.1.19-.1.38a.1.1,0,0,0,.1.1.1.1,0,0,0,.1.1c.3.29.8.68,1.1,1a.1.1,0,0,0,.1.1l.1.19a.1.1,0,0,0,.1.1.1.1,0,0,0,.1.1v.19a.1.1,0,0,0,.1.1V50c0,.09,0,.09.1.09h.1a.1.1,0,0,0,.1.1h.2c-.1,0,0,.1.1.1s.1.09.1,0c0,.09.1,0,.1,0s.1,0,0-.1,0-.1-.1-.1,0-.09-.1-.09,0-.1-.1,0a.1.1,0,0,0-.1-.1A2.13,2.13,0,0,1,5,49c.1-.09.2-.09.1-.19a.22.22,0,0,1-.2-.2c.1,0,.3-.09.3-.19-.2.19-.4-.1-.3-.19s.3-.3.5-.1V48c.2.1.3.29.2.39s-.2.29-.1.39c.1-.2.1-.1.2-.2-.1.2-.4.49-.5.69s-.3.19-.3.09v-.09c-.2.09-.2.38.1.38a.4.4,0,0,0,.2.59V50c.2.38.5.38.7.09a.37.37,0,0,0,.3.1c.1,0,.2-.1.3-.1-.1.2-.2.29-.2.49a1.11,1.11,0,0,0,.9,1.16c0,.39,0,.78.5.88,1.6,3.21,4,8.65,5.7,11.85-.2.68.4,1.27.8,1.17a14.75,14.75,0,0,0,.4,2.23.74.74,0,0,0,.8,1.17c0,.58.2,1,.2,1.56-.4.68-.7,1.55-.9,1.94-.3.68.1,1,.8.87,0,.1-.1.2-.2.49,0,.48,0,.68.7.87h.9a.66.66,0,0,0,.2,1.17,3.38,3.38,0,0,1,2,1c-.6.2,0,.68.3.58.1.49.3.68.9.78.1.68.4.58.9.68.7.88.8.39.5-.29.3-.68.1-.78-.2-1a1,1,0,0,0,0-1.17c.2-.29,0-1-.4-.48-.1-.2-.1-.78-.2-.88,4-3.4,7.8-3.69,11.6-3.79,1.4-.19,1.7-.48,1.3-1.16a5.82,5.82,0,0,1-1.4-2c.1.09.2.09.3.19a2,2,0,0,0,3.1-.87c-2.5.68-3-2.14-2.1-3.11a3,3,0,0,1,4.7,1.36,1.4,1.4,0,0,0,.2-.68c1.6,1.94,1.2,3.3-.1,3.88-1.7.88-2.6,1.46-2.5,2.53,1.4-1,1.5-.39,3-1.17-1.5,1.36-5.2,2.24-6.9,3.89s-2.8.78-2.9-.19a2.91,2.91,0,0,1,.2-1.07c-2.2-.29-2.9,2.82-1.1,3.79-3.3,2-1.3,5.15-.2,5.83a4.29,4.29,0,0,1,1.5-2.43c.4,4.18,3,4.76,5.4,2.91a4.53,4.53,0,0,0,2.5,1.85,3.89,3.89,0,0,0,3.5-.58,4,4,0,0,0,2.6,3.2,4.17,4.17,0,0,0,2.6-3.2,3.89,3.89,0,0,0,3.5.58A4.53,4.53,0,0,0,52.16,83c2.4,1.85,5,1.27,5.4-2.91a4.29,4.29,0,0,1,1.5,2.43c1.1-.68,3.1-3.79-.2-5.83a2,2,0,0,0-1.1-3.79A2.51,2.51,0,0,1,58,74c-.1,1-1.1,1.84-2.9.19s-5.4-2.62-6.9-3.89c1.5.78,1.6.2,3,1.17.1-1.17-.8-1.75-2.5-2.53-1.3-.58-1.7-1.94-.1-3.88.1.29.1.58.2.68a3,3,0,0,1,4.7-1.36c.9,1,.4,3.79-2.1,3.11a2.1,2.1,0,0,0,3.1.87c0,.29.3.58-.4,1.46-1.2,1.36.2,1.75.7,1.75,2.8-.2,3.4.29,5.9.87,1.7.39,3.8-.1,6.7,1.85a4.26,4.26,0,0,0,1.9.87c.2.1,1.1.1,1.3-.58.8.39,2-1.07,4.1-1.07a1.16,1.16,0,0,0,1.1-1.26,4.46,4.46,0,0,0,1.7-2,.47.47,0,0,0,.5-.78c.6.19.9-1,.3-1.07.4-.19.2-1-.4-1a5.1,5.1,0,0,0-3.5-4c-.1-.77-.8-.68-1-.29,0-.19-.1-.29-.1-.39V61.8h.9v-1h-.9V60h-1v.88h-.9v1h.9v.87c-.1-.09-.1,0-.1.1-.3-.58-1-.1-1,.49a4.74,4.74,0,0,0-3.3,3.5.53.53,0,0,0-.3.87.59.59,0,1,0,.1,1.17c-.4.09-.3.87.2.77.1.39,0,.49.3.88-1.2.68-.7,1.55-4.8.87a9.84,9.84,0,0,1-5.2-2.62c.3-.2.4-.68.5-1.07a2.5,2.5,0,0,0,1.1,1.55,2.86,2.86,0,0,1,.1-1.55c.2,1,1.3,1.94,2.2,1.36a2.29,2.29,0,0,1-.9-2.62,2.27,2.27,0,0,0,3.5.48c-2.6-.48-1.3-3.69-1.8-5.44-.3-1-1-2-3.8-2.14a1.25,1.25,0,0,0,.6-1.16,3.07,3.07,0,0,1-4.2-1.85.93.93,0,0,0,1.2.1,5.4,5.4,0,0,1-.9-4.28,3.76,3.76,0,0,0,1.6-1.94c.1,1,.6,1.46,1.6,2A6.5,6.5,0,0,0,60.16,51c-.2,1.27-.6,3.5.1,4.86a5.24,5.24,0,0,0,1.9,2,3.57,3.57,0,0,0,1.4-2.34,9.37,9.37,0,0,0-.7-4.27h.4a1.7,1.7,0,0,0,.5-.88,45.77,45.77,0,0,0,1.1,5.06c.3.87,1.7,2.52,2.7,2.62a3.37,3.37,0,0,0,.7-3.21,19.21,19.21,0,0,0-2-4.56h.2a7.53,7.53,0,0,0,.2-1.66c.8,1.85,1.8,4.09,2.7,5.93a4.38,4.38,0,0,0,3.2,1.75,3.25,3.25,0,0,0,.4-2.62c-.3-1.27-3-4.86-3.4-5.35-.1-.09.1-.19.1-.09.4.58,1.9,2.33,3.2,4,1.1,1.36,2.4,2.24,4.1,1.75a2.73,2.73,0,0,0-.6-2.72,58.8,58.8,0,0,0-4.6-4.57c1.6,1.07,4.7,3.89,7,3.89a3,3,0,0,0,1.8-.58c.1-1.37-1.8-2.63-2.5-3.11a7,7,0,0,0,5.1-.49c-.6-1.36-2.8-2.43-4.7-2.82,2.9.2,4.6-.29,6.3-1.55a.46.46,0,0,0,.1-.59c-1.1-1.16-4.1-1.45-5.2-1.45a12.17,12.17,0,0,0,6-2.82,23.12,23.12,0,0,0-6.6-.88C83.26,35.27,86.16,32.75,86.26,32.36ZM2.36,43.63h0c0-.1,0-.1.2-.2a.39.39,0,0,1,.3-.09C2.66,43.43,2.56,43.53,2.36,43.63Zm5.9,4c-.2,0-.4.1-.6-.09v-.1c0,.1.1.1.2.1a.31.31,0,0,0-.1-.2.19.19,0,0,0,.3,0,.1.1,0,0,1-.1-.1,1.88,1.88,0,0,0,.7-.09l.1.09a.1.1,0,0,1-.1.1c-.1,0-.1.1-.2.1Zm6.2,16.13c-2.1-3.88-4.3-8-6-11.66.2-.29.1-1-.3-1,0-.1.1-.19.1-.29h.1c2.3,0,5.4-2.82,7-3.89a36.5,36.5,0,0,0-4.6,4.57,3.29,3.29,0,0,0-.6,2.72c1.7.49,3-.39,4.1-1.75,1.3-1.65,2.7-3.4,3.2-4,.1-.1.2,0,.1.09-.3.49-3,4.09-3.4,5.35a3.23,3.23,0,0,0,.4,2.62,4.35,4.35,0,0,0,3.2-1.75c.8-1.84,1.9-4.08,2.7-5.92a4.18,4.18,0,0,0,.2,1.65h.2a19.12,19.12,0,0,0-2,4.57,3,3,0,0,0,.8,3.2,3.66,3.66,0,0,0,2.6-2.62,41.54,41.54,0,0,0,1.1-5,2.27,2.27,0,0,0,.5.87h.4a9.39,9.39,0,0,0-.7,4.28A4.55,4.55,0,0,0,25,58.11a7,7,0,0,0,1.9-2c.7-1.36.3-3.59.1-4.85a6.41,6.41,0,0,0,1.2,1.16c1-.58,1.5-1.07,1.6-2a4.31,4.31,0,0,0,1.6,1.94,5.73,5.73,0,0,1-.9,4.28.93.93,0,0,0,1.2-.1,3.2,3.2,0,0,1-4.2,1.85c-.1.39.3.87.6,1.17-2.8,0-3.5,1.06-3.8,2.13-.5,1.75.8,4.86-1.8,5.44a2.34,2.34,0,0,0,3.5-.48c.3,1.84-.4,2.23-.9,2.62,1,.59,2.1-.39,2.2-1.36a2.89,2.89,0,0,1,.1,1.56,2.55,2.55,0,0,0,1.1-1.56,2,2,0,0,0,.4,1c-2.7,2.34-7.4,3.6-8.8.49-.4-.58-.7-.78-1.5-.29-1.2.48-1-.2-1.7-.78.2-.68.1-1.17-.5-1.26a14.41,14.41,0,0,0-1.5-2C15.36,64.42,15.06,63.74,14.46,63.74ZM44.36,13.8h0l.1.1v.19c0,.1.1.1.2.19a.1.1,0,0,0,.1.1h-2.4v-.19a.1.1,0,0,1,.1-.1V13.6h.7a5.47,5.47,0,0,1,1.2.2ZM51.06,20c.3.09.7.19,1.2.29v.1a7,7,0,0,1-3.2-.1,1.93,1.93,0,0,0,1.5,1c-1.1,1.55-3.4,1.75-4.5,1.85a2.89,2.89,0,0,0,2.1.68,8.68,8.68,0,0,0-2,1.75c.3.09.4.09.7.19a4.39,4.39,0,0,0-1.6,2.43h.5a12.22,12.22,0,0,0-1.4,3.69,13.27,13.27,0,0,1-.6,1.85,13.27,13.27,0,0,1-.6-1.85,9.43,9.43,0,0,0-1.4-3.69h.5a5.16,5.16,0,0,0-1.6-2.43c.3-.1.4-.1.7-.19-.1-.1-1.6-1.46-2-1.75a2.89,2.89,0,0,0,2.1-.68c-1.1-.1-3.4-.3-4.5-1.85a1.93,1.93,0,0,0,1.5-1,8.81,8.81,0,0,1-3.2.1v-.1c.5-.1.8-.2,1.2-.29.6-.29,2.7-1.27,2.9-1.95-.5,0-3.8.68-4,.49a15.12,15.12,0,0,0,6.5-3.4,7.75,7.75,0,0,1,.9.1h2c.3,0,.4-.1.9-.1a15.07,15.07,0,0,0,6.5,3.4c-.2.19-3.4-.49-4-.49C48.36,18.75,50.46,19.73,51.06,20Zm-9.2,48.1c.2,0-.3,2.33-1.2,3.59-1.7,2.33-3.4,3-4.1,5.05a1.66,1.66,0,0,1-1.3.68,3,3,0,0,1,.9-2.81C37.76,72.68,41.46,71,41.86,68.12ZM33,78.9a2.12,2.12,0,0,0,1.3.68v.88A1.9,1.9,0,0,1,33,78.9Zm6.5-1.07c1.4-3.11,3.1-5.92,3-8.94,1,5.64-4.5,9.62-1.3,14.48C38.26,82.69,38.66,79.58,39.46,77.83Zm5.4-8.94c-.1,2.92,1.6,5.74,3,8.94.8,1.75,1.2,4.86-1.7,5.64C49.36,78.51,43.86,74.53,44.86,68.89ZM53,79.48a1.46,1.46,0,0,0,1.3-.68A1.65,1.65,0,0,1,53,80.26Zm-1-2a2,2,0,0,1-1.3-.68c-.7-1.94-2.4-2.72-4.1-5.05-.9-1.26-1.4-3.59-1.2-3.59.4,2.91,4.1,4.56,5.6,6.6A2.79,2.79,0,0,1,52,77.44ZM6.36,43.82v.3c.1.09.2.09.3.29-.2.09-.3.09-.5.19,0-.1,0-.1-.1-.19a.49.49,0,0,1-.6.19.31.31,0,0,0,.3-.29c-.1,0-.2.19-.4.1s-.3-.29-.3-.49v-.1Zm-2.6,0a.21.21,0,0,0,.2-.19c-.1,0-.4.1-.5,0a.35.35,0,0,0,.1-.2.37.37,0,0,1-.3.1l.1-.1c0-.09.2-.19.2-.29a1.47,1.47,0,0,0-.4.2c.1-.1.3-.2.4-.39a5.25,5.25,0,0,0,1.1.48.1.1,0,0,1-.1.1h.1a.36.36,0,0,0-.1.29v.59a.35.35,0,0,1-.1-.2c0-.09-.2-.19-.3-.29s-.2-.1-.3-.19H4C4,43.82,3.76,43.82,3.76,43.82Zm.1,5.35c-.1,0-.1-.1-.2,0s-.1,0-.2,0,0-.1-.1-.1l-.2-.1c0-.09,0-.09-.1-.09A12.09,12.09,0,0,1,2,48a.1.1,0,0,0-.1-.1c.2-.09.4-.48.5-.68a2.09,2.09,0,0,1-.3.49.35.35,0,0,0,.1.29c.2,0,.3-.19.3-.39a1.23,1.23,0,0,0,.1-.48c0,.09-.1.48-.1.68s.1.19.2.29a.34.34,0,0,0,.2-.29v-.68c0,.09.1.09.1.19v.58c.1.39.4.3.4-.09,0-.2-.1-.39-.1-.59l.1.1a.87.87,0,0,0,.1.49l.2.19a.35.35,0,0,0,.1-.29.76.76,0,0,0-.2-.49.35.35,0,0,1,.2.1.35.35,0,0,0,.1-.29.31.31,0,0,0,.2.1.84.84,0,0,1,.1.48c.1,0,.1,0,.1-.09a.34.34,0,0,1-.3.38l.1.1a.36.36,0,0,0-.3.39c0,.19.3.49.1.58a.2.2,0,0,0,.3-.19c.1.19.1.29,0,.29a.21.21,0,0,0,.2-.19c0,.09.1.09.1.19,0-.1.1-.1,0-.19a.09.09,0,0,0,.1.09C4.56,49.07,4.06,49.36,3.86,49.17Zm3.7-1c-.2-.1-.7,0-.9-.1.2,0,.2-.1.3,0,0-.1-.2-.1-.4-.2s-.3-.09-.2-.38a.09.09,0,0,0,.1.09.36.36,0,0,1,.1-.29H7c.1.1.1.29-.2.29.1.1.3.1.3,0a.14.14,0,0,1,0,.2c-.1.19.1.19.1.19.3-.1.4-.1.6-.19h.1c-.1.09-.2.09-.2.19h-.2l.1.1C7.76,48.1,7.66,48.2,7.56,48.2Z"/></svg>