<svg width="240" height="105" viewBox="0 0 240 105" fill="none" xmlns="http://www.w3.org/2000/svg">
<g clip-path="url(#clip0_3236_21758)">
<path d="M89.1562 57.6014V43.752H91.503L96.0802 52.9467L100.659 43.752H103.006V57.6014H100.563V49.3307L96.5429 57.6014H95.6189L91.599 49.3307V57.6014H89.1562Z" fill="white"/>
<path d="M113.202 55.4279C114.08 55.4412 114.811 55.2519 115.395 54.8599C115.978 54.4692 116.415 53.9146 116.707 53.1959C116.999 52.4786 117.146 51.6386 117.146 50.6772C117.146 49.7146 116.999 48.8812 116.707 48.1759C116.415 47.4706 115.978 46.9226 115.395 46.5319C114.811 46.1412 114.08 45.9386 113.202 45.9266C112.323 45.9132 111.592 46.1012 111.008 46.4932C110.426 46.8839 109.988 47.4386 109.696 48.1572C109.404 48.8746 109.258 49.7146 109.258 50.6772C109.258 51.6386 109.404 52.4719 109.696 53.1772C109.988 53.8826 110.426 54.4306 111.008 54.8212C111.592 55.2132 112.323 55.4146 113.202 55.4279ZM113.202 57.8906C111.816 57.8906 110.623 57.5892 109.619 56.9852C108.616 56.3826 107.843 55.5399 107.302 54.4559C106.759 53.3732 106.488 52.1132 106.488 50.6772C106.488 49.2399 106.759 47.9812 107.302 46.8972C107.843 45.8146 108.616 44.9706 109.619 44.3679C110.623 43.7652 111.816 43.4639 113.202 43.4639C114.587 43.4639 115.78 43.7652 116.784 44.3679C117.787 44.9706 118.56 45.8146 119.102 46.8972C119.644 47.9812 119.915 49.2399 119.915 50.6772C119.915 52.1132 119.644 53.3732 119.102 54.4559C118.56 55.5399 117.787 56.3826 116.784 56.9852C115.78 57.5892 114.587 57.8906 113.202 57.8906Z" fill="white"/>
<path d="M129.339 57.8905C127.953 57.8905 126.759 57.5892 125.755 56.9865C124.753 56.3839 123.98 55.5399 123.437 54.4559C122.896 53.3732 122.625 52.1132 122.625 50.6772C122.625 49.2412 122.896 47.9812 123.437 46.8972C123.98 45.8145 124.753 44.9705 125.755 44.3679C126.759 43.7652 127.953 43.4639 129.339 43.4639C130.928 43.4639 132.263 43.8585 133.344 44.6465C134.424 45.4359 135.187 46.5025 135.629 47.8492L132.992 48.5812C132.737 47.7412 132.304 47.0879 131.696 46.6239C131.087 46.1585 130.301 45.9265 129.339 45.9265C128.46 45.9265 127.728 46.1212 127.141 46.5132C126.553 46.9039 126.113 47.4559 125.817 48.1679C125.524 48.8785 125.376 49.7159 125.376 50.6772C125.376 51.6385 125.524 52.4745 125.817 53.1879C126.113 53.8985 126.553 54.4505 127.141 54.8412C127.728 55.2332 128.46 55.4279 129.339 55.4279C130.301 55.4279 131.087 55.1945 131.696 54.7252C132.304 54.2585 132.737 53.6079 132.992 52.7732L135.629 53.5039C135.187 54.8505 134.424 55.9185 133.344 56.7079C132.263 57.4959 130.928 57.8905 129.339 57.8905Z" fill="white"/>
<path d="M139.301 57.6014V43.752H141.917V50.1387L147.186 43.752H150.381L144.59 50.58L150.745 57.6014H147.438L141.917 51.292V57.6014H139.301Z" fill="white"/>
<path d="M158.826 55.4279C159.704 55.4412 160.436 55.2519 161.02 54.8599C161.602 54.4692 162.04 53.9146 162.332 53.1959C162.624 52.4786 162.769 51.6386 162.769 50.6772C162.769 49.7146 162.624 48.8812 162.332 48.1759C162.04 47.4706 161.602 46.9226 161.02 46.5319C160.436 46.1412 159.704 45.9386 158.826 45.9266C157.948 45.9132 157.217 46.1012 156.633 46.4932C156.05 46.8839 155.612 47.4386 155.32 48.1572C155.028 48.8746 154.882 49.7146 154.882 50.6772C154.882 51.6386 155.028 52.4719 155.32 53.1772C155.612 53.8826 156.05 54.4306 156.633 54.8212C157.217 55.2132 157.948 55.4146 158.826 55.4279ZM158.826 57.8906C157.441 57.8906 156.246 57.5892 155.242 56.9852C154.241 56.3826 153.466 55.5399 152.925 54.4559C152.384 53.3732 152.113 52.1132 152.113 50.6772C152.113 49.2399 152.384 47.9812 152.925 46.8972C153.466 45.8146 154.241 44.9706 155.242 44.3679C156.246 43.7652 157.441 43.4639 158.826 43.4639C160.21 43.4639 161.405 43.7652 162.409 44.3679C163.412 44.9706 164.185 45.8146 164.726 46.8972C165.268 47.9812 165.538 49.2399 165.538 50.6772C165.538 52.1132 165.268 53.3732 164.726 54.4559C164.185 55.5399 163.412 56.3826 162.409 56.9852C161.405 57.5892 160.21 57.8906 158.826 57.8906Z" fill="white"/>
<path d="M171.673 55.1396H174.885C175.238 55.1396 175.552 55.0649 175.828 54.9143C176.104 54.7636 176.32 54.5516 176.478 54.2783C176.634 54.0063 176.713 53.6849 176.713 53.3129C176.713 52.9863 176.645 52.6943 176.512 52.4383C176.376 52.1809 176.173 51.9769 175.901 51.8263C175.628 51.6756 175.29 51.6009 174.885 51.6009H171.673V55.1396ZM171.673 49.1583H174.521C174.814 49.1583 175.078 49.1063 175.309 49.0036C175.54 48.9023 175.722 48.7423 175.857 48.5276C175.992 48.3129 176.058 48.0356 176.058 47.6956C176.058 47.2729 175.926 46.9169 175.665 46.6289C175.402 46.3396 175.021 46.1956 174.521 46.1956H171.673V49.1583ZM169.02 57.6023V43.7529H174.558C175.545 43.7529 176.345 43.9503 176.953 44.3449C177.562 44.7383 178.008 45.2343 178.29 45.8303C178.573 46.4263 178.713 47.0289 178.713 47.6383C178.713 48.4143 178.538 49.0583 178.19 49.5716C177.84 50.0849 177.361 50.4276 176.752 50.6009V50.1196C177.617 50.2996 178.266 50.6996 178.7 51.3223C179.132 51.9436 179.349 52.6396 179.349 53.4089C179.349 54.2356 179.196 54.9636 178.892 55.5916C178.588 56.2209 178.124 56.7129 177.501 57.0676C176.88 57.4236 176.097 57.6023 175.154 57.6023H169.02Z" fill="white"/>
<path d="M188.772 57.8905C187.387 57.8905 186.192 57.5892 185.188 56.9865C184.187 56.3839 183.414 55.5399 182.871 54.4559C182.33 53.3732 182.059 52.1132 182.059 50.6772C182.059 49.2412 182.33 47.9812 182.871 46.8972C183.414 45.8145 184.187 44.9705 185.188 44.3679C186.192 43.7652 187.387 43.4639 188.772 43.4639C190.362 43.4639 191.696 43.8585 192.778 44.6465C193.858 45.4359 194.62 46.5025 195.062 47.8492L192.427 48.5812C192.171 47.7412 191.738 47.0879 191.128 46.6239C190.52 46.1585 189.735 45.9265 188.772 45.9265C187.894 45.9265 187.162 46.1212 186.575 46.5132C185.988 46.9039 185.547 47.4559 185.252 48.1679C184.958 48.8785 184.81 49.7159 184.81 50.6772C184.81 51.6385 184.958 52.4745 185.252 53.1879C185.547 53.8985 185.988 54.4505 186.575 54.8412C187.162 55.2332 187.894 55.4279 188.772 55.4279C189.735 55.4279 190.52 55.1945 191.128 54.7252C191.738 54.2585 192.171 53.6079 192.427 52.7732L195.062 53.5039C194.62 54.8505 193.858 55.9185 192.778 56.7079C191.696 57.4959 190.362 57.8905 188.772 57.8905Z" fill="white"/>
<path d="M198.738 57.6014V43.752H201.354V50.1387L206.625 43.752H209.818L204.027 50.58L210.182 57.6014H206.875L201.354 51.292V57.6014H198.738Z" fill="white"/>
<path d="M221.76 57.6014V48.3694L215.739 57.6014H213.086V43.752H215.739V52.9854L221.76 43.752H224.415V57.6014H221.76Z" fill="white"/>
<path d="M234.281 42.5983C233.716 42.5983 233.203 42.461 232.743 42.185C232.28 41.909 231.912 41.541 231.637 41.0783C231.361 40.617 231.223 40.105 231.223 39.541H233.243C233.243 39.829 233.344 40.0743 233.545 40.2756C233.748 40.4783 233.992 40.5783 234.281 40.5783C234.569 40.5783 234.813 40.4783 235.017 40.2756C235.219 40.0743 235.319 39.829 235.319 39.541H237.339C237.339 40.105 237.201 40.617 236.925 41.0783C236.649 41.541 236.281 41.909 235.819 42.185C235.359 42.461 234.845 42.5983 234.281 42.5983ZM228.664 57.601V43.753H231.319V52.9863L237.339 43.753H239.993V57.601H237.339V48.369L231.319 57.601H228.664Z" fill="white"/>
<path d="M90.8119 80.683L92.7346 76.7976L88.0039 66.835H90.9652L94.1012 74.047L97.3519 66.835H100.141L93.6012 80.683H90.8119Z" fill="white"/>
<path d="M102.738 80.683V66.835H105.354V72.5283H111.547V66.835H114.163V80.683H111.547V74.971H105.354V80.683H102.738Z" fill="white"/>
<path d="M126.78 80.683V71.451L120.76 80.683H118.105V66.835H120.76V76.067L126.78 66.835H129.435V80.683H126.78Z" fill="white"/>
<path d="M136.032 78.2207H139.245C139.597 78.2207 139.912 78.146 140.187 77.9953C140.463 77.8447 140.679 77.634 140.837 77.3607C140.995 77.0873 141.072 76.766 141.072 76.394C141.072 76.0673 141.004 75.7753 140.871 75.5193C140.735 75.262 140.532 75.0594 140.26 74.9087C139.987 74.7567 139.649 74.682 139.245 74.682H136.032V78.2207ZM136.032 72.2393H138.88C139.173 72.2393 139.437 72.1887 139.669 72.086C139.899 71.9834 140.081 71.8247 140.217 71.61C140.351 71.394 140.419 71.118 140.419 70.7767C140.419 70.3553 140.287 69.998 140.024 69.71C139.761 69.422 139.38 69.2767 138.88 69.2767H136.032V72.2393ZM133.379 80.6833V66.834H138.917C139.905 66.834 140.704 67.0314 141.312 67.426C141.921 67.8207 142.368 68.3154 142.649 68.9114C142.932 69.5074 143.072 70.11 143.072 70.7207C143.072 71.4967 142.897 72.1393 142.549 72.6527C142.199 73.166 141.72 73.5087 141.111 73.682V73.2007C141.976 73.3807 142.625 73.782 143.059 74.4033C143.492 75.026 143.708 75.7207 143.708 76.49C143.708 77.3167 143.556 78.0447 143.251 78.674C142.947 79.302 142.483 79.794 141.861 80.15C141.239 80.506 140.456 80.6833 139.513 80.6833H133.379Z" fill="white"/>
<path d="M146.879 80.683V66.835H155.919V69.2776H149.495V72.239H154.766V74.6816H149.495V78.2403H155.919V80.683H146.879Z" fill="white"/>
<path d="M162.096 73.5473H165.212C165.347 73.5473 165.495 73.5406 165.655 73.5273C165.815 73.5153 165.961 73.49 166.097 73.4513C166.449 73.354 166.723 73.1926 166.913 72.9646C167.107 72.738 167.239 72.4846 167.313 72.206C167.388 71.926 167.424 71.662 167.424 71.4126C167.424 71.162 167.388 70.898 167.313 70.618C167.239 70.3393 167.107 70.086 166.913 69.8593C166.723 69.6313 166.449 69.4686 166.097 69.374C165.961 69.334 165.815 69.3086 165.655 69.2966C165.495 69.2833 165.347 69.2766 165.212 69.2766H162.096V73.5473ZM159.48 80.6833V66.834H165.328C165.461 66.834 165.643 66.8393 165.871 66.8486C166.099 66.858 166.301 66.8793 166.481 66.9113C167.308 67.0393 167.987 67.3113 168.515 67.7286C169.044 68.146 169.435 68.67 169.684 69.3006C169.935 69.9326 170.06 70.6366 170.06 71.4126C170.06 72.1873 169.932 72.8913 169.679 73.522C169.425 74.154 169.035 74.6793 168.507 75.0953C167.977 75.5126 167.301 75.7846 166.481 75.9126C166.301 75.9393 166.097 75.958 165.865 75.97C165.635 75.9833 165.456 75.99 165.328 75.99H162.096V80.6833H159.48Z" fill="white"/>
<path d="M179.175 80.9726C177.789 80.9726 176.595 80.6712 175.591 80.0686C174.588 79.4659 173.815 78.6219 173.273 77.5392C172.732 76.4552 172.461 75.1952 172.461 73.7592C172.461 72.3232 172.732 71.0632 173.273 69.9792C173.815 68.8966 174.588 68.0539 175.591 67.4499C176.595 66.8486 177.789 66.5459 179.175 66.5459C180.764 66.5459 182.099 66.9406 183.18 67.7286C184.26 68.5179 185.023 69.5846 185.464 70.9326L182.828 71.6632C182.572 70.8232 182.14 70.1699 181.531 69.7059C180.921 69.2406 180.136 69.0086 179.175 69.0086C178.296 69.0086 177.563 69.2046 176.977 69.5952C176.389 69.9859 175.949 70.5379 175.653 71.2499C175.36 71.9619 175.212 72.7979 175.212 73.7592C175.212 74.7219 175.36 75.5579 175.653 76.2699C175.949 76.9819 176.389 77.5326 176.977 77.9246C177.563 78.3152 178.296 78.5099 179.175 78.5099C180.136 78.5099 180.921 78.2766 181.531 77.8086C182.14 77.3406 182.572 76.6899 182.828 75.8566L185.464 76.5872C185.023 77.9339 184.26 79.0006 183.18 79.7899C182.099 80.5779 180.764 80.9726 179.175 80.9726Z" fill="white"/>
<path d="M197.506 80.683V71.451L191.486 80.683H188.832V66.835H191.486V76.067L197.506 66.835H200.161V80.683H197.506Z" fill="white"/>
<path d="M207.314 80.683V69.2776H202.949V66.835H214.295V69.2776H209.93V80.683H207.314Z" fill="white"/>
<path d="M217.086 80.683V66.835H226.126V69.2776H219.702V72.239H224.973V74.6816H219.702V78.2403H226.126V80.683H217.086Z" fill="white"/>
<path d="M232.896 80.683V69.2776H228.531V66.835H239.878V69.2776H235.512V80.683H232.896Z" fill="white"/>
<path d="M97.8309 103.765V94.532L91.8109 103.765H89.1562V89.916H91.8109V99.1493L97.8309 89.916H100.486V103.765H97.8309Z" fill="white"/>
<path d="M103.758 103.765V89.916H106.105L110.683 99.1106L115.261 89.916H117.607V103.765H115.165V95.4946L111.145 103.765H110.222L106.202 95.4946V103.765H103.758Z" fill="white"/>
<path d="M121.301 101.15H123.917V103.766H121.301V101.15Z" fill="white"/>
<path d="M137.974 104.054C136.59 104.054 135.395 103.751 134.391 103.149C133.389 102.546 132.615 101.703 132.074 100.621C131.533 99.5363 131.262 98.2763 131.262 96.8403C131.262 95.4043 131.533 94.143 132.074 93.0603C132.615 91.9763 133.389 91.1337 134.391 90.531C135.395 89.9283 136.59 89.627 137.974 89.627C139.563 89.627 140.899 90.0217 141.981 90.8097C143.061 91.599 143.822 92.6657 144.265 94.0123L141.629 94.7443C141.373 93.9043 140.941 93.251 140.331 92.787C139.722 92.3217 138.937 92.0883 137.974 92.0883C137.097 92.0883 136.363 92.2857 135.778 92.6763C135.19 93.067 134.749 93.619 134.454 94.3297C134.161 95.0417 134.011 95.8777 134.011 96.8403C134.011 97.803 134.161 98.6377 134.454 99.351C134.749 100.062 135.19 100.614 135.778 101.005C136.363 101.397 137.097 101.591 137.974 101.591C138.937 101.591 139.722 101.358 140.331 100.89C140.941 100.421 141.373 99.7697 141.629 98.9363L144.265 99.6683C143.822 101.015 143.061 102.082 141.981 102.87C140.899 103.659 139.563 104.054 137.974 104.054Z" fill="white"/>
<path d="M146.418 101.15H149.034V103.766H146.418V101.15Z" fill="white"/>
<path d="M163.267 101.592C163.805 101.592 164.274 101.477 164.671 101.25C165.069 101.022 165.397 100.698 165.653 100.278C165.907 99.858 166.101 99.3567 166.23 98.774C166.357 98.19 166.421 97.546 166.421 96.8407C166.421 96.134 166.357 95.4914 166.23 94.906C166.101 94.3234 165.907 93.822 165.653 93.402C165.397 92.982 165.069 92.658 164.671 92.43C164.274 92.2034 163.805 92.0887 163.267 92.0887C162.729 92.0887 162.261 92.2034 161.862 92.43C161.465 92.658 161.138 92.982 160.882 93.402C160.626 93.822 160.433 94.3234 160.305 94.906C160.177 95.4914 160.113 96.134 160.113 96.8407C160.113 97.546 160.177 98.19 160.305 98.774C160.433 99.3567 160.626 99.858 160.882 100.278C161.138 100.698 161.465 101.022 161.862 101.25C162.261 101.477 162.729 101.592 163.267 101.592ZM163.267 104.054C162.351 104.054 161.526 103.89 160.795 103.564C160.065 103.236 159.442 102.76 158.93 102.134C158.417 101.509 158.023 100.752 157.751 99.8594C157.478 98.9687 157.343 97.962 157.343 96.8407C157.343 95.7114 157.478 94.7034 157.751 93.8154C158.023 92.9274 158.417 92.1714 158.93 91.546C159.442 90.9207 160.065 90.4447 160.795 90.118C161.526 89.79 162.351 89.626 163.267 89.626C164.183 89.626 165.009 89.79 165.739 90.118C166.469 90.4447 167.091 90.9207 167.605 91.546C168.118 92.1714 168.51 92.9274 168.783 93.8154C169.055 94.7034 169.191 95.7114 169.191 96.8407C169.191 97.962 169.055 98.9687 168.783 99.8594C168.51 100.752 168.118 101.509 167.605 102.134C167.091 102.76 166.469 103.236 165.739 103.564C165.009 103.89 164.183 104.054 163.267 104.054ZM152.727 103.765V89.9154H155.343V95.5314H157.65V98.1487H155.343V103.765H152.727Z" fill="white"/>
<path d="M171.156 101.15H173.772V103.766H171.156V101.15Z" fill="white"/>
<path d="M180.118 101.303H183.33C183.684 101.303 183.997 101.227 184.273 101.077C184.549 100.927 184.765 100.715 184.924 100.441C185.08 100.169 185.158 99.8467 185.158 99.476C185.158 99.1494 185.09 98.8574 184.957 98.6014C184.821 98.344 184.618 98.14 184.346 97.9907C184.073 97.8387 183.736 97.764 183.33 97.764H180.118V101.303ZM180.118 95.3214H182.966C183.26 95.3214 183.524 95.2707 183.754 95.1667C183.985 95.064 184.168 94.9054 184.302 94.6907C184.437 94.476 184.505 94.1987 184.505 93.8587C184.505 93.436 184.373 93.08 184.11 92.7907C183.848 92.5027 183.466 92.3587 182.966 92.3587H180.118V95.3214ZM177.465 103.765V89.916H183.004C183.99 89.916 184.79 90.112 185.398 90.5067C186.008 90.9014 186.453 91.396 186.736 91.9934C187.018 92.5894 187.158 93.192 187.158 93.8014C187.158 94.5774 186.984 95.2214 186.636 95.7347C186.285 96.248 185.806 96.5907 185.197 96.764V96.2827C186.062 96.4614 186.712 96.8627 187.145 97.4854C187.577 98.108 187.794 98.8027 187.794 99.572C187.794 100.399 187.641 101.127 187.337 101.755C187.033 102.384 186.569 102.876 185.946 103.231C185.325 103.587 184.542 103.765 183.6 103.765H177.465Z" fill="white"/>
<path d="M198.967 103.765V94.532L192.946 103.765H190.293V89.916H192.946V99.1493L198.967 89.916H201.622V103.765H198.967Z" fill="white"/>
<path d="M208.105 103.765V92.3586H203.738V89.916H215.086V92.3586H210.721V103.765H208.105Z" fill="white"/>
<path d="M221.569 103.765V92.3586H217.203V89.916H228.551V92.3586H224.185V103.765H221.569Z" fill="white"/>
<path d="M230.664 103.765V89.916H239.704V92.3586H233.28V95.3213H238.551V97.764H233.28V101.322H239.704V103.765H230.664Z" fill="white"/>
<path d="M64.8109 98.4602H47.8216C48.1763 97.7295 48.3936 96.7575 48.3936 95.6895C48.3936 94.6469 48.1856 93.6975 47.8496 92.9762H64.8109C67.0203 92.9762 68.1256 93.8762 68.1256 95.6802C68.1256 97.5362 67.0203 98.4602 64.8109 98.4602ZM47.7349 87.6855C48.1389 86.9402 48.3936 85.8975 48.3936 84.7442C48.3936 83.9615 48.2723 83.2309 48.0763 82.6082H63.6523C65.8109 82.6082 66.8909 83.4869 66.8909 85.2375C66.8909 86.9922 65.8109 87.8669 63.6523 87.8669H47.7349V87.6855ZM74.5883 92.2882C73.7523 91.2202 72.5363 90.4322 70.9416 89.9255C72.1283 89.3415 73.0309 88.5535 73.6656 87.5615C74.2949 86.5709 74.6069 85.4282 74.6069 84.1322C74.6069 81.9269 73.7136 80.2175 71.9256 79.0082C70.1389 77.8029 67.6256 77.2002 64.3829 77.2002H40.2109V103.87H65.1176C68.5389 103.87 71.1816 103.191 73.0456 101.834C74.9096 100.472 75.8416 98.6122 75.8416 96.2495C75.8416 94.6749 75.4229 93.3562 74.5883 92.2882Z" fill="white"/>
<path d="M40.2176 70.275V43.8857H27.551L20.419 62.135L13.2296 43.8857H0.597656V70.275H8.37366V51.067L16.3256 70.275H24.4896L32.407 51.023V70.275H40.2176Z" fill="white"/>
<path d="M59.7419 56.7203L52.4299 43.8857H43.4219L55.2499 64.459L51.9366 70.275H60.7686L75.8286 43.8857H66.9966L59.7419 56.7203Z" fill="white"/>
<path d="M8.47213 95.5269V77.4189H0.605469V103.809H10.8735L23.4375 85.1642V103.809H31.3041V77.4189H20.7028L8.47213 95.5269Z" fill="white"/>
<path d="M0.367188 24.7949V32.2243C30.1859 32.2243 56.8258 23.1896 77.4085 6.09757L72.8939 0.30957C53.6045 16.3283 28.5259 24.7949 0.367188 24.7949Z" fill="white"/>
</g>
<defs>
<clipPath id="clip0_3236_21758">
<rect width="240" height="105" fill="white"/>
</clipPath>
</defs>
</svg>
