<svg width="84" height="82" viewBox="0 0 84 82" fill="none" xmlns="http://www.w3.org/2000/svg">
<rect width="83.2128" height="82" rx="10" fill="#FFCC00"/>
<path fill-rule="evenodd" clip-rule="evenodd" d="M40.1476 21.5837C40.1479 21.3367 40.1481 21.0856 40.1484 20.8332V20.8298C40.1486 20.6358 40.1488 20.441 40.1489 20.2468C40.1488 20.4403 40.1486 20.6344 40.1484 20.8278V20.8298C40.1481 21.0834 40.1479 21.3356 40.1476 21.5837ZM41.7226 24.437L62.7046 40.3467C62.8781 40.4782 62.9806 40.6855 62.9806 40.9074V65.1003C62.9806 65.2866 62.9075 65.4648 62.7781 65.5958C62.6487 65.7267 62.4737 65.7998 62.2917 65.7998C59.0215 65.7994 48.3922 65.7994 38.5806 65.7995L19.7749 65.7998C19.5929 65.7998 19.4178 65.7267 19.2885 65.5958C19.1591 65.4648 19.0859 65.2866 19.0859 65.1003V40.9074C19.0859 40.6859 19.1889 40.4784 19.3627 40.3468L40.345 24.4368L40.3448 24.3387C40.3426 23.5004 40.3439 22.1848 40.3452 20.8319C40.3468 19.2831 40.3483 17.6854 40.3448 16.6993C40.3449 16.3109 40.6555 16 41.0337 16H49.0079C49.1902 16 49.3649 16.0731 49.4943 16.204C49.6237 16.335 49.6969 16.5132 49.6969 16.6995V21.4184C49.6946 21.807 49.3825 22.1175 49.0038 22.1181L41.7226 22.0807V24.437ZM48.3194 17.3991H41.7226V20.6819L48.3194 20.7159V17.3991ZM36.0624 51.2065V64.4004H40.3447V51.2065H36.0624ZM41.7226 51.2065V64.4004H46.005V51.2065H41.7226ZM47.3824 64.4004H61.6032L61.6021 41.2578L41.0327 25.6604L20.4632 41.2578V64.4004H34.6839V50.5071C34.6839 50.1186 34.9946 49.8076 35.3729 49.8076H46.6935C47.0717 49.8076 47.3824 50.1186 47.3824 50.5071V64.4004ZM38.2395 39.6378L35.1881 37.3953C34.9465 37.2175 34.8444 36.9013 34.937 36.6117C35.0298 36.3226 35.2954 36.1289 35.5922 36.1289L39.3662 36.1293L40.5314 32.5C40.6292 32.2158 40.8934 32.0272 41.1874 32.0272C41.4815 32.0272 41.7454 32.2155 41.8432 32.4997L43.0084 36.1289H46.7823C47.0792 36.1289 47.3447 36.3226 47.4376 36.6117C47.5302 36.9013 47.428 37.2175 47.1864 37.3953L44.1351 39.6378L45.2997 43.265C45.3861 43.5535 45.2818 43.8647 45.0424 44.0407C44.8034 44.2166 44.4818 44.22 44.2396 44.0495L41.1873 41.8054L38.1333 44.0503C37.8923 44.2277 37.5663 44.2275 37.3253 44.0501C37.0835 43.8727 36.9813 43.5566 37.0743 43.2671L38.2395 39.6378ZM42.9182 38.8052L44.6553 37.5283H42.5079C42.3596 37.5283 42.2191 37.4799 42.104 37.3953C41.989 37.3108 41.8994 37.1901 41.853 37.0455L41.1871 34.9717L40.5213 37.0454C40.4748 37.19 40.385 37.3108 40.2697 37.3953C40.1548 37.4796 40.0145 37.5278 39.8664 37.5278H37.719L39.4544 38.8036L39.4559 38.8047C39.6104 38.916 39.6829 39.0456 39.7106 39.1913C39.7399 39.345 39.7211 39.5278 39.6675 39.7397C39.6154 39.9461 39.5291 40.1787 39.4454 40.4044C39.3614 40.6309 39.2738 40.8686 39.2225 41.0932L39.1216 41.5347L39.5133 41.3072C39.6134 41.249 39.7521 41.1425 39.8972 41.029L39.9828 40.9619C40.1099 40.8621 40.2467 40.7548 40.3852 40.6527C40.556 40.5269 40.7226 40.4142 40.8689 40.3371C41.0259 40.2544 41.1199 40.2346 41.1606 40.2401L41.1864 40.2436L41.2123 40.2403C41.2555 40.2347 41.3507 40.2554 41.5066 40.3374C41.6524 40.4142 41.8179 40.5263 41.9878 40.6516C42.1245 40.7526 42.2593 40.8585 42.3854 40.9576L42.4741 41.0273C42.6195 41.141 42.7586 41.248 42.8608 41.3075L43.2528 41.5359L43.1518 41.0936C43.1006 40.8694 43.0071 40.616 42.9232 40.3895C42.8394 40.1636 42.7591 39.947 42.7069 39.7403C42.6533 39.5282 42.6345 39.3452 42.6637 39.1914C42.6915 39.0457 42.7639 38.9162 42.9182 38.8052Z" fill="white"/>
</svg>
