<svg width="84" height="82" viewBox="0 0 84 82" fill="none" xmlns="http://www.w3.org/2000/svg">
<rect width="83.2128" height="82" rx="10" fill="#DB5472"/>
<path d="M62.2911 29.8374C63.6439 25.6556 63.7758 21.9774 63.7789 21.7757C63.8362 21.5265 63.706 21.2853 63.5384 21.1097L63.5376 21.1089C63.3591 20.9303 63.1203 20.8049 62.8768 20.8049H54.241V16.86C54.241 16.3792 53.8202 15.95 53.3311 15.95H28.939C28.4583 15.95 28.0291 16.3708 28.0291 16.86V20.8049H19.1744C18.9309 20.8049 18.6922 20.9303 18.5136 21.1089C18.3288 21.2937 18.2723 21.5355 18.2723 21.7697C18.2723 21.946 18.4448 25.6099 19.7599 29.837L19.7601 29.8375C21.5891 35.4887 24.6693 39.5017 28.7883 41.343C30.1598 45.9058 33.295 49.4994 37.2308 50.9344V51.0713C37.2308 55.7833 33.6551 59.5351 29.0563 59.5351C28.5756 59.5351 28.1463 59.9559 28.1463 60.4451V65.3C28.1463 65.7808 28.5672 66.21 29.0563 66.21H53.3311C53.8118 66.21 54.241 65.7892 54.241 65.3V60.4451C54.241 59.9643 53.8202 59.5351 53.3311 59.5351C48.6757 59.5351 44.8673 55.7267 44.8673 51.0713V50.9896C48.9748 49.5468 52.1653 45.8977 53.5447 41.2249C57.4913 39.3293 60.5167 35.3795 62.2911 29.8374ZM62.2911 29.8374C62.2911 29.8375 62.2911 29.8375 62.2911 29.8375L62.2435 29.8221L62.2912 29.8374C62.2911 29.8374 62.2911 29.8374 62.2911 29.8374ZM42.8965 22.7751L42.8966 22.7753L44.9959 27.036L49.6516 27.72C50.2455 27.7775 50.6554 28.1929 50.9479 28.7146L50.9526 28.723L50.9517 28.7233C51.1297 29.2573 51.0077 29.7931 50.5956 30.2051L50.5951 30.2057L47.1897 33.5022L47.9827 38.1591L47.9833 38.1622L47.9832 38.1622C48.0395 38.6853 47.8623 39.2195 47.393 39.5755C46.9222 39.9327 46.3228 39.9316 45.855 39.6977L45.854 39.6972L41.7645 37.5358L37.4515 39.6962C37.2694 39.8192 37.0333 39.8749 36.8007 39.8749C36.4448 39.8749 36.1451 39.7535 35.9106 39.5756C35.9106 39.5756 35.9105 39.5755 35.9105 39.5755L35.9407 39.5357L42.8965 22.7751ZM42.8965 22.7751C42.662 22.306 42.1294 21.95 41.5931 21.95M42.8965 22.7751L41.5931 21.95M46.0371 37.7244L45.2575 33.3144C45.1929 33.0141 45.256 32.7116 45.5003 32.5243L48.6258 29.3912L44.2161 28.7187C43.9089 28.7167 43.6704 28.4709 43.5501 28.2382L43.5495 28.2372L43.5495 28.2372L41.5931 24.2173L39.6367 28.237L46.0371 37.7244ZM46.0371 37.7244L42.1869 35.7153L42.1868 35.7152C41.9444 35.5898 41.6393 35.5917 41.3471 35.7134L41.3471 35.7133L41.344 35.7149L37.2031 37.7815L37.9834 33.3062C37.9834 33.3061 37.9835 33.3059 37.9835 33.3058C38.0413 32.9991 37.9255 32.7015 37.7429 32.5189L37.7426 32.5186L34.5616 29.3911L38.9738 28.7181L38.9738 28.7182L38.9755 28.7178C39.2788 28.6605 39.5196 28.4795 39.6366 28.2372L46.0371 37.7244ZM41.5931 21.95C41.0598 21.95 40.5249 22.2487 40.2891 22.7762M41.5931 21.95L40.2891 22.7762M40.2891 22.7762L38.1903 27.036L33.5343 27.72C32.9968 27.7775 32.529 28.1915 32.3517 28.7233C32.1746 29.2547 32.2938 29.8472 32.7094 30.2067L36.1137 33.5022L35.3209 38.1578L40.2891 22.7762ZM28.2445 38.9785C25.0585 37.0354 23.105 33.6966 21.9117 30.4625C20.7215 27.2369 20.2899 24.122 20.1441 22.6171H28.0369V36.2798C28.0369 37.2125 28.0874 38.0961 28.2445 38.9785ZM43.0579 51.4748C43.3121 56.6565 47.354 60.8676 52.4211 61.2886V64.3353H29.9585V61.2886C34.9716 60.8675 38.8425 56.7087 38.979 51.4196C39.6515 51.5332 40.3772 51.6373 41.1038 51.6373C41.774 51.6373 42.4373 51.5856 43.0579 51.4748ZM52.4367 36.3345C52.4367 42.5394 48.9063 47.7781 44.1314 49.3658L44.0609 49.3821C43.6915 49.4677 43.1687 49.5889 42.646 49.6913C42.0869 49.8008 41.5323 49.8877 41.1663 49.8877C40.3111 49.8877 39.4638 49.7711 38.6711 49.5458C38.6225 49.5303 38.5666 49.5104 38.5074 49.4892C38.4619 49.473 38.4145 49.456 38.367 49.4399C38.3133 49.4217 38.2604 49.4048 38.2131 49.3925C38.1704 49.3814 38.1291 49.3732 38.0948 49.3719C33.3848 47.7744 29.8568 42.545 29.8568 36.3423V17.8247H52.4367V36.3345ZM60.2401 30.3425C59.0824 33.5277 57.1861 36.8382 54.0832 38.8604C54.1948 38.0322 54.2958 37.1599 54.2958 36.2798V22.6171H61.9617C61.8124 24.1206 61.3946 27.1662 60.2401 30.3425Z" fill="white" stroke="white" stroke-width="0.1"/>
</svg>
