<svg width="84" height="82" viewBox="0 0 84 82" fill="none" xmlns="http://www.w3.org/2000/svg">
<rect width="83.2128" height="82" rx="10" fill="#A0B3C6"/>
<mask id="path-2-outside-1_3012_2224" maskUnits="userSpaceOnUse" x="18.0332" y="15" width="46" height="52" fill="black">
<rect fill="white" x="18.0332" y="15" width="46" height="52"/>
<path d="M62.8343 58.451L55.6515 46.1484C56.6924 45.3668 57.4879 44.3094 57.9456 43.0989C58.4033 41.8885 58.5046 40.5745 58.2376 39.3094C59.3719 38.0561 59.999 36.4333 59.999 34.7515C59.999 33.0697 59.3719 31.4469 58.2376 30.1936C58.5881 28.5474 58.3115 26.8312 57.4608 25.3742C56.6101 23.9172 55.2453 22.8221 53.6281 22.2989C53.097 20.7013 51.989 19.3532 50.5159 18.5124C49.0428 17.6717 47.3079 17.3972 45.643 17.7415C44.3753 16.62 42.734 16 41.0329 16C39.3319 16 37.6906 16.62 36.4229 17.7415C34.7578 17.3958 33.0223 17.6697 31.5488 18.5108C30.0753 19.3518 28.9676 20.7009 28.4378 22.2994C26.8216 22.8241 25.4579 23.9195 24.6074 25.376C23.757 26.8326 23.4796 28.548 23.8283 30.1942C22.694 31.4475 22.0669 33.0702 22.0669 34.7521C22.0669 36.4339 22.694 38.0566 23.8283 39.31C23.5611 40.575 23.6622 41.8891 24.1199 43.0996C24.5777 44.3101 25.3733 45.3675 26.4144 46.1489L19.2316 58.451C19.0852 58.7012 19.0173 58.9887 19.0363 59.2771C19.0554 59.5655 19.1605 59.8418 19.3384 60.0711C19.5164 60.3004 19.7591 60.4724 20.0359 60.5652C20.3128 60.658 20.6112 60.6676 20.8935 60.5926L26.8685 59.01L28.4698 64.9174C28.5447 65.1969 28.7023 65.448 28.9223 65.6386C29.1422 65.8291 29.4147 65.9506 29.7048 65.9874C29.7694 65.9958 29.8345 66 29.8996 66C30.1587 66.0003 30.4133 65.9329 30.6376 65.8047C30.862 65.6765 31.0481 65.4921 31.1772 65.27L38.359 52.9668C39.2049 53.3211 40.1143 53.5037 41.0329 53.5037C41.9516 53.5037 42.861 53.3211 43.7069 52.9668L50.8903 65.27C51.0194 65.4921 51.2055 65.6765 51.4299 65.8047C51.6542 65.9329 51.9088 66.0003 52.1679 66C52.233 66 52.2981 65.9958 52.3627 65.9874C52.6528 65.9506 52.9253 65.8291 53.1452 65.6386C53.3652 65.448 53.5228 65.1969 53.5977 64.9174L55.1979 59.01L61.1729 60.5926C61.4552 60.6676 61.7537 60.658 62.0305 60.5652C62.3073 60.4724 62.5501 60.3004 62.728 60.0711C62.9059 59.8418 63.0111 59.5655 63.0301 59.2771C63.0491 58.9887 62.9806 58.7012 62.8343 58.451ZM30.0386 64.62C30.0242 64.6495 30.0002 64.6734 29.9705 64.6879C29.9408 64.7024 29.907 64.7067 29.8746 64.7C29.8418 64.6974 29.8107 64.6845 29.786 64.663C29.7612 64.6416 29.7441 64.6129 29.7373 64.5811L27.9667 58.0468C27.9446 57.9644 27.9063 57.8871 27.854 57.8194C27.8017 57.7516 27.7363 57.6948 27.6617 57.6521C27.5104 57.5667 27.3313 57.5435 27.1629 57.5874L20.5534 59.3379C20.5221 59.3484 20.4883 59.3484 20.4571 59.338C20.4258 59.3277 20.3989 59.3075 20.3803 59.2805C20.3591 59.2556 20.3465 59.2247 20.3442 59.1922C20.342 59.1598 20.3504 59.1274 20.3681 59.1L27.5318 46.8316C27.8241 46.9769 28.1265 47.1014 28.4368 47.2042C28.9675 48.802 30.0755 50.1504 31.5486 50.9913C33.0218 51.8321 34.7568 52.1066 36.4218 51.7621C36.667 51.9768 36.9275 52.1738 37.2012 52.3516L30.0386 64.62ZM38.4192 51.5673C37.9262 51.3097 37.4751 50.9804 37.0809 50.5905C36.9575 50.4688 36.7904 50.4005 36.6161 50.4005C36.5588 50.4006 36.5017 50.408 36.4463 50.4226C35.0145 50.8004 33.4895 50.6012 32.2061 49.8686C30.9227 49.1361 29.9856 47.9301 29.6004 46.5152C29.5708 46.405 29.5123 46.3045 29.4308 46.2238C29.3493 46.1432 29.2477 46.0852 29.1362 46.0558C28.5982 45.9135 28.0848 45.692 27.6132 45.3989C26.6023 44.7695 25.8215 43.837 25.3849 42.7377C24.9482 41.6383 24.8787 40.4296 25.1863 39.2884C25.2163 39.1783 25.2164 39.0623 25.1866 38.9522C25.1567 38.842 25.0981 38.7416 25.0165 38.661C23.97 37.6237 23.3823 36.2185 23.3823 34.7534C23.3823 33.2883 23.97 31.883 25.0165 30.8457C25.0981 30.7653 25.1568 30.665 25.1866 30.5549C25.2165 30.4448 25.2163 30.3289 25.1863 30.2189C24.8046 28.8033 25.0064 27.2959 25.7472 26.0272C26.4881 24.7585 27.7076 23.832 29.1384 23.451C29.2499 23.4218 29.3517 23.3639 29.4332 23.2832C29.5147 23.2025 29.5732 23.1018 29.6026 22.9915C29.9884 21.5771 30.9257 20.3717 32.2089 19.6393C33.4921 18.9068 35.0166 18.7072 36.4484 19.0841C36.5599 19.1131 36.677 19.1128 36.7882 19.0834C36.8995 19.0539 37.0011 18.9963 37.083 18.9162C38.1322 17.8815 39.5537 17.3005 41.0356 17.3005C42.5175 17.3005 43.939 17.8815 44.9882 18.9162C45.0701 18.9964 45.1717 19.054 45.283 19.0835C45.3942 19.1129 45.5114 19.1131 45.6228 19.0841C47.0546 18.7074 48.579 18.9071 49.8622 19.6394C51.1454 20.3718 52.0826 21.5772 52.4686 22.9915C52.498 23.1018 52.5565 23.2025 52.638 23.2832C52.7196 23.3639 52.8213 23.4218 52.9328 23.451C54.3646 23.8304 55.5853 24.7566 56.3265 26.0258C57.0676 27.295 57.2685 28.8033 56.8849 30.2189C56.8549 30.3289 56.8547 30.4448 56.8846 30.5549C56.9144 30.665 56.9731 30.7653 57.0547 30.8457C58.1013 31.883 58.689 33.2883 58.689 34.7534C58.689 36.2185 58.1013 37.6237 57.0547 38.661C56.9731 38.7416 56.9144 38.842 56.8846 38.9521C56.8548 39.0623 56.8549 39.1783 56.8849 39.2884C57.2655 40.7038 57.0629 42.2106 56.3216 43.4786C55.5803 44.7466 54.3607 45.6722 52.9302 46.0526C52.8187 46.082 52.7171 46.1399 52.6356 46.2206C52.5541 46.3013 52.4956 46.4019 52.466 46.5121C52.0814 47.9274 51.1445 49.1339 49.861 49.8668C48.5774 50.5997 47.0522 50.799 45.6201 50.421C45.5087 50.3918 45.3915 50.3919 45.2802 50.4214C45.1689 50.4509 45.0673 50.5086 44.9856 50.5889C44.5914 50.9789 44.1402 51.3081 43.6473 51.5658C42.8412 51.985 41.9441 52.2041 41.0333 52.2043C40.1226 52.2045 39.2254 51.9862 38.4192 51.5673ZM61.6877 59.2805C61.6689 59.3071 61.6419 59.3271 61.6107 59.3374C61.5796 59.3477 61.5459 59.3479 61.5147 59.3379L54.903 57.5874C54.8197 57.5651 54.7328 57.5593 54.6472 57.5704C54.5617 57.5815 54.4792 57.6092 54.4045 57.6519C54.3298 57.6946 54.2644 57.7514 54.212 57.8192C54.1596 57.887 54.1213 57.9644 54.0992 58.0468L52.3286 64.5789C52.3202 64.61 52.3026 64.6379 52.2781 64.659C52.2536 64.6802 52.2234 64.6937 52.1911 64.6979C52.1589 64.702 52.1261 64.6967 52.097 64.6824C52.0678 64.6682 52.0436 64.6457 52.0273 64.6179L44.8658 52.3516C45.1395 52.1738 45.4 51.9768 45.6451 51.7621C47.3103 52.1076 49.0458 51.8336 50.5193 50.9925C51.9927 50.1513 53.1004 48.8022 53.6302 47.2037C53.9405 47.1013 54.2429 46.9769 54.5352 46.8316L61.6978 59.1C61.7158 59.1272 61.7245 59.1594 61.7227 59.1919C61.7209 59.2244 61.7086 59.2554 61.6877 59.2805Z"/>
<path d="M45.2778 41.9026C45.4146 41.9761 45.5677 42.0146 45.7234 42.0147C45.8627 42.0139 46.0002 41.9831 46.1263 41.9243C46.2523 41.8656 46.3639 41.7804 46.4532 41.6747C46.5418 41.5712 46.606 41.4496 46.6414 41.3187C46.6767 41.1877 46.6823 41.0507 46.6576 40.9173L45.8463 36.2384L49.2842 32.9257C49.4106 32.8034 49.4999 32.6487 49.542 32.4789C49.5841 32.3091 49.5774 32.131 49.5226 31.9648C49.4678 31.7985 49.3671 31.6508 49.2318 31.5381C49.0966 31.4255 48.9322 31.3525 48.7572 31.3273L44.0071 30.6431L41.8847 26.3868C41.8063 26.23 41.6851 26.098 41.5348 26.0057C41.3846 25.9134 41.2112 25.8645 41.0343 25.8645C40.8574 25.8645 40.684 25.9134 40.5337 26.0057C40.3834 26.098 40.2623 26.23 40.1839 26.3868L38.0598 30.6421L33.3076 31.3263C33.1328 31.3518 32.9686 31.425 32.8336 31.5379C32.6986 31.6507 32.5981 31.7986 32.5436 31.9649C32.4891 32.1311 32.4826 32.3091 32.525 32.4788C32.5673 32.6485 32.6568 32.8031 32.7833 32.9252L36.2206 36.2378L35.4093 40.9168C35.3852 41.0509 35.3913 41.1885 35.4272 41.32C35.4631 41.4515 35.5279 41.5735 35.6169 41.6773C35.7577 41.8389 35.9493 41.9491 36.1609 41.9903C36.3726 42.0315 36.5921 42.0014 36.7844 41.9047L41.0329 39.6968L45.2778 41.9026ZM36.8275 40.4147L37.5727 36.1215C37.5909 36.0178 37.5833 35.9113 37.5504 35.8111C37.5176 35.711 37.4606 35.6202 37.3843 35.5468L34.2302 32.5068L38.59 31.8799C38.6951 31.8649 38.7949 31.8249 38.8809 31.7633C38.9669 31.7017 39.0364 31.6203 39.0835 31.5263L41.0329 27.6194L42.9829 31.5263C43.03 31.6207 43.0996 31.7024 43.1858 31.7643C43.2719 31.8262 43.372 31.8664 43.4774 31.8815L47.8368 32.5084L44.6821 35.5484C44.6057 35.6217 44.5486 35.7125 44.5158 35.8126C44.483 35.9128 44.4754 36.0194 44.4937 36.1231L45.239 40.4163L41.3401 38.39C41.2459 38.3409 41.141 38.3152 41.0345 38.3152C40.9281 38.3152 40.8232 38.3409 40.729 38.39L36.8275 40.4147Z"/>
</mask>
<path d="M62.8343 58.451L55.6515 46.1484C56.6924 45.3668 57.4879 44.3094 57.9456 43.0989C58.4033 41.8885 58.5046 40.5745 58.2376 39.3094C59.3719 38.0561 59.999 36.4333 59.999 34.7515C59.999 33.0697 59.3719 31.4469 58.2376 30.1936C58.5881 28.5474 58.3115 26.8312 57.4608 25.3742C56.6101 23.9172 55.2453 22.8221 53.6281 22.2989C53.097 20.7013 51.989 19.3532 50.5159 18.5124C49.0428 17.6717 47.3079 17.3972 45.643 17.7415C44.3753 16.62 42.734 16 41.0329 16C39.3319 16 37.6906 16.62 36.4229 17.7415C34.7578 17.3958 33.0223 17.6697 31.5488 18.5108C30.0753 19.3518 28.9676 20.7009 28.4378 22.2994C26.8216 22.8241 25.4579 23.9195 24.6074 25.376C23.757 26.8326 23.4796 28.548 23.8283 30.1942C22.694 31.4475 22.0669 33.0702 22.0669 34.7521C22.0669 36.4339 22.694 38.0566 23.8283 39.31C23.5611 40.575 23.6622 41.8891 24.1199 43.0996C24.5777 44.3101 25.3733 45.3675 26.4144 46.1489L19.2316 58.451C19.0852 58.7012 19.0173 58.9887 19.0363 59.2771C19.0554 59.5655 19.1605 59.8418 19.3384 60.0711C19.5164 60.3004 19.7591 60.4724 20.0359 60.5652C20.3128 60.658 20.6112 60.6676 20.8935 60.5926L26.8685 59.01L28.4698 64.9174C28.5447 65.1969 28.7023 65.448 28.9223 65.6386C29.1422 65.8291 29.4147 65.9506 29.7048 65.9874C29.7694 65.9958 29.8345 66 29.8996 66C30.1587 66.0003 30.4133 65.9329 30.6376 65.8047C30.862 65.6765 31.0481 65.4921 31.1772 65.27L38.359 52.9668C39.2049 53.3211 40.1143 53.5037 41.0329 53.5037C41.9516 53.5037 42.861 53.3211 43.7069 52.9668L50.8903 65.27C51.0194 65.4921 51.2055 65.6765 51.4299 65.8047C51.6542 65.9329 51.9088 66.0003 52.1679 66C52.233 66 52.2981 65.9958 52.3627 65.9874C52.6528 65.9506 52.9253 65.8291 53.1452 65.6386C53.3652 65.448 53.5228 65.1969 53.5977 64.9174L55.1979 59.01L61.1729 60.5926C61.4552 60.6676 61.7537 60.658 62.0305 60.5652C62.3073 60.4724 62.5501 60.3004 62.728 60.0711C62.9059 59.8418 63.0111 59.5655 63.0301 59.2771C63.0491 58.9887 62.9806 58.7012 62.8343 58.451ZM30.0386 64.62C30.0242 64.6495 30.0002 64.6734 29.9705 64.6879C29.9408 64.7024 29.907 64.7067 29.8746 64.7C29.8418 64.6974 29.8107 64.6845 29.786 64.663C29.7612 64.6416 29.7441 64.6129 29.7373 64.5811L27.9667 58.0468C27.9446 57.9644 27.9063 57.8871 27.854 57.8194C27.8017 57.7516 27.7363 57.6948 27.6617 57.6521C27.5104 57.5667 27.3313 57.5435 27.1629 57.5874L20.5534 59.3379C20.5221 59.3484 20.4883 59.3484 20.4571 59.338C20.4258 59.3277 20.3989 59.3075 20.3803 59.2805C20.3591 59.2556 20.3465 59.2247 20.3442 59.1922C20.342 59.1598 20.3504 59.1274 20.3681 59.1L27.5318 46.8316C27.8241 46.9769 28.1265 47.1014 28.4368 47.2042C28.9675 48.802 30.0755 50.1504 31.5486 50.9913C33.0218 51.8321 34.7568 52.1066 36.4218 51.7621C36.667 51.9768 36.9275 52.1738 37.2012 52.3516L30.0386 64.62ZM38.4192 51.5673C37.9262 51.3097 37.4751 50.9804 37.0809 50.5905C36.9575 50.4688 36.7904 50.4005 36.6161 50.4005C36.5588 50.4006 36.5017 50.408 36.4463 50.4226C35.0145 50.8004 33.4895 50.6012 32.2061 49.8686C30.9227 49.1361 29.9856 47.9301 29.6004 46.5152C29.5708 46.405 29.5123 46.3045 29.4308 46.2238C29.3493 46.1432 29.2477 46.0852 29.1362 46.0558C28.5982 45.9135 28.0848 45.692 27.6132 45.3989C26.6023 44.7695 25.8215 43.837 25.3849 42.7377C24.9482 41.6383 24.8787 40.4296 25.1863 39.2884C25.2163 39.1783 25.2164 39.0623 25.1866 38.9522C25.1567 38.842 25.0981 38.7416 25.0165 38.661C23.97 37.6237 23.3823 36.2185 23.3823 34.7534C23.3823 33.2883 23.97 31.883 25.0165 30.8457C25.0981 30.7653 25.1568 30.665 25.1866 30.5549C25.2165 30.4448 25.2163 30.3289 25.1863 30.2189C24.8046 28.8033 25.0064 27.2959 25.7472 26.0272C26.4881 24.7585 27.7076 23.832 29.1384 23.451C29.2499 23.4218 29.3517 23.3639 29.4332 23.2832C29.5147 23.2025 29.5732 23.1018 29.6026 22.9915C29.9884 21.5771 30.9257 20.3717 32.2089 19.6393C33.4921 18.9068 35.0166 18.7072 36.4484 19.0841C36.5599 19.1131 36.677 19.1128 36.7882 19.0834C36.8995 19.0539 37.0011 18.9963 37.083 18.9162C38.1322 17.8815 39.5537 17.3005 41.0356 17.3005C42.5175 17.3005 43.939 17.8815 44.9882 18.9162C45.0701 18.9964 45.1717 19.054 45.283 19.0835C45.3942 19.1129 45.5114 19.1131 45.6228 19.0841C47.0546 18.7074 48.579 18.9071 49.8622 19.6394C51.1454 20.3718 52.0826 21.5772 52.4686 22.9915C52.498 23.1018 52.5565 23.2025 52.638 23.2832C52.7196 23.3639 52.8213 23.4218 52.9328 23.451C54.3646 23.8304 55.5853 24.7566 56.3265 26.0258C57.0676 27.295 57.2685 28.8033 56.8849 30.2189C56.8549 30.3289 56.8547 30.4448 56.8846 30.5549C56.9144 30.665 56.9731 30.7653 57.0547 30.8457C58.1013 31.883 58.689 33.2883 58.689 34.7534C58.689 36.2185 58.1013 37.6237 57.0547 38.661C56.9731 38.7416 56.9144 38.842 56.8846 38.9521C56.8548 39.0623 56.8549 39.1783 56.8849 39.2884C57.2655 40.7038 57.0629 42.2106 56.3216 43.4786C55.5803 44.7466 54.3607 45.6722 52.9302 46.0526C52.8187 46.082 52.7171 46.1399 52.6356 46.2206C52.5541 46.3013 52.4956 46.4019 52.466 46.5121C52.0814 47.9274 51.1445 49.1339 49.861 49.8668C48.5774 50.5997 47.0522 50.799 45.6201 50.421C45.5087 50.3918 45.3915 50.3919 45.2802 50.4214C45.1689 50.4509 45.0673 50.5086 44.9856 50.5889C44.5914 50.9789 44.1402 51.3081 43.6473 51.5658C42.8412 51.985 41.9441 52.2041 41.0333 52.2043C40.1226 52.2045 39.2254 51.9862 38.4192 51.5673ZM61.6877 59.2805C61.6689 59.3071 61.6419 59.3271 61.6107 59.3374C61.5796 59.3477 61.5459 59.3479 61.5147 59.3379L54.903 57.5874C54.8197 57.5651 54.7328 57.5593 54.6472 57.5704C54.5617 57.5815 54.4792 57.6092 54.4045 57.6519C54.3298 57.6946 54.2644 57.7514 54.212 57.8192C54.1596 57.887 54.1213 57.9644 54.0992 58.0468L52.3286 64.5789C52.3202 64.61 52.3026 64.6379 52.2781 64.659C52.2536 64.6802 52.2234 64.6937 52.1911 64.6979C52.1589 64.702 52.1261 64.6967 52.097 64.6824C52.0678 64.6682 52.0436 64.6457 52.0273 64.6179L44.8658 52.3516C45.1395 52.1738 45.4 51.9768 45.6451 51.7621C47.3103 52.1076 49.0458 51.8336 50.5193 50.9925C51.9927 50.1513 53.1004 48.8022 53.6302 47.2037C53.9405 47.1013 54.2429 46.9769 54.5352 46.8316L61.6978 59.1C61.7158 59.1272 61.7245 59.1594 61.7227 59.1919C61.7209 59.2244 61.7086 59.2554 61.6877 59.2805Z" fill="white"/>
<path d="M45.2778 41.9026C45.4146 41.9761 45.5677 42.0146 45.7234 42.0147C45.8627 42.0139 46.0002 41.9831 46.1263 41.9243C46.2523 41.8656 46.3639 41.7804 46.4532 41.6747C46.5418 41.5712 46.606 41.4496 46.6414 41.3187C46.6767 41.1877 46.6823 41.0507 46.6576 40.9173L45.8463 36.2384L49.2842 32.9257C49.4106 32.8034 49.4999 32.6487 49.542 32.4789C49.5841 32.3091 49.5774 32.131 49.5226 31.9648C49.4678 31.7985 49.3671 31.6508 49.2318 31.5381C49.0966 31.4255 48.9322 31.3525 48.7572 31.3273L44.0071 30.6431L41.8847 26.3868C41.8063 26.23 41.6851 26.098 41.5348 26.0057C41.3846 25.9134 41.2112 25.8645 41.0343 25.8645C40.8574 25.8645 40.684 25.9134 40.5337 26.0057C40.3834 26.098 40.2623 26.23 40.1839 26.3868L38.0598 30.6421L33.3076 31.3263C33.1328 31.3518 32.9686 31.425 32.8336 31.5379C32.6986 31.6507 32.5981 31.7986 32.5436 31.9649C32.4891 32.1311 32.4826 32.3091 32.525 32.4788C32.5673 32.6485 32.6568 32.8031 32.7833 32.9252L36.2206 36.2378L35.4093 40.9168C35.3852 41.0509 35.3913 41.1885 35.4272 41.32C35.4631 41.4515 35.5279 41.5735 35.6169 41.6773C35.7577 41.8389 35.9493 41.9491 36.1609 41.9903C36.3726 42.0315 36.5921 42.0014 36.7844 41.9047L41.0329 39.6968L45.2778 41.9026ZM36.8275 40.4147L37.5727 36.1215C37.5909 36.0178 37.5833 35.9113 37.5504 35.8111C37.5176 35.711 37.4606 35.6202 37.3843 35.5468L34.2302 32.5068L38.59 31.8799C38.6951 31.8649 38.7949 31.8249 38.8809 31.7633C38.9669 31.7017 39.0364 31.6203 39.0835 31.5263L41.0329 27.6194L42.9829 31.5263C43.03 31.6207 43.0996 31.7024 43.1858 31.7643C43.2719 31.8262 43.372 31.8664 43.4774 31.8815L47.8368 32.5084L44.6821 35.5484C44.6057 35.6217 44.5486 35.7125 44.5158 35.8126C44.483 35.9128 44.4754 36.0194 44.4937 36.1231L45.239 40.4163L41.3401 38.39C41.2459 38.3409 41.141 38.3152 41.0345 38.3152C40.9281 38.3152 40.8232 38.3409 40.729 38.39L36.8275 40.4147Z" fill="white"/>
<path d="M62.8343 58.451L55.6515 46.1484C56.6924 45.3668 57.4879 44.3094 57.9456 43.0989C58.4033 41.8885 58.5046 40.5745 58.2376 39.3094C59.3719 38.0561 59.999 36.4333 59.999 34.7515C59.999 33.0697 59.3719 31.4469 58.2376 30.1936C58.5881 28.5474 58.3115 26.8312 57.4608 25.3742C56.6101 23.9172 55.2453 22.8221 53.6281 22.2989C53.097 20.7013 51.989 19.3532 50.5159 18.5124C49.0428 17.6717 47.3079 17.3972 45.643 17.7415C44.3753 16.62 42.734 16 41.0329 16C39.3319 16 37.6906 16.62 36.4229 17.7415C34.7578 17.3958 33.0223 17.6697 31.5488 18.5108C30.0753 19.3518 28.9676 20.7009 28.4378 22.2994C26.8216 22.8241 25.4579 23.9195 24.6074 25.376C23.757 26.8326 23.4796 28.548 23.8283 30.1942C22.694 31.4475 22.0669 33.0702 22.0669 34.7521C22.0669 36.4339 22.694 38.0566 23.8283 39.31C23.5611 40.575 23.6622 41.8891 24.1199 43.0996C24.5777 44.3101 25.3733 45.3675 26.4144 46.1489L19.2316 58.451C19.0852 58.7012 19.0173 58.9887 19.0363 59.2771C19.0554 59.5655 19.1605 59.8418 19.3384 60.0711C19.5164 60.3004 19.7591 60.4724 20.0359 60.5652C20.3128 60.658 20.6112 60.6676 20.8935 60.5926L26.8685 59.01L28.4698 64.9174C28.5447 65.1969 28.7023 65.448 28.9223 65.6386C29.1422 65.8291 29.4147 65.9506 29.7048 65.9874C29.7694 65.9958 29.8345 66 29.8996 66C30.1587 66.0003 30.4133 65.9329 30.6376 65.8047C30.862 65.6765 31.0481 65.4921 31.1772 65.27L38.359 52.9668C39.2049 53.3211 40.1143 53.5037 41.0329 53.5037C41.9516 53.5037 42.861 53.3211 43.7069 52.9668L50.8903 65.27C51.0194 65.4921 51.2055 65.6765 51.4299 65.8047C51.6542 65.9329 51.9088 66.0003 52.1679 66C52.233 66 52.2981 65.9958 52.3627 65.9874C52.6528 65.9506 52.9253 65.8291 53.1452 65.6386C53.3652 65.448 53.5228 65.1969 53.5977 64.9174L55.1979 59.01L61.1729 60.5926C61.4552 60.6676 61.7537 60.658 62.0305 60.5652C62.3073 60.4724 62.5501 60.3004 62.728 60.0711C62.9059 59.8418 63.0111 59.5655 63.0301 59.2771C63.0491 58.9887 62.9806 58.7012 62.8343 58.451ZM30.0386 64.62C30.0242 64.6495 30.0002 64.6734 29.9705 64.6879C29.9408 64.7024 29.907 64.7067 29.8746 64.7C29.8418 64.6974 29.8107 64.6845 29.786 64.663C29.7612 64.6416 29.7441 64.6129 29.7373 64.5811L27.9667 58.0468C27.9446 57.9644 27.9063 57.8871 27.854 57.8194C27.8017 57.7516 27.7363 57.6948 27.6617 57.6521C27.5104 57.5667 27.3313 57.5435 27.1629 57.5874L20.5534 59.3379C20.5221 59.3484 20.4883 59.3484 20.4571 59.338C20.4258 59.3277 20.3989 59.3075 20.3803 59.2805C20.3591 59.2556 20.3465 59.2247 20.3442 59.1922C20.342 59.1598 20.3504 59.1274 20.3681 59.1L27.5318 46.8316C27.8241 46.9769 28.1265 47.1014 28.4368 47.2042C28.9675 48.802 30.0755 50.1504 31.5486 50.9913C33.0218 51.8321 34.7568 52.1066 36.4218 51.7621C36.667 51.9768 36.9275 52.1738 37.2012 52.3516L30.0386 64.62ZM38.4192 51.5673C37.9262 51.3097 37.4751 50.9804 37.0809 50.5905C36.9575 50.4688 36.7904 50.4005 36.6161 50.4005C36.5588 50.4006 36.5017 50.408 36.4463 50.4226C35.0145 50.8004 33.4895 50.6012 32.2061 49.8686C30.9227 49.1361 29.9856 47.9301 29.6004 46.5152C29.5708 46.405 29.5123 46.3045 29.4308 46.2238C29.3493 46.1432 29.2477 46.0852 29.1362 46.0558C28.5982 45.9135 28.0848 45.692 27.6132 45.3989C26.6023 44.7695 25.8215 43.837 25.3849 42.7377C24.9482 41.6383 24.8787 40.4296 25.1863 39.2884C25.2163 39.1783 25.2164 39.0623 25.1866 38.9522C25.1567 38.842 25.0981 38.7416 25.0165 38.661C23.97 37.6237 23.3823 36.2185 23.3823 34.7534C23.3823 33.2883 23.97 31.883 25.0165 30.8457C25.0981 30.7653 25.1568 30.665 25.1866 30.5549C25.2165 30.4448 25.2163 30.3289 25.1863 30.2189C24.8046 28.8033 25.0064 27.2959 25.7472 26.0272C26.4881 24.7585 27.7076 23.832 29.1384 23.451C29.2499 23.4218 29.3517 23.3639 29.4332 23.2832C29.5147 23.2025 29.5732 23.1018 29.6026 22.9915C29.9884 21.5771 30.9257 20.3717 32.2089 19.6393C33.4921 18.9068 35.0166 18.7072 36.4484 19.0841C36.5599 19.1131 36.677 19.1128 36.7882 19.0834C36.8995 19.0539 37.0011 18.9963 37.083 18.9162C38.1322 17.8815 39.5537 17.3005 41.0356 17.3005C42.5175 17.3005 43.939 17.8815 44.9882 18.9162C45.0701 18.9964 45.1717 19.054 45.283 19.0835C45.3942 19.1129 45.5114 19.1131 45.6228 19.0841C47.0546 18.7074 48.579 18.9071 49.8622 19.6394C51.1454 20.3718 52.0826 21.5772 52.4686 22.9915C52.498 23.1018 52.5565 23.2025 52.638 23.2832C52.7196 23.3639 52.8213 23.4218 52.9328 23.451C54.3646 23.8304 55.5853 24.7566 56.3265 26.0258C57.0676 27.295 57.2685 28.8033 56.8849 30.2189C56.8549 30.3289 56.8547 30.4448 56.8846 30.5549C56.9144 30.665 56.9731 30.7653 57.0547 30.8457C58.1013 31.883 58.689 33.2883 58.689 34.7534C58.689 36.2185 58.1013 37.6237 57.0547 38.661C56.9731 38.7416 56.9144 38.842 56.8846 38.9521C56.8548 39.0623 56.8549 39.1783 56.8849 39.2884C57.2655 40.7038 57.0629 42.2106 56.3216 43.4786C55.5803 44.7466 54.3607 45.6722 52.9302 46.0526C52.8187 46.082 52.7171 46.1399 52.6356 46.2206C52.5541 46.3013 52.4956 46.4019 52.466 46.5121C52.0814 47.9274 51.1445 49.1339 49.861 49.8668C48.5774 50.5997 47.0522 50.799 45.6201 50.421C45.5087 50.3918 45.3915 50.3919 45.2802 50.4214C45.1689 50.4509 45.0673 50.5086 44.9856 50.5889C44.5914 50.9789 44.1402 51.3081 43.6473 51.5658C42.8412 51.985 41.9441 52.2041 41.0333 52.2043C40.1226 52.2045 39.2254 51.9862 38.4192 51.5673ZM61.6877 59.2805C61.6689 59.3071 61.6419 59.3271 61.6107 59.3374C61.5796 59.3477 61.5459 59.3479 61.5147 59.3379L54.903 57.5874C54.8197 57.5651 54.7328 57.5593 54.6472 57.5704C54.5617 57.5815 54.4792 57.6092 54.4045 57.6519C54.3298 57.6946 54.2644 57.7514 54.212 57.8192C54.1596 57.887 54.1213 57.9644 54.0992 58.0468L52.3286 64.5789C52.3202 64.61 52.3026 64.6379 52.2781 64.659C52.2536 64.6802 52.2234 64.6937 52.1911 64.6979C52.1589 64.702 52.1261 64.6967 52.097 64.6824C52.0678 64.6682 52.0436 64.6457 52.0273 64.6179L44.8658 52.3516C45.1395 52.1738 45.4 51.9768 45.6451 51.7621C47.3103 52.1076 49.0458 51.8336 50.5193 50.9925C51.9927 50.1513 53.1004 48.8022 53.6302 47.2037C53.9405 47.1013 54.2429 46.9769 54.5352 46.8316L61.6978 59.1C61.7158 59.1272 61.7245 59.1594 61.7227 59.1919C61.7209 59.2244 61.7086 59.2554 61.6877 59.2805Z" stroke="white" stroke-width="0.4" mask="url(#path-2-outside-1_3012_2224)"/>
<path d="M45.2778 41.9026C45.4146 41.9761 45.5677 42.0146 45.7234 42.0147C45.8627 42.0139 46.0002 41.9831 46.1263 41.9243C46.2523 41.8656 46.3639 41.7804 46.4532 41.6747C46.5418 41.5712 46.606 41.4496 46.6414 41.3187C46.6767 41.1877 46.6823 41.0507 46.6576 40.9173L45.8463 36.2384L49.2842 32.9257C49.4106 32.8034 49.4999 32.6487 49.542 32.4789C49.5841 32.3091 49.5774 32.131 49.5226 31.9648C49.4678 31.7985 49.3671 31.6508 49.2318 31.5381C49.0966 31.4255 48.9322 31.3525 48.7572 31.3273L44.0071 30.6431L41.8847 26.3868C41.8063 26.23 41.6851 26.098 41.5348 26.0057C41.3846 25.9134 41.2112 25.8645 41.0343 25.8645C40.8574 25.8645 40.684 25.9134 40.5337 26.0057C40.3834 26.098 40.2623 26.23 40.1839 26.3868L38.0598 30.6421L33.3076 31.3263C33.1328 31.3518 32.9686 31.425 32.8336 31.5379C32.6986 31.6507 32.5981 31.7986 32.5436 31.9649C32.4891 32.1311 32.4826 32.3091 32.525 32.4788C32.5673 32.6485 32.6568 32.8031 32.7833 32.9252L36.2206 36.2378L35.4093 40.9168C35.3852 41.0509 35.3913 41.1885 35.4272 41.32C35.4631 41.4515 35.5279 41.5735 35.6169 41.6773C35.7577 41.8389 35.9493 41.9491 36.1609 41.9903C36.3726 42.0315 36.5921 42.0014 36.7844 41.9047L41.0329 39.6968L45.2778 41.9026ZM36.8275 40.4147L37.5727 36.1215C37.5909 36.0178 37.5833 35.9113 37.5504 35.8111C37.5176 35.711 37.4606 35.6202 37.3843 35.5468L34.2302 32.5068L38.59 31.8799C38.6951 31.8649 38.7949 31.8249 38.8809 31.7633C38.9669 31.7017 39.0364 31.6203 39.0835 31.5263L41.0329 27.6194L42.9829 31.5263C43.03 31.6207 43.0996 31.7024 43.1858 31.7643C43.2719 31.8262 43.372 31.8664 43.4774 31.8815L47.8368 32.5084L44.6821 35.5484C44.6057 35.6217 44.5486 35.7125 44.5158 35.8126C44.483 35.9128 44.4754 36.0194 44.4937 36.1231L45.239 40.4163L41.3401 38.39C41.2459 38.3409 41.141 38.3152 41.0345 38.3152C40.9281 38.3152 40.8232 38.3409 40.729 38.39L36.8275 40.4147Z" stroke="white" stroke-width="0.4" mask="url(#path-2-outside-1_3012_2224)"/>
</svg>
