<?xml version="1.0" encoding="UTF-8"?> <svg xmlns="http://www.w3.org/2000/svg" id="Layer_2" viewBox="0 0 871.68 1216.46"><defs><style>.cls-1{fill:#c4c2bd;}.cls-2{fill:#fff;}.cls-3{fill:#91918e;}</style></defs><g id="Layer_1-2"><path class="cls-1" d="M587.16.01v275.26c-91.7,0-183.46.42-275.15-.5L37.79.02c183.11.01,366.27-.05,549.38,0Z"></path><path class="cls-3" d="M862.34,275.27c.04,183.17-.02,366.38,0,549.55l-274.66-274.31c-.92-91.73-.5-183.51-.5-275.24h275.17Z"></path><path class="cls-2" d="M587.16.01c91.71.02,183.47-.01,275.18,0,0,91.74-.03,183.53,0,275.27h-275.17V.01Z"></path><path class="cls-3" d="M283.89,578.64H8.72c-.04-183.17.02-366.38,0-549.55l274.66,274.31c.92,91.73.5,183.51.5,275.24Z"></path><path class="cls-1" d="M283.89,578.64c91.7,0,183.46-.42,275.15.5l271.32,271.36,1.95,2.9c-182.76.88-365.63.53-548.42.49v-275.26Z"></path><path class="cls-2" d="M283.89,578.64v275.26c-91.71-.02-183.47.01-275.18,0,0-91.74.03-183.53,0-275.27h275.17Z"></path><path class="cls-2" d="M0,1081.67l72.83-195.62,43.35-.07,67.93,183.08,71.17-183.25,42.09.17,72.76,195.69h-43.6l-10.82-31.34-2.25-1.62-78.34-.03-12.88,32.87-75.48.2-1.52-.64-10.71-30.77-1.43-1.48-78.39-.2-1.52.64-12,32.38H0ZM120.15,1011.89l-27.12-75.6-26.17,75.6h53.29ZM301.33,1011.89l-27.12-75.6-26.17,75.6h53.29Z"></path><path class="cls-2" d="M706.34,947.92h-39.73c-1.02-25.02-24.24-34.36-46.3-28.38-17.34,4.71-26.69,24.07-9.61,35.35,27.52,18.18,81.11,7.44,94.39,50.97,19.08,62.54-49.82,89.86-100.5,77.27-30.58-7.6-49.44-32.07-50.38-63.49h40.69c-3.11,32.97,58.64,39.53,69.6,16.8,13.8-28.61-34.53-32.64-51.4-37.43-25.31-7.18-48.08-18.49-51.03-47.82-9.24-92.03,145.02-92.52,144.25-3.27Z"></path><path class="cls-2" d="M551.31,958.58h-42.15c-4.13-11.42-9.32-21.87-19.55-28.91-19.81-13.63-54.69-12.42-72.01,5.17-23.4,23.76-22.51,80.28,4.38,101.26,23.68,18.48,69.98,13.79,81.85-16.45h45.54c-20.81,79.31-136.22,88.85-176.75,20.28-19.44-32.89-19.31-80.96.59-113.62,43.55-71.45,167.73-54.8,178.1,32.28Z"></path><path class="cls-2" d="M871.06,1039.02c-3.93,31.94-30.98,42.64-49.9,42.65-98.8.05-100.28,0-100.28,0v-195.78s3.86-.06,94.47,0c13.35,0,25.04,6.44,31.79,10.85,26.67,17.4,29.65,59.89,5.01,80.24l-10.14,6.8c11.34,2.85,22.03,13.75,26.33,24.55,0,0,5.1,11.5,2.74,30.7ZM828.6,944.61c.08-21.72-20.69-21.95-20.69-21.95h-49.1v42.24h49.1s20.6,1.92,20.69-20.29ZM832.77,1024.94c.09-23.18-21.92-23.43-21.92-23.43h-52.03v45.07h52.03s21.83,2.05,21.92-21.65Z"></path><path class="cls-2" d="M858.29,1167.76c-.21,25.05-15,45.7-39.42,47.17-2.51.15-4.03.04-4.03.04h-41.17v-94.46h40.45s.71,0,4.82.02c23.52.07,39.52,25.89,39.34,47.23ZM816.42,1138.36c-2.14,0-2.51-.01-2.51-.01h-21.08v58.13h21.46s.79.07,2.1-.03c12.72-.9,20.77-13.7,20.88-29.12.09-13.13-8.59-28.93-20.84-28.97Z"></path><path class="cls-2" d="M571.55,1167.59c-.21,24.9-14.92,45.44-39.19,46.9-2.49.15-4,.04-4,.04h-40.93v-93.92h40.22s.71,0,4.79.02c23.38.07,39.29,25.74,39.11,46.96ZM529.92,1138.36c-2.13,0-2.49,0-2.49,0h-20.97s0,57.79,0,57.79h21.33s.79.07,2.09-.03c12.65-.9,20.66-13.63,20.76-28.95.09-13.06-8.54-28.76-20.72-28.81Z"></path><path class="cls-2" d="M387.57,1214.45h-21.8c-2.89-5.52-14.78-28.34-18.41-34.89h-17.92v34.89h-19.38v-94.01h47.96c7.54.2,13.61,4.59,16.47,6.79,15.16,11.65,11.79,42.04-6.22,50.01l19.31,37.22ZM329.43,1161.15h26.65c7.87-.11,9.48-10.5,7.5-16.23-.32-.94-2.09-5.74-6.53-6.06h-27.61v22.29Z"></path><path class="cls-2" d="M468.96,1120.44v18.42h-48.45l.05,19.31,46.46.07v17.45l-46.43-.09c-.1,0-.08,20.45-.08,20.45h48.44v18.42s-67.81,0-67.81,0v-94.01h67.82Z"></path><polygon class="cls-2" points="759.63 1120.44 759.63 1138.85 711.19 1138.85 711.19 1158.24 756.72 1158.24 756.72 1175.69 711.19 1175.69 711.19 1196.04 759.62 1196.04 759.63 1214.45 691.81 1214.45 691.81 1120.44 759.63 1120.44"></polygon><path class="cls-2" d="M194.75,1155.33h-19.86c-5.52-14.33-16.63-19.6-31.74-17.21-25.31,4-27.8,51.54-.75,58.43,14.91,3.8,27.07-2.83,32.49-16.99h19.86c-4.27,41.38-63.43,49.63-84.51,16.21-11.67-18.5-10.27-47.07,5.04-63.25,24.26-25.63,75.96-14.92,79.48,22.8Z"></path><path class="cls-2" d="M298.43,1179.56c-3.87,39.49-59.33,49.2-82.19,19.7-14.36-18.52-13.47-50.31,3.19-67.23,24.71-25.09,75.27-14.1,79,23.29h-19.86c-5.52-14.33-16.63-19.6-31.74-17.21-25.59,4.05-27.54,51.97-.75,58.43,15.09,3.64,26.92-2.67,32.49-16.99h19.86Z"></path><path class="cls-2" d="M8.72,1214.45l36.3-94.08,19.79.18,34.02,93.9h-19.86l-5.92-15.57-37.55.19-6.91,15.38H8.72ZM65.89,1180.53l-12.11-34.9-12.11,34.9h24.22Z"></path><polygon class="cls-2" points="685.03 1138.85 658.86 1138.85 658.86 1214.45 639.49 1214.45 639.49 1138.85 613.33 1138.85 613.36 1120.44 685.03 1120.44 685.03 1138.85"></polygon><rect class="cls-2" x="582.32" y="1120.44" width="20.35" height="94.01"></rect></g></svg> 