<?xml version="1.0" encoding="UTF-8"?>
<svg id="a" data-name="Layer 1" xmlns="http://www.w3.org/2000/svg" viewBox="0 0 142 118" width="142" height="118">
  <defs>
    <style>
      .b {
        fill: #005551;
        stroke-width: 0px;
      }
    </style>
  </defs>
  <g>
    <polygon class="b" points="56.78 9.28 56.78 10.96 58.02 10.96 58.02 19.17 59.79 19.17 59.79 9.28 56.78 9.28"/>
    <path class="b" d="M61.66,16.1c0,1.87,1.43,3.3,3.29,3.3,1.75,0,3.27-1.43,3.27-3.2,0-1.12-.45-2.05-1.43-2.54.57-.52.8-1.08.8-1.86,0-1.5-1.16-2.72-2.67-2.72s-2.61,1.24-2.61,2.76c0,.83.23,1.24.8,1.82-.91.36-1.45,1.43-1.45,2.44M64.96,10.83c.56,0,1.03.45,1.03,1.02s-.47,1.04-1.03,1.04-1.04-.47-1.05-1.04c.01-.56.48-1.02,1.05-1.02M64.94,14.63c.83,0,1.51.67,1.51,1.55,0,.83-.68,1.49-1.51,1.49s-1.51-.65-1.51-1.49c0-.88.68-1.55,1.51-1.55"/>
    <path class="b" d="M72.76,19.41c1.93,0,3.4-1.61,3.4-3.52,0-.94-.27-1.71-.87-2.36-.53-.56-1.27-.94-2.04-.94l-.49.04,2.2-3.36h-2.09l-2.81,4.31c-.44.67-.72,1.43-.72,2.29,0,1.95,1.44,3.53,3.43,3.53M72.74,14.24c.93,0,1.65.8,1.65,1.75s-.72,1.67-1.64,1.67c-.97,0-1.64-.8-1.64-1.75s.72-1.67,1.63-1.67"/>
    <path class="b" d="M80.41,10.83c.83,0,1.41.62,1.41,1.44,0,.88-.6,1.47-1.2,2.03l-3.4,3.17v1.69h6.37v-1.69h-3.89l1.88-1.69,1.24-1.31c.48-.63.77-1.32.77-2.13,0-1.87-1.44-3.26-3.29-3.26s-3.19,1.47-3.19,3.24v.36h1.77c-.07-.98.47-1.86,1.52-1.86"/>
    <path class="b" d="M70.19,53.32l-3.84-3.85,1.49-6.55h4.7l1.49,6.55-3.84,3.86ZM59.82,42.92h5.96l-1.11,4.87-4.85-4.87ZM69.19,37c.32.09.65.16,1,.16s.68-.06,1-.16l.89,3.91h-3.78l.89-3.91ZM70.19,32.17c.86,0,1.55.68,1.55,1.52s-.7,1.52-1.55,1.52-1.55-.68-1.55-1.52.69-1.52,1.55-1.52M80.56,42.92l-4.85,4.87-1.11-4.87h5.96ZM85.4,40.91h-11.27l-1.16-5.1c.47-.59.76-1.32.76-2.13,0-1.91-1.59-3.47-3.55-3.47s-3.55,1.55-3.55,3.47c0,.81.29,1.54.76,2.13l-1.16,5.1h-11.26l9.16,9.2-2.38,10.44,1.16,3.92,2.9-12.68,4.37,4.39,4.37-4.39,2.9,12.68,1.16-3.92-2.38-10.44,9.17-9.2Z"/>
    <path class="b" d="M130.92,76.84h-7.82v-2.08h5.75v-2.13l-6.47-3.5h-7.21v-13.97h-.04l.02-.02-9.24-5.9c1.85-.42,3.46-.8,4.57-1.06.77-.18,1.32-.32,1.63-.4h0s.03,0,.03,0c.87-.28,1.66-.73,2.35-1.3l6.55,12.8v7.24h9.89v10.34ZM113.09,59.96l-9.31,4.1v9.97h-2.84s-2.8,2.82-2.8,2.82h-6.93v-2.08h5.15l1.36-5.81-2.12-5.99-.03-.07,6.55-6.58h10.97v3.64ZM88.9,51.02v-2.11l12.77-2.87c.64.47,1.33.87,2.05,1.2l.71.26-15.53,3.52ZM88.9,42.85h4.21c.54.95,1.2,1.83,1.96,2.61l-6.17,1.39v-4ZM96.58,29.05c1.69-1.7,3.95-2.82,6.46-3.07-1.46.78-2.73,1.85-3.75,3.15-1.58,2.01-2.52,4.56-2.52,7.32,0,3.08,1.17,5.88,3.09,7.99l-.04-.03-2.33.52s-.71-.58-.91-.78c-1.93-1.93-3.11-4.6-3.11-7.55,0-2.95,1.19-5.61,3.11-7.55M103.76,27.88c-.22.61-.34,1.27-.34,1.95,0,3.06,2.32,5.58,5.29,5.89.07.01.13.02.21.02.04,0,.93,0,1.18,0,1.36.04,2.58.61,3.48,1.51.94.94,1.51,2.23,1.51,3.66,0,1.15-.37,2.21-1.01,3.07-.63.85-1.51,1.5-2.53,1.84-1.12.37-2.5.47-2.96.47-2.71,0-5.16-1.1-6.94-2.88-1.78-1.79-2.87-4.24-2.87-6.96,0-2.3.78-4.4,2.09-6.08.79-1.01,1.77-1.85,2.89-2.49M106.56,27.06c.65-.65,1.53-1.07,2.51-1.13h10.05v1.09s0,0,0,0c0,.42-.34.75-.75.75h-4.75c-.64.04-1.23.31-1.67.74-.46.45-.77,1.09-.77,1.82,0,.63.23,1.26.68,1.72.37.38.87.6,1.4.7.24.02.22.02.34.02h1.47s0,.45,0,.45c0,.29-.23.52-.52.52h0s-5.31,0-5.47,0c-.98-.06-1.86-.48-2.52-1.14-.71-.71-1.14-1.69-1.14-2.77,0-1.08.44-2.06,1.14-2.77M106.96,20.32v-.22c.25.12.47.27.67.47.43.43.69,1.02.69,1.67,0,.66-.26,1.24-.69,1.68-.19.19-.42.34-.67.46,0-1.11,0-2.73,0-4.05M86.89,64.87l-16.7,9.27h0l-16.7-9.27V25.92h33.4v38.95ZM51.48,46.85l-6.17-1.39c.76-.78,1.42-1.66,1.96-2.61h4.21v4ZM51.48,51.02l-15.53-3.52.71-.26c.73-.33,1.42-.74,2.05-1.2l12.77,2.87v2.11ZM25.23,55.13l.02.02h-.04v13.97h-7.21s-6.47,3.5-6.47,3.5v2.13h5.75v2.08h-7.82v-10.34h9.89v-7.24l6.55-12.8c.69.57,1.48,1.01,2.35,1.3h.03c.31.09.86.23,1.63.41,1.11.27,2.72.64,4.57,1.06l-9.24,5.9ZM38.25,56.32l6.55,6.58-.03.07-2.12,5.99,1.36,5.81h5.15v2.08h-6.93l-2.8-2.81h-2.84v-9.97l-9.31-4.1v-3.64h10.97ZM26.8,37.25c.9-.9,2.12-1.46,3.49-1.51.25,0,1.14,0,1.18,0,.07,0,.14,0,.21-.02,2.97-.31,5.29-2.83,5.29-5.89,0-.68-.12-1.34-.34-1.95,1.12.64,2.1,1.48,2.89,2.49,1.31,1.68,2.09,3.78,2.09,6.08,0,2.72-1.1,5.18-2.87,6.96-1.78,1.78-4.23,2.88-6.94,2.88-.46,0-1.83-.1-2.96-.47-1.02-.34-1.9-.99-2.53-1.84-.63-.86-1.01-1.92-1.01-3.07,0-1.43.58-2.72,1.51-3.66M25.3,33.2v-.45s1.47,0,1.47,0c.12,0,.11,0,.34-.02.53-.09,1.03-.32,1.4-.7.45-.45.68-1.09.68-1.72,0-.72-.31-1.37-.77-1.82-.44-.43-1.02-.7-1.67-.72h0s-4.75-.01-4.75-.01h0c-.41,0-.75-.34-.75-.75h0s0-1.1,0-1.1h10.05c.98.06,1.86.48,2.51,1.13.71.71,1.14,1.69,1.14,2.77,0,1.09-.44,2.06-1.14,2.77-.66.66-1.53,1.07-2.52,1.14-.16,0-5.47,0-5.47,0h0c-.29,0-.52-.23-.52-.52M32.75,20.56c.19-.19.42-.35.67-.47v.22c0,1.32,0,2.94,0,4.05-.24-.12-.48-.27-.67-.46-.43-.43-.69-1.02-.69-1.68,0-.66.26-1.24.69-1.67M43.79,29.05c1.93,1.93,3.11,4.6,3.11,7.55,0,2.95-1.19,5.61-3.11,7.55-.21.21-.91.78-.91.78l-2.33-.52-.04.03c1.92-2.11,3.09-4.91,3.09-7.99,0-2.76-.94-5.3-2.52-7.32-1.01-1.29-2.29-2.37-3.75-3.15,2.52.25,4.77,1.37,6.46,3.07M14.09,42.79c0,.73-.29,1.37-.76,1.85-.24.24-.53.43-.85.56.21-.36.34-.79.3-1.23-.09-.97-.5-1.47-1.42-2.29-.57-.47-.93-1.18-.93-1.98,0-.71.28-1.35.75-1.82.15-.15.32-.27.5-.38-.04.2-.07.42-.07.63,0,1.03.52,1.95,1.32,2.49l.06.03c.66.48,1.1,1.25,1.1,2.13M127.38,40.66l.06-.03c.79-.54,1.32-1.45,1.32-2.49,0-.22-.03-.43-.07-.63.18.11.35.23.5.38.47.47.75,1.1.75,1.82,0,.8-.36,1.5-.93,1.98-.93.82-1.34,1.32-1.42,2.29-.04.44.1.87.3,1.23-.32-.13-.61-.32-.85-.56-.47-.48-.76-1.13-.76-1.85,0-.88.43-1.65,1.1-2.13M123.1,64.42v-4.04c.48.16.99.26,1.52.26,2.6,0,4.71-2.12,4.71-4.73,0-1.17-.43-2.25-1.14-3.08h0c-.71-.87-5.63-6.4-5.63-6.4-.87-.99-1.39-2.28-1.39-3.71,0-1.56.63-2.96,1.64-3.98.76-.76,1.74-1.31,2.83-1.53.18-.04,1.03-.04,1.04.94,0,.29-.13.54-.34.71h-.01s-.02.03-.02.03c-1.25.84-2.07,2.27-2.07,3.9,0,2.59,2.1,4.69,4.68,4.69,1.17,0,2.24-.43,3.07-1.15h-.03c-.12.01-.21.01-.34.01-.99,0-1.8-.81-1.8-1.8,0-.48.18-.91.48-1.23v-.02c.74-.72,1.12-1.31,1.11-1.31.38-.67.6-1.45.6-2.27,0-1.93-1.17-3.58-2.84-4.28-.25-.12-1.04-.31-1.4-.34-.33-.04-.66-.07-1-.07-4.24,0-7.68,3.45-7.68,7.7,0,1.79.62,3.45,1.65,4.76.04.07,5.2,5.87,5.85,6.67h.01s0,.02,0,.02c.41.47.65,1.07.65,1.74,0,.74-.29,1.39-.77,1.88-.48.48-1.14.78-1.87.78-.96,0-1.8-.51-2.27-1.28h0s-6.4-12.49-6.4-12.49c.72-1.12,1.14-2.45,1.14-3.88,0-2.05-.86-3.9-2.24-5.21,1.24-.15,2.21-1.2,2.22-2.49h0l.02-1.41c0-.27-.1-.53-.29-.72-.19-.19-.45-.3-.71-.3h-2.41c-.27,0-.5-.23-.5-.5s.22-.5.5-.5h4.69c1.52,0,2.75-1.24,2.75-2.77v-3.11h-11.12c.21-.52.33-1.08.33-1.68,0-2.42-1.95-4.38-4.36-4.38-.55,0-1,.44-1,.99,0,.4,0,.9,0,1.47,0,1.15,0,2.53.01,3.6-.55,0-1.34,0-1.34,0-6.76.26-12.15,5.83-12.16,12.67,0,1.52.27,2.97.75,4.32h-3.32v-16.98h-37.42v16.98h-3.32c.49-1.35.75-2.8.75-4.32,0-6.84-5.4-12.41-12.15-12.67,0,0-.8-.01-1.34,0,0-1.06.01-2.45.01-3.6,0-.56,0-1.07,0-1.47,0-.55-.45-.99-1-.99-2.41,0-4.36,1.96-4.36,4.38,0,.59.12,1.16.33,1.68h-11.12v3.11c0,1.53,1.23,2.76,2.75,2.77h4.69c.28,0,.5.23.5.5s-.22.5-.5.5h-2.41c-.27,0-.53.11-.71.3-.19.19-.29.45-.29.72l.02,1.41h0c0,1.29.97,2.33,2.22,2.49-1.37,1.31-2.24,3.16-2.24,5.21,0,1.43.42,2.76,1.14,3.88l-6.4,12.47h0c-.47.78-1.3,1.3-2.27,1.3-.73,0-1.39-.3-1.87-.78-.48-.48-.77-1.14-.77-1.88,0-.67.24-1.27.65-1.74h0s.01-.02.01-.02c.65-.79,5.81-6.6,5.85-6.67,1.03-1.31,1.65-2.96,1.65-4.76,0-4.26-3.44-7.7-7.68-7.7-.34,0-.67.03-1,.07-.36.03-1.15.22-1.4.34-1.67.7-2.84,2.36-2.84,4.28,0,.82.22,1.6.6,2.27,0,0,.37.6,1.1,1.31v.02c.31.32.49.76.49,1.23,0,.99-.8,1.8-1.8,1.8-.13,0-.22,0-.34-.03h-.03c.82.73,1.89,1.16,3.07,1.16,2.58,0,4.68-2.1,4.68-4.69,0-1.62-.82-3.05-2.07-3.9l-.02-.02h-.01c-.21-.18-.34-.43-.34-.72.01-.98.86-.98,1.04-.94,1.09.22,2.07.77,2.83,1.53,1.02,1.02,1.64,2.42,1.64,3.98,0,1.42-.52,2.71-1.39,3.71,0,0-4.93,5.54-5.63,6.4h0c-.71.83-1.14,1.91-1.14,3.09,0,2.61,2.11,4.73,4.71,4.73.53,0,1.05-.1,1.52-.26v4.04H7.38v14.5h11.96v-6.23h-3.53l2.7-1.48h8.76s0-8.97,0-8.97l7.24,3.19v10.69h4.14s2.81,2.82,2.81,2.82h9.77v-6.23s-5.58,0-5.58,0l-.85-3.63,2.34-6.66-8.13-8.15h-8.55s6.84-4.36,6.84-4.36l14.17,3.2v13.01l18.71,10.42,18.71-10.42v-13.01l14.17-3.2,6.84,4.37h-8.55s-8.13,8.15-8.13,8.15l2.34,6.66-.85,3.63h-5.58v6.23h9.77l2.81-2.82h4.14s0-10.68,0-10.68l7.24-3.19v8.97h8.76s2.7,1.48,2.7,1.48h-3.53v6.23h11.96v-14.5h-9.89Z"/>
  </g>
  <g>
    <path class="b" d="M6.48,93.32c3.66,0,5.61,1.73,5.61,4.66,0,2.52-1.75,4.23-4.69,4.52l4.72,6.14h-3.7l-4.46-6.1h-.9v6.1H0v-15.32h6.48ZM3.05,96.13v3.75h3.37c1.66,0,2.53-.61,2.53-1.9s-.91-1.85-2.53-1.85h-3.37Z"/>
    <path class="b" d="M26.23,96.17h-4.75v12.46h-3.05v-12.46h-4.75v-2.86h12.55v2.86Z"/>
    <path class="b" d="M41.56,102.52c0,4.23-2.7,6.39-6.6,6.39s-6.6-2.16-6.6-6.39v-9.2h3.06v9.05c0,2.52,1.42,3.62,3.53,3.62s3.53-1.11,3.53-3.62v-9.05h3.06v9.2Z"/>
    <path class="b" d="M61.88,108.64h-11.15v-15.32h3.05v12.46h8.1v2.86Z"/>
    <path class="b" d="M67.24,108.64h-3.05v-15.32h3.05v15.32Z"/>
    <path class="b" d="M82.39,108.64h-11.45v-15.32h11.36v2.8h-8.31v3.39h7.92v2.8h-7.92v3.52h8.39v2.8Z"/>
    <path class="b" d="M88.79,103.03v5.6h-3.05v-15.32h6.25c3.65,0,5.6,1.9,5.6,4.87s-1.95,4.85-5.58,4.85h-3.22ZM88.79,96.13v4.11h3.14c1.66,0,2.53-.68,2.53-2.06s-.86-2.06-2.53-2.06h-3.14Z"/>
    <path class="b" d="M113.23,108.64h-3.26l-1.33-3.57h-6.53l-1.33,3.57h-3.18l5.96-15.32h3.72l5.96,15.32ZM101.78,89.27h7.23v2.29h-7.23v-2.29ZM103.15,102.26h4.43l-2.21-5.92-2.22,5.92Z"/>
    <path class="b" d="M124.7,103.06c0,3.84-2.3,5.85-5.49,5.85-2.54,0-4.06-1.11-4.89-2.12l1.77-2.22c.62.77,1.56,1.42,2.98,1.42,1.62,0,2.58-1.01,2.58-3.22v-9.45h3.05v9.74Z"/>
    <path class="b" d="M142,108.64h-3.26l-1.33-3.57h-6.53l-1.34,3.57h-3.18l5.96-15.32h3.72l5.96,15.32ZM131.92,102.26h4.43l-2.21-5.92-2.22,5.92Z"/>
  </g>
</svg>