<?xml version="1.0" encoding="utf-8"?>
<!-- Generator: Adobe Illustrator 27.8.1, SVG Export Plug-In . SVG Version: 6.00 Build 0)  -->
<svg version="1.1" id="Layer_1" xmlns="http://www.w3.org/2000/svg" xmlns:xlink="http://www.w3.org/1999/xlink" x="0px" y="0px"
	 viewBox="0 0 1080 889.2" width="149" height="123" style="enable-background:new 0 0 1080 889.2;" xml:space="preserve">
<style type="text/css">
	.st0{fill-rule:evenodd;clip-rule:evenodd;fill:#025653;}
	.st1{fill:#025653;}
	.st2{fill:#FFFFFF;}
	.st3{fill:#9D2136;}
	.st4{fill:#6EB5BB;}
	.st5{fill-rule:evenodd;clip-rule:evenodd;fill:#C7942B;}
	.st6{fill:#FDC91C;}
	.st7{fill-rule:evenodd;clip-rule:evenodd;fill:#025652;}
</style>
<g>
	<path class="st0" d="M22.8,816.5c12.6,0,19.6,5.7,19.6,15.8c0,9.7-7.5,15.9-19.5,15.9H22l20.2,24.4h-8l-19.8-24.4H7.3v24.4H0.8
		v-56.1H22.8z M7.3,822.5v19.8h15.5c8.5,0,13-3.5,13-10c0-6.5-4.6-9.8-13-9.8H7.3z"/>
	<path class="st0" d="M47.3,820.7h24v4.8h-24V820.7z M62.3,872.6h-6v-37.9h6V872.6z"/>
	<path class="st0" d="M107.4,840.3v-5.7h6V870c0,12.4-8.3,19.2-20.1,19.2c-6.1,0-12.1-1.9-16-5.1l2.6-4.8c3.6,2.7,8.2,4.4,13.3,4.4
		c8.2,0,14.1-4.7,14.1-13.5v-3.9c-2.9,4-7.4,6.5-13.5,6.5c-10.7,0-18.8-8-18.8-19.5c0-11.5,8.1-19.4,18.8-19.4
		C100,833.9,104.5,836.4,107.4,840.3z M81.1,853.3c0,7.7,5.3,13.9,13.4,13.9c7.8,0,13.4-6,13.4-13.9c0-7.8-5.6-13.8-13.4-13.8
		C86.5,839.5,81.1,845.7,81.1,853.3z"/>
	<path class="st0" d="M164.9,872.6h-6v-5.6c-3,3.9-7.6,6.4-13.9,6.4c-10.7,0-19-8.3-19-19.8c0-11.4,8.3-19.7,19-19.7
		c6.3,0,10.9,2.6,13.9,6.4v-5.7h6V872.6z M132.2,853.6c0,7.9,5.5,14.1,13.6,14.1c7.9,0,13.5-6.1,13.5-14.1c0-8-5.6-14.1-13.5-14.1
		C137.7,839.5,132.2,845.8,132.2,853.6z"/>
	<path class="st0" d="M206,842.7c-2.4-1.7-7.3-3.6-12.4-3.6c-5.4,0-9,2.3-9,6c0,3.2,2.8,4.7,7.7,5.3l4.5,0.6
		c8.1,1,12.7,4.4,12.7,10.6c0,7.2-6.5,11.7-16.7,11.7c-4.9,0-11-1.2-15.8-4.8l2.8-4.5c2.9,2.2,6.7,4.1,13.1,4.1
		c6.4,0,10.5-2.1,10.5-6.1c0-3-2.6-4.9-7.9-5.5l-4.5-0.5c-8.5-1-12.5-4.8-12.5-10.5c0-7.2,6.1-11.5,15.1-11.5c6,0,11.4,1.7,15.1,4.1
		L206,842.7z"/>
	<path class="st0" d="M283.1,822.6h-19.5v50h-6.4v-50h-19.5v-6.1h45.4V822.6z"/>
	<path class="st0" d="M320.4,853.5c0,0.8,0,1.6-0.1,2.2h-30.4c0.8,8.2,6.6,12.4,13.4,12.4c4.7,0,8.8-1.8,12-4.8l3.2,4.1
		c-4.7,4.5-10,5.9-15.6,5.9c-11.2,0-19.2-8-19.2-19.7c0-11.6,8-19.8,18.8-19.8C312.9,833.9,320.3,841.9,320.4,853.5z M290,850.9
		h24.4c-0.8-7.1-5.4-11.7-11.9-11.7C295.4,839.2,290.9,844,290,850.9z"/>
	<path class="st0" d="M339.2,839.9c3.1-4.4,8.1-6.1,12.7-6.1c9.4,0,15.8,6,15.8,15.2v23.5h-6V851c0-7.2-4-11.5-10.9-11.5
		c-6.4,0-11.6,4.4-11.6,11.6v21.4h-6v-57.7h6V839.9z"/>
	<path class="st0" d="M417.4,849.1v23.5h-6V851c0-7.2-4-11.5-10.9-11.5c-6.4,0-11.6,4.4-11.6,11.6v21.4h-6v-37.9h5.9v5.4
		c3.1-4.5,8.1-6.2,12.8-6.2C411,833.9,417.4,839.9,417.4,849.1z"/>
	<path class="st0" d="M439.8,821.2c0,2.4-1.9,4.2-4.2,4.2c-2.4,0-4.2-1.8-4.2-4.2c0-2.4,1.8-4.2,4.2-4.2
		C438,816.9,439.8,818.8,439.8,821.2z M438.6,872.6h-6v-37.9h6V872.6z"/>
	<path class="st0" d="M479.7,842.7c-2.4-1.7-7.3-3.6-12.4-3.6c-5.4,0-9,2.3-9,6c0,3.2,2.8,4.7,7.7,5.3l4.5,0.6
		c8.1,1,12.7,4.4,12.7,10.6c0,7.2-6.5,11.7-16.7,11.7c-4.9,0-11-1.2-15.8-4.8l2.8-4.5c2.9,2.2,6.7,4.1,13.1,4.1
		c6.4,0,10.5-2.1,10.5-6.1c0-3-2.6-4.9-7.9-5.5l-4.5-0.5c-8.5-1-12.5-4.8-12.5-10.5c0-7.2,6.1-11.5,15.1-11.5c6,0,11.4,1.7,15.1,4.1
		L479.7,842.7z"/>
	<path class="st0" d="M501.4,850h5.5l14.6-15.4h7.5l-17.2,17.9l17.5,20.1h-7.6l-14.9-17.1h-5.5v17.1h-6v-57.7h6V850z"/>
	<path class="st0" d="M573.7,872.6h-6v-5.6c-3,3.9-7.6,6.4-13.9,6.4c-10.7,0-19-8.3-19-19.8c0-11.4,8.3-19.7,19-19.7
		c6.3,0,10.9,2.6,13.9,6.4v-5.7h6V872.6z M541,853.6c0,7.9,5.5,14.1,13.6,14.1c7.9,0,13.5-6.1,13.5-14.1c0-8-5.6-14.1-13.5-14.1
		C546.4,839.5,541,845.8,541,853.6z M543.2,820.7h24v4.8h-24V820.7z"/>
	<path class="st0" d="M646.3,856.8c0,11.3-8.1,16.6-17.2,16.6c-9.2,0-17.2-5.3-17.2-16.6v-22.1h6v21.6c0,7.9,4.8,11.5,11.3,11.5
		s11.2-3.7,11.2-11.5v-21.6h6V856.8z"/>
	<path class="st0" d="M696,849.1v23.5h-6V851c0-7.2-4-11.5-10.9-11.5c-6.4,0-11.6,4.4-11.6,11.6v21.4h-6v-37.9h5.9v5.4
		c3.1-4.5,8.1-6.2,12.8-6.2C689.6,833.9,696,839.9,696,849.1z"/>
	<path class="st0" d="M718.5,821.2c0,2.4-1.9,4.2-4.2,4.2c-2.4,0-4.2-1.8-4.2-4.2c0-2.4,1.8-4.2,4.2-4.2
		C716.6,816.9,718.5,818.8,718.5,821.2z M717.2,872.6h-6v-37.9h6V872.6z"/>
	<path class="st0" d="M750.2,872.7h-7l-16.2-38h6.5l13.3,31.9l13.3-31.9h6.3L750.2,872.7z"/>
	<path class="st0" d="M809.4,853.5c0,0.8,0,1.6-0.1,2.2h-30.4c0.8,8.2,6.6,12.4,13.4,12.4c4.7,0,8.8-1.8,12-4.8l3.2,4.1
		c-4.7,4.5-10,5.9-15.6,5.9c-11.2,0-19.2-8-19.2-19.7c0-11.6,8-19.8,18.8-19.8C801.9,833.9,809.4,841.9,809.4,853.5z M779,850.9
		h24.4c-0.8-7.1-5.4-11.7-11.9-11.7C784.5,839.2,780,844,779,850.9z"/>
	<path class="st0" d="M846.3,835.2l-1.4,5.9c-1.8-1-4.4-1.5-6.6-1.5c-5.9,0-10.2,4.6-10.2,11.8v21.2h-6v-37.9h5.9v5.3
		c2.6-3.9,6.6-6.1,11.3-6.1C842.1,833.9,844.3,834.2,846.3,835.2z"/>
	<path class="st0" d="M881.8,842.7c-2.4-1.7-7.3-3.6-12.4-3.6c-5.4,0-9,2.3-9,6c0,3.2,2.8,4.7,7.7,5.3l4.5,0.6
		c8.1,1,12.7,4.4,12.7,10.6c0,7.2-6.5,11.7-16.7,11.7c-4.9,0-11-1.2-15.8-4.8l2.8-4.5c2.9,2.2,6.7,4.1,13.1,4.1
		c6.4,0,10.5-2.1,10.5-6.1c0-3-2.6-4.9-7.9-5.5l-4.5-0.5c-8.5-1-12.5-4.8-12.5-10.5c0-7.2,6.1-11.5,15.1-11.5c6,0,11.4,1.7,15.1,4.1
		L881.8,842.7z"/>
	<path class="st0" d="M904.8,821.2c0,2.4-1.9,4.2-4.2,4.2c-2.4,0-4.2-1.8-4.2-4.2c0-2.4,1.8-4.2,4.2-4.2
		C902.9,816.9,904.8,818.8,904.8,821.2z M903.5,872.6h-6v-37.9h6V872.6z"/>
	<path class="st0" d="M944.9,840.1h-16.4v19.2c0,5.9,3.1,8.5,7.5,8.5c2.9,0,5.8-1.1,8-2.7l2.8,4.5c-2.8,2.2-6.6,3.8-11.3,3.8
		c-8.2,0-13-4.5-13-14v-19.3h-8.3v-5.4h8.3v-12.1h6v12.1h16.4V840.1z"/>
	<path class="st0" d="M992.8,872.6h-6v-5.6c-3,3.9-7.6,6.4-13.9,6.4c-10.7,0-19-8.3-19-19.8c0-11.4,8.3-19.7,19-19.7
		c6.3,0,10.9,2.6,13.9,6.4v-5.7h6V872.6z M960.1,853.6c0,7.9,5.5,14.1,13.6,14.1c7.9,0,13.5-6.1,13.5-14.1c0-8-5.6-14.1-13.5-14.1
		C965.6,839.5,960.1,845.8,960.1,853.6z M962.4,820.7h24v4.8h-24V820.7z"/>
	<path class="st0" d="M1034.2,840.1h-16.4v19.2c0,5.9,3.1,8.5,7.5,8.5c2.9,0,5.8-1.1,8-2.7l2.8,4.5c-2.8,2.2-6.6,3.8-11.3,3.8
		c-8.2,0-13-4.5-13-14v-19.3h-8.3v-5.4h8.3v-12.1h6v12.1h16.4V840.1z"/>
	<path class="st0" d="M1080,853.5c0,0.8,0,1.6-0.1,2.2h-30.4c0.8,8.2,6.6,12.4,13.4,12.4c4.7,0,8.8-1.8,12-4.8l3.2,4.1
		c-4.7,4.5-10,5.9-15.6,5.9c-11.2,0-19.2-8-19.2-19.7c0-11.6,8-19.8,18.8-19.8C1072.5,833.9,1079.9,841.9,1080,853.5z M1049.5,850.9
		h24.4c-0.8-7.1-5.4-11.7-11.9-11.7C1055,839.2,1050.5,844,1049.5,850.9z"/>
	<path class="st0" d="M44.5,775.6H0v-61.2h12.2v49.8h32.3V775.6z"/>
	<path class="st0" d="M95.5,775.6H84.3v-4.7c-2.8,3.4-6.9,5.8-12.7,5.8c-11.7,0-20.5-9.6-20.5-22.3c0-12.7,8.8-22.3,20.5-22.3
		c5.8,0,9.9,2.4,12.7,5.8v-4.7h11.1V775.6z M62.8,754.4c0,6.5,4.2,11.7,10.9,11.7c6.5,0,10.9-5,10.9-11.7s-4.4-11.7-10.9-11.7
		C67.1,742.7,62.8,747.9,62.8,754.4z"/>
	<path class="st0" d="M139.9,743.4h-15.3v15.5c0,5.3,2.8,7.2,6.3,7.2c2.7,0,5.6-1.4,8-2.8l4.2,8.9c-3.7,2.5-8,4.5-14,4.5
		c-10.5,0-15.9-5.9-15.9-16.9v-16.4H105v-10.1h8.2v-12.6h11.4v12.6h15.3V743.4z"/>
	<path class="st0" d="M176,775.6h-13.2l-16.7-42.3h12.4l11,30.3l11.1-30.3h12L176,775.6z"/>
	<path class="st0" d="M214,719.4c0,4.1-3.2,7.3-7.3,7.3c-4.1,0-7.3-3.1-7.3-7.3s3.1-7.3,7.3-7.3C210.8,712.1,214,715.3,214,719.4z
		 M212.4,775.6H201v-42.3h11.4V775.6z"/>
	<path class="st0" d="M237.7,779.6c0,9.3-5.3,14.4-13.2,14.4c-2.1,0-4.8-0.4-6.4-1.1l1.7-10c1,0.3,2,0.5,3.1,0.5
		c1.9,0,3.4-1.2,3.4-4.4v-45.7h11.4V779.6z M239.2,719.4c0,4.1-3.2,7.3-7.3,7.3c-4.1,0-7.3-3.1-7.3-7.3s3.1-7.3,7.3-7.3
		C236,712.1,239.2,715.3,239.2,719.4z"/>
	<path class="st0" d="M293.1,775.6H282v-4.7c-2.8,3.4-6.9,5.8-12.7,5.8c-11.7,0-20.5-9.6-20.5-22.3c0-12.7,8.8-22.3,20.5-22.3
		c5.8,0,9.9,2.4,12.7,5.8v-4.7h11.1V775.6z M260.5,754.4c0,6.5,4.2,11.7,10.9,11.7c6.5,0,10.9-5,10.9-11.7s-4.4-11.7-10.9-11.7
		C264.7,742.7,260.5,747.9,260.5,754.4z"/>
	<path class="st0" d="M337.2,745c-3.4-1.7-8.7-3.4-13.5-3.5c-4.3,0-6.5,1.5-6.5,3.8c0,2.4,3.1,3.1,6.9,3.6l3.8,0.6
		c9.2,1.4,14.3,5.5,14.3,12.7c0,8.7-7.2,14.4-19.4,14.4c-5.8,0-13.3-1.1-18.8-5l4.5-8.7c3.6,2.4,8,4.2,14.4,4.2c5.3,0,7.8-1.5,7.8-4
		c0-2.1-2.1-3.2-7-3.9l-3.5-0.5c-9.8-1.4-14.6-5.6-14.6-12.8c0-8.7,6.7-13.8,17.9-13.8c6.8,0,12.1,1.3,17.7,4L337.2,745z"/>
	<path class="st0" d="M411,753.3c0,15.3-9.2,23.4-21.9,23.4c-10.1,0-16.2-4.4-19.5-8.5l7.1-8.9c2.5,3.1,6.2,5.7,11.9,5.7
		c6.5,0,10.3-4,10.3-12.8v-37.7H411V753.3z"/>
	<path class="st0" d="M465,757.5c0,13.4-9.4,19.1-20,19.1c-10.6,0-20.1-5.8-20.1-19.1v-24.3h11.4v23.3c0,6.8,3.7,9.5,8.7,9.5
		c4.9,0,8.7-2.8,8.7-9.5v-23.3H465V757.5z M430.6,716.2h28.9v9.1h-28.9V716.2z"/>
	<path class="st0" d="M507.3,733l-1.7,11.3c-1.9-0.8-4.6-1.4-6.9-1.4c-5.3,0-8.9,3.2-8.9,9.5v23.1h-11.4v-42.3h11.1v4.6
		c2.7-4,6.7-5.8,11.9-5.8C503.8,732.1,505.8,732.5,507.3,733z"/>
	<path class="st0" d="M557.1,775.6H546v-4.7c-2.8,3.4-6.9,5.8-12.7,5.8c-11.7,0-20.5-9.6-20.5-22.3c0-12.7,8.8-22.3,20.5-22.3
		c5.8,0,9.9,2.4,12.7,5.8v-4.7h11.1V775.6z M524.5,754.4c0,6.5,4.2,11.7,10.9,11.7c6.5,0,10.9-5,10.9-11.7s-4.4-11.7-10.9-11.7
		C528.7,742.7,524.5,747.9,524.5,754.4z"/>
	<path class="st0" d="M601.2,745c-3.4-1.7-8.7-3.4-13.5-3.5c-4.3,0-6.5,1.5-6.5,3.8c0,2.4,3.1,3.1,6.9,3.6l3.8,0.6
		c9.2,1.4,14.3,5.5,14.3,12.7c0,8.7-7.2,14.4-19.4,14.4c-5.8,0-13.3-1.1-18.8-5l4.5-8.7c3.6,2.4,8,4.2,14.4,4.2c5.3,0,7.8-1.5,7.8-4
		c0-2.1-2.1-3.2-7-3.9l-3.5-0.5c-9.8-1.4-14.6-5.6-14.6-12.8c0-8.7,6.7-13.8,17.9-13.8c6.8,0,12.1,1.3,17.7,4L601.2,745z"/>
	<path class="st0" d="M681.9,775.6h-11.1v-4.7c-2.8,3.4-6.9,5.8-12.7,5.8c-11.7,0-20.5-9.6-20.5-22.3c0-12.7,8.8-22.3,20.5-22.3
		c5.8,0,9.9,2.4,12.7,5.8v-4.7h11.1V775.6z M649.3,754.4c0,6.5,4.2,11.7,10.9,11.7c6.5,0,10.9-5,10.9-11.7s-4.4-11.7-10.9-11.7
		C653.5,742.7,649.3,747.9,649.3,754.4z"/>
	<path class="st0" d="M707.1,748.3h4l11.9-15.1h14l-16.7,19.9l16.8,22.4h-14l-12.2-17.1h-3.8v17.1h-11.4v-62.9h11.4V748.3z"/>
	<path class="st0" d="M784.8,775.6h-11.1v-4.7c-2.8,3.4-6.9,5.8-12.7,5.8c-11.7,0-20.5-9.6-20.5-22.3c0-12.7,8.8-22.3,20.5-22.3
		c5.8,0,9.9,2.4,12.7,5.8v-4.7h11.1V775.6z M752.2,754.4c0,6.5,4.2,11.7,10.9,11.7c6.5,0,10.9-5,10.9-11.7s-4.4-11.7-10.9-11.7
		C756.4,742.7,752.2,747.9,752.2,754.4z"/>
	<path class="st0" d="M828.9,737.7v-25h11.4v62.9h-11.1v-4.7c-2.8,3.4-6.9,5.8-12.7,5.8c-11.7,0-20.5-9.6-20.5-22.3
		c0-12.7,8.8-22.3,20.5-22.3C822.1,732.1,826.1,734.3,828.9,737.7z M807.6,754.4c0,6.5,4.2,11.7,10.9,11.7c6.5,0,10.9-5,10.9-11.7
		s-4.4-11.7-10.9-11.7C811.8,742.7,807.6,747.9,807.6,754.4z"/>
	<path class="st0" d="M893.3,754.3c0,1.3-0.1,2.9-0.2,3.8h-30c1.2,6.1,5.5,8.8,10.9,8.8c3.7,0,7.6-1.5,10.7-4.1l6.7,7.3
		c-4.8,4.4-10.9,6.4-18,6.4c-13,0-22-8.8-22-22.1c0-13.3,8.7-22.4,21.4-22.4C884.9,732.1,893.3,741.1,893.3,754.3z M858.1,716.2H887
		v9.1h-28.9V716.2z M863.1,750.4h18.7c-1-5.4-4.3-8.5-9.2-8.5C867.3,741.9,864.1,745.2,863.1,750.4z"/>
	<path class="st0" d="M973,748.6v27h-11.4v-23.3c0-6.1-3.1-9.5-8.3-9.5c-4.9,0-9,3.2-9,9.6v23.2H933v-23.3c0-6.1-3.1-9.5-8.3-9.5
		c-4.9,0-9,3.2-9,9.6v23.2h-11.4v-42.3h11.1v5c3-4.5,7.6-6.1,12.5-6.1c6.1,0,11.1,2.8,14,7.3c3.3-5.4,8.8-7.3,14.4-7.3
		C966.2,732.1,973,738.8,973,748.6z"/>
	<path class="st0" d="M999.3,719.4c0,4.1-3.2,7.3-7.3,7.3c-4.1,0-7.3-3.1-7.3-7.3s3.1-7.3,7.3-7.3
		C996.1,712.1,999.3,715.3,999.3,719.4z M997.7,775.6h-11.4v-42.3h11.4V775.6z"/>
	<path class="st0" d="M1023,779.6c0,9.3-5.3,14.4-13.2,14.4c-2.1,0-4.8-0.4-6.4-1.1l1.7-10c1,0.3,2,0.5,3.1,0.5
		c1.9,0,3.4-1.2,3.4-4.4v-45.7h11.4V779.6z M1024.5,719.4c0,4.1-3.2,7.3-7.3,7.3c-4.1,0-7.3-3.1-7.3-7.3s3.1-7.3,7.3-7.3
		C1021.3,712.1,1024.5,715.3,1024.5,719.4z"/>
	<path class="st0" d="M1078.4,775.6h-11.1v-4.7c-2.8,3.4-6.9,5.8-12.7,5.8c-11.7,0-20.5-9.6-20.5-22.3c0-12.7,8.8-22.3,20.5-22.3
		c5.8,0,9.9,2.4,12.7,5.8v-4.7h11.1V775.6z M1045.8,754.4c0,6.5,4.2,11.7,10.9,11.7c6.5,0,10.9-5,10.9-11.7s-4.4-11.7-10.9-11.7
		C1050,742.7,1045.8,747.9,1045.8,754.4z"/>
	<g id="XMLID_00000042735374328749526490000016345328812639045020_">
		<g>
			<path class="st1" d="M537.2,660.8c-4.7-4.1-12.5-9.9-22.5-13.9C387,596.1,321,522.6,318.5,428.5l0-212.9c0-1.8,0-3.8-0.1-6.1
				c-0.4-18.6-2.7-36.8-6.7-54.2c-2.5-10.7-7.2-22.3-10.6-28.2l-1.1-1.9l55.7-81l2.5,0.9c7.4,2.7,27.5,9.1,55,9.1
				c17.9,0,36-2.7,53.8-8c40.9-12.2,61.4-28,70-36.3l2.4-2.3l2.4,2.3c8.6,8.3,29.1,24.1,70,36.3c17.7,5.3,35.8,8,53.8,8
				c27.5,0,47.7-6.4,55-9.1l2.5-0.9l55.7,81l-1.1,1.9c-3.4,5.9-8.1,17.5-10.6,28.2c-4.1,17.4-6.3,35.6-6.7,54.2
				c0,2.4-0.1,4.4-0.1,6.1l0,212.9c-2.5,94.1-68.5,167.6-196.2,218.4c-10.6,4.2-18.6,10.5-22.5,13.9l-2.2,2L537.2,660.8z"/>
		</g>
		<g>
			<path class="st2" d="M537.2,660.8c-4.7-4.1-12.5-9.9-22.5-13.9C387,596.1,321,522.6,318.5,428.5l0-212.9c0-1.8,0-3.8-0.1-6.1
				c-0.4-18.6-2.7-36.8-6.7-54.2c-2.5-10.7-7.2-22.3-10.6-28.2l-1.1-1.9l55.7-81l2.5,0.9c7.4,2.7,27.5,9.1,55,9.1
				c17.9,0,36-2.7,53.8-8c40.9-12.2,61.4-28,70-36.3l2.4-2.3l2.4,2.3c8.6,8.3,29.1,24.1,70,36.3c17.7,5.3,35.8,8,53.8,8
				c27.5,0,47.7-6.4,55-9.1l2.5-0.9l55.7,81l-1.1,1.9c-3.4,5.9-8.1,17.5-10.6,28.2c-4.1,17.4-6.3,35.6-6.7,54.2
				c0,2.4-0.1,4.4-0.1,6.1l0,212.9c-2.5,94.1-68.5,167.6-196.2,218.4c-10.6,4.2-18.6,10.5-22.5,13.9l-2.2,2L537.2,660.8z"/>
		</g>
	</g>
	<path class="st3" d="M781.1,127.7c-2.9,3.8-9,17.4-12.1,30.9c-4.1,17.9-6.3,36.4-6.7,54.8H316.7c-0.4-18.5-2.6-36.9-6.7-54.8
		c-3.1-13.5-9.2-27.1-12.1-30.9L355.2,43c0,0,47.4,22.1,111.4,2.7c55.2-16.7,72.9-40.5,72.9-40.5s17.7,23.7,72.9,40.5
		C676.3,65,723.8,43,723.8,43L781.1,127.7z"/>
	<path class="st4" d="M316.8,424.4v4.2c3.5,133.2,135.7,195.5,197.3,220c15.5,6.2,25.4,16.9,25.4,16.9s9.9-10.7,25.4-16.9
		c61.6-24.5,193.8-86.8,197.3-220v-4.2H316.8z"/>
	<g>
		<g>
			<polygon class="st5" points="539.5,42 558,79.6 599.4,85.6 569.5,114.8 576.5,156.1 539.5,136.6 502.4,156.1 509.5,114.8 
				479.5,85.6 520.9,79.6 			"/>
			<g>
				<polygon class="st5" points="684.8,87.8 677.8,129 707.9,158.2 666.4,164.3 648,201.9 629.4,164.4 587.9,158.4 617.9,129.1 
					610.7,87.9 647.8,107.3 				"/>
				<polygon class="st5" points="394.1,87.8 401.1,129 371.1,158.2 412.5,164.3 431,201.9 449.6,164.4 491,158.4 461.1,129.1 
					468.2,87.9 431.1,107.3 				"/>
			</g>
		</g>
		<g>
			<polygon class="st6" points="539.5,42 558,79.6 599.4,85.6 569.5,114.8 576.5,156.1 539.5,136.6 502.4,156.1 509.5,114.8 
				479.5,85.6 520.9,79.6 			"/>
			<g>
				<polygon class="st6" points="684.8,87.8 677.8,129 707.9,158.2 666.4,164.3 648,201.9 629.4,164.4 587.9,158.4 617.9,129.1 
					610.7,87.9 647.8,107.3 				"/>
				<polygon class="st6" points="394.1,87.8 401.1,129 371.1,158.2 412.5,164.3 431,201.9 449.6,164.4 491,158.4 461.1,129.1 
					468.2,87.9 431.1,107.3 				"/>
			</g>
		</g>
	</g>
	<path class="st0" d="M460.4,347.2c-0.3,24.2-16.4,61.5-44.3,61.5c-2.3,0-4.4-0.2-6.1-0.5c-7.5-1.5-10-6.2-10-15.6v-145
		c0-9.4,2.5-14.1,10-15.6v-5.9h-70.3v5.8c6.6,1.2,9.4,4.7,10.2,11.4c0.1,1.3,0.2,2.7,0.2,4.3v145c0,1.5-0.1,3-0.2,4.3
		c-0.8,6.7-3.6,10.3-10.2,11.4v5.8h126.2v-66.8H460.4z"/>
	<path class="st0" d="M733.2,404.6c-2.1-2.5-3.7-6.4-4.7-11.8l-30.4-166.7h-39.9l-29.6,158.1c-1.2,6.3-2.9,12.5-5.3,17.1
		c-1.7,3.3-7.7,5.7-10.1,6.8v5.9h37.9v-6.4c-2.1-0.8-4.3-2.2-6.2-4.3c-3.4-3.8-6-9.7-6-18.8c0-3.2,0.3-7,1.1-11.3l3.2-17.1h32.2
		l1.8,9.7l4.6,24.8l0.4,2.2c0.5,2.7,0.7,4.8,0.7,6.7c0,2.3-0.3,4.1-1.1,5.6c-1.1,2.2-3.1,3.4-6.2,3.5v5.4h63.7v-5.7
		C736.9,407.8,734.9,406.6,733.2,404.6z M645.1,346.2l14.3-76.8l14.2,76.8H645.1z"/>
	<path class="st0" d="M474,226.1v66.8h5.5c0.3-24.2,27.6-61,55.9-61c0.7,0,1.4,0.1,2.1,0.1c7.2,1.6,9.5,6.4,9.5,15.5l0,162.1
		c0,11.1-4.6,21.8-13.1,29.1c-14.2,12.2-35.5,16.2-46.5-6.1c-4-8.1-4.5-19.3-3.3-26.6c0.1-0.7,0.9-1.1,1.6-0.7
		c5.4,3.4,11.8,6.3,21.2,6.6c17.6,0.6,32.1-13.3,32.1-32.5c0-16.4-11.7-32.3-35.4-32.3c-13.7,0-31,8.9-31,47.6
		c-2.2,36.3,15.9,81.2,64,81.2h0.3c3.4,0,6.9-0.3,10.3-0.7c29.3-3.8,56.5-29,57-63.3c0-0.3,0-0.6,0-0.8V247.6
		c0-9.4,2.5-14.2,10.3-15.6v-5.9H474z"/>
	<path class="st6" d="M646.3,424.4C646.3,424.4,646.3,424.4,646.3,424.4c0,3.1-0.2,6.3-0.5,9.7c-0.1,0.9-0.2,1.9-0.3,2.8
		c-0.1,1.1-0.3,2.2-0.4,3.3l-0.1,0.7c-0.2,1.5-0.5,3.1-0.8,4.7l-0.1,0.7c-0.4,1.7-0.7,3.3-1.1,4.7l1.4,0.4c0,0,0,0,0,0l-1.4-0.2
		c-0.4,1.5-0.8,3.1-1.3,4.7l-0.1,0.4c-0.5,1.4-0.9,2.9-1.5,4.5l-0.3,0.7c-0.6,1.6-1.1,3-1.7,4.3l-0.2,0.5c-0.6,1.3-1.2,2.6-1.8,3.9
		l-0.3,0.7c-0.6,1.3-1.3,2.6-2,3.8l-0.6,1.1c-0.7,1.2-1.3,2.4-2,3.5c-0.2,0.3-0.3,0.6-0.5,0.8l-0.2,0.4c-0.5,0.9-1.1,1.7-1.6,2.5
		c-0.4,0.6-0.8,1.2-1.2,1.8c-0.5,0.8-1.1,1.6-1.7,2.4c-0.5,0.8-1.1,1.5-1.8,2.3c-0.6,0.8-1.2,1.5-1.8,2.3c-0.3,0.4-0.6,0.8-1,1.1
		c-4,4.7-8.4,9.2-13.1,13.1c-0.9,0.7-1.8,1.4-2.6,2.1l-0.4,0.3c-0.3,0.2-0.6,0.5-0.9,0.7c-0.6,0.5-1.2,0.9-1.9,1.4
		c-0.7,0.5-1.4,1-2.2,1.6c-0.7,0.5-1.4,1-2.1,1.4c-0.7,0.5-1.5,1-2.3,1.5l-0.4,0.2c-0.3,0.2-0.7,0.4-1.1,0.7
		c-1.1,0.7-2.2,1.3-3.3,1.9c-0.5,0.3-1,0.5-1.5,0.8c-1.2,0.6-2.3,1.2-3.5,1.8c-0.3,0.1-0.5,0.2-0.8,0.4l-0.5,0.2c-1,0.5-2,0.9-3,1.4
		l-0.5,0.2c-0.3,0.1-0.5,0.2-0.8,0.3c-1.2,0.5-2.5,1-3.7,1.5c-0.5,0.2-1,0.4-1.4,0.5c-1.3,0.5-2.5,0.9-3.8,1.3
		c-0.3,0.1-0.6,0.2-0.9,0.3l-0.5,0.1c-1.1,0.3-2.2,0.7-3.3,1l-1.1,0.3c-1.4,0.3-2.7,0.7-4.1,1c-0.5,0.1-0.9,0.2-1.4,0.3
		c-1.4,0.3-2.8,0.5-4.3,0.8l-1.1,0.2c-1.1,0.2-2.3,0.3-3.4,0.4c-0.8,0.1-1.7,0.2-2.5,0.3c-3.4,0.3-6.6,0.5-9.6,0.5
		c-3.4,0-6.9-0.2-10.4-0.5l-0.7-0.1c-1.4-0.1-2.9-0.3-4.6-0.6l-0.9-0.1c-1.4-0.2-2.9-0.5-4.4-0.8l-1-0.2c-1.7-0.4-3.1-0.7-4.5-1
		l-0.4-0.1c-1.5-0.4-2.9-0.8-4.4-1.3l-0.5-0.2c-1.4-0.5-3-1-4.5-1.5l-0.6-0.2c-1.6-0.6-3.1-1.2-4.5-1.8l-0.6,1.3c0,0,0,0,0,0
		l0.4-1.4c-1.5-0.6-3-1.3-4.5-2l-0.6,1.3l0,0l0.5-1.4c-1.4-0.7-2.8-1.4-4.4-2.3l-0.4-0.2c-1.5-0.8-2.9-1.6-4.2-2.4l-0.7,1.2v0
		l0.6-1.3c-1.5-0.9-2.9-1.8-4.2-2.7c-1.1-0.8-2.4-1.6-3.8-2.7c-0.3-0.2-0.6-0.5-0.9-0.7c-0.3-0.2-0.6-0.5-1-0.8l-0.5-0.4
		c-0.9-0.7-1.8-1.4-2.6-2.1c-4.9-4.1-9.4-8.6-13.5-13.5c-0.3-0.3-0.6-0.7-0.9-1c-0.9-1.1-1.8-2.2-2.7-3.4l-0.2-0.3
		c-2-2.7-3.9-5.5-5.6-8.4c-0.8-1.4-1.7-2.8-2.5-4.3l-0.2-0.3c-1.6-3-3.1-6.1-4.4-9.2c-0.6-1.5-1.2-3-1.8-4.6l-0.2-0.5
		c-0.6-1.6-1.1-3.1-1.6-4.7l-1.4,0.4v0l1.3-0.7c-0.5-1.6-1-3.3-1.4-4.9c-0.4-1.5-0.7-3.1-1.1-4.8l-0.1-0.6c-0.3-1.6-0.6-3.3-0.9-4.8
		l0-0.3c-0.3-1.7-0.5-3.4-0.6-5.1l-1.4,0.1c0,0,0,0,0,0l1.4-0.3c-0.4-3.6-0.5-7.2-0.5-10.8c0,0,0,0,0,0h-27.1c0,3.1,0.1,6.2,0.3,9.3
		c0,0.6,0.1,1.1,0.1,1.7c0,0.3,0.1,0.6,0.1,0.8l0.1,1c0.1,1.3,0.3,2.5,0.4,3.8c0.1,0.5,0.1,0.9,0.2,1.4c0.2,1.4,0.4,2.8,0.6,4.2
		l0.1,0.6c0.2,1.4,0.5,2.8,0.8,4.1c0.1,0.5,0.2,0.9,0.3,1.4c0.3,1.2,0.5,2.4,0.8,3.6l0.2,0.8c0.4,1.4,0.7,2.8,1.1,4.2
		c0.1,0.4,0.3,0.9,0.4,1.4c0.3,1.1,0.7,2.2,1,3.2l0.4,1.1c0.4,1.3,0.9,2.7,1.4,4c0.1,0.4,0.3,0.7,0.4,1.1l0.1,0.3
		c0.4,1,0.8,2,1.2,2.9l0.5,1.3c0.5,1.3,1.1,2.5,1.7,3.8l0.6,1.3c0.4,0.9,0.9,1.8,1.3,2.7l0.2,0.3c0.2,0.4,0.4,0.7,0.5,1.1
		c0.6,1.2,1.3,2.4,1.9,3.6l0.7,1.2c0.5,0.9,1,1.7,1.5,2.6c0.3,0.5,0.6,0.9,0.8,1.4c0.7,1.1,1.4,2.3,2.2,3.4l0.7,1
		c0.6,0.9,1.2,1.7,1.8,2.6c0.3,0.4,0.6,0.9,0.9,1.3c0.7,1,1.4,1.9,2.2,2.9l0.8,1.1c0.7,0.9,1.4,1.8,2.2,2.7l0.7,0.8
		c0.1,0.1,0.2,0.3,0.3,0.4l2.6,3l0,0c3.2,3.6,6.7,7,10.3,10.3l0,0l1.7,1.5c0.4,0.4,0.9,0.7,1.3,1.1l0.1,0.7h0.8l0.1,0.1
		c1.1,0.9,2.1,1.7,3.2,2.6l0.2,0.2c1.2,0.9,2.4,1.8,3.5,2.7l0.9,0.6c1.1,0.8,2.2,1.6,3.4,2.3l0.3,0.2c1.3,0.8,2.6,1.7,3.9,2.5
		l0.7,0.4c1.2,0.7,2.4,1.4,3.7,2.1l0.3,0.2c1.4,0.8,2.8,1.5,4.1,2.2l0.5,0.2c1.3,0.7,2.7,1.3,4.1,2l0.2,0.1c1.5,0.7,3,1.3,4.5,2
		l0.1,0.1c1.5,0.6,3,1.2,4.5,1.8l0.2,0.1c3.1,1.2,6.3,2.2,9.6,3.2c12.2,3.6,24.8,5.4,37.5,5.4c2.1,0,4.2,0,6.3-0.1
		c0.4,0,0.7,0,1.1-0.1v0l1.5-0.1c0.7,0,1.3-0.1,2-0.1l0.2,0c0.4,0,0.8-0.1,1-0.1l0.3,0c0.5,0,0.9-0.1,1.4-0.1l0.7-0.1
		c1.2-0.1,2.5-0.3,3.7-0.4c0.7-0.1,1.4-0.2,2.2-0.3l0.4-0.1c1-0.2,2.1-0.3,3.1-0.5c0.9-0.2,1.8-0.3,2.7-0.5c1-0.2,2-0.4,3-0.7
		l0.5-0.1c0.7-0.2,1.4-0.3,2.1-0.5c1-0.2,2-0.5,2.9-0.8l0.2-0.1c1.2-0.3,2.3-0.7,3.5-1c1.3-0.4,2.6-0.8,3.9-1.2
		c0.6-0.2,1.3-0.4,1.9-0.7l0.8-0.3c0.9-0.3,1.7-0.6,2.6-1c0.9-0.3,1.8-0.7,2.6-1.1c0.9-0.4,1.7-0.7,2.6-1.1c0.9-0.4,1.7-0.8,2.6-1.2
		c0.9-0.4,1.7-0.8,2.6-1.2l0.6-0.3c0.6-0.3,1.3-0.6,1.9-0.9c1-0.5,2-1,3.1-1.6c1.2-0.6,2.3-1.3,3.5-2l0.2-0.1c0.9-0.5,1.7-1,2.6-1.5
		c0.6-0.4,1.2-0.8,1.8-1.1l0.5-0.3c0.8-0.5,1.6-1.1,2.4-1.6c0.7-0.5,1.5-1,2.2-1.5c0.8-0.6,1.6-1.1,2.4-1.7l0.2-0.1
		c0.7-0.5,1.3-1,2-1.5c0.8-0.6,1.7-1.3,2.5-2l0.6-0.5c0.4-0.3,0.8-0.7,1.3-1l-0.9-1.1l0.8,0.8l0.2,0.2c0,0,0,0,0,0l0,0l0,0
		c0.1,0,0.1-0.1,0.2-0.2c0.6-0.5,1.2-1,1.8-1.5l1.1-1l0,0c3.7-3.3,7.2-6.8,10.4-10.4l0,0l1-1.1c0.5-0.6,1-1.1,1.4-1.7l0.2-0.1
		l0.1-0.3c0.5-0.6,1-1.2,1.5-1.8l0.6-0.8c0.4-0.5,0.9-1.1,1.3-1.6c0.6-0.8,1.2-1.5,1.7-2.3c0.6-0.8,1.1-1.5,1.7-2.3
		c0.5-0.7,1-1.5,1.5-2.2c0.6-0.9,1.2-1.7,1.7-2.6l0.3-0.5c0.3-0.5,0.7-1,1-1.6c0.7-1.2,1.5-2.4,2.2-3.6c0.4-0.6,0.7-1.3,1.1-1.9
		c0.7-1.3,1.5-2.7,2.2-4c0.2-0.5,0.5-0.9,0.7-1.4l0.3-0.6c0.5-1,1-2.1,1.5-3.1c0.3-0.7,0.7-1.5,1-2.2c0.4-1,0.9-2,1.3-3.1
		c0.3-0.7,0.6-1.5,0.9-2.2c0.4-1.1,0.8-2.2,1.2-3.3l0.2-0.7c0.2-0.4,0.3-0.9,0.5-1.3c0.6-1.8,1.2-3.6,1.7-5.2
		c0.1-0.4,0.2-0.7,0.3-1.1l0.2-0.7c0.3-1.2,0.7-2.5,1-3.7c0.2-0.6,0.3-1.3,0.4-1.9l0.1-0.5c0.2-1.1,0.5-2.1,0.7-3.2
		c0.2-0.9,0.3-1.7,0.5-2.6c0.2-1,0.4-2.1,0.5-3.2l0.1-0.4c0.1-0.8,0.2-1.5,0.3-2.3c0.2-1.1,0.3-2.2,0.4-3.4l0.1-0.8
		c0.1-0.5,0.1-1.1,0.2-1.8c0-0.4,0.1-0.8,0.1-1.1c0.1-0.7,0.1-1.5,0.2-2.2l0-1c0-0.5,0.1-1.1,0.1-1.6c0.1-2.1,0.1-4.2,0.1-6.3H646.3
		z"/>
	<path class="st7" d="M672,424.4C672,424.4,672,424.4,672,424.4c0,2.1,0,4.1-0.1,6.2c0,0.9-0.1,1.7-0.1,2.6h-5
		c-1.9,27.6-12.8,54-31.1,74.9l3.5,3.5c-1.9,2.2-3.9,4.3-6,6.4c-2.1,2.1-4.2,4.1-6.4,6l-3.5-3.5c-20.9,18.2-47.3,29.1-74.9,31.1v5
		c-0.8,0.1-1.7,0.1-2.6,0.1c-2.1,0.1-4.2,0.1-6.2,0.1c-3,0-5.9-0.1-8.8-0.3v-5c-28.4-1.9-54.4-13.5-74.8-31.3l-3.7,3.7
		c-2.2-1.9-4.3-3.9-6.4-6c-2-2-4-4.1-5.9-6.3l3.7-3.7c-17.8-20.4-29.4-46.4-31.3-74.9h-5c-0.2-2.9-0.3-5.8-0.3-8.8c0,0,0,0,0,0
		h-67.2c0,0,0,0,0,0c0,6,7,17.3,19.5,17.3s17.4-8.3,25.8-8.3c1.9,0,3.5,0.2,5,0.6c2.7,0.7,5.1,2.5,6.6,4.9c1.3,2.1,3.8,3.3,6.5,2.7
		h0c3.1,24.4,12.8,47.7,27.9,67.2c-0.3,0.2-0.7,0.4-1,0.7c-1.7,1.6-2.3,3.8-1.7,5.9c0.7,2.7,0.2,5.7-1.3,8.1c-0.7,1.3-1.7,2.6-3,3.9
		c-5.9,5.9-15.3,3.5-24.1,12.3c-8.9,8.9-5.8,21.8-1.6,26c4.2,4.2,17.2,7.3,26-1.6c8.9-8.9,6.4-18.2,12.3-24.1
		c1.3-1.3,2.7-2.3,3.9-3.1c2.4-1.4,5.4-1.9,8.1-1.2c2.4,0.6,5-0.3,6.5-2.7c0,0,0,0,0,0c19.5,15.2,42.8,24.8,67.2,27.9
		c-0.1,0.4-0.2,0.8-0.2,1.2c-0.1,2.2,1,4.2,2.7,5.3c2.4,1.6,4.3,3.9,5,6.7c0.4,1.4,0.6,3.1,0.6,5c0,8.3-8.3,13.3-8.3,25.8
		c0,12.5,11.3,19.5,17.3,19.5c6,0,17.3-7,17.3-19.5c0-12.5-8.4-17.4-8.4-25.8c0-1.9,0.2-3.5,0.6-5c0.7-2.8,2.6-5.1,5-6.7
		c1.7-1.1,2.8-3,2.7-5.3c0-0.4-0.1-0.8-0.1-1.1c24.5-3.1,47.7-12.7,67.2-28c0.2,0.4,0.4,0.7,0.7,1c1.5,1.6,3.7,2.2,5.6,1.8
		c2.8-0.6,5.8-0.3,8.3,1.2c1.3,0.8,2.6,1.8,3.9,3.1c5.9,5.9,3.5,15.3,12.3,24.1c8.9,8.9,21.8,5.8,26,1.6c4.2-4.2,7.3-17.2-1.6-26
		c-8.9-8.9-18.2-6.4-24.1-12.3c-1.3-1.3-2.3-2.7-3.1-3.9c-1.5-2.5-1.8-5.4-1.2-8.2c0.4-2-0.2-4.1-1.8-5.6c-0.3-0.3-0.7-0.5-1-0.7
		c15.2-19.5,24.9-42.7,28-67.2c0.4,0.1,0.7,0.1,1.1,0.2c2.2,0.1,4.2-1,5.3-2.7c1.6-2.4,3.9-4.3,6.7-5c1.4-0.4,3.1-0.6,5-0.6
		c8.4,0,13.3,8.3,25.8,8.3s19.5-11.3,19.5-17.3c0,0,0,0,0,0H672z"/>
	<path class="st7" d="M647.7,424.4C647.7,424.4,647.7,424.4,647.7,424.4l-34.7,0v0v10.2c0,0.6,0.5,1.1,1.1,1.1
		c7.4,0,13.2,1.5,20,4.6c2,0.9,4.1,1.4,6.3,1.4h0.8c-2.6,15.6-8.8,30.1-17.6,42.5l-0.6-0.6c-1.6-1.6-3.4-2.7-5.4-3.5
		c-6.9-2.7-12.1-5.7-17.4-10.9c-0.4-0.4-1.2-0.4-1.6,0l-7.2,7.2l-7.2,7.2c-0.5,0.4-0.5,1.2,0,1.6c5.2,5.2,8.2,10.4,10.9,17.4
		c0.8,2.1,2,3.9,3.5,5.4l0.6,0.6c-12.4,8.8-26.8,15-42.5,17.6v-0.8c0-2.2-0.5-4.3-1.4-6.3c-3-6.8-4.6-12.6-4.6-20
		c0-0.6-0.5-1.1-1.1-1.1h-10.2h-10.2c-0.6,0-1.1,0.5-1.1,1.1c0,7.4-1.5,13.2-4.6,20c-0.9,2-1.4,4.1-1.4,6.3v0.8
		c-15.6-2.6-30.1-8.8-42.5-17.6l0.6-0.6c1.5-1.5,2.7-3.4,3.5-5.5c2.6-6.9,5.7-12.1,10.9-17.3c0.4-0.4,0.4-1.2,0-1.6l-7.2-7.2
		l-7.2-7.2c-0.4-0.5-1.2-0.5-1.6,0c-5.2,5.2-10.4,8.2-17.3,10.9c-2,0.8-3.9,2-5.5,3.5l-0.6,0.6v0c-8.8-12.4-15-26.8-17.6-42.5h0.8
		c2.2,0,4.3-0.5,6.3-1.4c6.8-3,12.6-4.6,20-4.6c0.6,0,1.1-0.5,1.1-1.1v-10.2v0h-34.7c0,0,0,0,0,0c0,3,0.1,5.9,0.4,8.8h-5
		c1.9,24.7,11.7,47.1,26.9,64.8l3.5-3.6c1.9,2.2,3.9,4.4,5.9,6.5c2.1,2.1,4.2,4.1,6.5,6l-3.5,3.5c17.7,15.2,40.2,25,64.8,26.9v-5
		c2.9,0.2,5.8,0.4,8.8,0.4c3,0,5.9-0.1,8.8-0.4v5c24.6-1.9,47.1-11.7,64.8-26.9l-3.5-3.5c2.2-1.9,4.4-3.9,6.5-6
		c2.1-2.1,4.1-4.2,6-6.5l3.5,3.5c15.2-17.7,25-40.2,26.9-64.8h-5C647.6,430.3,647.7,427.4,647.7,424.4z"/>
	<path class="st0" d="M539.5,670.5c-1.5,0-2.8-0.6-3.8-1.7c-0.1-0.1-9.4-10-23.5-15.6c-50.3-20-90.2-43-121.9-70.1
		c-50.6-43.4-77.1-95.3-78.6-154.5c0,0,0-0.1,0-0.1V215.7c0-1.8,0-3.7-0.1-5.9c-0.4-18.1-2.6-35.9-6.6-52.8c-3-13-9-25.6-11.2-28.4
		c-1.4-1.7-1.4-4.1-0.2-5.9l57.3-83.2c1.4-2.1,4.2-2.8,6.5-1.8c0.5,0.2,46.6,20.6,107.7,2.4C517.6,24.3,535.2,2.2,535.3,2
		c1-1.3,2.5-2,4.2-2c1.6,0,3.2,0.8,4.1,2c0.2,0.2,17.7,22.3,70.3,37.9c61.3,18.3,107.2-2.2,107.7-2.4c2.3-1.1,5.1-0.3,6.5,1.8
		l57.3,83.2c1.2,1.8,1.2,4.2-0.2,5.9c-2.2,2.8-8.1,15.4-11.2,28.4c-4,16.9-6.2,34.7-6.6,52.8c0,2.2-0.1,4.1-0.1,5.9v212.9
		c0,0,0,0.1,0,0.1c-1.5,59.1-28,111.1-78.6,154.5c-31.7,27.2-71.6,50.1-121.9,70.1c-14.2,5.7-23.5,15.5-23.5,15.6
		C542.3,669.9,540.9,670.5,539.5,670.5z M321.9,428.5c2.4,92.7,67.7,165.1,194.1,215.4c10.8,4.3,19,10.6,23.5,14.5
		c4.5-3.9,12.7-10.2,23.5-14.5C689.3,593.6,754.6,521.1,757,428.5V215.7c0-1.9,0-3.9,0.1-6.1c0.4-18.8,2.7-37.3,6.8-54.9
		c2.6-10.9,7.3-22.7,11-29.1l-53-77.1c-8.3,3.1-28.5,9.3-56.2,9.3c-16,0-34.6-2.1-54.7-8.1c-42.3-12.6-63.3-29.2-71.4-37.1
		c-8.1,7.9-29.1,24.5-71.4,37.1c-55,16.4-97.8,3.6-111-1.2l-53,77.1c3.7,6.4,8.4,18.2,11,29.1c4.1,17.6,6.4,36,6.8,54.9
		c0,2.3,0.1,4.3,0.1,6.1V428.5z"/>
</g>
</svg>
