<svg xmlns="http://www.w3.org/2000/svg" viewBox="0 0 5000 5000"><path d="M3969.18,3679.29,1354.87,4126.24c-143.94,24.61-281.84-73-306.45-217,0,0-256-2647.15-22.6-2687,0,0,2746-272.91,2785.89-39.5l374.43,2190.12C4210.75,3516.78,4113.12,3654.68,3969.18,3679.29Z" style="fill:#949494"/><path d="M3821,3773.18,1180.83,4026c-145.37,13.92-275.69-93.62-289.61-239,0,0-59.94-2658.82,175.78-2681.39,0,0,2758.64-69.5,2781.21,166.22L4060,3483.57C4073.9,3628.94,3966.36,3759.26,3821,3773.18Z" style="fill:#bfbfbf"/><path d="M1098.59,3678.35,3486.34,4026c145.36,13.92,275.68-93.62,289.6-239,0,0,59.95-2658.82-175.77-2681.39,0,0-2361.53-60.33-2384.1,175.39l-248,2018.85C954.15,3445.18,953.23,3664.43,1098.59,3678.35Z" style="fill:#d6d6d6"/><path d="M1255.08,971.36H3577.25a430.54,430.54,0,0,1,430.54,430.54V3578.74a265.51,265.51,0,0,1-265.51,265.51H1090a265.51,265.51,0,0,1-265.51-265.51V1401.9A430.54,430.54,0,0,1,1255.08,971.36Z" style="fill:#ebebeb"/><path d="M1255.07,971.36H3577.24a430.54,430.54,0,0,1,430.54,430.54v316.16a0,0,0,0,1,0,0H824.53a0,0,0,0,1,0,0V1401.9A430.54,430.54,0,0,1,1255.07,971.36Z" style="fill:#747474"/><path d="M1342.54,1188.62h0a64.94,64.94,0,0,1-64.75-64.75V971.36H1407.3v152.51A65,65,0,0,1,1342.54,1188.62Z" style="fill:#626262"/><path d="M2108.83,1188.62h0a65,65,0,0,1-64.76-64.75V971.36h129.51v152.51A64.94,64.94,0,0,1,2108.83,1188.62Z" style="fill:#626262"/><path d="M2825.53,1188.62h0a64.94,64.94,0,0,1-64.75-64.75V971.36h129.51v152.51A65,65,0,0,1,2825.53,1188.62Z" style="fill:#626262"/><path d="M3547.27,1188.62h0a65,65,0,0,1-64.76-64.75V971.36c0-10.24,129.51,1.4,129.51,1.4v151.11A64.94,64.94,0,0,1,3547.27,1188.62Z" style="fill:#626262"/><rect x="2018.51" y="870.4" width="129.51" height="296.43" rx="64.75" style="fill:#dbdbdb"/><rect x="2738.82" y="870.4" width="129.51" height="296.43" rx="64.75" style="fill:#dbdbdb"/><rect x="3459.12" y="870.4" width="129.51" height="296.43" rx="64.75" style="fill:#dbdbdb"/><path d="M3739.24,3044.43l-753,791.73s28.48-139.39,28.71-227c.14-55.64-11.24-104.18-15.06-184.08-10.73-224.15,119.06-281.23,180.34-314.42,94-50.89,248.11-13.23,341-19.27C3560.55,3088.85,3710,3082.32,3739.24,3044.43Z" style="fill:#9c9c9c"/><path d="M3988.67,2994.61,2986.28,3836.16s49.85-160,59.66-262.61c6.23-65.15-2.32-123.3,1.74-217.33,11.37-263.77,175.5-315.84,253.69-347.73,119.89-48.9,303.3,12.78,417,16.3C3766.42,3026.28,3948.9,3035.66,3988.67,2994.61Z" style="fill:#cfcfcf"/><rect x="1153.04" y="2135.87" width="424.61" height="275.29" style="fill:#d9d9d9"/><rect x="1153.04" y="2625.85" width="424.61" height="275.29" style="fill:#d9d9d9"/><rect x="1828.76" y="2625.85" width="424.61" height="275.29" style="fill:#d9d9d9"/><rect x="2504.48" y="2625.85" width="424.61" height="275.29" style="fill:#d9d9d9"/><rect x="3167.16" y="2625.85" width="424.61" height="275.29" style="fill:#d9d9d9"/><rect x="1153.04" y="3115.82" width="424.61" height="275.29" style="fill:#d9d9d9"/><rect x="1828.76" y="3115.82" width="424.61" height="275.29" style="fill:#d9d9d9"/><rect x="2504.48" y="3115.82" width="424.61" height="275.29" style="fill:#d9d9d9"/><rect x="1828.76" y="2135.87" width="424.61" height="275.29" style="fill:#d9d9d9"/><rect x="2504.48" y="2135.87" width="424.61" height="275.29" style="fill:#d9d9d9"/><rect x="3180.2" y="2135.87" width="424.61" height="275.29" style="fill:#d9d9d9"/><rect x="1252.1" y="870.4" width="129.51" height="296.43" rx="64.75" style="fill:#dbdbdb"/></svg>