<svg xmlns="http://www.w3.org/2000/svg" viewBox="0 30 750 500"><rect width="750" height="500" style="fill:#fff"/><path d="M579.71-1.65h12.06S633.06,57.83,681.92,98c52.34,37.3,144.77,50.11,144.77,50.11v14.68S728,153.49,670.1,107.55,579.71-1.65,579.71-1.65Z" style="fill:#919191"/><path d="M561.4-1.65h18.31l40.62,57.21,49.54,50.7,116.32,47.68,40.5,8.82v21.72l-40.83-5-109.8-.76-6-6.95-25.8-69Z" style="fill:#bababa"/><path d="M474.18,224.4l9.66-5.13L495.61,234l6.18,9.3L618.72,134.78l9.06,10.56-14,16s13.88,12.07,14.94,16.45-105.76,94.75-105.76,94.75-4.45,2.26-9.32-2.11S474.18,224.4,474.18,224.4Z" style="fill:#bababa"/><path d="M491.7,439s-18.94-32.3-22.23-39.54a17.51,17.51,0,0,1,0-13.95l40.32-43.91,3-10.87,8.75-.9s129.9-121,130.51-120.7S670,207.35,670,207.35l-1.51,48.58-14.63-.3s-4.52-.74-4.68,2.72-.6,13.12-.6,13.12-.76,4.83-2.12,6-6.63-.15-6.94,3.47,3.32,5.73,3.32,5.73l.15,6.94H786.19V310L689,308.89v32.29c0,.45.54,5.12-3.65,6.71S677,345.4,677,345.4l-11.32-27.91-83.28,32,4.53,13.88s-21.12,8.75-25,11.46-8,19.77-10.26,21.88-33.2,5.88-33.2,5.88l89.89,125.58L591.37,536l.3-7.85L523.44,421.1Z" style="fill:#bababa"/><path d="M518.84,24.94h66.93s61,75.76,60.11,77.78,24.14,69,24.14,69-60.95-70-63.67-73.4-11.47-4.6-17.5-1.28-94.45,89.32-94.45,89.32l-62.46,38-56.13-59.14L486.86,61.69c.58-.54-1.51-7.18-1.51-7.18Z" style="fill:#eff2f4"/><path d="M338.55,338.16l44.13-40.4S453.06,371.2,454.19,374s2.08,6.07,0,7.92l-41.53,37Z" style="fill:#eff2f4"/><path d="M442.05,244.92l5.73-5,26.4-15.54s37.87,39.08,41.8,43.45,9.8,1.21,9.8,1.21l95.66-84.49s5.2-3.08,1.36-7.09-8.75-9-10.64-11.32,0-6.64,0-6.64L627.47,146l36.21,41.18L520.05,319.3s-2.72,4.53-7.09,1.81S442.05,244.92,442.05,244.92Z" style="fill:#eff2f4"/><path d="M483.84,219.27c.45-.15,11.77,14.69,11.77,14.69s.9,7.94,4.22,9.9,6.79-1.81,6.79-1.81l112.1-107.27-17.65-19.31Z" style="fill:#eff2f4"/><path d="M469.47,399.49c.34.12-7.24-15.39-7.24-15.39l2.6-7.92-2.6-7.35L389,292,435,251.26s63.93,68.34,69.25,74.11,9.39,5.44,9.39,5.44L511.68,342s-40.17,41.64-41.42,44.92S469.47,399.49,469.47,399.49Z" style="fill:#eff2f4"/><path d="M608.27,528.16l-91-125.88s30.25-2.83,33.25-6.48,9.55-22.64,9.55-22.64L586,363.06s-6.28-14.49-5.54-14.49S666,315.53,666.1,316,677,345.4,677,345.4a10.86,10.86,0,0,0,7.59,2.73,4.51,4.51,0,0,0,4.33-4.46l.15-34.78L786.19,310V349s-78.22-.22-102.14,3.17-94.3,35.31-94.3,35.31-6.59-9.85-8.44-12.68-11.25-2.37-12.29,1.81,1.93,5.13,1.93,5.13l4.49-.6,62.65,132.46Z" style="fill:#eff2f4"/><path d="M593.62,395.19c.66.15,26,57.29,26,57.29s62-24.85,66.86-27.11,36.66-7,42.09-6.94l57.63.45V357.93s-72.11-3.17-102.59,3.16S593.62,395.19,593.62,395.19Z" style="fill:#eff2f4"/><path d="M656.59,263.18s-.75,8.6-.75,11.91-3.19,8.05-5.13,8.76l-7.85,2.86.15,6.94H786.19V263.18Z" style="fill:#eff2f4"/><polygon points="670.02 207.35 684.35 207.35 687.97 210.37 786.2 210.37 786.2 255.63 667.74 255.92 670.02 207.35" style="fill:#eff2f4"/><path d="M622,457.18c1,2.34,23.22,52.43,23.22,52.43l43.15-16.14,44.19-8.15L782,483.66V424.38h-56l-36.17,5.13Z" style="fill:#eff2f4"/><polygon points="661.97 199.77 673.73 199.77 667.74 193.73 661.97 199.77" style="fill:#eff2f4"/><polygon points="687.71 193.73 691.6 197.56 782.85 198.36 782.85 193.73 687.71 193.73" style="fill:#eff2f4"/><polygon points="718.28 -1.65 773.6 -1.65 826.69 6.88 826.69 128.97 813.62 120.92 718.28 -1.65" style="fill:#eff2f4"/><path d="M556.58,553.55s33.84-17.1,34.79-17.54.21-9,.21-9L524,420,491.7,439Z" style="fill:#eff2f4"/><path d="M336.14,342.17s72.2,80.05,72,79.64-43.84,40-43.84,40l-72.21-78Z" style="fill:#eff2f4"/><path d="M370.33,468.27,457.82,389l21.32,46.26-41.23,33L400.1,488.19l-5.84,3.62L389,501.06v3.42l-1.38,3.62-20.52-30s-1.75-4.57,0-6.44Z" style="fill:#eff2f4"/><polygon points="389.01 511.57 404.77 539.17 458.32 509.15 505.54 482 480.8 439.16 441.22 470.54 398.89 493.17 392.71 502.37 393.61 506.29 389.01 511.57" style="fill:#eff2f4"/><polygon points="456.82 521.22 495.58 588.65 549.13 558.63 508.86 489.17 456.82 521.22" style="fill:#eff2f4"/><path d="M248.65,422c.45-.3,37.26-31.82,37.26-31.82l73,79.19-1.51,6.94.45,5.73,11.92,16.29-54.46,35Z" style="fill:#eff2f4"/><polygon points="225.52 320.44 322.04 232.35 365.3 286.86 261.32 383.6 255.08 383.6 225.52 320.44" style="fill:#eff2f4"/><path d="M374.57,160.14,483,57.37l3.76.75L521,27.2l64.79-2.26L561.4-1.65h-218s9.54,30,11.18,33.61,5.11,8.31-.12,10.73-8.14-7-8.14-7L333.65-1.65H287.87l-22.33,13L308,81.3Z" style="fill:#eff2f4"/><path d="M561.4-1.65h-134c-36.77,29.94-73.37,60.31-108.79,94l-.91.49,56.84,67.29S480.84,59,482.22,58s4.5.09,4.5.09L521,27.2l64.79-2.26Z" style="fill:#e2e2e2"/><polygon points="323.17 229.48 369.48 280.77 425.89 231.14 378.04 179.4 323.17 229.48" style="fill:#eff2f4"/><path d="M275.65,173.67l37.86,43.14s55.36-50.23,54.91-50.23-37.86-43-37.86-43Z" style="fill:#eff2f4"/><path d="M591.77-1.65,707.4-1,786.19,99.6,809.4,129l17.29,9.45v9.66l-40.5-7.72S714.3,129.27,674.62,94,591.77-1.65,591.77-1.65Z" style="fill:#e3e4e5"/><polygon points="221.7 224.4 274.19 176.69 311.2 219.68 245.63 279.82 221.7 224.4" style="fill:#eff2f4"/><polygon points="275.65 162.76 325.48 117.3 298.73 82.91 259.31 16.34 198.77 53.75 217.87 76.47 226.12 85.12 231.35 113.89 250.26 143.85 254.88 144.86 275.65 162.76" style="fill:#eff2f4"/><polygon points="121.53 100.81 192.73 57.97 219.48 88.54 223.51 115.9 244.42 149.49 244.42 154.51 264.13 173.82 192.83 238.38 185.49 248.84 170.41 254.88 121.53 100.81" style="fill:#eff2f4"/><path d="M257.7-1.5c.2,0,4.42,6,4.42,6l13.53-6.12Z" style="fill:#eff2f4"/><polygon points="190.12 -1.65 248.65 -1.65 254.28 9.1 209.43 36.25 190.12 -1.65" style="fill:#eff2f4"/><path d="M181.47-1.5l21.92,41.37L171.82,60,148.48,17.3s-2.57-5.91,0-7.2L171.61-1.5Z" style="fill:#eff2f4"/><path d="M87.74-1.65l31.38,94,46.06-28.15L139.84,16.34s-3-8.59,1.4-10.66l15.49-7.33Z" style="fill:#eff2f4"/><path d="M172.22,259.1l13.67-5.23,2.22,8.65s57.32,118.87,56.51,119.07-15.68-13.88-15.68-13.88l-14.28-28.36s-32.79-56.92-33.39-57.12S172.22,259.1,172.22,259.1Z" style="fill:#eff2f4"/><path d="M219.23,226.77l23.53,55.81L219.23,304,195,254.88s-2.8-5.4,0-7.75Z" style="fill:#eff2f4"/><polygon points="236.38 391.34 240 404.21 250.06 396.98 236.38 391.34" style="fill:#eff2f4"/><path d="M416.4,432.61l17.5,19.07s31.68-29.93,32.14-29.93-18.26-19-18.26-19Z" style="fill:#c5c7c9"/><polygon points="359.03 199.09 375.77 184.15 397.05 207.24 380.87 222.06 359.03 199.09" style="fill:#c5c7c9"/><polygon points="506.92 51.08 518.84 62.51 537.59 43.27 525.48 31.96 506.92 51.08" style="fill:#c5c7c9"/><polygon points="558.52 249.33 567.46 259.18 579.68 248.31 570.4 238.47 558.52 249.33" style="fill:#c5c7c9"/><rect x="736.75" y="267.21" width="10.07" height="23.2" style="fill:#c5c7c9"/><path d="M554.3,413.37s14.76,33.95,15.21,33.51,27.07-11.2,27.07-11.2L580.82,401.1Z" style="fill:#c5c7c9"/><path d="M372,133.23l7.36,7.36,11.54-11.54L382.85,121Z" style="fill:#c5c7c9"/><path d="M258.75,298c.61,0,63.36-56.57,63.36-56.57l16.44,18.4-62,58.08Z" style="fill:#c5c7c9"/><polygon points="258.75 200.97 273.84 186.19 289.53 202.18 280.78 210.63 277.46 207.46 270.82 213.8 258.75 200.97" style="fill:#c5c7c9"/><polygon points="317.58 144.33 332.44 131.28 361.71 163.64 346.85 177.29 342.55 171.71 345.34 169.67 342.17 165.9 344.28 164.54 339.65 158.96 341.57 157.38 337.27 152.48 334.4 155.12 329.95 149.61 327.84 151.8 325.05 148.4 323.17 150.21 317.58 144.33" style="fill:#c5c7c9"/><path d="M202.19,248.49c-.15-.45,0-4,1.74-5.13l16.21-10.56,12.74,29.27-19.68,9.5Z" style="fill:#d9d9d9"/><polygon points="214.93 284.77 219.46 296.46 239.14 278.74 233.94 266.89 214.93 284.77" style="fill:#c5c7c9"/><path d="M295.86,433.88c.45-.15,14.63-9.05,14.63-9.05l17.35,26.85-16,9.05Z" style="fill:#c5c7c9"/><polygon points="663.63 472.8 674.34 468.43 683.69 489.24 673.66 494.07 663.63 472.8" style="fill:#d9d9d9"/><path d="M230.85,431.17c-.3-.91,54.6,99.25,54.6,99.25L359.52,650.5l-31.68-61.85-62.9-104.08Z" style="fill:#e2e2e2"/><polygon points="182.28 355.14 195.25 350.01 208.43 373.24 221.7 409.75 218.23 412.16 182.28 355.14" style="fill:#e2e2e2"/><polygon points="178.05 347.6 190.42 340.66 152.41 262.52 97.8 89.55 92.37 92.36 147.34 264.03 159.35 305.96 178.05 347.6" style="fill:#e2e2e2"/><polygon points="62.8 -1.5 84.53 67.32 90.26 65.81 64.92 -1.65 62.8 -1.5" style="fill:#e2e2e2"/><path d="M114.69,257.69,125.25,248l18.41,69.84,23.53,47.22L103.83,395s-8.75,2.62-6.93,7,10.55,2.22,10.55,2.22l45-22.63L74.57,613.09s-7.14-4.63-11.77-3.92-9.35,3.92-9.35,3.92L1.56,641.15s-3.92,3.31-2.72,6.33,8.75,0,8.75,0,47.57-25.74,52.2-28.36,12.06,1.21,12.06,1.21L60.69,652.55H-33.13L-9,564.82l33.49-62.15,24.74,54.6s2.41,6,6.33,3.93.3-6.64.3-6.64L28.11,493.32l30.77-65.47s22.93,41.33,22.63,42.24,4.22,7.54,7.84,6.63-.9-9.65-.9-9.65L61.9,416.69l41-118.93Z" style="fill:#e2e2e2"/><path d="M161.16,376.56l8.75-4.22L202,424.83l-19.72,15.09-18.4,12.37L156,476.42l26.24,8.75s4.53,2.41,6.34-1.51-4.83-6.33-4.83-6.33l-16.59-7.24,2.72-14.18,27.45-17.5,11.07-3,33,62.75-5,7.54L176.84,652.55H142.15l31.38-73.25L202,502.22s5.22-6.49,0-8.6-6.44,4.82-6.44,4.82l-22,58.23-28.36-9.95s-4.53-2.12-6,1.2,3.62,5.63,3.62,5.63l26.55,11.57-29,75.57-8.75-4.37,6-16s2.12-6.64-1.2-7.24-4.83,3.92-4.83,3.92l-7.54,16L82.11,617.61l30.77-84.32,16.3,5.88s5.13,1.06,6.33-2.41-3.92-6-3.92-6L115.9,525l45.86-136Z" style="fill:#e2e2e2"/><polygon points="-77.09 211.23 76.53 102.62 110.47 218.57 76.53 333.12 -18.05 553.55 -47.01 652.55 -80.2 652.55 -77.09 211.23" style="fill:#e2e2e2"/><path d="M40.78-1.5,67,78.49,23.89,109,9.4,90.55s1.14-3.16,0-4.07S-16.39,51.64-16.39,51.64s-6.75-23-7.47-24.44-3.09-2.42-3.09-2.42l-6.64-25,7.24-1.39Z" style="fill:#e2e2e2"/><path d="M-77.1,159.34l9,14.18,89.45-62.9L6.69,92.36a3.84,3.84,0,0,1-4.07-.6c-2-1.66-14-18.7-14-18.7l-39.52,28.2L-77.1,120Z" style="fill:#e2e2e2"/></svg>