<svg xmlns="http://www.w3.org/2000/svg" viewBox="0 0 1122 1122"><rect x="178.98" y="490.86" width="740.79" height="16.9" style="fill:#aaa"/><path d="M179,896c0,13.5,10,24.45,22.35,24.45h696.1c12.33,0,22.34-11,22.34-24.45V507.76H179ZM483.13,580.39,685,717.28,483.13,854.14Z" style="fill:#6c6c6c"/><polygon points="638.26 337.97 696.3 238.63 600.52 256.59 542.46 355.94 638.26 337.97" style="fill:#6c6c6c"/><polygon points="436.93 375.7 494.98 276.35 399.19 294.31 341.15 393.65 436.93 375.7" style="fill:#6c6c6c"/><path d="M801.83,218.84l-58,99.36,95.79-17.95,57.25-98a20.09,20.09,0,0,0-6.74.05Z" style="fill:#6c6c6c"/><path d="M172.16,361.25,179.21,424l56.41-10.57,58.07-99.34L191.88,333.16C179.51,335.48,170.68,348.05,172.16,361.25Z" style="fill:#6c6c6c"/><polygon points="341.15 393.65 399.19 294.31 293.69 314.09 235.62 413.43 341.15 393.65" style="fill:#c6c6c6"/><polygon points="542.46 355.94 600.52 256.59 494.98 276.35 436.93 375.7 542.46 355.94" style="fill:#c6c6c6"/><polygon points="743.79 318.2 801.83 218.84 696.3 238.63 638.26 337.97 743.79 318.2" style="fill:#c6c6c6"/><path d="M896.83,202.26l-57.25,98,82.63-15.49L915.14,222C914,211.28,906.3,203.58,896.83,202.26Z" style="fill:#c6c6c6"/><polygon points="179.07 490.78 184.46 490.78 235.3 424 179.21 424 179.07 424 179.07 490.78" style="fill:#6c6c6c"/><polygon points="385.16 490.78 436.03 424 340.51 424 289.66 490.78 385.16 490.78" style="fill:#6c6c6c"/><polygon points="919.88 453.98 891.83 490.78 919.88 490.78 919.88 453.98" style="fill:#6c6c6c"/><polygon points="786.6 490.78 837.47 424 741.96 424 691.09 490.78 786.6 490.78" style="fill:#6c6c6c"/><polygon points="585.9 490.78 636.76 424 541.25 424 490.37 490.78 585.9 490.78" style="fill:#6c6c6c"/><polygon points="184.46 490.78 289.66 490.78 340.51 424 235.3 424 184.46 490.78" style="fill:#c6c6c6"/><polygon points="490.37 490.78 541.25 424 436.03 424 385.16 490.78 490.37 490.78" style="fill:#c6c6c6"/><polygon points="691.09 490.78 741.96 424 636.76 424 585.9 490.78 691.09 490.78" style="fill:#c6c6c6"/><polygon points="891.83 490.78 919.88 453.98 919.88 424 837.47 424 786.6 490.78 891.83 490.78" style="fill:#c6c6c6"/><polygon points="685.04 717.27 483.13 580.39 483.13 854.14 685.04 717.27" style="fill:#aaa"/></svg>