<svg width="72" height="72" viewBox="0 0 72 72" fill="none" xmlns="http://www.w3.org/2000/svg">
<path d="M42.2716 11.7545C38.2521 9.79668 33.7477 9.79668 29.7283 11.7545L10.802 20.9733C7.75849 22.4557 6.96497 26.6361 8.4215 29.5253L8.4215 44.0821C8.4215 45.2993 9.37129 46.2861 10.5429 46.2861C11.7146 46.2861 12.6644 45.2993 12.6644 44.0821V32.8325L29.7286 41.1443C33.748 43.1021 38.2524 43.1021 42.2718 41.1443L61.1981 31.9255C65.315 29.9202 65.315 22.9787 61.1981 20.9734L42.2716 11.7545Z" fill="#F8FFF4"/>
<path d="M42.2716 11.7545C38.2521 9.79668 33.7477 9.79668 29.7283 11.7545L10.802 20.9733C7.75849 22.4557 6.96497 26.6361 8.4215 29.5253L8.4215 44.0821C8.4215 45.2993 9.37129 46.2861 10.5429 46.2861C11.7146 46.2861 12.6644 45.2993 12.6644 44.0821V32.8325L29.7286 41.1443C33.748 43.1021 38.2524 43.1021 42.2718 41.1443L61.1981 31.9255C65.315 29.9202 65.315 22.9787 61.1981 20.9734L42.2716 11.7545Z" fill="#F8FFF4"/>
<path opacity="0.33" d="M15.4285 33.4287L29.4841 39.9393C33.6601 41.8737 38.34 41.8737 42.516 39.9393L56.5713 33.4288V49.0126C56.5713 51.9395 55.0916 54.6797 52.5001 56.0977C48.1849 58.4588 41.278 61.7144 35.9999 61.7144C30.7218 61.7144 23.8149 58.4588 19.4997 56.0977C16.9081 54.6797 15.4285 51.9395 15.4285 49.0126V33.4287Z" fill="#F8FFF4"/>
</svg>
