<svg width="72" height="72" viewBox="0 0 72 72" fill="none" xmlns="http://www.w3.org/2000/svg">
<path fill-rule="evenodd" clip-rule="evenodd" d="M58.0792 30H13.9206C13.7316 28.7679 13.5524 27.3826 13.3501 25.8198L12.8099 21.6451C12.3856 18.3663 12.1734 16.727 12.9446 16.0493C13.3618 15.6827 13.9292 15.4581 14.5357 15.4193C15.657 15.3477 17.0652 16.5135 19.8814 18.8453C21.3379 20.0511 22.0662 20.6541 22.8786 20.7474C23.3287 20.7992 23.7873 20.746 24.203 20.5939C24.9532 20.3193 25.4533 19.5739 26.4536 18.0832L31.7262 10.2255L31.7263 10.2254C33.6165 7.40848 34.5616 6 35.9999 6C37.4382 6 38.3833 7.40849 40.2735 10.2255L45.5462 18.0832C46.5465 19.5739 47.0466 20.3193 47.7968 20.5939C48.2124 20.746 48.6711 20.7992 49.1212 20.7474C49.9336 20.6541 50.6619 20.0511 52.1183 18.8453C54.9346 16.5135 56.3428 15.3477 57.4641 15.4193C58.0706 15.4581 58.6379 15.6827 59.0551 16.0493C59.8264 16.727 59.6142 18.3663 59.1899 21.6451L58.6497 25.8198C58.4474 27.3826 58.2682 28.7679 58.0792 30ZM56.5713 33.4286C57.6115 32.3884 57.8102 31.3481 57.9654 30.5349L57.9655 30.5349C58.0021 30.3429 58.0363 30.1637 58.0786 30H13.9201C13.9201 30.8572 14.1427 32.1429 15.4284 33.4286H15.4285L29.7284 41.1439C33.7478 43.1017 38.2522 43.1017 42.2716 41.1439L56.5713 33.4286Z" fill="#F8FFF4"/>
<path opacity="0.33" d="M15.4285 33.4287L29.4841 39.9393C33.6601 41.8737 38.34 41.8737 42.516 39.9393L56.5713 33.4288V49.0126C56.5713 51.9395 55.0916 54.6797 52.5001 56.0977C48.1849 58.4588 41.278 61.7144 35.9999 61.7144C30.7218 61.7144 23.8149 58.4588 19.4997 56.0977C16.9081 54.6797 15.4285 51.9395 15.4285 49.0126V33.4287Z" fill="#F8FFF4"/>
<path d="M38.4489 23.6541L38.1961 23.2006C37.2189 21.4477 36.7304 20.5713 35.9999 20.5713C35.2695 20.5713 34.7809 21.4477 33.8038 23.2006L33.551 23.6541C33.2733 24.1522 33.1345 24.4013 32.918 24.5656C32.7016 24.7299 32.432 24.7909 31.8928 24.9129L31.4019 25.024C29.5044 25.4533 28.5557 25.668 28.3299 26.3938C28.1042 27.1197 28.751 27.876 30.0446 29.3887L30.3792 29.78C30.7468 30.2099 30.9306 30.4248 31.0133 30.6907C31.096 30.9566 31.0682 31.2433 31.0126 31.8168L30.962 32.339C30.7665 34.3572 30.6687 35.3663 31.2596 35.8149C31.8505 36.2635 32.7388 35.8545 34.5154 35.0365L34.5154 35.0365L34.9751 34.8249L34.9751 34.8248C35.4799 34.5924 35.7324 34.4762 35.9999 34.4762C36.2675 34.4762 36.5199 34.5924 37.0248 34.8248L37.0248 34.8249L37.4844 35.0365C39.261 35.8545 40.1493 36.2635 40.7402 35.8149C41.3312 35.3663 41.2334 34.3572 41.0378 32.339L40.9872 31.8168C40.9317 31.2433 40.9039 30.9566 40.9865 30.6907C41.0692 30.4248 41.253 30.2099 41.6206 29.78L41.9553 29.3887L41.9553 29.3886C43.2489 27.876 43.8956 27.1197 43.6699 26.3938C43.4442 25.668 42.4955 25.4533 40.598 25.024L40.1071 24.9129C39.5679 24.7909 39.2983 24.7299 39.0818 24.5656C38.8654 24.4013 38.7265 24.1522 38.4489 23.6541Z" fill="#5EB146"/>
</svg>
