<svg width="72" height="72" viewBox="0 0 72 72" fill="none" xmlns="http://www.w3.org/2000/svg">
<path fill-rule="evenodd" clip-rule="evenodd" d="M38.4855 46.9154C37.0533 45.6949 34.9467 45.6949 33.5145 46.9154C32.9007 47.4385 32.1376 47.7545 31.3338 47.8187C29.4579 47.9684 27.9684 49.4579 27.8187 51.3338C27.7545 52.1376 27.4385 52.9007 26.9154 53.5145C25.6949 54.9467 25.6949 57.0533 26.9154 58.4855C27.4385 59.0993 27.7545 59.8624 27.8187 60.6662C27.9684 62.5421 29.4579 64.0316 31.3338 64.1813C32.1376 64.2455 32.9007 64.5615 33.5145 65.0846C34.9467 66.3051 37.0533 66.3051 38.4855 65.0846C39.0993 64.5615 39.8624 64.2455 40.6662 64.1813C42.5421 64.0316 44.0316 62.5421 44.1813 60.6662C44.2455 59.8624 44.5615 59.0993 45.0846 58.4855C46.3051 57.0533 46.3051 54.9467 45.0846 53.5145C44.5615 52.9007 44.2455 52.1376 44.1813 51.3338C44.0316 49.4579 42.5421 47.9684 40.6662 47.8187C39.8624 47.7545 39.0993 47.4385 38.4855 46.9154ZM40.5078 54.9883C41.1863 54.3551 41.2229 53.2918 40.5897 52.6133C39.9565 51.9348 38.8931 51.8982 38.2147 52.5314L34.5601 55.9424L33.7862 55.2201C33.1077 54.5868 32.0444 54.6235 31.4111 55.302C30.7779 55.9804 30.8146 57.0438 31.493 57.677L33.4135 59.4694C34.0591 60.072 35.061 60.072 35.7066 59.4694L40.5078 54.9883Z" fill="#5EB146"/>
<path opacity="0.33" d="M14 43.8751V31.1251C14 24.9379 14 21.8443 15.9331 19.9221C17.8662 18 20.9775 18 27.2 18H44.8C51.0225 18 54.1338 18 56.0669 19.9221C58 21.8442 58 24.9379 58 31.1251V43.8751C58 50.0624 58 53.156 56.0669 55.0781C54.2282 56.9064 51.3235 56.9956 45.6893 57C46.0028 55.8412 45.7463 54.5637 44.9198 53.5993C44.4062 53 44.0958 52.255 44.0328 51.4702C43.8859 49.6388 42.4233 48.1845 40.5814 48.0383C39.7921 47.9757 39.0428 47.6671 38.4401 47.1564C37.0338 45.9647 34.9654 45.9647 33.559 47.1564C32.9564 47.6671 32.2071 47.9757 31.4178 48.0383C29.5759 48.1845 28.1133 49.6388 27.9664 51.4702C27.9034 52.255 27.593 53 27.0794 53.5993C26.2529 54.5637 25.9964 55.8412 26.3099 57C20.6762 56.9956 17.7717 56.9063 15.9331 55.0781C14 53.156 14 50.0624 14 43.8751Z" fill="#5EB146"/>
<path d="M27.5217 30.65C27.5217 29.7387 28.2809 29 29.2174 29H42.7826C43.7191 29 44.4783 29.7387 44.4783 30.65C44.4783 31.5613 43.7191 32.3 42.7826 32.3H29.2174C28.2809 32.3 27.5217 31.5613 27.5217 30.65Z" fill="#5EB146"/>
<path d="M24.6957 36.7C23.7592 36.7 23 37.4387 23 38.35C23 39.2613 23.7592 40 24.6957 40H47.3043C48.2408 40 49 39.2613 49 38.35C49 37.4387 48.2408 36.7 47.3043 36.7H24.6957Z" fill="#5EB146"/>
<path d="M60.6667 30.5382L60.6667 15.4537C63.7738 16.5519 66 19.4427 66 22.9259C66 26.4092 63.7738 29.44 60.6667 30.5382Z" fill="#FF0000"/>
<path d="M55.3334 30.5448C56.1675 30.8397 57.065 31 58.0001 31C58.9351 31 59.8327 30.8397 60.6667 30.5448L60.6667 15.4552C59.8327 15.1603 58.9351 15 58.0001 15C57.065 15 56.1675 15.1603 55.3334 15.4552L55.3334 30.5448Z" fill="white"/>
<path d="M55.3333 30.5447C52.2261 29.4465 49.9999 26.4832 49.9999 22.9999C49.9999 19.5166 52.2261 16.5533 55.3333 15.4551L55.3333 30.5447Z" fill="#034EA2"/>
<path d="M21.5382 20.3333H6.45366C7.55189 17.2262 10.4427 15 13.9259 15C17.4092 15 20.44 17.2262 21.5382 20.3333Z" fill="black"/>
<path d="M21.5448 25.6668C21.8397 24.8328 22 23.9352 22 23.0002C22 22.0651 21.8397 21.1676 21.5448 20.3335H6.45517C6.16034 21.1676 6 22.0651 6 23.0002C6 23.9352 6.16034 24.8328 6.45517 25.6668H21.5448Z" fill="#FF0000"/>
<path d="M21.5447 25.6665C20.4465 28.7737 17.4832 30.9998 13.9999 30.9998C10.5166 30.9998 7.55329 28.7737 6.45508 25.6665H21.5447Z" fill="#FFCC00"/>
<path d="M34.397 6.16064C34.0266 6.2359 33.6657 6.33729 33.3155 6.46211V10.8174L29.7339 9.02664C29.3964 9.45158 29.1008 9.91167 28.8543 10.4006L30.6118 11.2793H28.4749C28.3483 11.629 28.2455 11.9904 28.1685 12.3608H34.397V6.16064Z" fill="white"/>
<path d="M28.1614 15.605C28.3024 16.2976 28.5331 16.9573 28.8409 17.572L30.6119 16.6865H33.0304L29.3902 18.5066C29.4934 18.658 29.6016 18.8053 29.7147 18.9491L33.3157 17.1484V21.5379C33.6658 21.6628 34.0268 21.7642 34.3972 21.8394V15.6054H28.1614V15.605Z" fill="white"/>
<path d="M37.6416 21.8308C38.012 21.7538 38.3734 21.6506 38.7231 21.5239V17.1479L42.297 18.9346C42.6319 18.5079 42.9239 18.046 43.1677 17.5562L41.4273 16.686H43.5376C43.6624 16.3359 43.7638 15.9749 43.8395 15.6045H37.6421V21.8304L37.6416 21.8308Z" fill="white"/>
<path d="M39.0084 11.2791L42.6026 9.48196C42.4989 9.331 42.3908 9.18365 42.2772 9.0399L38.7231 10.8172V6.47582C38.3734 6.3492 38.012 6.24645 37.6416 6.16895V12.3606H43.8319C43.6895 11.6761 43.4592 11.0236 43.1537 10.4157L41.4269 11.2791H39.0084Z" fill="white"/>
<path d="M37.6416 6.16899C37.1117 6.05858 36.5628 6 36 6C35.4372 6 34.9149 6.05543 34.3971 6.16087V12.3606H28.1685C28.0581 12.8897 28 13.4381 28 14C28 14.5619 28.0554 15.0865 28.1613 15.6051H34.3971V21.8391C34.9149 21.9446 35.4511 22 36 22C36.5489 22 37.1117 21.9414 37.6416 21.831V15.6051H43.8391C43.9446 15.0865 44.0005 14.5498 44.0005 14C44.0005 13.4502 43.9423 12.8897 43.8319 12.3606H37.6416V6.16899Z" fill="#E0000B"/>
<path d="M39.0083 11.279H41.4268L43.1536 10.4156C42.991 10.0912 42.8066 9.77935 42.6025 9.48193L39.0083 11.279Z" fill="#E0000B"/>
<path d="M28.8538 10.4004C28.7105 10.6843 28.5839 10.9772 28.4749 11.2791H30.6117L28.8543 10.4004H28.8538Z" fill="#E0000B"/>
<path d="M30.6118 16.6865L28.8408 17.572C29.003 17.8969 29.1869 18.2087 29.3901 18.5066L33.0303 16.6865H30.6118Z" fill="#E0000B"/>
<path d="M43.1673 17.5567C43.307 17.2755 43.4309 16.9853 43.5373 16.6865H41.427L43.1673 17.5567Z" fill="#E0000B"/>
<path d="M33.3157 6.4624C31.8931 6.96936 30.6561 7.86701 29.7341 9.02693L33.3157 10.8177V6.4624Z" fill="#003F84"/>
<path d="M42.2772 9.0406C41.3625 7.88474 40.1354 6.98709 38.7231 6.47607V10.8179L42.2772 9.0406Z" fill="#003F84"/>
<path d="M29.7141 18.9491C30.6379 20.1208 31.8825 21.0274 33.3151 21.538V17.1484L29.7141 18.9491Z" fill="#003F84"/>
<path d="M38.7231 21.5245C40.1453 21.0099 41.38 20.1032 42.2971 18.9357L38.7231 17.1489V21.525V21.5245Z" fill="#003F84"/>
</svg>
