<svg width="72" height="72" viewBox="0 0 72 72" fill="none" xmlns="http://www.w3.org/2000/svg">
<g id="Icons / Science and Innovation">
<path id="Vector" d="M58 34.5C58 48.031 47.031 59 33.5 59C19.969 59 9 48.031 9 34.5C9 20.969 19.969 10 33.5 10C47.031 10 58 20.969 58 34.5Z" fill="#5EB146"/>
<path id="Vector_2" opacity="0.66" d="M50 52.5035L58.978 61.4815C59.6694 62.1728 60.7902 62.1728 61.4815 61.4815C62.1728 60.7902 62.1728 59.6694 61.4815 58.978L52.5035 50C51.736 50.8987 50.8987 51.736 50 52.5035Z" fill="#5EB146"/>
<path id="Vector_3" opacity="0.33" d="M40.7068 41.7066C48.1148 34.2986 51.1175 25.2905 47.4135 21.5865C43.7095 17.8825 34.7015 20.8852 27.2935 28.2932C19.8855 35.7012 16.8828 44.7093 20.5868 48.4133C24.2908 52.1173 33.2988 49.1146 40.7068 41.7066Z" fill="#F8FFF4"/>
<path id="Vector_4" opacity="0.33" d="M27.2932 41.7068C19.8852 34.2988 16.8825 25.2907 20.5865 21.5867C24.2905 17.8827 33.2985 20.8854 40.7065 28.2934C48.1145 35.7014 51.1172 44.7095 47.4132 48.4135C43.7092 52.1175 34.7012 49.1148 27.2932 41.7068Z" fill="#F8FFF4"/>
<path id="Vector_5" d="M37 35C37 36.6569 35.6569 38 34 38C32.3431 38 31 36.6569 31 35C31 33.3431 32.3431 32 34 32C35.6569 32 37 33.3431 37 35Z" fill="#F8FFF4"/>
</g>
</svg>
