<?xml version="1.0" encoding="UTF-8"?> <svg xmlns="http://www.w3.org/2000/svg" width="120" height="120" viewBox="0 0 120 120" fill="none"><g id="Layer_2" clip-path="url(#clip0_519_139)"><path id="Vector" d="M120 0H0V120H120V0Z" fill="white"></path><path id="Vector_2" d="M30.5033 48.2296H27.1314V72.5115H30.5033V79.6102H14.8965V72.5115H18.331V48.2296H14.8965V41.1309H30.5033V48.2296Z" fill="#00225A"></path><path id="Vector_3" d="M105.104 48.2296V41.1309H92.869V41.1517L84.4862 53.0004L76.0825 41.1413V41.1309H63.8477V48.2296H67.2822V72.5115H63.8477V79.6102H79.4544V72.5115H76.0721L76.0825 54.5036L84.4862 66.3731L92.869 54.5245L92.8794 72.5115H89.4971V79.6102H105.104V72.5115H101.669V48.2296H105.104Z" fill="#00225A"></path><path id="Vector_4" d="M60.5904 69.0146C60.5904 72.4178 59.4003 75.1842 57.0097 77.2721C54.6191 79.3599 51.9884 80.4248 48.0736 80.4248C44.5973 80.4248 42.332 78.9111 40.954 76.938V79.6105H34.5547V67.8454H42.3633C43.1776 70.7579 44.8479 72.2195 47.3637 72.2195C48.5329 72.2195 49.4516 71.9063 50.1302 71.3112C50.8192 70.7057 51.1532 69.8915 51.1532 68.8475C51.1532 67.9811 50.8609 67.2086 50.2659 66.5405H50.2554C50.1615 66.4048 50.0258 66.269 49.8796 66.1542C49.7439 66.0289 49.5978 65.9037 49.4412 65.7888C48.3033 64.9537 46.9148 64.2021 45.3072 63.5444C43.6995 62.8867 42.071 62.1351 40.4529 61.2999C38.8139 60.4543 37.4255 59.2121 36.2772 57.5418C35.1393 55.861 34.5651 53.8254 34.5651 51.4243C34.5651 48.042 35.7343 45.3486 38.0623 43.3234C40.3798 41.3086 42.4051 40.3064 46.3198 40.3064C46.3198 40.3064 50.4016 40.2125 53.3872 43.3652V41.1103H59.7865V52.8754H51.9675C51.6439 49.9211 49.9005 47.7706 47.5725 47.7706C46.4868 47.7706 45.4638 47.9898 44.7122 48.7101C43.9292 49.4617 43.7726 50.276 43.7726 51.1633C43.7726 52.2908 44.566 53.46 45.7143 54.2638C46.8626 55.0781 48.2511 55.8193 49.8587 56.477C51.4664 57.1451 53.0949 57.9176 54.713 58.784C56.352 59.6505 57.73 60.9554 58.8887 62.6884C59.4525 63.5444 59.87 64.5152 60.1519 65.5696H60.1832C60.2563 65.841 60.2981 66.1333 60.3503 66.4256C60.3503 66.4569 60.3711 66.4883 60.3711 66.53C60.5173 67.313 60.6112 68.1377 60.6112 69.0146H60.5904Z" fill="#00225A"></path></g><defs><clipPath id="clip0_519_139"><rect width="120" height="120" fill="white"></rect></clipPath></defs></svg> 