<?xml version="1.0" encoding="UTF-8"?> <svg xmlns="http://www.w3.org/2000/svg" width="21" height="18" viewBox="0 0 21 18" fill="none"><path d="M20.0002 14.187C16.4846 14.3387 13.1401 15.1567 10.0877 16.5189C10.0388 16.5407 9.99009 16.5626 9.94141 16.5847" stroke="white"></path><path d="M20.0002 1C16.4846 1.1517 13.1401 1.96966 10.0877 3.33188C10.0388 3.35367 9.99009 3.3756 9.94141 3.39767" stroke="white"></path><path d="M19.4414 1L19.4414 14.1872" stroke="white"></path><path d="M0.999835 14.187C4.5154 14.3387 7.85988 15.1567 10.9123 16.5189C10.9612 16.5407 11.0099 16.5626 11.0586 16.5847" stroke="white"></path><path d="M0.999835 1C4.5154 1.1517 7.85988 1.96966 10.9123 3.33188C10.9612 3.35367 11.0099 3.3756 11.0586 3.39767" stroke="white"></path><path d="M1.55859 1L1.55859 14.1872" stroke="white"></path><path d="M10.5 3.39746V16.5847" stroke="white"></path></svg> 