<svg width="334" height="250" viewBox="0 0 334 250" fill="none" xmlns="http://www.w3.org/2000/svg">
<path d="M114 8.07031H96V216.988H114V8.07031Z" fill="#C7DDF2"/>
<path d="M86 8.07031H68V216.988H86V8.07031Z" fill="#C7DDF2"/>
<path d="M59 8.07031H41V216.988H59V8.07031Z" fill="#C7DDF2"/>
<path d="M31 8.07031H13V216.988H31V8.07031Z" fill="#C7DDF2"/>
<path d="M31.248 159.369H13V217.078H31.248V159.369Z" fill="#DB5472"/>
<path d="M59.248 138.738H41V216.52H59.248V138.738Z" fill="#FFCC00"/>
<path d="M86.2479 114.176H68V217.3H86.2479V114.176Z" fill="#4F6A84"/>
<path d="M114.248 94.5273H96V216.469H114.248V94.5273Z" fill="#DB5472"/>
<path d="M224 8.07031H205V216.988H224V8.07031Z" fill="#C7DDF2"/>
<path d="M196 8.07031H178V216.988H196V8.07031Z" fill="#C7DDF2"/>
<path d="M169 8.07031H150V216.988H169V8.07031Z" fill="#C7DDF2"/>
<path d="M141 8.07031H123V216.988H141V8.07031Z" fill="#C7DDF2"/>
<path d="M141.248 124.982H123V217.568H141.248V124.982Z" fill="#FFCC00"/>
<path d="M168.248 107.299H150V217.197H168.248V107.299Z" fill="#4F6A84"/>
<path d="M196.248 114.176H178V217.3H196.248V114.176Z" fill="#DB5472"/>
<path d="M223.248 133.824H205V216.875H223.248V133.824Z" fill="#FFCC00"/>
<path d="M306 8.07031H288V216.988H306V8.07031Z" fill="#C7DDF2"/>
<path d="M278 8.07031H260V216.988H278V8.07031Z" fill="#C7DDF2"/>
<path d="M251 8.07031H233V216.988H251V8.07031Z" fill="#C7DDF2"/>
<path d="M251.248 133.824H233V216.875H251.248V133.824Z" fill="#4F6A84"/>
<path d="M278.248 107.299H260V217.197H278.248V107.299Z" fill="#DB5472"/>
<path d="M306.248 133.824H288V216.875H306.248V133.824Z" fill="#FFCC00"/>
<path d="M2 1.19336V227.266H325.066" stroke="#A0B3C6" stroke-width="2.35039" stroke-miterlimit="10" stroke-linecap="round" stroke-linejoin="round"/>
<path d="M26.7104 227.975C26.7104 229.982 24.9113 231.738 22.8552 231.738C20.7991 231.738 19 229.982 19 227.975C19 225.967 20.7991 224.211 22.8552 224.211C24.9113 224.211 26.7104 225.716 26.7104 227.975Z" fill="#A0B3C6"/>
<path d="M53.7104 227.975C53.7104 229.982 51.9113 231.738 49.8552 231.738C47.7991 231.738 46 229.982 46 227.975C46 225.967 47.7991 224.211 49.8552 224.211C51.9113 224.211 53.7104 225.716 53.7104 227.975Z" fill="#A0B3C6"/>
<path d="M81.7104 227.975C81.7104 229.982 79.9113 231.738 77.8552 231.738C75.7991 231.738 74 229.982 74 227.975C74 225.967 75.7991 224.211 77.8552 224.211C79.9113 224.211 81.7104 225.716 81.7104 227.975Z" fill="#A0B3C6"/>
<path d="M108.71 227.975C108.71 229.982 106.911 231.738 104.855 231.738C102.799 231.738 101 229.982 101 227.975C101 225.967 102.799 224.211 104.855 224.211C106.911 224.211 108.71 225.716 108.71 227.975Z" fill="#A0B3C6"/>
<path d="M136.71 227.975C136.71 229.982 134.911 231.738 132.855 231.738C130.799 231.738 129 229.982 129 227.975C129 225.967 130.799 224.211 132.855 224.211C134.911 224.211 136.71 225.716 136.71 227.975Z" fill="#A0B3C6"/>
<path d="M163.71 227.975C163.71 229.982 161.911 231.738 159.855 231.738C157.799 231.738 156 229.982 156 227.975C156 225.967 157.799 224.211 159.855 224.211C161.911 224.211 163.71 225.716 163.71 227.975Z" fill="#A0B3C6"/>
<path d="M191.71 227.975C191.71 229.982 189.911 231.738 187.855 231.738C185.799 231.738 184 229.982 184 227.975C184 225.967 185.799 224.211 187.855 224.211C189.911 224.211 191.71 225.716 191.71 227.975Z" fill="#A0B3C6"/>
<path d="M218.71 227.975C218.71 229.982 216.911 231.738 214.855 231.738C212.799 231.738 211 229.982 211 227.975C211 225.967 212.799 224.211 214.855 224.211C216.911 224.211 218.71 225.716 218.71 227.975Z" fill="#A0B3C6"/>
<path d="M246.71 227.975C246.71 229.982 244.911 231.738 242.855 231.738C240.799 231.738 239 229.982 239 227.975C239 225.967 240.799 224.211 242.855 224.211C244.911 224.211 246.71 225.716 246.71 227.975Z" fill="#A0B3C6"/>
<path d="M273.71 227.975C273.71 229.982 271.911 231.738 269.855 231.738C267.799 231.738 266 229.982 266 227.975C266 225.967 267.799 224.211 269.855 224.211C271.911 224.211 273.71 225.716 273.71 227.975Z" fill="#A0B3C6"/>
<path d="M301.71 227.975C301.71 229.982 299.911 231.738 297.855 231.738C295.799 231.738 294 229.982 294 227.975C294 225.967 295.799 224.211 297.855 224.211C299.911 224.211 301.71 225.716 301.71 227.975Z" fill="#A0B3C6"/>
<path d="M19.7102 246.183C18.9299 246.183 18.2341 245.986 17.623 245.591C17.0213 245.187 16.5466 244.604 16.1987 243.842C15.8508 243.081 15.6769 242.178 15.6769 241.134C15.6769 240.091 15.8508 239.188 16.1987 238.427C16.5466 237.665 17.0213 237.087 17.623 236.692C18.2341 236.288 18.9299 236.086 19.7102 236.086C20.4811 236.086 21.1674 236.288 21.7691 236.692C22.3802 237.087 22.8597 237.665 23.2076 238.427C23.5554 239.188 23.7293 240.091 23.7293 241.134C23.7293 242.178 23.5554 243.081 23.2076 243.842C22.8597 244.604 22.3802 245.187 21.7691 245.591C21.1674 245.986 20.4811 246.183 19.7102 246.183ZM19.7102 244.928C20.4999 244.928 21.1298 244.604 21.5999 243.955C22.0794 243.306 22.3191 242.366 22.3191 241.134C22.3191 239.903 22.0794 238.963 21.5999 238.314C21.1298 237.665 20.4999 237.341 19.7102 237.341C18.911 237.341 18.2717 237.665 17.7923 238.314C17.3222 238.963 17.0871 239.903 17.0871 241.134C17.0871 242.366 17.3222 243.306 17.7923 243.955C18.2717 244.604 18.911 244.928 19.7102 244.928ZM28.1019 236.199V246.07H26.7058V237.426H24.4776V236.199H28.1019Z" fill="#A0B3C6"/>
<path d="M45.7102 246.183C44.9299 246.183 44.2341 245.986 43.623 245.591C43.0213 245.187 42.5466 244.604 42.1987 243.842C41.8508 243.081 41.6769 242.178 41.6769 241.134C41.6769 240.091 41.8508 239.188 42.1987 238.427C42.5466 237.665 43.0213 237.087 43.623 236.692C44.2341 236.288 44.9299 236.086 45.7102 236.086C46.4811 236.086 47.1674 236.288 47.7691 236.692C48.3802 237.087 48.8597 237.665 49.2076 238.427C49.5554 239.188 49.7293 240.091 49.7293 241.134C49.7293 242.178 49.5554 243.081 49.2076 243.842C48.8597 244.604 48.3802 245.187 47.7691 245.591C47.1674 245.986 46.4811 246.183 45.7102 246.183ZM45.7102 244.928C46.4999 244.928 47.1298 244.604 47.5999 243.955C48.0794 243.306 48.3191 242.366 48.3191 241.134C48.3191 239.903 48.0794 238.963 47.5999 238.314C47.1298 237.665 46.4999 237.341 45.7102 237.341C44.911 237.341 44.2717 237.665 43.7923 238.314C43.3222 238.963 43.0871 239.903 43.0871 241.134C43.0871 242.366 43.3222 243.306 43.7923 243.955C44.2717 244.604 44.911 244.928 45.7102 244.928ZM57.9801 244.843V246.07H50.8866V245.111L54.9058 241.233C55.3947 240.763 55.7237 240.359 55.8929 240.02C56.0622 239.673 56.1468 239.325 56.1468 238.977C56.1468 238.46 55.9635 238.06 55.5968 237.778C55.2395 237.487 54.7225 237.341 54.0455 237.341C52.955 237.341 52.1135 237.698 51.5212 238.413L50.5623 237.581C50.9477 237.111 51.4507 236.744 52.0712 236.481C52.7011 236.217 53.4015 236.086 54.1725 236.086C55.2066 236.086 56.0293 236.335 56.6404 236.833C57.2515 237.322 57.557 237.99 57.557 238.836C57.557 239.362 57.4442 239.861 57.2186 240.331C56.9929 240.801 56.5652 241.337 55.9353 241.938L52.9174 244.843H57.9801Z" fill="#A0B3C6"/>
<path d="M73.7102 246.183C72.9299 246.183 72.2341 245.986 71.623 245.591C71.0213 245.187 70.5466 244.604 70.1987 243.842C69.8508 243.081 69.6769 242.178 69.6769 241.134C69.6769 240.091 69.8508 239.188 70.1987 238.427C70.5466 237.665 71.0213 237.087 71.623 236.692C72.2341 236.288 72.9299 236.086 73.7102 236.086C74.4811 236.086 75.1674 236.288 75.7691 236.692C76.3802 237.087 76.8597 237.665 77.2076 238.427C77.5554 239.188 77.7293 240.091 77.7293 241.134C77.7293 242.178 77.5554 243.081 77.2076 243.842C76.8597 244.604 76.3802 245.187 75.7691 245.591C75.1674 245.986 74.4811 246.183 73.7102 246.183ZM73.7102 244.928C74.4999 244.928 75.1298 244.604 75.5999 243.955C76.0794 243.306 76.3191 242.366 76.3191 241.134C76.3191 239.903 76.0794 238.963 75.5999 238.314C75.1298 237.665 74.4999 237.341 73.7102 237.341C72.911 237.341 72.2717 237.665 71.7923 238.314C71.3222 238.963 71.0871 239.903 71.0871 241.134C71.0871 242.366 71.3222 243.306 71.7923 243.955C72.2717 244.604 72.911 244.928 73.7102 244.928ZM82.7248 240.345C83.6931 240.439 84.4311 240.74 84.9388 241.247C85.4465 241.746 85.7004 242.385 85.7004 243.165C85.7004 243.729 85.5593 244.242 85.2773 244.702C84.9952 245.154 84.5722 245.516 84.0081 245.788C83.4534 246.052 82.7718 246.183 81.9632 246.183C81.2581 246.183 80.5812 246.08 79.9325 245.873C79.2838 245.657 78.7526 245.36 78.3389 244.984L78.9876 243.87C79.3261 244.19 79.7586 244.449 80.2851 244.646C80.8115 244.834 81.3709 244.928 81.9632 244.928C82.6966 244.928 83.2654 244.773 83.6696 244.463C84.0833 244.152 84.2901 243.725 84.2901 243.179C84.2901 242.634 84.088 242.211 83.6837 241.91C83.2795 241.609 82.6684 241.459 81.8504 241.459H81.0607V240.472L83.5427 237.426H78.7902V236.199H85.3055V237.158L82.7248 240.345Z" fill="#A0B3C6"/>
<path d="M99.7102 246.183C98.9299 246.183 98.2341 245.986 97.623 245.591C97.0213 245.187 96.5466 244.604 96.1987 243.842C95.8508 243.081 95.6769 242.178 95.6769 241.134C95.6769 240.091 95.8508 239.188 96.1987 238.427C96.5466 237.665 97.0213 237.087 97.623 236.692C98.2341 236.288 98.9299 236.086 99.7102 236.086C100.481 236.086 101.167 236.288 101.769 236.692C102.38 237.087 102.86 237.665 103.208 238.427C103.555 239.188 103.729 240.091 103.729 241.134C103.729 242.178 103.555 243.081 103.208 243.842C102.86 244.604 102.38 245.187 101.769 245.591C101.167 245.986 100.481 246.183 99.7102 246.183ZM99.7102 244.928C100.5 244.928 101.13 244.604 101.6 243.955C102.079 243.306 102.319 242.366 102.319 241.134C102.319 239.903 102.079 238.963 101.6 238.314C101.13 237.665 100.5 237.341 99.7102 237.341C98.911 237.341 98.2717 237.665 97.7923 238.314C97.3222 238.963 97.0871 239.903 97.0871 241.134C97.0871 242.366 97.3222 243.306 97.7923 243.955C98.2717 244.604 98.911 244.928 99.7102 244.928ZM113.671 243.645H111.796V246.07H110.428V243.645H104.942V242.658L109.991 236.199H111.514L106.677 242.432H110.47V240.288H111.796V242.432H113.671V243.645Z" fill="#A0B3C6"/>
<path d="M128.71 246.183C127.93 246.183 127.234 245.986 126.623 245.591C126.021 245.187 125.547 244.604 125.199 243.842C124.851 243.081 124.677 242.178 124.677 241.134C124.677 240.091 124.851 239.188 125.199 238.427C125.547 237.665 126.021 237.087 126.623 236.692C127.234 236.288 127.93 236.086 128.71 236.086C129.481 236.086 130.167 236.288 130.769 236.692C131.38 237.087 131.86 237.665 132.208 238.427C132.555 239.188 132.729 240.091 132.729 241.134C132.729 242.178 132.555 243.081 132.208 243.842C131.86 244.604 131.38 245.187 130.769 245.591C130.167 245.986 129.481 246.183 128.71 246.183ZM128.71 244.928C129.5 244.928 130.13 244.604 130.6 243.955C131.079 243.306 131.319 242.366 131.319 241.134C131.319 239.903 131.079 238.963 130.6 238.314C130.13 237.665 129.5 237.341 128.71 237.341C127.911 237.341 127.272 237.665 126.792 238.314C126.322 238.963 126.087 239.903 126.087 241.134C126.087 242.366 126.322 243.306 126.792 243.955C127.272 244.604 127.911 244.928 128.71 244.928ZM136.904 240.133C138.314 240.133 139.348 240.401 140.006 240.937C140.674 241.464 141.007 242.187 141.007 243.109C141.007 243.692 140.866 244.218 140.584 244.688C140.312 245.149 139.893 245.516 139.329 245.788C138.774 246.052 138.088 246.183 137.27 246.183C136.574 246.183 135.902 246.08 135.254 245.873C134.605 245.657 134.069 245.36 133.646 244.984L134.295 243.87C134.633 244.19 135.066 244.449 135.592 244.646C136.118 244.834 136.673 244.928 137.256 244.928C137.999 244.928 138.572 244.773 138.977 244.463C139.39 244.143 139.597 243.711 139.597 243.165C139.597 242.573 139.371 242.126 138.92 241.826C138.469 241.515 137.698 241.36 136.607 241.36H134.365L134.887 236.199H140.457V237.426H136.071L135.804 240.133H136.904Z" fill="#A0B3C6"/>
<path d="M155.71 246.183C154.93 246.183 154.234 245.986 153.623 245.591C153.021 245.187 152.547 244.604 152.199 243.842C151.851 243.081 151.677 242.178 151.677 241.134C151.677 240.091 151.851 239.188 152.199 238.427C152.547 237.665 153.021 237.087 153.623 236.692C154.234 236.288 154.93 236.086 155.71 236.086C156.481 236.086 157.167 236.288 157.769 236.692C158.38 237.087 158.86 237.665 159.208 238.427C159.555 239.188 159.729 240.091 159.729 241.134C159.729 242.178 159.555 243.081 159.208 243.842C158.86 244.604 158.38 245.187 157.769 245.591C157.167 245.986 156.481 246.183 155.71 246.183ZM155.71 244.928C156.5 244.928 157.13 244.604 157.6 243.955C158.079 243.306 158.319 242.366 158.319 241.134C158.319 239.903 158.079 238.963 157.6 238.314C157.13 237.665 156.5 237.341 155.71 237.341C154.911 237.341 154.272 237.665 153.792 238.314C153.322 238.963 153.087 239.903 153.087 241.134C153.087 242.366 153.322 243.306 153.792 243.955C154.272 244.604 154.911 244.928 155.71 244.928ZM165.342 240.077C165.991 240.077 166.569 240.199 167.077 240.443C167.594 240.688 167.998 241.04 168.289 241.501C168.581 241.952 168.727 242.474 168.727 243.067C168.727 243.687 168.571 244.232 168.261 244.702C167.96 245.172 167.542 245.539 167.006 245.802C166.48 246.056 165.887 246.183 165.229 246.183C163.904 246.183 162.879 245.755 162.155 244.9C161.44 244.044 161.083 242.831 161.083 241.261C161.083 240.161 161.276 239.226 161.661 238.455C162.056 237.675 162.601 237.087 163.297 236.692C164.002 236.288 164.82 236.086 165.751 236.086C166.23 236.086 166.682 236.138 167.105 236.241C167.528 236.335 167.894 236.476 168.205 236.664L167.669 237.764C167.199 237.454 166.569 237.299 165.779 237.299C164.754 237.299 163.951 237.618 163.368 238.258C162.785 238.888 162.493 239.809 162.493 241.022C162.493 241.172 162.498 241.29 162.507 241.374C162.789 240.951 163.175 240.632 163.664 240.415C164.162 240.19 164.721 240.077 165.342 240.077ZM165.173 245.041C165.821 245.041 166.348 244.867 166.752 244.519C167.156 244.171 167.359 243.706 167.359 243.123C167.359 242.54 167.152 242.079 166.738 241.741C166.334 241.393 165.789 241.219 165.102 241.219C164.66 241.219 164.265 241.304 163.918 241.473C163.579 241.642 163.311 241.873 163.114 242.164C162.926 242.455 162.832 242.78 162.832 243.137C162.832 243.485 162.921 243.805 163.1 244.096C163.288 244.378 163.556 244.608 163.904 244.787C164.261 244.956 164.684 245.041 165.173 245.041Z" fill="#A0B3C6"/>
<path d="M183.71 246.183C182.93 246.183 182.234 245.986 181.623 245.591C181.021 245.187 180.547 244.604 180.199 243.842C179.851 243.081 179.677 242.178 179.677 241.134C179.677 240.091 179.851 239.188 180.199 238.427C180.547 237.665 181.021 237.087 181.623 236.692C182.234 236.288 182.93 236.086 183.71 236.086C184.481 236.086 185.167 236.288 185.769 236.692C186.38 237.087 186.86 237.665 187.208 238.427C187.555 239.188 187.729 240.091 187.729 241.134C187.729 242.178 187.555 243.081 187.208 243.842C186.86 244.604 186.38 245.187 185.769 245.591C185.167 245.986 184.481 246.183 183.71 246.183ZM183.71 244.928C184.5 244.928 185.13 244.604 185.6 243.955C186.079 243.306 186.319 242.366 186.319 241.134C186.319 239.903 186.079 238.963 185.6 238.314C185.13 237.665 184.5 237.341 183.71 237.341C182.911 237.341 182.272 237.665 181.792 238.314C181.322 238.963 181.087 239.903 181.087 241.134C181.087 242.366 181.322 243.306 181.792 243.955C182.272 244.604 182.911 244.928 183.71 244.928ZM196.179 236.199V237.158L192.188 246.07H190.693L194.599 237.426H190.087V239.188H188.733V236.199H196.179Z" fill="#A0B3C6"/>
<path d="M210.71 246.183C209.93 246.183 209.234 245.986 208.623 245.591C208.021 245.187 207.547 244.604 207.199 243.842C206.851 243.081 206.677 242.178 206.677 241.134C206.677 240.091 206.851 239.188 207.199 238.427C207.547 237.665 208.021 237.087 208.623 236.692C209.234 236.288 209.93 236.086 210.71 236.086C211.481 236.086 212.167 236.288 212.769 236.692C213.38 237.087 213.86 237.665 214.208 238.427C214.555 239.188 214.729 240.091 214.729 241.134C214.729 242.178 214.555 243.081 214.208 243.842C213.86 244.604 213.38 245.187 212.769 245.591C212.167 245.986 211.481 246.183 210.71 246.183ZM210.71 244.928C211.5 244.928 212.13 244.604 212.6 243.955C213.079 243.306 213.319 242.366 213.319 241.134C213.319 239.903 213.079 238.963 212.6 238.314C212.13 237.665 211.5 237.341 210.71 237.341C209.911 237.341 209.272 237.665 208.792 238.314C208.322 238.963 208.087 239.903 208.087 241.134C208.087 242.366 208.322 243.306 208.792 243.955C209.272 244.604 209.911 244.928 210.71 244.928ZM222.119 240.895C222.683 241.111 223.115 241.421 223.416 241.826C223.717 242.23 223.868 242.714 223.868 243.278C223.868 243.87 223.708 244.387 223.388 244.829C223.068 245.262 222.612 245.596 222.02 245.831C221.428 246.066 220.732 246.183 219.933 246.183C219.143 246.183 218.452 246.066 217.86 245.831C217.277 245.596 216.826 245.262 216.506 244.829C216.186 244.387 216.027 243.87 216.027 243.278C216.027 242.714 216.172 242.23 216.464 241.826C216.765 241.421 217.197 241.111 217.761 240.895C217.31 240.679 216.967 240.392 216.732 240.035C216.497 239.677 216.379 239.254 216.379 238.765C216.379 238.22 216.525 237.745 216.816 237.341C217.117 236.937 217.536 236.626 218.071 236.41C218.607 236.194 219.228 236.086 219.933 236.086C220.648 236.086 221.273 236.194 221.809 236.41C222.354 236.626 222.772 236.937 223.064 237.341C223.365 237.745 223.515 238.22 223.515 238.765C223.515 239.245 223.393 239.668 223.148 240.035C222.913 240.392 222.57 240.679 222.119 240.895ZM219.933 237.228C219.265 237.228 218.739 237.374 218.354 237.665C217.968 237.947 217.775 238.333 217.775 238.822C217.775 239.311 217.963 239.696 218.339 239.978C218.725 240.26 219.256 240.401 219.933 240.401C220.619 240.401 221.155 240.26 221.541 239.978C221.936 239.696 222.133 239.311 222.133 238.822C222.133 238.333 221.931 237.947 221.527 237.665C221.132 237.374 220.601 237.228 219.933 237.228ZM219.933 245.041C220.713 245.041 221.329 244.881 221.78 244.561C222.232 244.232 222.457 243.79 222.457 243.236C222.457 242.69 222.232 242.263 221.78 241.952C221.329 241.633 220.713 241.473 219.933 241.473C219.153 241.473 218.542 241.633 218.1 241.952C217.658 242.263 217.437 242.69 217.437 243.236C217.437 243.79 217.658 244.232 218.1 244.561C218.542 244.881 219.153 245.041 219.933 245.041Z" fill="#A0B3C6"/>
<path d="M237.71 246.183C236.93 246.183 236.234 245.986 235.623 245.591C235.021 245.187 234.547 244.604 234.199 243.842C233.851 243.081 233.677 242.178 233.677 241.134C233.677 240.091 233.851 239.188 234.199 238.427C234.547 237.665 235.021 237.087 235.623 236.692C236.234 236.288 236.93 236.086 237.71 236.086C238.481 236.086 239.167 236.288 239.769 236.692C240.38 237.087 240.86 237.665 241.208 238.427C241.555 239.188 241.729 240.091 241.729 241.134C241.729 242.178 241.555 243.081 241.208 243.842C240.86 244.604 240.38 245.187 239.769 245.591C239.167 245.986 238.481 246.183 237.71 246.183ZM237.71 244.928C238.5 244.928 239.13 244.604 239.6 243.955C240.079 243.306 240.319 242.366 240.319 241.134C240.319 239.903 240.079 238.963 239.6 238.314C239.13 237.665 238.5 237.341 237.71 237.341C236.911 237.341 236.272 237.665 235.792 238.314C235.322 238.963 235.087 239.903 235.087 241.134C235.087 242.366 235.322 243.306 235.792 243.955C236.272 244.604 236.911 244.928 237.71 244.928ZM246.284 236.086C247.61 236.086 248.63 236.514 249.344 237.369C250.068 238.225 250.43 239.438 250.43 241.008C250.43 242.108 250.233 243.048 249.838 243.828C249.453 244.599 248.907 245.187 248.202 245.591C247.506 245.986 246.693 246.183 245.763 246.183C245.283 246.183 244.832 246.136 244.409 246.042C243.986 245.939 243.619 245.793 243.309 245.605L243.845 244.505C244.324 244.815 244.959 244.97 245.748 244.97C246.773 244.97 247.572 244.655 248.146 244.025C248.729 243.386 249.02 242.46 249.02 241.247V240.895C248.738 241.318 248.348 241.642 247.85 241.868C247.351 242.084 246.792 242.192 246.171 242.192C245.523 242.192 244.94 242.07 244.423 241.826C243.915 241.581 243.516 241.233 243.224 240.782C242.942 240.321 242.801 239.795 242.801 239.202C242.801 238.582 242.951 238.037 243.252 237.567C243.563 237.097 243.981 236.735 244.507 236.481C245.034 236.217 245.626 236.086 246.284 236.086ZM246.411 241.05C246.853 241.05 247.248 240.965 247.596 240.796C247.944 240.627 248.212 240.396 248.4 240.105C248.597 239.814 248.696 239.489 248.696 239.132C248.696 238.784 248.602 238.469 248.414 238.187C248.235 237.896 247.967 237.665 247.61 237.496C247.262 237.317 246.839 237.228 246.341 237.228C245.692 237.228 245.166 237.402 244.761 237.75C244.366 238.098 244.169 238.563 244.169 239.146C244.169 239.729 244.371 240.194 244.775 240.542C245.18 240.881 245.725 241.05 246.411 241.05Z" fill="#A0B3C6"/>
<path d="M266.737 236.199V246.07H265.341V237.426H263.113V236.199H266.737ZM272.93 246.183C272.149 246.183 271.454 245.986 270.843 245.591C270.241 245.187 269.766 244.604 269.418 243.842C269.07 243.081 268.896 242.178 268.896 241.134C268.896 240.091 269.07 239.188 269.418 238.427C269.766 237.665 270.241 237.087 270.843 236.692C271.454 236.288 272.149 236.086 272.93 236.086C273.701 236.086 274.387 236.288 274.989 236.692C275.6 237.087 276.079 237.665 276.427 238.427C276.775 239.188 276.949 240.091 276.949 241.134C276.949 242.178 276.775 243.081 276.427 243.842C276.079 244.604 275.6 245.187 274.989 245.591C274.387 245.986 273.701 246.183 272.93 246.183ZM272.93 244.928C273.719 244.928 274.349 244.604 274.819 243.955C275.299 243.306 275.539 242.366 275.539 241.134C275.539 239.903 275.299 238.963 274.819 238.314C274.349 237.665 273.719 237.341 272.93 237.341C272.131 237.341 271.491 237.665 271.012 238.314C270.542 238.963 270.307 239.903 270.307 241.134C270.307 242.366 270.542 243.306 271.012 243.955C271.491 244.604 272.131 244.928 272.93 244.928Z" fill="#A0B3C6"/>
<path d="M295.737 236.199V246.07H294.341V237.426H292.113V236.199H295.737ZM300.957 236.199V246.07H299.561V237.426H297.332V236.199H300.957Z" fill="#A0B3C6"/>
<path d="M321.737 236.199V246.07H320.341V237.426H318.113V236.199H321.737ZM330.835 244.843V246.07H323.741V245.111L327.76 241.233C328.249 240.763 328.578 240.359 328.748 240.02C328.917 239.673 329.001 239.325 329.001 238.977C329.001 238.46 328.818 238.06 328.451 237.778C328.094 237.487 327.577 237.341 326.9 237.341C325.81 237.341 324.968 237.698 324.376 238.413L323.417 237.581C323.802 237.111 324.305 236.744 324.926 236.481C325.556 236.217 326.256 236.086 327.027 236.086C328.061 236.086 328.884 236.335 329.495 236.833C330.106 237.322 330.412 237.99 330.412 238.836C330.412 239.362 330.299 239.861 330.073 240.331C329.848 240.801 329.42 241.337 328.79 241.938L325.772 244.843H330.835Z" fill="#A0B3C6"/>
</svg>
