<svg viewBox="0 0 659 76" fill="none" xmlns="http://www.w3.org/2000/svg">
<path d="M282.332 30.0727V38.4727H279.5V32.2087H278.06V30.0727H282.332ZM291.512 37.0327H290.396V38.4727H287.648V37.0327H283.292V35.2327L286.856 30.0727H289.76L286.592 34.8367H287.732V33.5527H290.396V34.8367H291.512V37.0327ZM297.58 34.6327C296.924 34.6327 296.388 34.4247 295.972 34.0087C295.556 33.5927 295.348 33.0207 295.348 32.2927C295.348 31.8047 295.444 31.3847 295.636 31.0327C295.828 30.6807 296.092 30.4127 296.428 30.2287C296.772 30.0447 297.156 29.9527 297.58 29.9527C298.004 29.9527 298.384 30.0447 298.72 30.2287C299.064 30.4127 299.332 30.6807 299.524 31.0327C299.716 31.3847 299.812 31.8047 299.812 32.2927C299.812 33.0207 299.604 33.5927 299.188 34.0087C298.772 34.4247 298.236 34.6327 297.58 34.6327ZM302.512 30.0727H304.54L298.804 38.4727H296.776L302.512 30.0727ZM297.58 33.3367C297.732 33.3367 297.856 33.2567 297.952 33.0967C298.056 32.9287 298.108 32.6607 298.108 32.2927C298.108 31.9247 298.056 31.6607 297.952 31.5007C297.856 31.3327 297.732 31.2487 297.58 31.2487C297.428 31.2487 297.3 31.3327 297.196 31.5007C297.1 31.6607 297.052 31.9247 297.052 32.2927C297.052 32.6607 297.1 32.9287 297.196 33.0967C297.3 33.2567 297.428 33.3367 297.58 33.3367ZM303.736 38.5927C303.08 38.5927 302.544 38.3847 302.128 37.9687C301.712 37.5527 301.504 36.9807 301.504 36.2527C301.504 35.7647 301.6 35.3447 301.792 34.9927C301.984 34.6407 302.248 34.3727 302.584 34.1887C302.928 34.0047 303.312 33.9127 303.736 33.9127C304.16 33.9127 304.54 34.0047 304.876 34.1887C305.22 34.3727 305.488 34.6407 305.68 34.9927C305.872 35.3447 305.968 35.7647 305.968 36.2527C305.968 36.9807 305.76 37.5527 305.344 37.9687C304.928 38.3847 304.392 38.5927 303.736 38.5927ZM303.736 37.2967C303.888 37.2967 304.012 37.2167 304.108 37.0567C304.212 36.8887 304.264 36.6207 304.264 36.2527C304.264 35.8847 304.212 35.6207 304.108 35.4607C304.012 35.2927 303.888 35.2087 303.736 35.2087C303.584 35.2087 303.456 35.2927 303.352 35.4607C303.256 35.6207 303.208 35.8847 303.208 36.2527C303.208 36.6207 303.256 36.8887 303.352 37.0567C303.456 37.2167 303.584 37.2967 303.736 37.2967Z" fill="#4F6A84"/>
<path d="M205.78 58.5816C206.956 58.5816 207.82 58.8296 208.372 59.3256C208.932 59.8136 209.212 60.4576 209.212 61.2576C209.212 61.7856 209.072 62.2736 208.792 62.7216C208.52 63.1616 208.096 63.5216 207.52 63.8016C206.944 64.0736 206.228 64.2096 205.372 64.2096C204.78 64.2096 204.188 64.1456 203.596 64.0176C203.012 63.8896 202.5 63.7016 202.06 63.4536L203.02 61.3656C203.372 61.5656 203.74 61.7176 204.124 61.8216C204.516 61.9256 204.896 61.9776 205.264 61.9776C205.592 61.9776 205.856 61.9216 206.056 61.8096C206.264 61.6896 206.368 61.5256 206.368 61.3176C206.368 61.1176 206.276 60.9696 206.092 60.8736C205.908 60.7696 205.576 60.7176 205.096 60.7176H202.66L203.08 55.6176H208.66V57.7536H205.408L205.348 58.5816H205.78ZM215.451 60.1776C214.795 60.1776 214.259 59.9696 213.843 59.5536C213.427 59.1376 213.219 58.5656 213.219 57.8376C213.219 57.3496 213.315 56.9296 213.507 56.5776C213.699 56.2256 213.963 55.9576 214.299 55.7736C214.643 55.5896 215.027 55.4976 215.451 55.4976C215.875 55.4976 216.255 55.5896 216.591 55.7736C216.935 55.9576 217.203 56.2256 217.395 56.5776C217.587 56.9296 217.683 57.3496 217.683 57.8376C217.683 58.5656 217.475 59.1376 217.059 59.5536C216.643 59.9696 216.107 60.1776 215.451 60.1776ZM220.383 55.6176H222.411L216.675 64.0176H214.647L220.383 55.6176ZM215.451 58.8816C215.603 58.8816 215.727 58.8016 215.823 58.6416C215.927 58.4736 215.979 58.2056 215.979 57.8376C215.979 57.4696 215.927 57.2056 215.823 57.0456C215.727 56.8776 215.603 56.7936 215.451 56.7936C215.299 56.7936 215.171 56.8776 215.067 57.0456C214.971 57.2056 214.923 57.4696 214.923 57.8376C214.923 58.2056 214.971 58.4736 215.067 58.6416C215.171 58.8016 215.299 58.8816 215.451 58.8816ZM221.607 64.1376C220.951 64.1376 220.415 63.9296 219.999 63.5136C219.583 63.0976 219.375 62.5256 219.375 61.7976C219.375 61.3096 219.471 60.8896 219.663 60.5376C219.855 60.1856 220.119 59.9176 220.455 59.7336C220.799 59.5496 221.183 59.4576 221.607 59.4576C222.031 59.4576 222.411 59.5496 222.747 59.7336C223.091 59.9176 223.359 60.1856 223.551 60.5376C223.743 60.8896 223.839 61.3096 223.839 61.7976C223.839 62.5256 223.631 63.0976 223.215 63.5136C222.799 63.9296 222.263 64.1376 221.607 64.1376ZM221.607 62.8416C221.759 62.8416 221.883 62.7616 221.979 62.6016C222.083 62.4336 222.135 62.1656 222.135 61.7976C222.135 61.4296 222.083 61.1656 221.979 61.0056C221.883 60.8376 221.759 60.7536 221.607 60.7536C221.455 60.7536 221.327 60.8376 221.223 61.0056C221.127 61.1656 221.079 61.4296 221.079 61.7976C221.079 62.1656 221.127 62.4336 221.223 62.6016C221.327 62.7616 221.455 62.8416 221.607 62.8416Z" fill="#FFCC00"/>
<path d="M653.201 23.4822H178.799C175.761 23.4822 173 22.0178 173 20.0653C173 18.2755 175.485 16.6484 178.799 16.6484H653.201C656.239 16.6484 659 18.1128 659 20.0653C658.724 22.0178 656.239 23.4822 653.201 23.4822Z" fill="#C7DDF2"/>
<path d="M653.201 49.0252H178.799C175.761 49.0252 173 47.5608 173 45.6083C173 43.8185 175.485 42.1914 178.799 42.1914H653.201C656.239 42.1914 659 43.6558 659 45.6083C658.724 47.5608 656.239 49.0252 653.201 49.0252Z" fill="#C7DDF2"/>
<path d="M653.201 74.5701H178.799C175.761 74.5701 173 73.1057 173 71.1532C173 69.3634 175.485 67.7363 178.799 67.7363H653.201C656.239 67.7363 659 69.2007 659 71.1532C658.724 73.1057 656.239 74.5701 653.201 74.5701Z" fill="#C7DDF2"/>
<path d="M333.058 23.9001H176.714C174.769 23.9001 173 22.3462 173 20.2743C173 18.375 174.592 16.6484 176.714 16.6484H333.058C335.003 16.6484 336.772 18.2024 336.772 20.2743C336.772 22.3462 335.18 23.9001 333.058 23.9001Z" fill="#DB5472"/>
<path d="M1.248 13.0995H8.176V14.2835H2.576V17.3395H5.536C6.56 17.3395 7.37067 17.6488 7.968 18.2675C8.576 18.8862 8.88 19.6488 8.88 20.5555C8.88 21.4622 8.58133 22.2248 7.984 22.8435C7.38667 23.4622 6.57067 23.7715 5.536 23.7715H1.248V13.0995ZM5.376 18.5235H2.576V22.5875H5.376C6.00533 22.5875 6.51733 22.4008 6.912 22.0275C7.30667 21.6435 7.504 21.1528 7.504 20.5555C7.504 19.9582 7.30667 19.4728 6.912 19.0995C6.51733 18.7155 6.00533 18.5235 5.376 18.5235ZM16.7346 22.7955C16.0413 23.5742 15.1186 23.9635 13.9666 23.9635C12.8146 23.9635 11.8866 23.5742 11.1826 22.7955C10.4893 22.0168 10.1426 21.0515 10.1426 19.8995C10.1426 18.7475 10.4893 17.7875 11.1826 17.0195C11.8866 16.2408 12.8146 15.8515 13.9666 15.8515C15.1186 15.8515 16.0413 16.2408 16.7346 17.0195C17.4386 17.7875 17.7906 18.7475 17.7906 19.8995C17.7906 21.0515 17.4386 22.0168 16.7346 22.7955ZM12.0786 22.0275C12.548 22.6035 13.1773 22.8915 13.9666 22.8915C14.756 22.8915 15.38 22.6035 15.8386 22.0275C16.2973 21.4408 16.5266 20.7315 16.5266 19.8995C16.5266 19.0675 16.2973 18.3635 15.8386 17.7875C15.38 17.2115 14.756 16.9235 13.9666 16.9235C13.1773 16.9235 12.548 17.2168 12.0786 17.8035C11.62 18.3795 11.3906 19.0782 11.3906 19.8995C11.3906 20.7315 11.62 21.4408 12.0786 22.0275ZM18.8349 23.9635V22.9715C19.1975 22.9715 19.4962 22.7315 19.7309 22.2515C19.9655 21.7715 20.1575 20.9715 20.3069 19.8515L20.8029 16.0435H26.1789V23.7715H24.9789V17.0995H21.8589L21.5069 19.9955C21.3362 21.4142 21.0375 22.4328 20.6109 23.0515C20.1842 23.6595 19.5922 23.9635 18.8349 23.9635ZM32.063 23.9635C30.911 23.9635 29.967 23.5902 29.231 22.8435C28.495 22.0862 28.127 21.1048 28.127 19.8995C28.127 18.7688 28.4897 17.8142 29.215 17.0355C29.9403 16.2462 30.847 15.8515 31.935 15.8515C33.0763 15.8515 33.9777 16.2462 34.639 17.0355C35.311 17.8142 35.647 18.8008 35.647 19.9955V20.2995H29.391C29.4443 21.0568 29.7217 21.6915 30.223 22.2035C30.7243 22.7155 31.375 22.9715 32.175 22.9715C33.135 22.9715 33.9297 22.6462 34.559 21.9955L35.135 22.7795C34.3457 23.5688 33.3217 23.9635 32.063 23.9635ZM34.463 19.4195C34.4523 18.7582 34.2283 18.1662 33.791 17.6435C33.3537 17.1102 32.7297 16.8435 31.919 16.8435C31.151 16.8435 30.543 17.1048 30.095 17.6275C29.6577 18.1502 29.423 18.7475 29.391 19.4195H34.463ZM41.0786 23.9635C39.9266 23.9635 38.9826 23.5902 38.2466 22.8435C37.5106 22.0862 37.1426 21.1048 37.1426 19.8995C37.1426 18.7688 37.5053 17.8142 38.2306 17.0355C38.956 16.2462 39.8626 15.8515 40.9506 15.8515C42.092 15.8515 42.9933 16.2462 43.6546 17.0355C44.3266 17.8142 44.6626 18.8008 44.6626 19.9955V20.2995H38.4066C38.46 21.0568 38.7373 21.6915 39.2386 22.2035C39.74 22.7155 40.3906 22.9715 41.1906 22.9715C42.1506 22.9715 42.9453 22.6462 43.5746 21.9955L44.1506 22.7795C43.3613 23.5688 42.3373 23.9635 41.0786 23.9635ZM43.4786 19.4195C43.468 18.7582 43.244 18.1662 42.8066 17.6435C42.3693 17.1102 41.7453 16.8435 40.9346 16.8435C40.1666 16.8435 39.5586 17.1048 39.1106 17.6275C38.6733 18.1502 38.4386 18.7475 38.4066 19.4195H43.4786ZM52.9393 23.7715H51.4673L55.7713 14.2835H50.0273V13.0995H57.3073V14.0115L52.9393 23.7715ZM62.6616 23.9635C61.9576 23.9635 61.3336 23.8035 60.7896 23.4835C60.2563 23.1528 59.8296 22.7155 59.5096 22.1715C59.2003 21.6275 58.9656 21.0408 58.8056 20.4115C58.6563 19.7822 58.5816 19.1262 58.5816 18.4435C58.5816 17.7608 58.6563 17.1048 58.8056 16.4755C58.9656 15.8462 59.2003 15.2648 59.5096 14.7315C59.8296 14.1875 60.2563 13.7555 60.7896 13.4355C61.3336 13.1048 61.9576 12.9395 62.6616 12.9395C63.355 12.9395 63.9736 13.1048 64.5176 13.4355C65.0616 13.7555 65.4883 14.1875 65.7976 14.7315C66.1176 15.2648 66.3523 15.8462 66.5016 16.4755C66.6616 17.1048 66.7416 17.7608 66.7416 18.4435C66.7416 19.1262 66.6616 19.7822 66.5016 20.4115C66.3523 21.0408 66.1176 21.6275 65.7976 22.1715C65.4883 22.7155 65.0616 23.1528 64.5176 23.4835C63.9736 23.8035 63.355 23.9635 62.6616 23.9635ZM61.0616 22.1235C61.4883 22.5608 62.0216 22.7795 62.6616 22.7795C63.3016 22.7795 63.835 22.5608 64.2616 22.1235C64.6883 21.6755 64.9816 21.1422 65.1416 20.5235C65.3016 19.9048 65.3816 19.2115 65.3816 18.4435C65.3816 17.6755 65.3016 16.9822 65.1416 16.3635C64.9816 15.7448 64.6883 15.2168 64.2616 14.7795C63.835 14.3422 63.3016 14.1235 62.6616 14.1235C62.0216 14.1235 61.4883 14.3422 61.0616 14.7795C60.635 15.2168 60.3416 15.7448 60.1816 16.3635C60.0216 16.9822 59.9416 17.6755 59.9416 18.4435C59.9416 19.2115 60.0216 19.9048 60.1816 20.5235C60.3416 21.1422 60.635 21.6755 61.0616 22.1235Z" fill="#132041"/>
<path d="M311.064 7.85369C311.712 8.01369 312.208 8.30569 312.552 8.72969C312.904 9.14569 313.08 9.64969 313.08 10.2417C313.08 10.7457 312.94 11.2177 312.66 11.6577C312.388 12.0897 311.964 12.4417 311.388 12.7137C310.812 12.9857 310.096 13.1217 309.24 13.1217C308.648 13.1217 308.056 13.0577 307.464 12.9297C306.88 12.8017 306.368 12.6137 305.928 12.3657L306.888 10.2777C307.232 10.4777 307.6 10.6297 307.992 10.7337C308.392 10.8377 308.776 10.8897 309.144 10.8897C309.472 10.8897 309.736 10.8337 309.936 10.7217C310.136 10.6097 310.236 10.4497 310.236 10.2417C310.236 9.85769 309.904 9.66569 309.24 9.66569H308.124V7.92569L309.36 6.66569H306.36V4.52969H312.624V6.26969L311.064 7.85369ZM316.923 4.33769C317.731 4.33769 318.435 4.49369 319.035 4.80569C319.643 5.11769 320.115 5.58169 320.451 6.19769C320.787 6.81369 320.955 7.56969 320.955 8.46569C320.955 9.42569 320.759 10.2577 320.367 10.9617C319.983 11.6657 319.439 12.2017 318.735 12.5697C318.039 12.9377 317.227 13.1217 316.299 13.1217C315.795 13.1217 315.315 13.0617 314.859 12.9417C314.403 12.8297 314.015 12.6697 313.695 12.4617L314.715 10.4817C315.131 10.7777 315.639 10.9257 316.239 10.9257C316.727 10.9257 317.127 10.8057 317.439 10.5657C317.759 10.3177 317.967 9.96169 318.063 9.49769C317.623 9.80969 317.067 9.96569 316.395 9.96569C315.883 9.96569 315.407 9.85369 314.967 9.62969C314.527 9.40569 314.175 9.08969 313.911 8.68169C313.647 8.27369 313.515 7.80569 313.515 7.27769C313.515 6.69369 313.663 6.17769 313.959 5.72969C314.263 5.28169 314.675 4.93769 315.195 4.69769C315.715 4.45769 316.291 4.33769 316.923 4.33769ZM317.115 8.00969C317.371 8.00969 317.579 7.93369 317.739 7.78169C317.899 7.62169 317.979 7.40969 317.979 7.14569C317.979 6.88169 317.899 6.67369 317.739 6.52169C317.579 6.36969 317.371 6.29369 317.115 6.29369C316.859 6.29369 316.651 6.36969 316.491 6.52169C316.331 6.67369 316.251 6.88169 316.251 7.14569C316.251 7.40969 316.331 7.62169 316.491 7.78169C316.651 7.93369 316.859 8.00969 317.115 8.00969ZM327.326 9.08969C326.67 9.08969 326.134 8.88169 325.718 8.46569C325.302 8.04969 325.094 7.47769 325.094 6.74969C325.094 6.26169 325.19 5.84169 325.382 5.48969C325.574 5.13769 325.838 4.86969 326.174 4.68569C326.518 4.50169 326.902 4.40969 327.326 4.40969C327.75 4.40969 328.13 4.50169 328.466 4.68569C328.81 4.86969 329.078 5.13769 329.27 5.48969C329.462 5.84169 329.558 6.26169 329.558 6.74969C329.558 7.47769 329.35 8.04969 328.934 8.46569C328.518 8.88169 327.982 9.08969 327.326 9.08969ZM332.258 4.52969H334.286L328.55 12.9297H326.522L332.258 4.52969ZM327.326 7.79369C327.478 7.79369 327.602 7.71369 327.698 7.55369C327.802 7.38569 327.854 7.11769 327.854 6.74969C327.854 6.38169 327.802 6.11769 327.698 5.95769C327.602 5.78969 327.478 5.70569 327.326 5.70569C327.174 5.70569 327.046 5.78969 326.942 5.95769C326.846 6.11769 326.798 6.38169 326.798 6.74969C326.798 7.11769 326.846 7.38569 326.942 7.55369C327.046 7.71369 327.174 7.79369 327.326 7.79369ZM333.482 13.0497C332.826 13.0497 332.29 12.8417 331.874 12.4257C331.458 12.0097 331.25 11.4377 331.25 10.7097C331.25 10.2217 331.346 9.80169 331.538 9.44969C331.73 9.09769 331.994 8.82969 332.33 8.64569C332.674 8.46169 333.058 8.36969 333.482 8.36969C333.906 8.36969 334.286 8.46169 334.622 8.64569C334.966 8.82969 335.234 9.09769 335.426 9.44969C335.618 9.80169 335.714 10.2217 335.714 10.7097C335.714 11.4377 335.506 12.0097 335.09 12.4257C334.674 12.8417 334.138 13.0497 333.482 13.0497ZM333.482 11.7537C333.634 11.7537 333.758 11.6737 333.854 11.5137C333.958 11.3457 334.01 11.0777 334.01 10.7097C334.01 10.3417 333.958 10.0777 333.854 9.91769C333.758 9.74969 333.634 9.66569 333.482 9.66569C333.33 9.66569 333.202 9.74969 333.098 9.91769C333.002 10.0777 332.954 10.3417 332.954 10.7097C332.954 11.0777 333.002 11.3457 333.098 11.5137C333.202 11.6737 333.33 11.7537 333.482 11.7537Z" fill="#DB5472"/>
<path d="M1.248 61.2401H8.176V62.4241H2.576V65.4801H5.536C6.56 65.4801 7.37067 65.7894 7.968 66.4081C8.576 67.0268 8.88 67.7894 8.88 68.6961C8.88 69.6028 8.58133 70.3654 7.984 70.9841C7.38667 71.6028 6.57067 71.9121 5.536 71.9121H1.248V61.2401ZM5.376 66.6641H2.576V70.7281H5.376C6.00533 70.7281 6.51733 70.5414 6.912 70.1681C7.30667 69.7841 7.504 69.2934 7.504 68.6961C7.504 68.0988 7.30667 67.6134 6.912 67.2401C6.51733 66.8561 6.00533 66.6641 5.376 66.6641ZM16.7346 70.9361C16.0413 71.7148 15.1186 72.1041 13.9666 72.1041C12.8146 72.1041 11.8866 71.7148 11.1826 70.9361C10.4893 70.1574 10.1426 69.1921 10.1426 68.0401C10.1426 66.8881 10.4893 65.9281 11.1826 65.1601C11.8866 64.3814 12.8146 63.9921 13.9666 63.9921C15.1186 63.9921 16.0413 64.3814 16.7346 65.1601C17.4386 65.9281 17.7906 66.8881 17.7906 68.0401C17.7906 69.1921 17.4386 70.1574 16.7346 70.9361ZM12.0786 70.1681C12.548 70.7441 13.1773 71.0321 13.9666 71.0321C14.756 71.0321 15.38 70.7441 15.8386 70.1681C16.2973 69.5814 16.5266 68.8721 16.5266 68.0401C16.5266 67.2081 16.2973 66.5041 15.8386 65.9281C15.38 65.3521 14.756 65.0641 13.9666 65.0641C13.1773 65.0641 12.548 65.3574 12.0786 65.9441C11.62 66.5201 11.3906 67.2188 11.3906 68.0401C11.3906 68.8721 11.62 69.5814 12.0786 70.1681ZM18.8349 72.1041V71.1121C19.1975 71.1121 19.4962 70.8721 19.7309 70.3921C19.9655 69.9121 20.1575 69.1121 20.3069 67.9921L20.8029 64.1841H26.1789V71.9121H24.9789V65.2401H21.8589L21.5069 68.1361C21.3362 69.5548 21.0375 70.5734 20.6109 71.1921C20.1842 71.8001 19.5922 72.1041 18.8349 72.1041ZM32.063 72.1041C30.911 72.1041 29.967 71.7308 29.231 70.9841C28.495 70.2268 28.127 69.2454 28.127 68.0401C28.127 66.9094 28.4897 65.9548 29.215 65.1761C29.9403 64.3868 30.847 63.9921 31.935 63.9921C33.0763 63.9921 33.9777 64.3868 34.639 65.1761C35.311 65.9548 35.647 66.9414 35.647 68.1361V68.4401H29.391C29.4443 69.1974 29.7217 69.8321 30.223 70.3441C30.7243 70.8561 31.375 71.1121 32.175 71.1121C33.135 71.1121 33.9297 70.7868 34.559 70.1361L35.135 70.9201C34.3457 71.7094 33.3217 72.1041 32.063 72.1041ZM34.463 67.5601C34.4523 66.8988 34.2283 66.3068 33.791 65.7841C33.3537 65.2508 32.7297 64.9841 31.919 64.9841C31.151 64.9841 30.543 65.2454 30.095 65.7681C29.6577 66.2908 29.423 66.8881 29.391 67.5601H34.463ZM41.0786 72.1041C39.9266 72.1041 38.9826 71.7308 38.2466 70.9841C37.5106 70.2268 37.1426 69.2454 37.1426 68.0401C37.1426 66.9094 37.5053 65.9548 38.2306 65.1761C38.956 64.3868 39.8626 63.9921 40.9506 63.9921C42.092 63.9921 42.9933 64.3868 43.6546 65.1761C44.3266 65.9548 44.6626 66.9414 44.6626 68.1361V68.4401H38.4066C38.46 69.1974 38.7373 69.8321 39.2386 70.3441C39.74 70.8561 40.3906 71.1121 41.1906 71.1121C42.1506 71.1121 42.9453 70.7868 43.5746 70.1361L44.1506 70.9201C43.3613 71.7094 42.3373 72.1041 41.0786 72.1041ZM43.4786 67.5601C43.468 66.8988 43.244 66.3068 42.8066 65.7841C42.3693 65.2508 41.7453 64.9841 40.9346 64.9841C40.1666 64.9841 39.5586 65.2454 39.1106 65.7681C38.6733 66.2908 38.4386 66.8881 38.4066 67.5601H43.4786ZM53.7073 71.9121H52.3793V63.0001L50.6673 64.8081L49.8673 63.9921L52.5393 61.2401H53.7073V71.9121ZM63.1451 71.9121H55.8171V70.8561C56.9265 69.9814 57.7851 69.2881 58.3931 68.7761C59.0118 68.2534 59.6038 67.7041 60.1691 67.1281C60.7451 66.5414 61.1505 66.0241 61.3851 65.5761C61.6198 65.1174 61.7371 64.6641 61.7371 64.2161C61.7371 63.5761 61.5185 63.0908 61.0811 62.7601C60.6438 62.4294 60.1211 62.2641 59.5131 62.2641C58.2865 62.2641 57.3211 62.7121 56.6171 63.6081L55.8011 62.7601C56.2065 62.2268 56.7345 61.8161 57.3851 61.5281C58.0465 61.2294 58.7558 61.0801 59.5131 61.0801C60.4838 61.0801 61.3211 61.3521 62.0251 61.8961C62.7398 62.4401 63.0971 63.2134 63.0971 64.2161C63.0971 65.2081 62.6705 66.2001 61.8171 67.1921C60.9638 68.1734 59.6625 69.3521 57.9131 70.7281H63.1451V71.9121ZM69.2554 72.1041C68.5514 72.1041 67.9274 71.9441 67.3834 71.6241C66.85 71.2934 66.4234 70.8561 66.1034 70.3121C65.794 69.7681 65.5594 69.1814 65.3994 68.5521C65.25 67.9228 65.1754 67.2668 65.1754 66.5841C65.1754 65.9014 65.25 65.2454 65.3994 64.6161C65.5594 63.9868 65.794 63.4054 66.1034 62.8721C66.4234 62.3281 66.85 61.8961 67.3834 61.5761C67.9274 61.2454 68.5514 61.0801 69.2554 61.0801C69.9487 61.0801 70.5674 61.2454 71.1114 61.5761C71.6554 61.8961 72.082 62.3281 72.3914 62.8721C72.7114 63.4054 72.946 63.9868 73.0954 64.6161C73.2554 65.2454 73.3354 65.9014 73.3354 66.5841C73.3354 67.2668 73.2554 67.9228 73.0954 68.5521C72.946 69.1814 72.7114 69.7681 72.3914 70.3121C72.082 70.8561 71.6554 71.2934 71.1114 71.6241C70.5674 71.9441 69.9487 72.1041 69.2554 72.1041ZM67.6554 70.2641C68.082 70.7014 68.6154 70.9201 69.2554 70.9201C69.8954 70.9201 70.4287 70.7014 70.8554 70.2641C71.282 69.8161 71.5754 69.2828 71.7354 68.6641C71.8954 68.0454 71.9754 67.3521 71.9754 66.5841C71.9754 65.8161 71.8954 65.1228 71.7354 64.5041C71.5754 63.8854 71.282 63.3574 70.8554 62.9201C70.4287 62.4828 69.8954 62.2641 69.2554 62.2641C68.6154 62.2641 68.082 62.4828 67.6554 62.9201C67.2287 63.3574 66.9354 63.8854 66.7754 64.5041C66.6154 65.1228 66.5354 65.8161 66.5354 66.5841C66.5354 67.3521 66.6154 68.0454 66.7754 68.6641C66.9354 69.2828 67.2287 69.8161 67.6554 70.2641Z" fill="#132041"/>
<path d="M1.248 38.6425H8.176V39.8265H2.576V42.8825H5.536C6.56 42.8825 7.37067 43.1918 7.968 43.8105C8.576 44.4291 8.88 45.1918 8.88 46.0985C8.88 47.0051 8.58133 47.7678 7.984 48.3865C7.38667 49.0051 6.57067 49.3145 5.536 49.3145H1.248V38.6425ZM5.376 44.0665H2.576V48.1305H5.376C6.00533 48.1305 6.51733 47.9438 6.912 47.5705C7.30667 47.1865 7.504 46.6958 7.504 46.0985C7.504 45.5011 7.30667 45.0158 6.912 44.6425C6.51733 44.2585 6.00533 44.0665 5.376 44.0665ZM16.7346 48.3385C16.0413 49.1171 15.1186 49.5065 13.9666 49.5065C12.8146 49.5065 11.8866 49.1171 11.1826 48.3385C10.4893 47.5598 10.1426 46.5945 10.1426 45.4425C10.1426 44.2905 10.4893 43.3305 11.1826 42.5625C11.8866 41.7838 12.8146 41.3945 13.9666 41.3945C15.1186 41.3945 16.0413 41.7838 16.7346 42.5625C17.4386 43.3305 17.7906 44.2905 17.7906 45.4425C17.7906 46.5945 17.4386 47.5598 16.7346 48.3385ZM12.0786 47.5705C12.548 48.1465 13.1773 48.4345 13.9666 48.4345C14.756 48.4345 15.38 48.1465 15.8386 47.5705C16.2973 46.9838 16.5266 46.2745 16.5266 45.4425C16.5266 44.6105 16.2973 43.9065 15.8386 43.3305C15.38 42.7545 14.756 42.4665 13.9666 42.4665C13.1773 42.4665 12.548 42.7598 12.0786 43.3465C11.62 43.9225 11.3906 44.6211 11.3906 45.4425C11.3906 46.2745 11.62 46.9838 12.0786 47.5705ZM18.8349 49.5065V48.5145C19.1975 48.5145 19.4962 48.2745 19.7309 47.7945C19.9655 47.3145 20.1575 46.5145 20.3069 45.3945L20.8029 41.5865H26.1789V49.3145H24.9789V42.6425H21.8589L21.5069 45.5385C21.3362 46.9571 21.0375 47.9758 20.6109 48.5945C20.1842 49.2025 19.5922 49.5065 18.8349 49.5065ZM32.063 49.5065C30.911 49.5065 29.967 49.1331 29.231 48.3865C28.495 47.6291 28.127 46.6478 28.127 45.4425C28.127 44.3118 28.4897 43.3571 29.215 42.5785C29.9403 41.7891 30.847 41.3945 31.935 41.3945C33.0763 41.3945 33.9777 41.7891 34.639 42.5785C35.311 43.3571 35.647 44.3438 35.647 45.5385V45.8425H29.391C29.4443 46.5998 29.7217 47.2345 30.223 47.7465C30.7243 48.2585 31.375 48.5145 32.175 48.5145C33.135 48.5145 33.9297 48.1891 34.559 47.5385L35.135 48.3225C34.3457 49.1118 33.3217 49.5065 32.063 49.5065ZM34.463 44.9625C34.4523 44.3011 34.2283 43.7091 33.791 43.1865C33.3537 42.6531 32.7297 42.3865 31.919 42.3865C31.151 42.3865 30.543 42.6478 30.095 43.1705C29.6577 43.6931 29.423 44.2905 29.391 44.9625H34.463ZM41.0786 49.5065C39.9266 49.5065 38.9826 49.1331 38.2466 48.3865C37.5106 47.6291 37.1426 46.6478 37.1426 45.4425C37.1426 44.3118 37.5053 43.3571 38.2306 42.5785C38.956 41.7891 39.8626 41.3945 40.9506 41.3945C42.092 41.3945 42.9933 41.7891 43.6546 42.5785C44.3266 43.3571 44.6626 44.3438 44.6626 45.5385V45.8425H38.4066C38.46 46.5998 38.7373 47.2345 39.2386 47.7465C39.74 48.2585 40.3906 48.5145 41.1906 48.5145C42.1506 48.5145 42.9453 48.1891 43.5746 47.5385L44.1506 48.3225C43.3613 49.1118 42.3373 49.5065 41.0786 49.5065ZM43.4786 44.9625C43.468 44.3011 43.244 43.7091 42.8066 43.1865C42.3693 42.6531 41.7453 42.3865 40.9346 42.3865C40.1666 42.3865 39.5586 42.6478 39.1106 43.1705C38.6733 43.6931 38.4386 44.2905 38.4066 44.9625H43.4786ZM53.7073 49.3145H52.3793V40.4025L50.6673 42.2105L49.8673 41.3945L52.5393 38.6425H53.7073V49.3145ZM59.8491 49.5065C59.1451 49.5065 58.5211 49.3465 57.9771 49.0265C57.4438 48.6958 57.0171 48.2585 56.6971 47.7145C56.3878 47.1705 56.1531 46.5838 55.9931 45.9545C55.8438 45.3251 55.7691 44.6691 55.7691 43.9865C55.7691 43.3038 55.8438 42.6478 55.9931 42.0185C56.1531 41.3891 56.3878 40.8078 56.6971 40.2745C57.0171 39.7305 57.4438 39.2985 57.9771 38.9785C58.5211 38.6478 59.1451 38.4825 59.8491 38.4825C60.5425 38.4825 61.1611 38.6478 61.7051 38.9785C62.2491 39.2985 62.6758 39.7305 62.9851 40.2745C63.3051 40.8078 63.5398 41.3891 63.6891 42.0185C63.8491 42.6478 63.9291 43.3038 63.9291 43.9865C63.9291 44.6691 63.8491 45.3251 63.6891 45.9545C63.5398 46.5838 63.3051 47.1705 62.9851 47.7145C62.6758 48.2585 62.2491 48.6958 61.7051 49.0265C61.1611 49.3465 60.5425 49.5065 59.8491 49.5065ZM58.2491 47.6665C58.6758 48.1038 59.2091 48.3225 59.8491 48.3225C60.4891 48.3225 61.0225 48.1038 61.4491 47.6665C61.8758 47.2185 62.1691 46.6851 62.3291 46.0665C62.4891 45.4478 62.5691 44.7545 62.5691 43.9865C62.5691 43.2185 62.4891 42.5251 62.3291 41.9065C62.1691 41.2878 61.8758 40.7598 61.4491 40.3225C61.0225 39.8851 60.4891 39.6665 59.8491 39.6665C59.2091 39.6665 58.6758 39.8851 58.2491 40.3225C57.8225 40.7598 57.5291 41.2878 57.3691 41.9065C57.2091 42.5251 57.1291 43.2185 57.1291 43.9865C57.1291 44.7545 57.2091 45.4478 57.3691 46.0665C57.5291 46.6851 57.8225 47.2185 58.2491 47.6665ZM69.646 49.5065C68.942 49.5065 68.318 49.3465 67.774 49.0265C67.2407 48.6958 66.814 48.2585 66.494 47.7145C66.1847 47.1705 65.95 46.5838 65.79 45.9545C65.6407 45.3251 65.566 44.6691 65.566 43.9865C65.566 43.3038 65.6407 42.6478 65.79 42.0185C65.95 41.3891 66.1847 40.8078 66.494 40.2745C66.814 39.7305 67.2407 39.2985 67.774 38.9785C68.318 38.6478 68.942 38.4825 69.646 38.4825C70.3393 38.4825 70.958 38.6478 71.502 38.9785C72.046 39.2985 72.4727 39.7305 72.782 40.2745C73.102 40.8078 73.3367 41.3891 73.486 42.0185C73.646 42.6478 73.726 43.3038 73.726 43.9865C73.726 44.6691 73.646 45.3251 73.486 45.9545C73.3367 46.5838 73.102 47.1705 72.782 47.7145C72.4727 48.2585 72.046 48.6958 71.502 49.0265C70.958 49.3465 70.3393 49.5065 69.646 49.5065ZM68.046 47.6665C68.4727 48.1038 69.006 48.3225 69.646 48.3225C70.286 48.3225 70.8193 48.1038 71.246 47.6665C71.6727 47.2185 71.966 46.6851 72.126 46.0665C72.286 45.4478 72.366 44.7545 72.366 43.9865C72.366 43.2185 72.286 42.5251 72.126 41.9065C71.966 41.2878 71.6727 40.7598 71.246 40.3225C70.8193 39.8851 70.286 39.6665 69.646 39.6665C69.006 39.6665 68.4727 39.8851 68.046 40.3225C67.6193 40.7598 67.326 41.2878 67.166 41.9065C67.006 42.5251 66.926 43.2185 66.926 43.9865C66.926 44.7545 67.006 45.4478 67.166 46.0665C67.326 46.6851 67.6193 47.2185 68.046 47.6665Z" fill="#132041"/>
<path d="M162.782 20.447C162.782 22.5189 161.013 24.2455 158.891 24.2455C156.769 24.2455 155 22.5189 155 20.447C155 18.375 156.769 16.6484 158.891 16.6484C161.013 16.6484 162.782 18.375 162.782 20.447Z" fill="#C7DDF2"/>
<path d="M158.891 75.3333C161.04 75.3333 162.782 73.6326 162.782 71.5348C162.782 69.4369 161.04 67.7363 158.891 67.7363C156.742 67.7363 155 69.4369 155 71.5348C155 73.6326 156.742 75.3333 158.891 75.3333Z" fill="#C7DDF2"/>
<path d="M162.782 45.9899C162.782 48.0618 161.013 49.7884 158.891 49.7884C156.769 49.7884 155 48.0618 155 45.9899C155 43.918 156.769 42.1914 158.891 42.1914C161.013 42.1914 162.782 43.918 162.782 45.9899Z" fill="#C7DDF2"/>
<path d="M84 20.5781H148" stroke="#C7DDF2" stroke-width="1.61738" stroke-miterlimit="10" stroke-linecap="round" stroke-linejoin="round"/>
<path d="M84 72.6484H148" stroke="#C7DDF2" stroke-width="1.61738" stroke-miterlimit="10" stroke-linecap="round" stroke-linejoin="round"/>
<path d="M84 46.123H148" stroke="#C7DDF2" stroke-width="1.61738" stroke-miterlimit="10" stroke-linecap="round" stroke-linejoin="round"/>
<path d="M302.501 49.0252H176.5C174.667 49.0252 173 47.5608 173 45.6083C173 43.8185 174.5 42.1914 176.5 42.1914H302.501C304.334 42.1914 306.001 43.6557 306.001 45.6083C306.001 47.5608 304.501 49.0252 302.501 49.0252Z" fill="#4F6A84"/>
<path d="M221.5 74.5701H176.5C174.667 74.5701 173 73.1057 173 71.1532C173 69.3634 174.5 67.7363 176.5 67.7363H221.5C223.333 67.7363 225 69.0229 225 70.9754C225 72.9279 223.5 74.5701 221.5 74.5701Z" fill="#FFCC00"/>
</svg>
