<svg xmlns="http://www.w3.org/2000/svg" width="19" height="28" fill="none" viewBox="0 0 19 28">
  <g clip-path="url(#a)">
    <path fill="#fff" d="M.505 9.783a.989.989 0 0 0-.062 1.418.897.897 0 0 0 1.068.181.934.934 0 0 0 .3-.245L8.485 4.23v22.835a.98.98 0 0 0 .289.648c.173.17.402.265.64.265a.913.913 0 0 0 .64-.265.98.98 0 0 0 .289-.648V4.229l6.664 6.919c.176.174.41.271.653.271a.928.928 0 0 0 .653-.271.957.957 0 0 0 .272-.677.987.987 0 0 0-.272-.677l-8.255-8.558a.907.907 0 0 0-.653-.288.879.879 0 0 0-.653.288L.505 9.783Z"/>
  </g>
  <defs>
    <clipPath id="a">
      <path fill="#fff" d="M0 28V0h19v28z"/>
    </clipPath>
  </defs>
</svg>
