<svg width="83" height="82" viewBox="0 0 83 82" fill="none" xmlns="http://www.w3.org/2000/svg">
<rect width="83" height="82" rx="10" fill="#FFCC00"/>
<path d="M65.4375 58.1869H63.875V40.2181C63.875 39.1821 63.4634 38.1885 62.7309 37.456C61.9983 36.7234 61.0048 36.3119 59.9688 36.3119H50.6641C50.6641 36.3119 50.6641 36.2416 50.6641 36.2103C50.6641 35.9447 50.6641 35.6791 50.6094 35.4291L51.5 35.2806C51.6108 35.2616 51.7162 35.2188 51.809 35.1553C51.9018 35.0918 51.9798 35.009 52.0377 34.9126C52.0955 34.8162 52.1319 34.7084 52.1443 34.5966C52.1566 34.4849 52.1447 34.3717 52.1094 34.265L50.875 30.5306L57.125 28.4603C57.2756 28.4099 57.4072 28.3147 57.5023 28.1876C57.5974 28.0605 57.6516 27.9074 57.6575 27.7487C57.6635 27.5901 57.6209 27.4334 57.5355 27.2995C57.4502 27.1656 57.3261 27.0609 57.1797 26.9994L42.3359 20.7494C42.2395 20.7085 42.1359 20.6875 42.0313 20.6875C41.9266 20.6875 41.823 20.7085 41.7266 20.7494L26.8828 26.9994C26.7364 27.0609 26.6123 27.1656 26.527 27.2995C26.4416 27.4334 26.399 27.5901 26.405 27.7487C26.4109 27.9074 26.4651 28.0605 26.5602 28.1876C26.6553 28.3147 26.7869 28.4099 26.9375 28.4603L27.9687 28.8041V30.7103C27.5103 30.8724 27.1137 31.173 26.8337 31.5705C26.5538 31.9681 26.4044 32.4428 26.4062 32.9291V34.7494C26.4062 34.9566 26.4886 35.1553 26.6351 35.3018C26.7816 35.4483 26.9803 35.5306 27.1875 35.5306H30.3125C30.5197 35.5306 30.7184 35.4483 30.8649 35.3018C31.0114 35.1553 31.0938 34.9566 31.0938 34.7494V32.9291C31.0956 32.4428 30.9462 31.9681 30.6663 31.5705C30.3863 31.173 29.9897 30.8724 29.5313 30.7103V29.3197L33.1563 30.5306L31.9219 34.2416C31.8865 34.3483 31.8746 34.4614 31.887 34.5732C31.8994 34.6849 31.9357 34.7927 31.9936 34.8892C32.0514 34.9856 32.1294 35.0684 32.2222 35.1319C32.315 35.1954 32.4204 35.2381 32.5312 35.2572L33.2578 35.3744C33.2578 35.6478 33.2109 35.9291 33.2109 36.2025C33.2109 36.2025 33.2109 36.2728 33.2109 36.3041H24.0312C22.9952 36.3041 22.0017 36.7156 21.2691 37.4482C20.5366 38.1807 20.125 39.1743 20.125 40.2103V58.1869H18.5625C18.3553 58.1869 18.1566 58.2692 18.0101 58.4157C17.8636 58.5622 17.7812 58.7609 17.7812 58.9681V60.5306C17.7812 61.3594 18.1105 62.1543 18.6965 62.7403C19.2826 63.3264 20.0774 63.6556 20.9062 63.6556H63.0938C63.9226 63.6556 64.7174 63.3264 65.3035 62.7403C65.8895 62.1543 66.2188 61.3594 66.2188 60.5306V58.9681C66.2188 58.7609 66.1364 58.5622 65.9899 58.4157C65.8434 58.2692 65.6447 58.1869 65.4375 58.1869ZM29.5 33.9681H27.9375V32.9369C27.9279 32.8319 27.9415 32.726 27.9774 32.6269C28.0132 32.5277 28.0705 32.4377 28.145 32.3631C28.2196 32.2886 28.3096 32.2313 28.4088 32.1955C28.5079 32.1596 28.6138 32.146 28.7188 32.1556C28.8237 32.146 28.9296 32.1596 29.0287 32.1955C29.1279 32.2313 29.2179 32.2886 29.2925 32.3631C29.367 32.4377 29.4243 32.5277 29.4601 32.6269C29.496 32.726 29.5096 32.8319 29.5 32.9369V33.9681ZM50.5938 37.8744H59.9688C60.5904 37.8744 61.1865 38.1213 61.626 38.5608C62.0656 39.0004 62.3125 39.5965 62.3125 40.2181V58.1869H57.2344V56.8353C57.2344 51.0072 51.9141 49.3197 48.7422 48.304C48.0726 48.1087 47.4152 47.8739 46.7734 47.6009C46.4001 47.4421 46.0744 47.189 45.8281 46.8665C48.3281 44.9056 50.1094 41.3744 50.5938 37.8744ZM40.5781 58.1869L37.8828 55.5228L37.8281 55.4759L33.0938 50.7884C33.9453 50.4369 34.8203 50.1478 35.6172 49.89L36.1484 49.7181C37.0391 51.1556 38.7656 52.7181 42 52.7181C45.2344 52.7181 46.9766 51.1556 47.8906 49.6712L48.2656 49.7884C51.3906 50.7806 55.6719 52.1322 55.6719 56.8197V58.1869H40.5781ZM34.7969 54.6712C34.2358 54.8118 33.7247 55.1053 33.3206 55.5191C32.9164 55.9329 32.6351 56.4507 32.5078 57.015L28.3984 52.7181C28.2418 52.5757 28.1158 52.403 28.028 52.2104C27.9402 52.0178 27.8924 51.8094 27.8876 51.5978C27.8827 51.3862 27.921 51.1758 27.9999 50.9794C28.0788 50.783 28.1968 50.6047 28.3468 50.4553C28.4967 50.3059 28.6754 50.1885 28.8721 50.1103C29.0688 50.032 29.2793 49.9946 29.4909 50.0002C29.7025 50.0057 29.9107 50.0543 30.103 50.1428C30.2952 50.2312 30.4675 50.3579 30.6094 50.515L34.7969 54.6712ZM28.5469 55.1322L31.5 58.1869H28.3281V56.8353C28.3266 56.2605 28.4001 55.6879 28.5469 55.1322ZM34.0625 58.1869C33.9796 57.9155 33.9722 57.6267 34.041 57.3514C34.1098 57.0761 34.2523 56.8248 34.4531 56.6244C34.7503 56.331 35.1489 56.1633 35.5664 56.1561C35.9839 56.1488 36.3881 56.3025 36.6953 56.5853L38.3594 58.1869H34.0625ZM39.4375 47.7416C40.2282 48.1271 41.0976 48.3242 41.9772 48.3174C42.8569 48.3106 43.7231 48.1001 44.5078 47.7025C44.9139 48.2829 45.4702 48.742 46.1172 49.0306L46.3672 49.14C45.8679 49.8166 45.2058 50.3561 44.4423 50.7084C43.6789 51.0608 42.8388 51.2146 42 51.1556C41.1604 51.2145 40.3196 51.0598 39.556 50.706C38.7923 50.3522 38.1307 49.8107 37.6328 49.1322L37.9297 48.9994C38.5091 48.6819 39.0212 48.2546 39.4375 47.7416ZM33.6562 33.8666L34.8594 30.2494C35.3906 29.8197 37.6328 28.2416 42 28.2416C46.3672 28.2416 48.6094 29.8041 49.1406 30.2494L50.3438 33.8666L42 35.2572L33.6562 33.8666ZM42 22.3119L54.625 27.6322L50.3438 29.0619C50.3026 29.0816 50.2634 29.1051 50.2266 29.1322C49.6406 28.6166 47.1016 26.6791 42 26.6791C36.8984 26.6791 34.3594 28.6166 33.7734 29.1322C33.7363 29.1078 33.6971 29.0869 33.6562 29.0697L29.375 27.64L42 22.3119ZM41.875 36.8197H42.1328L49.0781 35.6634C49.0781 35.8431 49.0781 36.0228 49.0781 36.2025C49.0781 40.9759 45.875 46.7494 41.8906 46.7494C37.9063 46.7494 34.7344 40.9994 34.7344 36.2103C34.7344 36.0228 34.7344 35.8275 34.7344 35.64L41.875 36.8197ZM21.6875 40.2181C21.6875 39.5965 21.9344 39.0004 22.374 38.5608C22.8135 38.1213 23.4096 37.8744 24.0312 37.8744H33.2891C33.7344 41.4134 35.5469 45.015 38.0859 46.9212C37.8279 47.1988 37.5272 47.4335 37.1953 47.6166C36.5183 47.9234 35.8214 48.1844 35.1094 48.3978C33.998 48.7308 32.9075 49.1299 31.8438 49.5931L31.6719 49.4212C31.2334 48.9973 30.6805 48.7109 30.0813 48.5974C29.482 48.4839 28.8627 48.5483 28.2996 48.7825C27.7365 49.0167 27.2542 49.4106 26.9122 49.9155C26.5702 50.4205 26.3835 51.0145 26.375 51.6244C26.3743 52.4496 26.7001 53.2416 27.2812 53.8275L27.3203 53.8744C26.9435 54.8156 26.7551 55.8215 26.7656 56.8353V58.1869H21.6875V40.2181ZM64.6562 60.5306C64.6562 60.945 64.4916 61.3424 64.1986 61.6355C63.9056 61.9285 63.5082 62.0931 63.0938 62.0931H20.9062C20.4918 62.0931 20.0944 61.9285 19.8014 61.6355C19.5084 61.3424 19.3438 60.945 19.3438 60.5306V59.7494H64.6562V60.5306Z" fill="white"/>
<path d="M53.7188 41.7812H56.0625C56.2697 41.7812 56.4684 41.6989 56.6149 41.5524C56.7614 41.4059 56.8438 41.2072 56.8438 41C56.8438 40.7928 56.7614 40.5941 56.6149 40.4476C56.4684 40.3011 56.2697 40.2188 56.0625 40.2188H53.7188C53.5115 40.2188 53.3128 40.3011 53.1663 40.4476C53.0198 40.5941 52.9375 40.7928 52.9375 41C52.9375 41.2072 53.0198 41.4059 53.1663 41.5524C53.3128 41.6989 53.5115 41.7812 53.7188 41.7812Z" fill="white"/>
<path d="M53.7188 44.9062H58.4062C58.6135 44.9062 58.8122 44.8239 58.9587 44.6774C59.1052 44.5309 59.1875 44.3322 59.1875 44.125C59.1875 43.9178 59.1052 43.7191 58.9587 43.5726C58.8122 43.4261 58.6135 43.3438 58.4062 43.3438H53.7188C53.5115 43.3438 53.3128 43.4261 53.1663 43.5726C53.0198 43.7191 52.9375 43.9178 52.9375 44.125C52.9375 44.3322 53.0198 44.5309 53.1663 44.6774C53.3128 44.8239 53.5115 44.9062 53.7188 44.9062Z" fill="white"/>
</svg>
