<svg width="84" height="82" viewBox="0 0 84 82" fill="none" xmlns="http://www.w3.org/2000/svg">
<rect width="83.2128" height="82" rx="10" fill="#A0B3C6"/>
<path fill-rule="evenodd" clip-rule="evenodd" d="M41.1473 16C41.4829 16 41.7775 16.1655 41.8916 16.4507L48.4399 32.649L66.0257 34.0283H66.0374C66.7368 34.0283 67.0026 34.9815 66.3945 35.3464L66.3729 35.3594L53.087 46.7472L57.2248 63.8158L57.2288 63.8278C57.3511 64.1946 57.2067 64.4841 56.9456 64.6531C56.6727 64.8296 56.2856 64.8613 55.9654 64.6704L41.1482 55.3666L26.1611 64.669L26.1594 64.67C25.855 64.8517 25.5227 64.7943 25.2882 64.6068C25.0511 64.4171 24.9475 64.1248 25.0597 63.8443L25.0677 63.8244L29.2079 46.746L15.7698 35.3753C15.5011 35.1448 15.3869 34.9489 15.3487 34.8031C15.3125 34.665 15.3374 34.547 15.4034 34.4414C15.5494 34.2078 15.9088 34.0283 16.2571 34.0283H16.269L33.6824 32.649L40.4015 16.4543L40.403 16.4507C40.517 16.1655 40.8117 16 41.1473 16ZM27.046 62.1556L40.6105 53.767C40.7299 53.7101 40.8904 53.6762 41.0621 53.6762C41.2338 53.6762 41.3943 53.7101 41.5136 53.767L55.0805 62.1571L51.3352 46.8193C51.3353 46.5706 51.338 46.3595 51.372 46.1896C51.4073 46.013 51.462 45.9544 51.5103 45.9303L51.542 45.9144L63.8937 35.5319L47.8077 34.2807H47.796C47.7241 34.2807 47.6207 34.2423 47.5011 34.1398C47.3877 34.0426 47.2857 33.9089 47.2167 33.7741L41.1473 18.9575L35.0778 33.7741C34.9369 34.0498 34.6827 34.2807 34.3281 34.2807H34.3163L18.409 35.5319L30.5811 45.9139L30.6138 45.9303C30.697 45.9719 30.7805 46.069 30.8256 46.2043C30.8707 46.3396 30.8622 46.4675 30.8206 46.5507L30.8053 46.5812L27.046 62.1556Z" fill="white"/>
</svg>
