<svg width="84" height="82" viewBox="0 0 84 82" fill="none" xmlns="http://www.w3.org/2000/svg">
<rect width="83.2128" height="82" rx="10" fill="#132041"/>
<path fill-rule="evenodd" clip-rule="evenodd" d="M35.5864 42.8085L33.2264 42.8079C32.6789 42.8079 32.2347 43.2519 32.2347 43.7986C32.2347 44.3452 32.6788 44.7892 33.2264 44.7892H35.5864V50.6266C35.5864 51.1732 36.0306 51.6172 36.5782 51.6172C37.1257 51.6172 37.5699 51.1732 37.5699 50.6266V44.7892H45.4918C46.0394 44.7892 46.4836 44.3452 46.4836 43.7986C46.4836 43.2519 46.0394 42.8079 45.4918 42.8079H37.5699V40.9564H44.3465C47.3735 40.9564 49.8353 38.4965 49.8353 35.4727C49.8353 32.4489 47.373 29.9895 44.3465 29.9895H36.5782C36.0306 29.9895 35.5864 30.4336 35.5864 30.9802V38.9756H33.2264C32.6788 38.9756 32.2347 39.4197 32.2347 39.9663C32.2347 40.513 32.6788 40.957 33.2264 40.957H35.5864V42.8085ZM44.3465 31.9709H37.5699V38.9756H44.3465C46.2796 38.9756 47.8519 37.405 47.8519 35.4733C47.8519 33.5415 46.2796 31.9709 44.3465 31.9709Z" fill="white"/>
<path d="M50.5471 62.671C50.7443 63.1815 50.4891 63.7551 49.9785 63.9512C40.8978 67.4428 30.4487 65.3034 23.481 58.3424C14.4723 49.343 13.8527 34.9978 21.6673 25.2819L21.929 24.9566H18.1782C17.6306 24.9566 17.1864 24.5125 17.1864 23.9659C17.1864 23.4193 17.6306 22.9752 18.1782 22.9752H24.1846C24.7321 22.9752 25.1763 23.4193 25.1763 23.9659V29.9676C25.1763 30.5142 24.7321 30.9583 24.1846 30.9583C23.637 30.9583 23.1928 30.5142 23.1928 29.9676V26.5458L22.8336 27.0187C16.0525 35.9446 16.7453 48.8109 24.8828 56.9418C31.2663 63.3191 40.8361 65.3442 49.2651 62.1028C49.7755 61.9065 50.3503 62.1611 50.5471 62.671Z" fill="white"/>
<path d="M31.526 18.9372C31.3288 18.4267 31.584 17.8532 32.0947 17.657C41.2552 14.1329 51.6549 16.3347 58.5927 23.2658C67.5865 32.2522 68.2127 46.6188 60.404 56.3263L60.1423 56.6516H63.8955C64.4431 56.6516 64.8873 57.0957 64.8873 57.6423C64.8873 58.1889 64.4431 58.633 63.8955 58.633H57.8885C57.341 58.633 56.8968 58.1889 56.8968 57.6423V51.6406C56.8968 51.094 57.341 50.65 57.8885 50.65C58.4361 50.65 58.8803 51.094 58.8803 51.6406V55.0642L59.2395 54.5913C66.0159 45.6713 65.3159 32.7854 57.1903 24.6664C50.8068 18.2891 41.237 16.2641 32.808 19.5054C32.2969 19.7017 31.7222 19.4468 31.526 18.9372Z" fill="white"/>
</svg>
