<?xml version="1.0" encoding="UTF-8"?>
<svg width="150px" height="119px" viewBox="0 0 150 119" version="1.1" xmlns="http://www.w3.org/2000/svg" xmlns:xlink="http://www.w3.org/1999/xlink">
    <title>Combined-Shape</title>
    <g id="Page-1" stroke="none" stroke-width="1" fill="none" fill-rule="evenodd">
        <g id="desktop" transform="translate(-1117.000000, -1227.000000)" fill="#FFFFFF" fill-rule="nonzero">
            <g id="logo" transform="translate(1117.000000, 1227.000000)">
                <path d="M136.738929,26.8467857 L131.6475,16.0853572 L128.696786,9.43178571 L125.861786,16.0853572 L118.224643,33.0375 L136.738929,26.8467857 Z M107.463215,40.3853572 L124.183929,1.0425 L132.341786,1.0425 L149.8725,40.3853572 L143.218929,40.3853572 L139.573929,32.8060715 L114.926786,40.3853572 L107.463215,40.3853572 Z M107.521072,26.4417857 C105.728572,35.7567857 98.5532143,41.1375 88.9489286,41.1375 C76.6253572,41.1375 68.3517857,32.6903572 68.3517857,20.3667857 C68.3517857,8.39035714 76.5675,0 88.5439286,0 C95.5446429,0 101.503929,3.0675 105.091072,8.3325 L100.0575,13.5396429 C97.3382143,9.72107143 93.3460715,7.58035714 88.5439286,7.58035714 C80.5596429,7.58035714 75.2946429,13.0767857 75.2946429,21.2346429 C75.2946429,29.3925 80.5017857,34.9467857 88.8332143,34.9467857 C94.7346429,34.9467857 99.0160715,31.8803572 100.4625,26.4417857 L107.521072,26.4417857 Z M55.1603572,34.8889286 C53.3089286,39.0546429 49.26,40.9639286 44.1096429,40.9639286 C36.0675,40.9639286 29.7032143,36.2775 29.7032143,26.1525 L29.7032143,1.0425 L36.6460715,1.0425 L36.6460715,24.9375 C36.6460715,31.5910715 40.0596429,34.8310715 45.5560715,34.8310715 C51.1114286,34.8310715 54.7553572,31.5332143 54.7553572,24.9375 L54.7553572,1.0425 L61.6982143,1.0425 L61.6982143,40.3853572 L55.1603572,40.3853572 L55.1603572,34.8889286 Z M26.5210715,40.3853572 L1.29535714,40.3853572 L1.29535714,1.0425 L8.23821428,1.0425 L8.23821428,34.3103572 L26.5210715,34.3103572 L26.5210715,40.3853572 Z M0.253928571,53.5767857 L0.253928571,47.7910715 L27.9096429,47.7910715 L27.9096429,53.5767857 L0.253928571,53.5767857 Z M0.599464285,72.2868215 L3.30160714,72.2868215 C3.31660714,72.6714643 3.39910714,73.0378929 3.54910714,73.3818215 C3.69910714,73.7278929 3.91232143,74.0353929 4.19089286,74.30325 C4.46839286,74.57325 4.81767857,74.7821786 5.23767857,74.9311072 C5.65875,75.0800357 6.13875,75.1539643 6.67982143,75.1539643 C7.14053571,75.1539643 7.54982143,75.1014643 7.90875,74.9953929 C8.26660714,74.8903929 8.56982143,74.7446786 8.81839286,74.5593215 C9.06696428,74.3728929 9.25125,74.1489643 9.37232143,73.8864643 C9.49232143,73.6250357 9.55339286,73.3443215 9.55339286,73.0453929 C9.55339286,72.7903929 9.50410714,72.55575 9.40446428,72.3403929 C9.30482143,72.1261072 9.13660714,71.9225357 8.89767857,71.7286072 C8.65767857,71.53575 8.32339286,71.3578929 7.89375,71.1939643 C7.46410714,71.0300357 6.92517857,70.8714643 6.27910714,70.71825 C5.36946428,70.4139643 4.57017857,70.1471786 3.88232143,69.9178929 C3.19553571,69.6886072 2.63946428,69.3800357 2.21410714,68.99325 C1.78982143,68.6053929 1.47482143,68.1671786 1.26910714,67.6775357 C1.06446428,67.1868215 0.961607142,66.6328929 0.961607142,66.0136072 C0.961607142,65.3718215 1.08696428,64.7803929 1.33660714,64.2371786 C1.58625,63.6939643 1.94839286,63.2203929 2.42196428,62.8164643 C2.89660714,62.4114643 3.46767857,62.0964643 4.13625,61.8703929 C4.80482143,61.6443215 5.54732143,61.53075 6.36160714,61.53075 C6.93160714,61.53075 7.47482143,61.5918215 7.98910714,61.71075 C8.50339286,61.8318215 8.99303571,62.0043215 9.45696428,62.2293215 C9.92089286,62.4543215 10.3516072,62.7339643 10.7501786,63.0693215 C11.1476786,63.4036072 11.5033929,63.7775357 11.8183929,64.1921786 L10.5155357,66.6393215 C10.2455357,66.3103929 9.94982143,66.01575 9.62839286,65.7553929 C9.30696428,65.4961072 8.95767857,65.2721786 8.58160714,65.08575 C8.20553571,64.89825 7.81660714,64.75575 7.41482143,64.6561072 C7.01196428,64.5586072 6.60375,64.50825 6.18696428,64.50825 C5.78410714,64.50825 5.42410714,64.5500357 5.10696428,64.6346786 C4.78875,64.71825 4.52196428,64.8350357 4.30553571,64.9861072 C4.09017857,65.1361072 3.92946428,65.3203929 3.82339286,65.5368215 C3.71732143,65.7543215 3.66482143,65.9921786 3.66482143,66.2503929 C3.66482143,66.49575 3.71089286,66.7100357 3.80517857,66.8953929 C3.89946428,67.0818215 4.06767857,67.2596786 4.31089286,67.4311072 C4.55410714,67.6025357 4.90125,67.7525357 5.35125,67.8811072 C5.80017857,68.0086072 6.35625,68.1671786 7.01732143,68.3568215 C7.99660714,68.5603929 8.81946428,68.8068215 9.48375,69.0950357 C10.1480357,69.38325 10.6794643,69.7164643 11.0791072,70.0946786 C11.47875,70.4728929 11.7669643,70.8961072 11.9448215,71.3611072 C12.1226786,71.8271786 12.2116072,72.3553929 12.2116072,72.94575 C12.2116072,73.6528929 12.0819643,74.2893215 11.8226786,74.8561072 C11.5633929,75.4228929 11.1873215,75.90075 10.6944643,76.29075 C10.2016072,76.68075 9.60696428,76.9828929 8.90946428,77.1961072 C8.21196428,77.4093215 7.43625,77.5164643 6.58125,77.5164643 C5.57732143,77.5164643 4.69553571,77.3771786 3.93696428,77.0986072 C3.17839286,76.8200357 2.55160714,76.4386072 2.05660714,75.9500357 C1.56160714,75.4636072 1.19517857,74.9053929 0.95625,74.2753929 C0.718392857,73.6453929 0.599464285,72.9821786 0.599464285,72.2868215 Z M13.8170357,69.4638215 C13.8170357,68.3045357 14.0034643,67.2438215 14.3773929,66.2784643 C14.7513215,65.3141786 15.29025,64.4741786 15.9973929,63.7595357 C16.7045357,63.0438215 17.5381072,62.4941786 18.4970357,62.1084643 C19.4570357,61.7238215 20.5145357,61.5309643 21.67275,61.5309643 C22.3456072,61.5309643 22.9938215,61.60275 23.6163215,61.7463215 C24.2398929,61.8909643 24.8270357,62.1020357 25.3798929,62.38275 C25.93275,62.6623929 26.4384643,63.0073929 26.8959643,63.4166786 C27.3534643,63.8259643 27.75525,64.2856072 28.0991786,64.7934643 L26.1438215,66.8216786 C25.87275,66.4488215 25.5759643,66.1198929 25.2534643,65.8348929 C24.9320357,65.5498929 24.5838215,65.3088215 24.2098929,65.1116786 C23.8370357,64.9134643 23.4363215,64.7645357 23.0066786,64.6616786 C22.5791786,64.5598929 22.1334643,64.5084643 21.67275,64.5084643 C20.9109643,64.5084643 20.2091786,64.6348929 19.5684643,64.8866786 C18.92775,65.1384643 18.3781072,65.4973929 17.9206072,65.9613215 C17.4620357,66.42525 17.1148929,66.98775 16.8759643,67.6498929 C16.6381072,68.3109643 16.5191786,69.0288215 16.5191786,69.8034643 C16.5191786,70.6006072 16.6381072,71.3238215 16.8759643,71.9741786 C17.1148929,72.6256072 17.4663215,73.1859643 17.9313215,73.6573929 C18.3963215,74.1288215 18.9545357,74.4909643 19.6070357,74.74275 C20.2584643,74.9956072 20.9838215,75.1209643 21.7820357,75.1209643 C22.3531072,75.1209643 22.8823929,75.0513215 23.3698929,74.9120357 C23.8563215,74.7738215 24.2945357,74.5606072 24.6823929,74.2756072 C25.07025,73.9895357 25.4034643,73.64025 25.6820357,73.2256072 C25.9606072,72.8120357 26.16525,72.3416786 26.2970357,71.8145357 L29.0441786,71.8145357 C28.8759643,72.7156072 28.5791786,73.5191786 28.1538215,74.2263215 C27.7295357,74.9323929 27.2023929,75.5334643 26.5723929,76.0273929 C25.9423929,76.5213215 25.2256072,76.8973929 24.4241786,77.1534643 C23.6216786,77.4106072 22.7559643,77.5381072 21.8259643,77.5381072 C20.6398929,77.5381072 19.5556072,77.3431072 18.5741786,76.9509643 C17.59275,76.5598929 16.7441786,76.0059643 16.0306072,75.2891786 C15.3159643,74.5723929 14.7695357,73.7184643 14.3881072,72.7273929 C14.00775,71.7373929 13.8170357,70.6488215 13.8170357,69.4638215 Z M31.1649643,77.2416429 L31.1649643,61.9373572 L33.8671072,61.9373572 L33.8671072,68.4195 L41.0199643,68.4195 L41.0199643,61.9373572 L43.7221072,61.9373572 L43.7221072,77.2416429 L41.0199643,77.2416429 L41.0199643,70.8366429 L33.8671072,70.8366429 L33.8671072,77.2416429 L31.1649643,77.2416429 Z M49.0068215,69.8038929 C49.0068215,70.5785357 49.1289643,71.2974643 49.3753929,71.9585357 C49.6196786,72.6196072 49.9711072,73.1863929 50.4296786,73.6578215 C50.8871786,74.12925 51.4389643,74.4913929 52.0828929,74.7431786 C52.7278929,74.9949643 53.4339643,75.1213929 54.20325,75.1213929 C54.9650357,75.1213929 55.6678929,74.9949643 56.3128929,74.7431786 C56.9568215,74.4913929 57.5118215,74.12925 57.9768215,73.6578215 C58.4418215,73.1863929 58.7996786,72.62175 59.04825,71.9638929 C59.2968215,71.3060357 59.4221786,70.5785357 59.4221786,69.7813929 C59.4221786,69.00675 59.2968215,68.2931786 59.04825,67.6385357 C58.7996786,66.9849643 58.4418215,66.4256786 57.9768215,65.96175 C57.5118215,65.49675 56.9568215,65.1388929 56.3128929,64.8871072 C55.6678929,64.63425 54.9650357,64.5088929 54.20325,64.5088929 C53.4414643,64.5088929 52.7364643,64.63425 52.08825,64.8871072 C51.4400357,65.1388929 50.8871786,65.5010357 50.4296786,65.9724643 C49.9711072,66.4438929 49.6196786,67.0063929 49.3753929,67.6610357 C49.1289643,68.3146072 49.0068215,69.02925 49.0068215,69.8038929 Z M46.3046786,69.46425 C46.3046786,68.3049643 46.4943215,67.2431786 46.87575,66.2788929 C47.2561072,65.3146072 47.8003929,64.4746072 48.5064643,63.7588929 C49.2136072,63.04425 50.0503929,62.4935357 51.0168215,62.1088929 C51.9843215,61.7231786 53.0461072,61.5313929 54.20325,61.5313929 C55.3443215,61.5313929 56.40075,61.7231786 57.3736072,62.1088929 C58.3464643,62.4935357 59.1843215,63.04425 59.8861072,63.7588929 C60.5889643,64.4746072 61.1289643,65.31675 61.5093215,66.28425 C61.8896786,67.2528215 62.0803929,68.3124643 62.0803929,69.46425 C62.0803929,70.64925 61.8896786,71.73675 61.5093215,72.7278215 C61.1289643,73.7188929 60.5889643,74.5728215 59.8861072,75.2896072 C59.1843215,76.0063929 58.3486072,76.5603215 57.3789643,76.9513929 C56.4103929,77.3424643 55.3518215,77.5385357 54.20325,77.5385357 C53.0611072,77.5385357 52.0025357,77.3424643 51.0286072,76.9513929 C50.0546786,76.5603215 49.2136072,76.0063929 48.5064643,75.2896072 C47.8003929,74.5728215 47.2561072,73.7188929 46.87575,72.7278215 C46.4943215,71.73675 46.3046786,70.64925 46.3046786,69.46425 Z M66.4640357,69.8038929 C66.4640357,70.5785357 66.5861786,71.2974643 66.8326072,71.9585357 C67.0768929,72.6196072 67.4283215,73.1863929 67.8868929,73.6578215 C68.3443929,74.12925 68.8961786,74.4913929 69.5401072,74.7431786 C70.1851072,74.9949643 70.8911786,75.1213929 71.6604643,75.1213929 C72.42225,75.1213929 73.1251072,74.9949643 73.7701072,74.7431786 C74.4140357,74.4913929 74.9690357,74.12925 75.4340357,73.6578215 C75.8990357,73.1863929 76.2568929,72.62175 76.5054643,71.9638929 C76.7540357,71.3060357 76.8793929,70.5785357 76.8793929,69.7813929 C76.8793929,69.00675 76.7540357,68.2931786 76.5054643,67.6385357 C76.2568929,66.9849643 75.8990357,66.4256786 75.4340357,65.96175 C74.9690357,65.49675 74.4140357,65.1388929 73.7701072,64.8871072 C73.1251072,64.63425 72.42225,64.5088929 71.6604643,64.5088929 C70.8986786,64.5088929 70.1936786,64.63425 69.5454643,64.8871072 C68.89725,65.1388929 68.3443929,65.5010357 67.8868929,65.9724643 C67.4283215,66.4438929 67.0768929,67.0063929 66.8326072,67.6610357 C66.5861786,68.3146072 66.4640357,69.02925 66.4640357,69.8038929 Z M63.7618929,69.46425 C63.7618929,68.3049643 63.9515357,67.2431786 64.3329643,66.2788929 C64.7133215,65.3146072 65.2576072,64.4746072 65.9636786,63.7588929 C66.6708215,63.04425 67.5076072,62.4935357 68.4740357,62.1088929 C69.4415357,61.7231786 70.5033215,61.5313929 71.6604643,61.5313929 C72.8015357,61.5313929 73.8579643,61.7231786 74.8308215,62.1088929 C75.8036786,62.4935357 76.6415357,63.04425 77.3433215,63.7588929 C78.0461786,64.4746072 78.5861786,65.31675 78.9665357,66.28425 C79.3468929,67.2528215 79.5376072,68.3124643 79.5376072,69.46425 C79.5376072,70.64925 79.3468929,71.73675 78.9665357,72.7278215 C78.5861786,73.7188929 78.0461786,74.5728215 77.3433215,75.2896072 C76.6415357,76.0063929 75.8058215,76.5603215 74.8361786,76.9513929 C73.8676072,77.3424643 72.8090357,77.5385357 71.6604643,77.5385357 C70.5183215,77.5385357 69.45975,77.3424643 68.4858215,76.9513929 C67.5118929,76.5603215 66.6708215,76.0063929 65.9636786,75.2896072 C65.2576072,74.5728215 64.7133215,73.7188929 64.3329643,72.7278215 C63.9515357,71.73675 63.7618929,70.64925 63.7618929,69.46425 Z M82.1416072,77.2416429 L82.1416072,61.9373572 L84.84375,61.9373572 L84.84375,74.8791429 L91.9526786,74.8791429 L91.9526786,77.2416429 L82.1416072,77.2416429 Z M3.357,90.1668215 C3.357,90.9414643 3.47914286,91.6603929 3.72557143,92.3214643 C3.96985714,92.9825357 4.32128571,93.5493215 4.77985714,94.02075 C5.23735714,94.4921786 5.78914286,94.8543215 6.43307143,95.1061072 C7.07807143,95.3578929 7.78414286,95.4843215 8.55342857,95.4843215 C9.31521428,95.4843215 10.0180715,95.3578929 10.6630715,95.1061072 C11.307,94.8543215 11.862,94.4921786 12.327,94.02075 C12.792,93.5493215 13.1498572,92.9846786 13.3984286,92.3268215 C13.647,91.6689643 13.7723572,90.9414643 13.7723572,90.1443215 C13.7723572,89.3696786 13.647,88.6561072 13.3984286,88.0014643 C13.1498572,87.3478929 12.792,86.7886072 12.327,86.3246786 C11.862,85.8596786 11.307,85.5018215 10.6630715,85.2500357 C10.0180715,84.9971786 9.31521428,84.8718215 8.55342857,84.8718215 C7.79164286,84.8718215 7.08664286,84.9971786 6.43842857,85.2500357 C5.79021428,85.5018215 5.23735714,85.8639643 4.77985714,86.3353929 C4.32128571,86.8068215 3.96985714,87.3693215 3.72557143,88.0239643 C3.47914286,88.6775357 3.357,89.3921786 3.357,90.1668215 Z M0.654857142,89.8271786 C0.654857142,88.6678929 0.8445,87.6061072 1.22592857,86.6418215 C1.60628571,85.6775357 2.15057143,84.8375357 2.85664286,84.1218215 C3.56378571,83.4071786 4.40057143,82.8564643 5.367,82.4718215 C6.3345,82.0861072 7.39628571,81.8943215 8.55342857,81.8943215 C9.6945,81.8943215 10.7509286,82.0861072 11.7237857,82.4718215 C12.6966429,82.8564643 13.5345,83.4071786 14.2362857,84.1218215 C14.9391429,84.8375357 15.4791429,85.6796786 15.8595,86.6471786 C16.2398572,87.61575 16.4305715,88.6753929 16.4305715,89.8271786 C16.4305715,91.0121786 16.2398572,92.0996786 15.8595,93.09075 C15.4791429,94.0818215 14.9391429,94.93575 14.2362857,95.6525357 C13.5345,96.3693215 12.6987857,96.92325 11.7291429,97.3143215 C10.7605715,97.7053929 9.702,97.9014643 8.55342857,97.9014643 C7.41128571,97.9014643 6.35271428,97.7053929 5.37878571,97.3143215 C4.40485714,96.92325 3.56378571,96.3693215 2.85664286,95.6525357 C2.15057143,94.93575 1.60628571,94.0818215 1.22592857,93.09075 C0.8445,92.0996786 0.654857142,91.0121786 0.654857142,89.8271786 Z M19.0345715,97.6045715 L19.0345715,82.3002857 L29.2517143,82.3002857 L29.2517143,85.2777857 L21.7367143,85.2777857 L21.7367143,89.2988572 L27.7795715,89.2988572 L27.7795715,91.6613572 L21.7367143,91.6613572 L21.7367143,97.6045715 L19.0345715,97.6045715 Z M5.30892857,112.275429 L10.6178572,112.275429 L8.99785714,108.519 L7.98535714,105.954 L6.95035714,108.519 L5.30892857,112.275429 Z M9.51535714,102.670072 L15.5892857,117.966858 L13.0478572,117.966858 L11.6292857,114.637929 L4.29642857,114.637929 L2.85642857,117.966858 L0,117.966858 L6.18535714,102.670072 L9.51535714,102.670072 Z M20.2938215,110.363358 L23.1063215,110.363358 C24.90525,110.363358 25.89525,109.598358 25.89525,108.045858 C25.89525,106.471929 24.90525,105.639429 23.1063215,105.639429 L20.2938215,105.639429 L20.2938215,110.363358 Z M24.52275,112.320858 L29.0666786,117.967286 L26.07525,117.967286 L21.3513215,112.590858 L20.2938215,112.590858 L20.2938215,117.967286 L17.5938215,117.967286 L17.5938215,102.669429 L23.0163215,102.669429 C26.43525,102.669429 28.57275,104.739429 28.57275,107.820858 C28.57275,110.475858 26.95275,111.960858 24.52275,112.320858 Z M37.4381786,105.549215 L37.4381786,117.967072 L34.7381786,117.967072 L34.7381786,105.549215 L30.19425,105.549215 L30.19425,102.669215 L41.9371072,102.669215 L41.9371072,105.549215 L37.4381786,105.549215 Z M43.1019643,113.012036 L45.8041072,113.012036 C45.8191072,113.396679 45.9016072,113.763108 46.0516072,114.107036 C46.2016072,114.453108 46.4148215,114.760608 46.6933929,115.028465 C46.9708929,115.298465 47.3201786,115.507393 47.7401786,115.656322 C48.16125,115.80525 48.64125,115.879179 49.1823215,115.879179 C49.6430357,115.879179 50.0523215,115.826679 50.41125,115.720608 C50.7691072,115.615608 51.0723215,115.469893 51.3208929,115.284536 C51.5694643,115.098108 51.75375,114.874179 51.8748215,114.611679 C51.9948215,114.35025 52.0558929,114.069536 52.0558929,113.770608 C52.0558929,113.515608 52.0066072,113.280965 51.9069643,113.065608 C51.8073215,112.851322 51.6391072,112.64775 51.4001786,112.453822 C51.1601786,112.260965 50.8258929,112.083108 50.39625,111.919179 C49.9666072,111.75525 49.4276786,111.596679 48.7816072,111.443465 C47.8719643,111.139179 47.0726786,110.872393 46.3848215,110.643108 C45.6980357,110.413822 45.1419643,110.10525 44.7166072,109.718465 C44.2923215,109.330608 43.9773215,108.892393 43.7716072,108.40275 C43.5669643,107.912036 43.4641072,107.358108 43.4641072,106.738822 C43.4641072,106.097036 43.5894643,105.505608 43.8391072,104.962393 C44.08875,104.419179 44.4508929,103.945608 44.9244643,103.541679 C45.3991072,103.136679 45.9701786,102.821679 46.63875,102.595608 C47.3073215,102.369536 48.0498215,102.255965 48.8641072,102.255965 C49.4341072,102.255965 49.9773215,102.317036 50.4916072,102.435965 C51.0058929,102.557036 51.4955357,102.729536 51.9594643,102.954536 C52.4233929,103.179536 52.8541072,103.459179 53.2526786,103.794536 C53.6501786,104.128822 54.0058929,104.50275 54.3208929,104.917393 L53.0180357,107.364536 C52.7480357,107.035608 52.4523215,106.740965 52.1308929,106.480608 C51.8094643,106.221322 51.4601786,105.997393 51.0841072,105.810965 C50.7080357,105.623465 50.3191072,105.480965 49.9173215,105.381322 C49.5144643,105.283822 49.10625,105.233465 48.6894643,105.233465 C48.2866072,105.233465 47.9266072,105.27525 47.6094643,105.359893 C47.29125,105.443465 47.0244643,105.56025 46.8080357,105.711322 C46.5926786,105.861322 46.4319643,106.045608 46.3258929,106.262036 C46.2198215,106.479536 46.1673215,106.717393 46.1673215,106.975608 C46.1673215,107.220965 46.2133929,107.43525 46.3076786,107.620608 C46.4019643,107.807036 46.5701786,107.984893 46.8133929,108.156322 C47.0566072,108.32775 47.40375,108.47775 47.85375,108.606322 C48.3026786,108.733822 48.85875,108.892393 49.5198215,109.082036 C50.4991072,109.285608 51.3219643,109.532036 51.98625,109.82025 C52.6505357,110.108465 53.1819643,110.441679 53.5816072,110.819893 C53.98125,111.198108 54.2694643,111.621322 54.4473215,112.086322 C54.6251786,112.552393 54.7141072,113.080608 54.7141072,113.670965 C54.7141072,114.378108 54.5844643,115.014536 54.3251786,115.581322 C54.0658929,116.148108 53.6898215,116.625965 53.1969643,117.015965 C52.7041072,117.405965 52.1094643,117.708108 51.4119643,117.921322 C50.7144643,118.134536 49.93875,118.241679 49.08375,118.241679 C48.0798215,118.241679 47.1980357,118.102393 46.4394643,117.823822 C45.6808929,117.54525 45.0541072,117.163822 44.5591072,116.67525 C44.0641072,116.188822 43.6976786,115.630608 43.45875,115.000608 C43.2208929,114.370608 43.1019643,113.707393 43.1019643,113.012036 Z" id="Combined-Shape"></path>
            </g>
        </g>
    </g>
</svg>