<svg xmlns="http://www.w3.org/2000/svg" xmlns:xlink="http://www.w3.org/1999/xlink" viewBox="0 0 98.61 93.99"><defs><style>.cls-1{fill:none;}.cls-2{clip-path:url(#clip-path);}.cls-3{fill:#99c7da;}.cls-4{fill:#243242;}</style><clipPath id="clip-path" transform="translate(-0.63 -0.54)"><rect class="cls-1" width="99.94" height="95.07"/></clipPath></defs><g id="Layer_2" data-name="Layer 2"><g id="Home_Screen" data-name="Home Screen"><g id="Header"><g id="LOGO_NEU" data-name="LOGO NEU"><g class="cls-2"><rect class="cls-3" x="16.73" y="14.31" width="66.46" height="66.46" transform="translate(-19.61 48.71) rotate(-45)"/><g class="cls-2"><path d="M41.88,33.27l.08-.05a17.25,17.25,0,0,1,8-1.71,17.23,17.23,0,0,1,8,1.71l.09.05.05.08a20.66,20.66,0,0,1,2.12,3.7l16.66-4.4S68.53,28.92,50,20.46C31.46,28.92,23.13,32.65,23.13,32.65L39.72,37a19.85,19.85,0,0,1,2.1-3.68Z" transform="translate(-0.63 -0.54)"/><path d="M42.42,33.91A16.55,16.55,0,0,1,50,32.32a16.6,16.6,0,0,1,7.54,1.59,22.81,22.81,0,0,1,3.89,10.33C59.08,42.81,55.7,41.33,50,41.33c-6.47,0-9.35,1.51-11.49,2.9a22.78,22.78,0,0,1,3.9-10.32" transform="translate(-0.63 -0.54)"/><path d="M38.79,45c2.06-1.35,4.8-2.87,11.22-2.87,5.61,0,8.88,1.47,11.1,2.88-2.28,1.13-7.28,1.74-11.15,1.74S41.07,46.16,38.79,45" transform="translate(-0.63 -0.54)"/><path d="M71.78,45.83v-11l-1.22.31V45.83c-2.57,2.58-1.14,5.1-1.14,5.1h.3V50.5h.71v.43h.34v-.44h.81v.44h.32v-.44h.73v.44h.3s1.43-2.53-1.15-5.1" transform="translate(-0.63 -0.54)"/><path class="cls-4" d="M85.58,73.41h.66c2.28,0,.94,8,5.65,8,2.25,0,3.52-2,3.52-4.67,0-6.79-9.74-4.78-9.74-13.73,0-4.25,2.79-7.68,6.1-7.68,2.34,0,3.19,1.39,3.83,1.39a.84.84,0,0,0,.82-.58h1.39v8H96.9c-2,0-1.21-6.83-4.77-6.83-1.58,0-2.64,1.35-2.64,3.28,0,6,9.75,4.47,9.75,13.54,0,3.93-2.13,9.26-7.2,9.26-2.49,0-3.85-1.31-4.31-1.31a.58.58,0,0,0-.58.54H85.58Z" transform="translate(-0.63 -0.54)"/><path class="cls-4" d="M73.43,55.82V57c0,1.12-1.4,0-1.4,2.16V74.49c0,4.06.61,6.49,3.89,6.49s4-2,4-5.83v-16c0-2.16-1.4-1-1.4-2.16v-1.2h4.92V57c0,1.12-1.4,0-1.4,2.16v16c0,5.71-2.15,8.22-7.59,8.22-5,0-7.07-2.82-7.07-7.91V59.18c0-2.16-1.4-1-1.4-2.16v-1.2Z" transform="translate(-0.63 -0.54)"/><path class="cls-4" d="M52.66,59.18c0-2.16-1.39-1-1.39-2.16v-1.2h7.62c4.25,0,6.28,2.7,6.28,7.49s-2,7.48-6.28,7.48H57.1v8.68c0,2.16,1.39,1,1.39,2.16v1.2H51.27v-1.2c0-1.12,1.39,0,1.39-2.16Zm4.44,9.6c1.67,0,3.52,0,3.52-5.47s-1.85-5.48-3.52-5.48Z" transform="translate(-0.63 -0.54)"/><path class="cls-4" d="M47.14,77.43c-.27,1.62-.85,3.39-4,3.39H40.22V69.9h1.15c2.92,0,1.34,2.82,2.92,2.82h.85V64.93h-.85c-1.58,0,0,2.81-2.92,2.81H40.22V57.83h2.7c4.19,0,2.25,5.44,4.43,5.44h.73V55.82H34.39V57c0,1.12,1.39,0,1.39,2.16V79.47c0,2.16-1.39,1-1.39,2.16v1.2H49.2v-8.1h-.72c-1.16,0-1.16,1.58-1.34,2.7" transform="translate(-0.63 -0.54)"/><path class="cls-4" d="M30.26,77.43c-.27,1.62-.85,3.39-4,3.39H23.34V69.9h1.15c2.91,0,1.34,2.82,2.91,2.82h.85V64.93H27.4c-1.57,0,0,2.81-2.91,2.81H23.34V57.83H26c4.19,0,2.25,5.44,4.43,5.44h.73V55.82H17.51V57c0,1.12,1.39,0,1.39,2.16V79.47c0,2.16-1.39,1-1.39,2.16v1.2H32.32v-8.1h-.73c-1.15,0-1.15,1.58-1.33,2.7" transform="translate(-0.63 -0.54)"/><path class="cls-4" d="M15,65.16h-.88c-1.79,0-.79-7.87-4.41-7.87-3.31,0-4.16,5.75-4.16,11.57C5.54,75.23,6.39,81,9.73,81s3.77-4.71,3.95-6.56l1.76,1.43c-.54,4.74-2.61,7.52-5.71,7.52-6.25,0-9.1-6.87-9.1-14s2.85-14,8.13-14.08c2.52,0,3.92,1.93,4.31,1.93s.55-.46.64-.77H15Z" transform="translate(-0.63 -0.54)"/></g></g></g></g></g></g></svg>